<svg width="343" height="257" viewBox="0 0 343 257" fill="none" xmlns="http://www.w3.org/2000/svg">
<path fill-rule="evenodd" clip-rule="evenodd" d="M25.6013 257C25.6013 257 -22.0269 200.119 12.6425 139.569C43.4034 85.8441 77.489 73.8054 103.802 95.6074C115.008 104.893 133.499 125.584 161.001 70.9169C198.503 -3.63422 322.015 70.9189 306.913 143.993C295.441 199.498 341.822 201.516 318.19 257H25.6013Z" fill="#5496FF"/>
<path fill-rule="evenodd" clip-rule="evenodd" d="M25.6013 257C25.6013 257 -22.0269 200.119 12.6425 139.569C43.4034 85.8441 77.489 73.8054 103.802 95.6074C115.008 104.893 133.499 125.584 161.001 70.9169C198.503 -3.63422 322.015 70.9189 306.913 143.993C295.441 199.498 341.822 201.516 318.19 257H25.6013Z" fill="url(#paint0_linear_14378_45286)"/>
<path fill-rule="evenodd" clip-rule="evenodd" d="M133.027 138.747C133.027 138.747 109.332 105.019 100.072 109.391C90.8116 113.764 133.027 138.747 133.027 138.747Z" fill="#FFDF40"/>
<path fill-rule="evenodd" clip-rule="evenodd" d="M133.027 138.747C133.027 138.747 109.332 105.019 100.072 109.391C90.8116 113.764 133.027 138.747 133.027 138.747Z" fill="url(#paint1_linear_14378_45286)"/>
<path fill-rule="evenodd" clip-rule="evenodd" d="M111.486 208.731C111.486 208.731 113.764 197.447 104.918 196.029C104.918 196.029 98.9192 195.818 95.3869 198.081C95.3869 198.081 105.419 203.873 104.226 205.673C103.033 207.473 93.5127 198.413 93.5127 198.413C93.5127 198.413 82.7583 203.123 80.3581 206.536C80.3581 206.536 93.0664 208.799 91.4671 210.25C89.8676 211.702 76.5341 209.959 76.5341 209.959C76.5341 209.959 67.942 216.88 71.6842 222.389C75.4264 227.899 79.6973 227.859 81.0492 226.901C82.4012 225.944 89.0187 218.034 89.8602 219.11C90.7017 220.186 87.7896 226.864 84.3447 229.026C84.3447 229.026 95.1632 232.669 98.4218 228.052C101.68 223.436 100.173 219.847 102.239 217.03C104.304 214.214 106.674 212.895 106.25 214.827C105.827 216.758 101.51 220.818 101.491 224.509C101.472 228.2 101.106 230.888 105.322 227.624C109.538 224.359 115.139 216.811 113.312 212.772C111.486 208.731 111.486 208.731 111.486 208.731Z" fill="#AFF57A"/>
<path fill-rule="evenodd" clip-rule="evenodd" d="M111.486 208.731C111.486 208.731 113.764 197.447 104.918 196.029C104.918 196.029 98.9192 195.818 95.3869 198.081C95.3869 198.081 105.419 203.873 104.226 205.673C103.033 207.473 93.5127 198.413 93.5127 198.413C93.5127 198.413 82.7583 203.123 80.3581 206.536C80.3581 206.536 93.0664 208.799 91.4671 210.25C89.8676 211.702 76.5341 209.959 76.5341 209.959C76.5341 209.959 67.942 216.88 71.6842 222.389C75.4264 227.899 79.6973 227.859 81.0492 226.901C82.4012 225.944 89.0187 218.034 89.8602 219.11C90.7017 220.186 87.7896 226.864 84.3447 229.026C84.3447 229.026 95.1632 232.669 98.4218 228.052C101.68 223.436 100.173 219.847 102.239 217.03C104.304 214.214 106.674 212.895 106.25 214.827C105.827 216.758 101.51 220.818 101.491 224.509C101.472 228.2 101.106 230.888 105.322 227.624C109.538 224.359 115.139 216.811 113.312 212.772C111.486 208.731 111.486 208.731 111.486 208.731Z" fill="url(#paint2_linear_14378_45286)"/>
<path fill-rule="evenodd" clip-rule="evenodd" d="M76.4375 219.939C76.4375 219.939 101.671 204.538 111.487 208.731C111.487 208.731 114.854 211.799 120.649 213.069L122.173 214.378C122.173 214.378 115.071 212.163 113.313 212.772C113.313 212.772 110.709 202.237 76.4375 219.939Z" fill="#82B378"/>
<path fill-rule="evenodd" clip-rule="evenodd" d="M119.211 175.802C119.211 175.802 137.534 165.541 128.983 151.615C128.983 151.615 122.142 143.064 114.813 140.865C114.813 140.865 118.722 161.632 114.813 162.12C110.904 162.609 112.126 138.666 112.126 138.666C112.126 138.666 92.8249 129.383 85.2513 130.115C85.2513 130.115 97.2227 150.393 93.3135 149.905C89.4046 149.416 75.9674 128.894 75.9674 128.894C75.9674 128.894 56.1781 125.228 53.002 136.956C49.826 148.683 54.9565 154.547 57.8883 155.279C60.82 156.012 79.6321 155.768 79.1435 158.211C78.6549 160.654 65.9505 164.563 58.8655 162.365C58.8655 162.365 66.6836 181.665 76.9447 180.688C87.2058 179.711 90.3818 173.359 96.7339 172.87C103.086 172.381 107.728 174.091 104.552 175.802C101.376 177.512 90.6261 176.361 85.4956 180.723C80.365 185.085 76.2118 187.773 85.7399 189.727C95.268 191.682 112.37 190.46 115.79 183.131C119.211 175.802 119.211 175.802 119.211 175.802Z" fill="#FFDF40"/>
<path fill-rule="evenodd" clip-rule="evenodd" d="M119.211 175.802C119.211 175.802 137.534 165.541 128.983 151.615C128.983 151.615 122.142 143.064 114.813 140.865C114.813 140.865 118.722 161.632 114.813 162.12C110.904 162.609 112.126 138.666 112.126 138.666C112.126 138.666 92.8249 129.383 85.2513 130.115C85.2513 130.115 97.2227 150.393 93.3135 149.905C89.4046 149.416 75.9674 128.894 75.9674 128.894C75.9674 128.894 56.1781 125.228 53.002 136.956C49.826 148.683 54.9565 154.547 57.8883 155.279C60.82 156.012 79.6321 155.768 79.1435 158.211C78.6549 160.654 65.9505 164.563 58.8655 162.365C58.8655 162.365 66.6836 181.665 76.9447 180.688C87.2058 179.711 90.3818 173.359 96.7339 172.87C103.086 172.381 107.728 174.091 104.552 175.802C101.376 177.512 90.6261 176.361 85.4956 180.723C80.365 185.085 76.2118 187.773 85.7399 189.727C95.268 191.682 112.37 190.46 115.79 183.131C119.211 175.802 119.211 175.802 119.211 175.802Z" fill="url(#paint3_linear_14378_45286)"/>
<path fill-rule="evenodd" clip-rule="evenodd" d="M62.041 140.625C62.041 140.625 113.347 157.238 119.21 175.806C119.21 175.806 118.966 184.112 124.096 193.641V197.305C124.096 197.305 118.722 184.845 115.79 183.135C115.79 183.135 127.272 167.011 62.041 140.625Z" fill="#FF7C6E"/>
<path fill-rule="evenodd" clip-rule="evenodd" d="M62.041 140.625C62.041 140.625 113.347 157.238 119.21 175.806C119.21 175.806 118.966 184.112 124.096 193.641V197.305C124.096 197.305 118.722 184.845 115.79 183.135C115.79 183.135 127.272 167.011 62.041 140.625Z" fill="url(#paint4_linear_14378_45286)"/>
<path fill-rule="evenodd" clip-rule="evenodd" d="M203.929 125.975C203.929 125.975 193.901 115.507 202.354 108.038C202.354 108.038 208.594 103.771 213.875 103.797C213.875 103.797 207.108 116.719 209.59 117.829C212.072 118.94 216.093 102.888 216.093 102.888C216.093 102.888 230.706 100.65 235.559 102.663C235.559 102.663 223.567 113.635 226.245 114.1C228.925 114.566 241.933 103.727 241.933 103.727C241.933 103.727 255.737 105.299 255.469 113.681C255.201 122.063 250.631 124.898 248.548 124.791C246.465 124.684 234.095 120.729 233.925 122.441C233.756 124.153 241.354 129.294 246.475 129.272C246.475 129.272 237.422 140.437 230.845 137.722C224.268 135.008 223.453 130.175 219.357 128.571C215.263 126.968 211.854 127.161 213.605 128.93C215.357 130.699 222.686 132.109 225.193 136.022C227.7 139.935 229.9 142.547 223.216 141.917C216.532 141.286 205.488 137.03 204.709 131.503C203.929 125.975 203.929 125.975 203.929 125.975Z" fill="#AFF57A"/>
<path fill-rule="evenodd" clip-rule="evenodd" d="M203.929 125.975C203.929 125.975 193.901 115.507 202.354 108.038C202.354 108.038 208.594 103.771 213.875 103.797C213.875 103.797 207.108 116.719 209.59 117.829C212.072 118.94 216.093 102.888 216.093 102.888C216.093 102.888 230.706 100.65 235.559 102.663C235.559 102.663 223.567 113.635 226.245 114.1C228.925 114.566 241.933 103.727 241.933 103.727C241.933 103.727 255.737 105.299 255.469 113.681C255.201 122.063 250.631 124.898 248.548 124.791C246.465 124.684 234.095 120.729 233.925 122.441C233.756 124.153 241.354 129.294 246.475 129.272C246.475 129.272 237.422 140.437 230.845 137.722C224.268 135.008 223.453 130.175 219.357 128.571C215.263 126.968 211.854 127.161 213.605 128.93C215.357 130.699 222.686 132.109 225.193 136.022C227.7 139.935 229.9 142.547 223.216 141.917C216.532 141.286 205.488 137.03 204.709 131.503C203.929 125.975 203.929 125.975 203.929 125.975Z" fill="url(#paint5_linear_14378_45286)"/>
<path fill-rule="evenodd" clip-rule="evenodd" d="M248.763 114.277C248.763 114.277 211.544 114.9 203.93 125.975C203.93 125.975 202.416 131.507 197.107 136.762L196.369 139.183C196.369 139.183 202.429 132.04 204.71 131.503C204.71 131.503 200.38 118.543 248.763 114.277Z" fill="#AFF57A"/>
<path fill-rule="evenodd" clip-rule="evenodd" d="M248.763 114.277C248.763 114.277 211.544 114.9 203.93 125.975C203.93 125.975 202.416 131.507 197.107 136.762L196.369 139.183C196.369 139.183 202.429 132.04 204.71 131.503C204.71 131.503 200.38 118.543 248.763 114.277Z" fill="url(#paint6_linear_14378_45286)"/>
<path fill-rule="evenodd" clip-rule="evenodd" d="M187.876 225.82C187.876 225.82 162.535 218.262 169.204 198.796C169.204 198.796 175.253 186.405 183.652 181.684C183.652 181.684 184.572 208.276 189.509 207.799C194.446 207.322 186.348 178.242 186.348 178.242C186.348 178.242 207.503 161.517 217.011 160.33C217.011 160.33 207.89 188.543 212.558 186.866C217.226 185.188 228.081 156.271 228.081 156.271C228.081 156.271 251.385 146.314 258.519 159.848C265.653 173.381 260.965 181.999 257.565 183.708C254.165 185.416 230.984 190.3 232.257 193.167C233.531 196.034 250.217 197.336 258.316 192.682C258.316 192.682 254.029 218.55 241.153 220.177C228.276 221.804 222.623 214.874 214.684 216.024C206.745 217.175 201.513 220.555 205.887 221.781C210.26 223.007 223.151 218.631 230.656 222.577C238.162 226.522 244.005 228.68 232.837 233.707C221.669 238.734 200.32 241.946 194.098 233.883C187.876 225.82 187.876 225.82 187.876 225.82Z" fill="#FFDF40"/>
<path fill-rule="evenodd" clip-rule="evenodd" d="M187.876 225.82C187.876 225.82 162.535 218.262 169.204 198.796C169.204 198.796 175.253 186.405 183.652 181.684C183.652 181.684 184.572 208.276 189.509 207.799C194.446 207.322 186.348 178.242 186.348 178.242C186.348 178.242 207.503 161.517 217.011 160.33C217.011 160.33 207.89 188.543 212.558 186.866C217.226 185.188 228.081 156.271 228.081 156.271C228.081 156.271 251.385 146.314 258.519 159.848C265.653 173.381 260.965 181.999 257.565 183.708C254.165 185.416 230.984 190.3 232.257 193.167C233.531 196.034 250.217 197.336 258.316 192.682C258.316 192.682 254.029 218.55 241.153 220.177C228.276 221.804 222.623 214.874 214.684 216.024C206.745 217.175 201.513 220.555 205.887 221.781C210.26 223.007 223.151 218.631 230.656 222.577C238.162 226.522 244.005 228.68 232.837 233.707C221.669 238.734 200.32 241.946 194.098 233.883C187.876 225.82 187.876 225.82 187.876 225.82Z" fill="url(#paint7_linear_14378_45286)"/>
<path fill-rule="evenodd" clip-rule="evenodd" d="M248.422 166.844C248.422 166.844 189.963 201.393 187.876 225.822C187.876 225.822 190.465 235.961 186.787 249.081L187.797 253.584C187.797 253.584 190.967 236.794 194.098 233.885C194.098 233.885 175.546 217.238 248.422 166.844Z" fill="#FF7C6E"/>
<path fill-rule="evenodd" clip-rule="evenodd" d="M248.422 166.844C248.422 166.844 189.963 201.393 187.876 225.822C187.876 225.822 190.465 235.961 186.787 249.081L187.797 253.584C187.797 253.584 190.967 236.794 194.098 233.885C194.098 233.885 175.546 217.238 248.422 166.844Z" fill="url(#paint8_linear_14378_45286)"/>
<path d="M122.956 76.2104C123.598 71.5356 117.084 67.6879 112.199 67.2869C109.868 67.0864 107.45 67.4498 105.242 66.6728C100.468 64.9808 98.5557 58.7017 93.8804 56.6463C90.3893 55.1549 86.3802 56.4834 83.0001 58.213C79.6201 59.9425 76.2647 62.1233 72.49 62.3739C69.2086 62.587 65.6312 61.3462 62.757 62.9755C60.6105 64.2288 59.488 66.7354 57.5142 68.1767C55.4603 69.4671 53.0821 70.1244 50.6678 70.0692C48.2605 70.0029 45.8624 70.3984 43.5993 71.2348C41.4159 72.25 39.6149 74.6062 40.0713 77L122.956 76.2104Z" fill="#5496FF"/>
<path d="M122.956 76.2104C123.598 71.5356 117.084 67.6879 112.199 67.2869C109.868 67.0864 107.45 67.4498 105.242 66.6728C100.468 64.9808 98.5557 58.7017 93.8804 56.6463C90.3893 55.1549 86.3802 56.4834 83.0001 58.213C79.6201 59.9425 76.2647 62.1233 72.49 62.3739C69.2086 62.587 65.6312 61.3462 62.757 62.9755C60.6105 64.2288 59.488 66.7354 57.5142 68.1767C55.4603 69.4671 53.0821 70.1244 50.6678 70.0692C48.2605 70.0029 45.8624 70.3984 43.5993 71.2348C41.4159 72.25 39.6149 74.6062 40.0713 77L122.956 76.2104Z" fill="url(#paint9_linear_14378_45286)"/>
<path d="M221.056 26.3731C221.512 23.0375 216.8 20.2917 213.261 20.0038C211.576 19.8704 209.827 20.1302 208.226 19.5684C204.764 18.3676 203.381 13.8874 199.996 12.4619C197.475 11.3945 194.56 12.3495 192.11 13.5784C189.659 14.8073 187.243 16.3873 184.505 16.5418C182.124 16.6893 179.54 15.8396 177.482 16.9702C175.93 17.841 175.123 19.6246 173.69 20.678C172.258 21.7313 170.467 21.935 168.725 22.0262C166.984 22.1175 165.214 22.1386 163.613 22.8619C162.012 23.5852 160.727 25.2565 161.05 26.9629L221.056 26.3731Z" fill="#5496FF"/>
<path d="M221.056 26.3731C221.512 23.0375 216.8 20.2917 213.261 20.0038C211.576 19.8704 209.827 20.1302 208.226 19.5684C204.764 18.3676 203.381 13.8874 199.996 12.4619C197.475 11.3945 194.56 12.3495 192.11 13.5784C189.659 14.8073 187.243 16.3873 184.505 16.5418C182.124 16.6893 179.54 15.8396 177.482 16.9702C175.93 17.841 175.123 19.6246 173.69 20.678C172.258 21.7313 170.467 21.935 168.725 22.0262C166.984 22.1175 165.214 22.1386 163.613 22.8619C162.012 23.5852 160.727 25.2565 161.05 26.9629L221.056 26.3731Z" fill="url(#paint10_linear_14378_45286)"/>
<path d="M195.851 256.871L124.926 256.825C116.401 256.825 109.477 250.101 109.477 241.812V69.0068C109.477 60.7173 116.401 53.9935 124.926 54L195.816 54.039C204.348 54.039 211.265 60.7628 211.265 69.0522L211.23 241.857C211.3 250.153 204.383 256.871 195.851 256.871Z" fill="#283138"/>
<path d="M195.957 60.1562H182.207C181.279 60.1983 180.407 60.5788 179.782 61.2144C179.157 61.85 178.829 62.6889 178.871 63.5474V65.9706C178.913 66.8301 178.585 67.6699 177.958 68.3057C177.332 68.9415 176.458 69.3213 175.529 69.3617H148.739C147.81 69.3196 146.937 68.9382 146.311 68.3012C145.686 67.6642 145.359 66.8236 145.403 65.9641V63.5474C145.445 62.6889 145.118 61.85 144.492 61.2144C143.867 60.5788 142.995 60.1983 142.067 60.1562H125.214C119.238 60.1562 114.393 64.8662 114.393 70.674V239.334C114.393 245.136 119.231 249.846 125.2 249.852L195.957 249.891C201.933 249.891 206.778 245.188 206.778 239.38L206.764 70.6935C206.764 64.8467 201.933 60.1562 195.957 60.1562Z" fill="white"/>
<path d="M195.957 60H182.207C181.279 60.0421 180.407 60.4226 179.782 61.0582C179.157 61.6938 178.829 62.5327 178.871 63.3911V65.8143C178.913 66.6739 178.585 67.5137 177.958 68.1495C177.332 68.7852 176.458 69.165 175.529 69.2054H148.739C147.81 69.1634 146.937 68.782 146.311 68.145C145.686 67.5079 145.359 66.6674 145.403 65.8078V63.3911C145.445 62.5327 145.118 61.6938 144.492 61.0582C143.867 60.4226 142.995 60.0421 142.067 60H125.214C119.238 60 114.393 64.7099 114.393 70.5177V239.178C114.393 244.979 119.231 249.689 125.2 249.696L195.957 249.735C201.933 249.735 206.778 245.031 206.778 239.224L206.764 70.5372C206.764 64.6904 201.933 60 195.957 60Z" fill="#FCE6E6"/>
<path d="M154.871 178V155.946H149V148.006H154.871V141.224C154.871 135.894 158.34 131 166.331 131C169.567 131 171.959 131.308 171.959 131.308L171.771 138.723C171.771 138.723 169.331 138.699 166.668 138.699C163.786 138.699 163.325 140.019 163.325 142.208V148.006H172L171.623 155.946H163.325V178H154.871Z" fill="#5496FF"/>
<path d="M154.871 178V155.946H149V148.006H154.871V141.224C154.871 135.894 158.34 131 166.331 131C169.567 131 171.959 131.308 171.959 131.308L171.771 138.723C171.771 138.723 169.331 138.699 166.668 138.699C163.786 138.699 163.325 140.019 163.325 142.208V148.006H172L171.623 155.946H163.325V178H154.871Z" fill="url(#paint11_linear_14378_45286)"/>
<path d="M322.595 27.2652L308.689 17.5282C303.037 13.571 295.22 14.9494 291.263 20.6008L281.526 34.5067C277.569 40.1582 278.947 47.9754 284.598 51.9326L298.504 61.6696C304.156 65.6268 311.973 64.2484 315.93 58.5969L325.667 44.691C329.624 39.0395 328.246 31.2223 322.595 27.2652ZM312.469 56.1734C309.844 59.9224 304.677 60.8335 300.928 58.2085L287.022 48.4715C283.273 45.8464 282.362 40.6791 284.987 36.9302L294.724 23.0243C297.349 19.2753 302.516 18.3642 306.265 20.9892L320.171 30.7262C323.92 33.3513 324.831 38.5185 322.206 42.2676L312.469 56.1734Z" fill="url(#paint12_linear_14378_45286)"/>
<path d="M309.828 30.6993C304.921 27.2638 298.135 28.4605 294.699 33.3669C291.264 38.2733 292.46 45.0601 297.367 48.4957C302.273 51.9312 309.06 50.7345 312.496 45.8281C315.931 40.9216 314.734 34.1349 309.828 30.6993ZM299.79 45.0347C296.787 42.932 296.058 38.7933 298.16 35.7904C300.263 32.7876 304.402 32.0578 307.404 34.1604C310.407 36.263 311.137 40.4018 309.034 43.4046C306.932 46.4074 302.793 47.1372 299.79 45.0347Z" fill="url(#paint13_linear_14378_45286)"/>
<path d="M317.203 39.1402C318.38 39.9647 320.003 39.6785 320.828 38.501C321.653 37.3234 321.366 35.7003 320.189 34.8758C319.011 34.0512 317.388 34.3374 316.564 35.515C315.739 36.6926 316.025 38.3156 317.203 39.1402Z" fill="url(#paint14_linear_14378_45286)"/>
<defs>
<linearGradient id="paint0_linear_14378_45286" x1="325" y1="257" x2="-32.3052" y2="163.646" gradientUnits="userSpaceOnUse">
<stop stop-color="#8739E5" stop-opacity="0"/>
<stop offset="1" stop-color="#8739E5"/>
</linearGradient>
<linearGradient id="paint1_linear_14378_45286" x1="133.027" y1="138.747" x2="94.3277" y2="130.967" gradientUnits="userSpaceOnUse">
<stop stop-color="#FF8359" stop-opacity="0"/>
<stop offset="1" stop-color="#FF8359"/>
</linearGradient>
<linearGradient id="paint2_linear_14378_45286" x1="113.668" y1="230.391" x2="65.5368" y2="219.903" gradientUnits="userSpaceOnUse">
<stop stop-color="#54D169" stop-opacity="0"/>
<stop offset="1" stop-color="#54D169"/>
</linearGradient>
<linearGradient id="paint3_linear_14378_45286" x1="131.257" y1="190.558" x2="42.5557" y2="170.843" gradientUnits="userSpaceOnUse">
<stop stop-color="#FF8359" stop-opacity="0"/>
<stop offset="1" stop-color="#FF8359"/>
</linearGradient>
<linearGradient id="paint4_linear_14378_45286" x1="124.096" y1="197.305" x2="53.7805" y2="183.875" gradientUnits="userSpaceOnUse">
<stop stop-color="#F5317F" stop-opacity="0"/>
<stop offset="1" stop-color="#F5317F"/>
</linearGradient>
<linearGradient id="paint5_linear_14378_45286" x1="216.204" y1="150.484" x2="260.332" y2="106.894" gradientUnits="userSpaceOnUse">
<stop stop-color="#54D169" stop-opacity="0"/>
<stop offset="1" stop-color="#54D169"/>
</linearGradient>
<linearGradient id="paint6_linear_14378_45286" x1="200.116" y1="145.097" x2="222.869" y2="93.6846" gradientUnits="userSpaceOnUse">
<stop stop-color="#54D169" stop-opacity="0"/>
<stop offset="1" stop-color="#54D169"/>
</linearGradient>
<linearGradient id="paint7_linear_14378_45286" x1="177.142" y1="247.271" x2="280.692" y2="198.605" gradientUnits="userSpaceOnUse">
<stop stop-color="#FF8359" stop-opacity="0"/>
<stop offset="1" stop-color="#FF8359"/>
</linearGradient>
<linearGradient id="paint8_linear_14378_45286" x1="187.797" y1="253.584" x2="270.489" y2="217.707" gradientUnits="userSpaceOnUse">
<stop stop-color="#F5317F" stop-opacity="0"/>
<stop offset="1" stop-color="#F5317F"/>
</linearGradient>
<linearGradient id="paint9_linear_14378_45286" x1="123" y1="77" x2="56.93" y2="31.4455" gradientUnits="userSpaceOnUse">
<stop stop-color="#8739E5" stop-opacity="0"/>
<stop offset="1" stop-color="#8739E5"/>
</linearGradient>
<linearGradient id="paint10_linear_14378_45286" x1="221.086" y1="26.9629" x2="173.749" y2="-6.19864" gradientUnits="userSpaceOnUse">
<stop stop-color="#8739E5" stop-opacity="0"/>
<stop offset="1" stop-color="#8739E5"/>
</linearGradient>
<linearGradient id="paint11_linear_14378_45286" x1="172" y1="178" x2="145.183" y2="175.711" gradientUnits="userSpaceOnUse">
<stop stop-color="#8739E5" stop-opacity="0"/>
<stop offset="1" stop-color="#8739E5"/>
</linearGradient>
<linearGradient id="paint12_linear_14378_45286" x1="291.622" y1="56.7009" x2="315.455" y2="22.6639" gradientUnits="userSpaceOnUse">
<stop stop-color="#E09B3D"/>
<stop offset="0.3" stop-color="#C74C4D"/>
<stop offset="0.6" stop-color="#C21975"/>
<stop offset="1" stop-color="#7024C4"/>
</linearGradient>
<linearGradient id="paint13_linear_14378_45286" x1="291.622" y1="56.6996" x2="315.455" y2="22.6626" gradientUnits="userSpaceOnUse">
<stop stop-color="#E09B3D"/>
<stop offset="0.3" stop-color="#C74C4D"/>
<stop offset="0.6" stop-color="#C21975"/>
<stop offset="1" stop-color="#7024C4"/>
</linearGradient>
<linearGradient id="paint14_linear_14378_45286" x1="300.537" y1="62.9414" x2="324.37" y2="28.9044" gradientUnits="userSpaceOnUse">
<stop stop-color="#E09B3D"/>
<stop offset="0.3" stop-color="#C74C4D"/>
<stop offset="0.6" stop-color="#C21975"/>
<stop offset="1" stop-color="#7024C4"/>
</linearGradient>
</defs>
</svg>
