<svg width="362" height="245" viewBox="0 0 362 245" fill="none" xmlns="http://www.w3.org/2000/svg">
<path fill-rule="evenodd" clip-rule="evenodd" d="M62.6013 245C62.6013 245 14.9731 188.119 49.6425 127.569C80.4034 73.8441 114.489 61.8054 140.802 83.6074C152.008 92.893 170.499 113.584 198.001 58.9169C235.503 -15.6342 359.015 58.9189 343.913 131.993C332.441 187.498 378.822 189.516 355.19 245H62.6013Z" fill="#5496FF"/>
<path fill-rule="evenodd" clip-rule="evenodd" d="M62.6013 245C62.6013 245 14.9731 188.119 49.6425 127.569C80.4034 73.8441 114.489 61.8054 140.802 83.6074C152.008 92.893 170.499 113.584 198.001 58.9169C235.503 -15.6342 359.015 58.9189 343.913 131.993C332.441 187.498 378.822 189.516 355.19 245H62.6013Z" fill="url(#paint0_linear_14378_45353)"/>
<path fill-rule="evenodd" clip-rule="evenodd" d="M170.027 126.747C170.027 126.747 146.332 93.0187 137.072 97.3911C127.812 101.764 170.027 126.747 170.027 126.747Z" fill="#FFDF40"/>
<path fill-rule="evenodd" clip-rule="evenodd" d="M170.027 126.747C170.027 126.747 146.332 93.0187 137.072 97.3911C127.812 101.764 170.027 126.747 170.027 126.747Z" fill="url(#paint1_linear_14378_45353)"/>
<path fill-rule="evenodd" clip-rule="evenodd" d="M148.486 196.731C148.486 196.731 150.764 185.447 141.918 184.029C141.918 184.029 135.919 183.818 132.387 186.081C132.387 186.081 142.419 191.873 141.226 193.673C140.033 195.473 130.513 186.413 130.513 186.413C130.513 186.413 119.758 191.123 117.358 194.536C117.358 194.536 130.066 196.799 128.467 198.25C126.868 199.702 113.534 197.959 113.534 197.959C113.534 197.959 104.942 204.88 108.684 210.389C112.426 215.899 116.697 215.859 118.049 214.901C119.401 213.944 126.019 206.034 126.86 207.11C127.702 208.186 124.79 214.864 121.345 217.026C121.345 217.026 132.163 220.669 135.422 216.052C138.68 211.436 137.173 207.847 139.239 205.03C141.304 202.214 143.674 200.895 143.25 202.827C142.827 204.758 138.51 208.818 138.491 212.509C138.472 216.2 138.106 218.888 142.322 215.624C146.538 212.359 152.139 204.811 150.312 200.772C148.486 196.731 148.486 196.731 148.486 196.731Z" fill="#AFF57A"/>
<path fill-rule="evenodd" clip-rule="evenodd" d="M148.486 196.731C148.486 196.731 150.764 185.447 141.918 184.029C141.918 184.029 135.919 183.818 132.387 186.081C132.387 186.081 142.419 191.873 141.226 193.673C140.033 195.473 130.513 186.413 130.513 186.413C130.513 186.413 119.758 191.123 117.358 194.536C117.358 194.536 130.066 196.799 128.467 198.25C126.868 199.702 113.534 197.959 113.534 197.959C113.534 197.959 104.942 204.88 108.684 210.389C112.426 215.899 116.697 215.859 118.049 214.901C119.401 213.944 126.019 206.034 126.86 207.11C127.702 208.186 124.79 214.864 121.345 217.026C121.345 217.026 132.163 220.669 135.422 216.052C138.68 211.436 137.173 207.847 139.239 205.03C141.304 202.214 143.674 200.895 143.25 202.827C142.827 204.758 138.51 208.818 138.491 212.509C138.472 216.2 138.106 218.888 142.322 215.624C146.538 212.359 152.139 204.811 150.312 200.772C148.486 196.731 148.486 196.731 148.486 196.731Z" fill="url(#paint2_linear_14378_45353)"/>
<path fill-rule="evenodd" clip-rule="evenodd" d="M113.438 207.939C113.438 207.939 138.671 192.538 148.487 196.731C148.487 196.731 151.854 199.799 157.649 201.069L159.173 202.378C159.173 202.378 152.071 200.163 150.313 200.772C150.313 200.772 147.709 190.237 113.438 207.939Z" fill="#82B378"/>
<path fill-rule="evenodd" clip-rule="evenodd" d="M156.211 163.802C156.211 163.802 174.534 153.541 165.983 139.615C165.983 139.615 159.142 131.064 151.813 128.865C151.813 128.865 155.722 149.632 151.813 150.12C147.904 150.609 149.126 126.666 149.126 126.666C149.126 126.666 129.825 117.383 122.251 118.115C122.251 118.115 134.223 138.393 130.314 137.905C126.405 137.416 112.967 116.894 112.967 116.894C112.967 116.894 93.1781 113.228 90.002 124.956C86.826 136.683 91.9565 142.547 94.8883 143.279C97.82 144.012 116.632 143.768 116.144 146.211C115.655 148.654 102.951 152.563 95.8655 150.365C95.8655 150.365 103.684 169.665 113.945 168.688C124.206 167.711 127.382 161.359 133.734 160.87C140.086 160.381 144.728 162.091 141.552 163.802C138.376 165.512 127.626 164.361 122.496 168.723C117.365 173.085 113.212 175.773 122.74 177.727C132.268 179.682 149.37 178.46 152.79 171.131C156.211 163.802 156.211 163.802 156.211 163.802Z" fill="#FFDF40"/>
<path fill-rule="evenodd" clip-rule="evenodd" d="M156.211 163.802C156.211 163.802 174.534 153.541 165.983 139.615C165.983 139.615 159.142 131.064 151.813 128.865C151.813 128.865 155.722 149.632 151.813 150.12C147.904 150.609 149.126 126.666 149.126 126.666C149.126 126.666 129.825 117.383 122.251 118.115C122.251 118.115 134.223 138.393 130.314 137.905C126.405 137.416 112.967 116.894 112.967 116.894C112.967 116.894 93.1781 113.228 90.002 124.956C86.826 136.683 91.9565 142.547 94.8883 143.279C97.82 144.012 116.632 143.768 116.144 146.211C115.655 148.654 102.951 152.563 95.8655 150.365C95.8655 150.365 103.684 169.665 113.945 168.688C124.206 167.711 127.382 161.359 133.734 160.87C140.086 160.381 144.728 162.091 141.552 163.802C138.376 165.512 127.626 164.361 122.496 168.723C117.365 173.085 113.212 175.773 122.74 177.727C132.268 179.682 149.37 178.46 152.79 171.131C156.211 163.802 156.211 163.802 156.211 163.802Z" fill="url(#paint3_linear_14378_45353)"/>
<path fill-rule="evenodd" clip-rule="evenodd" d="M99.041 128.625C99.041 128.625 150.347 145.238 156.21 163.806C156.21 163.806 155.966 172.112 161.096 181.641V185.305C161.096 185.305 155.722 172.845 152.79 171.135C152.79 171.135 164.272 155.011 99.041 128.625Z" fill="#FF7C6E"/>
<path fill-rule="evenodd" clip-rule="evenodd" d="M99.041 128.625C99.041 128.625 150.347 145.238 156.21 163.806C156.21 163.806 155.966 172.112 161.096 181.641V185.305C161.096 185.305 155.722 172.845 152.79 171.135C152.79 171.135 164.272 155.011 99.041 128.625Z" fill="url(#paint4_linear_14378_45353)"/>
<path fill-rule="evenodd" clip-rule="evenodd" d="M240.929 113.975C240.929 113.975 230.901 103.507 239.354 96.0378C239.354 96.0378 245.594 91.7713 250.875 91.7972C250.875 91.7972 244.108 104.719 246.59 105.829C249.072 106.94 253.093 90.8877 253.093 90.8877C253.093 90.8877 267.706 88.6503 272.559 90.6627C272.559 90.6627 260.567 101.635 263.245 102.1C265.925 102.566 278.933 91.7272 278.933 91.7272C278.933 91.7272 292.737 93.2988 292.469 101.681C292.201 110.063 287.631 112.898 285.548 112.791C283.465 112.684 271.095 108.729 270.925 110.441C270.756 112.153 278.354 117.294 283.475 117.272C283.475 117.272 274.422 128.437 267.845 125.722C261.268 123.008 260.453 118.175 256.357 116.571C252.263 114.968 248.854 115.161 250.605 116.93C252.357 118.699 259.686 120.109 262.193 124.022C264.7 127.935 266.9 130.547 260.216 129.917C253.532 129.286 242.488 125.03 241.709 119.503C240.929 113.975 240.929 113.975 240.929 113.975Z" fill="#AFF57A"/>
<path fill-rule="evenodd" clip-rule="evenodd" d="M240.929 113.975C240.929 113.975 230.901 103.507 239.354 96.0378C239.354 96.0378 245.594 91.7713 250.875 91.7972C250.875 91.7972 244.108 104.719 246.59 105.829C249.072 106.94 253.093 90.8877 253.093 90.8877C253.093 90.8877 267.706 88.6503 272.559 90.6627C272.559 90.6627 260.567 101.635 263.245 102.1C265.925 102.566 278.933 91.7272 278.933 91.7272C278.933 91.7272 292.737 93.2988 292.469 101.681C292.201 110.063 287.631 112.898 285.548 112.791C283.465 112.684 271.095 108.729 270.925 110.441C270.756 112.153 278.354 117.294 283.475 117.272C283.475 117.272 274.422 128.437 267.845 125.722C261.268 123.008 260.453 118.175 256.357 116.571C252.263 114.968 248.854 115.161 250.605 116.93C252.357 118.699 259.686 120.109 262.193 124.022C264.7 127.935 266.9 130.547 260.216 129.917C253.532 129.286 242.488 125.03 241.709 119.503C240.929 113.975 240.929 113.975 240.929 113.975Z" fill="url(#paint5_linear_14378_45353)"/>
<path fill-rule="evenodd" clip-rule="evenodd" d="M285.763 102.277C285.763 102.277 248.544 102.9 240.93 113.975C240.93 113.975 239.416 119.507 234.107 124.762L233.369 127.183C233.369 127.183 239.429 120.04 241.71 119.503C241.71 119.503 237.38 106.543 285.763 102.277Z" fill="#AFF57A"/>
<path fill-rule="evenodd" clip-rule="evenodd" d="M285.763 102.277C285.763 102.277 248.544 102.9 240.93 113.975C240.93 113.975 239.416 119.507 234.107 124.762L233.369 127.183C233.369 127.183 239.429 120.04 241.71 119.503C241.71 119.503 237.38 106.543 285.763 102.277Z" fill="url(#paint6_linear_14378_45353)"/>
<path fill-rule="evenodd" clip-rule="evenodd" d="M224.876 213.82C224.876 213.82 199.535 206.262 206.204 186.796C206.204 186.796 212.253 174.405 220.652 169.684C220.652 169.684 221.572 196.276 226.509 195.799C231.446 195.322 223.348 166.242 223.348 166.242C223.348 166.242 244.503 149.517 254.011 148.33C254.011 148.33 244.89 176.543 249.558 174.866C254.226 173.188 265.081 144.271 265.081 144.271C265.081 144.271 288.385 134.314 295.519 147.848C302.653 161.381 297.965 169.999 294.565 171.708C291.165 173.416 267.984 178.3 269.257 181.167C270.531 184.034 287.217 185.336 295.316 180.682C295.316 180.682 291.029 206.55 278.153 208.177C265.276 209.804 259.623 202.874 251.684 204.024C243.745 205.175 238.513 208.555 242.887 209.781C247.26 211.007 260.151 206.631 267.656 210.577C275.162 214.522 281.005 216.68 269.837 221.707C258.669 226.734 237.32 229.946 231.098 221.883C224.876 213.82 224.876 213.82 224.876 213.82Z" fill="#FFDF40"/>
<path fill-rule="evenodd" clip-rule="evenodd" d="M224.876 213.82C224.876 213.82 199.535 206.262 206.204 186.796C206.204 186.796 212.253 174.405 220.652 169.684C220.652 169.684 221.572 196.276 226.509 195.799C231.446 195.322 223.348 166.242 223.348 166.242C223.348 166.242 244.503 149.517 254.011 148.33C254.011 148.33 244.89 176.543 249.558 174.866C254.226 173.188 265.081 144.271 265.081 144.271C265.081 144.271 288.385 134.314 295.519 147.848C302.653 161.381 297.965 169.999 294.565 171.708C291.165 173.416 267.984 178.3 269.257 181.167C270.531 184.034 287.217 185.336 295.316 180.682C295.316 180.682 291.029 206.55 278.153 208.177C265.276 209.804 259.623 202.874 251.684 204.024C243.745 205.175 238.513 208.555 242.887 209.781C247.26 211.007 260.151 206.631 267.656 210.577C275.162 214.522 281.005 216.68 269.837 221.707C258.669 226.734 237.32 229.946 231.098 221.883C224.876 213.82 224.876 213.82 224.876 213.82Z" fill="url(#paint7_linear_14378_45353)"/>
<path fill-rule="evenodd" clip-rule="evenodd" d="M285.422 154.844C285.422 154.844 226.963 189.393 224.876 213.822C224.876 213.822 227.465 223.961 223.787 237.081L224.797 241.584C224.797 241.584 227.967 224.794 231.098 221.885C231.098 221.885 212.546 205.238 285.422 154.844Z" fill="#FF7C6E"/>
<path fill-rule="evenodd" clip-rule="evenodd" d="M285.422 154.844C285.422 154.844 226.963 189.393 224.876 213.822C224.876 213.822 227.465 223.961 223.787 237.081L224.797 241.584C224.797 241.584 227.967 224.794 231.098 221.885C231.098 221.885 212.546 205.238 285.422 154.844Z" fill="url(#paint8_linear_14378_45353)"/>
<path d="M159.956 64.2104C160.598 59.5356 154.084 55.6879 149.199 55.2869C146.868 55.0864 144.45 55.4498 142.242 54.6728C137.468 52.9808 135.556 46.7017 130.88 44.6463C127.389 43.1549 123.38 44.4834 120 46.213C116.62 47.9425 113.265 50.1233 109.49 50.3739C106.209 50.587 102.631 49.3462 99.757 50.9755C97.6105 52.2288 96.488 54.7354 94.5142 56.1767C92.4603 57.4671 90.0821 58.1244 87.6678 58.0692C85.2605 58.0029 82.8624 58.3984 80.5993 59.2348C78.4159 60.25 76.6149 62.6062 77.0713 65L159.956 64.2104Z" fill="#5496FF"/>
<path d="M159.956 64.2104C160.598 59.5356 154.084 55.6879 149.199 55.2869C146.868 55.0864 144.45 55.4498 142.242 54.6728C137.468 52.9808 135.556 46.7017 130.88 44.6463C127.389 43.1549 123.38 44.4834 120 46.213C116.62 47.9425 113.265 50.1233 109.49 50.3739C106.209 50.587 102.631 49.3462 99.757 50.9755C97.6105 52.2288 96.488 54.7354 94.5142 56.1767C92.4603 57.4671 90.0821 58.1244 87.6678 58.0692C85.2605 58.0029 82.8624 58.3984 80.5993 59.2348C78.4159 60.25 76.6149 62.6062 77.0713 65L159.956 64.2104Z" fill="url(#paint9_linear_14378_45353)"/>
<path d="M258.056 14.3731C258.512 11.0375 253.8 8.29174 250.261 8.00382C248.576 7.8704 246.827 8.13022 245.226 7.56844C241.764 6.36762 240.381 1.8874 236.996 0.461872C234.475 -0.605518 231.56 0.349513 229.11 1.57842C226.659 2.80732 224.243 4.38734 221.505 4.54183C219.124 4.6893 216.54 3.8396 214.482 4.97019C212.93 5.84095 212.123 7.62462 210.69 8.67796C209.258 9.73131 207.467 9.93495 205.725 10.0262C203.984 10.1175 202.214 10.1386 200.613 10.8619C199.012 11.5852 197.727 13.2565 198.05 14.9629L258.056 14.3731Z" fill="#5496FF"/>
<path d="M258.056 14.3731C258.512 11.0375 253.8 8.29174 250.261 8.00382C248.576 7.8704 246.827 8.13022 245.226 7.56844C241.764 6.36762 240.381 1.8874 236.996 0.461872C234.475 -0.605518 231.56 0.349513 229.11 1.57842C226.659 2.80732 224.243 4.38734 221.505 4.54183C219.124 4.6893 216.54 3.8396 214.482 4.97019C212.93 5.84095 212.123 7.62462 210.69 8.67796C209.258 9.73131 207.467 9.93495 205.725 10.0262C203.984 10.1175 202.214 10.1386 200.613 10.8619C199.012 11.5852 197.727 13.2565 198.05 14.9629L258.056 14.3731Z" fill="url(#paint10_linear_14378_45353)"/>
<path d="M232.851 244.871L161.926 244.825C153.401 244.825 146.477 238.101 146.477 229.812V57.0068C146.477 48.7173 153.401 41.9935 161.926 42L232.816 42.039C241.348 42.039 248.265 48.7628 248.265 57.0522L248.23 229.857C248.3 238.153 241.383 244.871 232.851 244.871Z" fill="#283138"/>
<path d="M232.957 48.1562H219.207C218.279 48.1983 217.407 48.5788 216.782 49.2144C216.157 49.85 215.829 50.6889 215.871 51.5474V53.9706C215.913 54.8301 215.585 55.6699 214.958 56.3057C214.332 56.9415 213.458 57.3213 212.529 57.3617H185.739C184.81 57.3196 183.937 56.9382 183.311 56.3012C182.686 55.6642 182.359 54.8236 182.403 53.9641V51.5474C182.445 50.6889 182.118 49.85 181.492 49.2144C180.867 48.5788 179.995 48.1983 179.067 48.1562H162.214C156.238 48.1562 151.393 52.8662 151.393 58.674V227.334C151.393 233.136 156.231 237.846 162.2 237.852L232.957 237.891C238.933 237.891 243.778 233.188 243.778 227.38L243.764 58.6935C243.764 52.8467 238.933 48.1562 232.957 48.1562Z" fill="white"/>
<path d="M232.957 48H219.207C218.279 48.0421 217.407 48.4226 216.782 49.0582C216.157 49.6938 215.829 50.5327 215.871 51.3911V53.8143C215.913 54.6739 215.585 55.5137 214.958 56.1495C214.332 56.7852 213.458 57.165 212.529 57.2054H185.739C184.81 57.1634 183.937 56.782 183.311 56.145C182.686 55.5079 182.359 54.6674 182.403 53.8078V51.3911C182.445 50.5327 182.118 49.6938 181.492 49.0582C180.867 48.4226 179.995 48.0421 179.067 48H162.214C156.238 48 151.393 52.7099 151.393 58.5177V227.178C151.393 232.979 156.231 237.689 162.2 237.696L232.957 237.735C238.933 237.735 243.778 233.031 243.778 227.224L243.764 58.5372C243.764 52.6904 238.933 48 232.957 48Z" fill="#FCE6E6"/>
<path d="M191.871 166V143.946H186V136.006H191.871V129.224C191.871 123.894 195.34 119 203.331 119C206.567 119 208.959 119.308 208.959 119.308L208.771 126.723C208.771 126.723 206.331 126.699 203.668 126.699C200.786 126.699 200.325 128.019 200.325 130.208V136.006H209L208.623 143.946H200.325V166H191.871Z" fill="#5496FF"/>
<path d="M191.871 166V143.946H186V136.006H191.871V129.224C191.871 123.894 195.34 119 203.331 119C206.567 119 208.959 119.308 208.959 119.308L208.771 126.723C208.771 126.723 206.331 126.699 203.668 126.699C200.786 126.699 200.325 128.019 200.325 130.208V136.006H209L208.623 143.946H200.325V166H191.871Z" fill="url(#paint11_linear_14378_45353)"/>
<path d="M74.3217 84.6647C72.9399 84.326 66.2863 82.6914 53.4154 79.5274L53.5691 79.5034C48.9717 82.4354 42.7441 84.8021 35.5233 84.9141C31.9315 84.9007 28.1326 84.4687 24.3405 83.2821C20.553 82.1021 16.8279 80.1434 13.4425 77.5047C6.67008 72.2661 1.39675 63.8687 0.257679 54.2047C-0.323655 49.4047 0.0654119 44.358 1.55968 39.5247C3.08154 34.706 5.70554 30.1394 9.24101 26.294C11.0326 24.2634 13.1425 22.5781 15.2957 21.0194C16.4258 20.3221 17.5399 19.5967 18.705 18.9834L20.4831 18.1274L21.3691 17.7007L22.2899 17.3647C27.1613 15.4754 32.3451 14.7447 37.3201 15.0754C42.3019 15.3954 47.0727 16.7887 51.2462 18.9847C55.4263 21.1754 59.0091 24.1514 61.8227 27.5287C64.6435 30.9074 66.6941 34.6847 67.9982 38.4994C69.3014 42.3167 69.8951 46.1567 69.929 49.7861C69.9727 57.0754 67.6941 63.3287 64.9211 67.8954L64.9233 67.7061C70.7363 78.1954 73.6733 83.4954 74.3217 84.6647C73.6509 83.5087 70.6118 78.266 64.5973 67.8914L64.5425 67.798L64.5993 67.7021C67.3019 63.1594 69.505 56.9741 69.4233 49.7887C69.3697 46.2114 68.7659 42.4341 67.4686 38.6821C66.1701 34.9367 64.1405 31.2301 61.3577 27.9181C58.5821 24.6074 55.0545 21.6954 50.9467 19.5554C46.8457 17.4101 42.1634 16.0514 37.2763 15.7447C32.3946 15.4287 27.3134 16.1514 22.5405 18.0061L21.6373 18.3367L20.7697 18.7541L19.0274 19.594C17.8853 20.1967 16.7941 20.9087 15.6858 21.5914C13.5769 23.1207 11.5077 24.7727 9.75194 26.7647C6.28634 30.534 3.71234 35.0074 2.21754 39.73C0.74981 44.4647 0.362877 49.4154 0.92581 54.1247C2.02848 63.6034 7.18101 71.854 13.8206 77.0234C17.1383 79.626 20.793 81.5647 24.5139 82.7394C28.2389 83.9221 31.9763 84.3647 35.5154 84.3967C42.6301 84.322 48.7883 82.0314 53.3586 79.1701L53.4321 79.1247L53.5129 79.1461C66.3243 82.5434 72.9477 84.3007 74.3217 84.6647Z" fill="#1D2A30"/>
<path d="M32.0943 34.4453L33.2 51.9093C33.2907 53.336 34.4312 54.4733 35.8594 54.5573C37.3662 54.648 38.6787 53.5413 38.8443 52.0413L40.7834 34.4893C40.9298 33.1613 39.8792 32.004 38.5418 32.0227L34.2828 32.0827C33.012 32.1 32.0146 33.1773 32.0943 34.4453Z" fill="#F03658"/>
<path d="M40.4878 64.3852C39.7462 66.6186 37.3342 67.8279 35.0998 67.0866C32.866 66.3452 31.6566 63.9332 32.3977 61.6985C33.1394 59.4652 35.5514 58.2545 37.7858 58.9959C40.0196 59.7385 41.2296 62.1506 40.4878 64.3852Z" fill="#F03658"/>
<defs>
<linearGradient id="paint0_linear_14378_45353" x1="362" y1="245" x2="4.69475" y2="151.646" gradientUnits="userSpaceOnUse">
<stop stop-color="#8739E5" stop-opacity="0"/>
<stop offset="1" stop-color="#8739E5"/>
</linearGradient>
<linearGradient id="paint1_linear_14378_45353" x1="170.027" y1="126.747" x2="131.328" y2="118.967" gradientUnits="userSpaceOnUse">
<stop stop-color="#FF8359" stop-opacity="0"/>
<stop offset="1" stop-color="#FF8359"/>
</linearGradient>
<linearGradient id="paint2_linear_14378_45353" x1="150.668" y1="218.391" x2="102.537" y2="207.903" gradientUnits="userSpaceOnUse">
<stop stop-color="#54D169" stop-opacity="0"/>
<stop offset="1" stop-color="#54D169"/>
</linearGradient>
<linearGradient id="paint3_linear_14378_45353" x1="168.257" y1="178.558" x2="79.5557" y2="158.843" gradientUnits="userSpaceOnUse">
<stop stop-color="#FF8359" stop-opacity="0"/>
<stop offset="1" stop-color="#FF8359"/>
</linearGradient>
<linearGradient id="paint4_linear_14378_45353" x1="161.096" y1="185.305" x2="90.7805" y2="171.875" gradientUnits="userSpaceOnUse">
<stop stop-color="#F5317F" stop-opacity="0"/>
<stop offset="1" stop-color="#F5317F"/>
</linearGradient>
<linearGradient id="paint5_linear_14378_45353" x1="253.204" y1="138.484" x2="297.332" y2="94.8938" gradientUnits="userSpaceOnUse">
<stop stop-color="#54D169" stop-opacity="0"/>
<stop offset="1" stop-color="#54D169"/>
</linearGradient>
<linearGradient id="paint6_linear_14378_45353" x1="237.116" y1="133.097" x2="259.869" y2="81.6846" gradientUnits="userSpaceOnUse">
<stop stop-color="#54D169" stop-opacity="0"/>
<stop offset="1" stop-color="#54D169"/>
</linearGradient>
<linearGradient id="paint7_linear_14378_45353" x1="214.142" y1="235.271" x2="317.692" y2="186.605" gradientUnits="userSpaceOnUse">
<stop stop-color="#FF8359" stop-opacity="0"/>
<stop offset="1" stop-color="#FF8359"/>
</linearGradient>
<linearGradient id="paint8_linear_14378_45353" x1="224.797" y1="241.584" x2="307.489" y2="205.707" gradientUnits="userSpaceOnUse">
<stop stop-color="#F5317F" stop-opacity="0"/>
<stop offset="1" stop-color="#F5317F"/>
</linearGradient>
<linearGradient id="paint9_linear_14378_45353" x1="160" y1="65" x2="93.93" y2="19.4455" gradientUnits="userSpaceOnUse">
<stop stop-color="#8739E5" stop-opacity="0"/>
<stop offset="1" stop-color="#8739E5"/>
</linearGradient>
<linearGradient id="paint10_linear_14378_45353" x1="258.086" y1="14.9629" x2="210.749" y2="-18.1986" gradientUnits="userSpaceOnUse">
<stop stop-color="#8739E5" stop-opacity="0"/>
<stop offset="1" stop-color="#8739E5"/>
</linearGradient>
<linearGradient id="paint11_linear_14378_45353" x1="209" y1="166" x2="182.183" y2="163.711" gradientUnits="userSpaceOnUse">
<stop stop-color="#8739E5" stop-opacity="0"/>
<stop offset="1" stop-color="#8739E5"/>
</linearGradient>
</defs>
</svg>
