<svg width="325" height="245" viewBox="0 0 325 245" fill="none" xmlns="http://www.w3.org/2000/svg">
<path fill-rule="evenodd" clip-rule="evenodd" d="M25.6013 245C25.6013 245 -22.0269 188.119 12.6425 127.569C43.4034 73.8441 77.489 61.8054 103.802 83.6074C115.008 92.893 133.499 113.584 161.001 58.9169C198.503 -15.6342 322.015 58.9189 306.913 131.993C295.441 187.498 341.822 189.516 318.19 245H25.6013Z" fill="#5496FF"/>
<path fill-rule="evenodd" clip-rule="evenodd" d="M25.6013 245C25.6013 245 -22.0269 188.119 12.6425 127.569C43.4034 73.8441 77.489 61.8054 103.802 83.6074C115.008 92.893 133.499 113.584 161.001 58.9169C198.503 -15.6342 322.015 58.9189 306.913 131.993C295.441 187.498 341.822 189.516 318.19 245H25.6013Z" fill="url(#paint0_linear_14378_45422)"/>
<path fill-rule="evenodd" clip-rule="evenodd" d="M133.027 126.747C133.027 126.747 109.332 93.0187 100.072 97.3911C90.8116 101.764 133.027 126.747 133.027 126.747Z" fill="#FFDF40"/>
<path fill-rule="evenodd" clip-rule="evenodd" d="M133.027 126.747C133.027 126.747 109.332 93.0187 100.072 97.3911C90.8116 101.764 133.027 126.747 133.027 126.747Z" fill="url(#paint1_linear_14378_45422)"/>
<path fill-rule="evenodd" clip-rule="evenodd" d="M111.486 196.731C111.486 196.731 113.764 185.447 104.918 184.029C104.918 184.029 98.9192 183.818 95.3869 186.081C95.3869 186.081 105.419 191.873 104.226 193.673C103.033 195.473 93.5127 186.413 93.5127 186.413C93.5127 186.413 82.7583 191.123 80.3581 194.536C80.3581 194.536 93.0664 196.799 91.4671 198.25C89.8676 199.702 76.5341 197.959 76.5341 197.959C76.5341 197.959 67.942 204.88 71.6842 210.389C75.4264 215.899 79.6973 215.859 81.0492 214.901C82.4012 213.944 89.0187 206.034 89.8602 207.11C90.7017 208.186 87.7896 214.864 84.3447 217.026C84.3447 217.026 95.1632 220.669 98.4218 216.052C101.68 211.436 100.173 207.847 102.239 205.03C104.304 202.214 106.674 200.895 106.25 202.827C105.827 204.758 101.51 208.818 101.491 212.509C101.472 216.2 101.106 218.888 105.322 215.624C109.538 212.359 115.139 204.811 113.312 200.772C111.486 196.731 111.486 196.731 111.486 196.731Z" fill="#AFF57A"/>
<path fill-rule="evenodd" clip-rule="evenodd" d="M111.486 196.731C111.486 196.731 113.764 185.447 104.918 184.029C104.918 184.029 98.9192 183.818 95.3869 186.081C95.3869 186.081 105.419 191.873 104.226 193.673C103.033 195.473 93.5127 186.413 93.5127 186.413C93.5127 186.413 82.7583 191.123 80.3581 194.536C80.3581 194.536 93.0664 196.799 91.4671 198.25C89.8676 199.702 76.5341 197.959 76.5341 197.959C76.5341 197.959 67.942 204.88 71.6842 210.389C75.4264 215.899 79.6973 215.859 81.0492 214.901C82.4012 213.944 89.0187 206.034 89.8602 207.11C90.7017 208.186 87.7896 214.864 84.3447 217.026C84.3447 217.026 95.1632 220.669 98.4218 216.052C101.68 211.436 100.173 207.847 102.239 205.03C104.304 202.214 106.674 200.895 106.25 202.827C105.827 204.758 101.51 208.818 101.491 212.509C101.472 216.2 101.106 218.888 105.322 215.624C109.538 212.359 115.139 204.811 113.312 200.772C111.486 196.731 111.486 196.731 111.486 196.731Z" fill="url(#paint2_linear_14378_45422)"/>
<path fill-rule="evenodd" clip-rule="evenodd" d="M76.4375 207.939C76.4375 207.939 101.671 192.538 111.487 196.731C111.487 196.731 114.854 199.799 120.649 201.069L122.173 202.378C122.173 202.378 115.071 200.163 113.313 200.772C113.313 200.772 110.709 190.237 76.4375 207.939Z" fill="#82B378"/>
<path fill-rule="evenodd" clip-rule="evenodd" d="M119.211 163.802C119.211 163.802 137.534 153.541 128.983 139.615C128.983 139.615 122.142 131.064 114.813 128.865C114.813 128.865 118.722 149.632 114.813 150.12C110.904 150.609 112.126 126.666 112.126 126.666C112.126 126.666 92.8249 117.383 85.2513 118.115C85.2513 118.115 97.2227 138.393 93.3135 137.905C89.4046 137.416 75.9674 116.894 75.9674 116.894C75.9674 116.894 56.1781 113.228 53.002 124.956C49.826 136.683 54.9565 142.547 57.8883 143.279C60.82 144.012 79.6321 143.768 79.1435 146.211C78.6549 148.654 65.9505 152.563 58.8655 150.365C58.8655 150.365 66.6836 169.665 76.9447 168.688C87.2058 167.711 90.3818 161.359 96.7339 160.87C103.086 160.381 107.728 162.091 104.552 163.802C101.376 165.512 90.6261 164.361 85.4956 168.723C80.365 173.085 76.2118 175.773 85.7399 177.727C95.268 179.682 112.37 178.46 115.79 171.131C119.211 163.802 119.211 163.802 119.211 163.802Z" fill="#FFDF40"/>
<path fill-rule="evenodd" clip-rule="evenodd" d="M119.211 163.802C119.211 163.802 137.534 153.541 128.983 139.615C128.983 139.615 122.142 131.064 114.813 128.865C114.813 128.865 118.722 149.632 114.813 150.12C110.904 150.609 112.126 126.666 112.126 126.666C112.126 126.666 92.8249 117.383 85.2513 118.115C85.2513 118.115 97.2227 138.393 93.3135 137.905C89.4046 137.416 75.9674 116.894 75.9674 116.894C75.9674 116.894 56.1781 113.228 53.002 124.956C49.826 136.683 54.9565 142.547 57.8883 143.279C60.82 144.012 79.6321 143.768 79.1435 146.211C78.6549 148.654 65.9505 152.563 58.8655 150.365C58.8655 150.365 66.6836 169.665 76.9447 168.688C87.2058 167.711 90.3818 161.359 96.7339 160.87C103.086 160.381 107.728 162.091 104.552 163.802C101.376 165.512 90.6261 164.361 85.4956 168.723C80.365 173.085 76.2118 175.773 85.7399 177.727C95.268 179.682 112.37 178.46 115.79 171.131C119.211 163.802 119.211 163.802 119.211 163.802Z" fill="url(#paint3_linear_14378_45422)"/>
<path fill-rule="evenodd" clip-rule="evenodd" d="M62.041 128.625C62.041 128.625 113.347 145.238 119.21 163.806C119.21 163.806 118.966 172.112 124.096 181.641V185.305C124.096 185.305 118.722 172.845 115.79 171.135C115.79 171.135 127.272 155.011 62.041 128.625Z" fill="#FF7C6E"/>
<path fill-rule="evenodd" clip-rule="evenodd" d="M62.041 128.625C62.041 128.625 113.347 145.238 119.21 163.806C119.21 163.806 118.966 172.112 124.096 181.641V185.305C124.096 185.305 118.722 172.845 115.79 171.135C115.79 171.135 127.272 155.011 62.041 128.625Z" fill="url(#paint4_linear_14378_45422)"/>
<path fill-rule="evenodd" clip-rule="evenodd" d="M203.929 113.975C203.929 113.975 193.901 103.507 202.354 96.0378C202.354 96.0378 208.594 91.7713 213.875 91.7972C213.875 91.7972 207.108 104.719 209.59 105.829C212.072 106.94 216.093 90.8877 216.093 90.8877C216.093 90.8877 230.706 88.6503 235.559 90.6627C235.559 90.6627 223.567 101.635 226.245 102.1C228.925 102.566 241.933 91.7272 241.933 91.7272C241.933 91.7272 255.737 93.2988 255.469 101.681C255.201 110.063 250.631 112.898 248.548 112.791C246.465 112.684 234.095 108.729 233.925 110.441C233.756 112.153 241.354 117.294 246.475 117.272C246.475 117.272 237.422 128.437 230.845 125.722C224.268 123.008 223.453 118.175 219.357 116.571C215.263 114.968 211.854 115.161 213.605 116.93C215.357 118.699 222.686 120.109 225.193 124.022C227.7 127.935 229.9 130.547 223.216 129.917C216.532 129.286 205.488 125.03 204.709 119.503C203.929 113.975 203.929 113.975 203.929 113.975Z" fill="#AFF57A"/>
<path fill-rule="evenodd" clip-rule="evenodd" d="M203.929 113.975C203.929 113.975 193.901 103.507 202.354 96.0378C202.354 96.0378 208.594 91.7713 213.875 91.7972C213.875 91.7972 207.108 104.719 209.59 105.829C212.072 106.94 216.093 90.8877 216.093 90.8877C216.093 90.8877 230.706 88.6503 235.559 90.6627C235.559 90.6627 223.567 101.635 226.245 102.1C228.925 102.566 241.933 91.7272 241.933 91.7272C241.933 91.7272 255.737 93.2988 255.469 101.681C255.201 110.063 250.631 112.898 248.548 112.791C246.465 112.684 234.095 108.729 233.925 110.441C233.756 112.153 241.354 117.294 246.475 117.272C246.475 117.272 237.422 128.437 230.845 125.722C224.268 123.008 223.453 118.175 219.357 116.571C215.263 114.968 211.854 115.161 213.605 116.93C215.357 118.699 222.686 120.109 225.193 124.022C227.7 127.935 229.9 130.547 223.216 129.917C216.532 129.286 205.488 125.03 204.709 119.503C203.929 113.975 203.929 113.975 203.929 113.975Z" fill="url(#paint5_linear_14378_45422)"/>
<path fill-rule="evenodd" clip-rule="evenodd" d="M248.763 102.277C248.763 102.277 211.544 102.9 203.93 113.975C203.93 113.975 202.416 119.507 197.107 124.762L196.369 127.183C196.369 127.183 202.429 120.04 204.71 119.503C204.71 119.503 200.38 106.543 248.763 102.277Z" fill="#AFF57A"/>
<path fill-rule="evenodd" clip-rule="evenodd" d="M248.763 102.277C248.763 102.277 211.544 102.9 203.93 113.975C203.93 113.975 202.416 119.507 197.107 124.762L196.369 127.183C196.369 127.183 202.429 120.04 204.71 119.503C204.71 119.503 200.38 106.543 248.763 102.277Z" fill="url(#paint6_linear_14378_45422)"/>
<path fill-rule="evenodd" clip-rule="evenodd" d="M187.876 213.82C187.876 213.82 162.535 206.262 169.204 186.796C169.204 186.796 175.253 174.405 183.652 169.684C183.652 169.684 184.572 196.276 189.509 195.799C194.446 195.322 186.348 166.242 186.348 166.242C186.348 166.242 207.503 149.517 217.011 148.33C217.011 148.33 207.89 176.543 212.558 174.866C217.226 173.188 228.081 144.271 228.081 144.271C228.081 144.271 251.385 134.314 258.519 147.848C265.653 161.381 260.965 169.999 257.565 171.708C254.165 173.416 230.984 178.3 232.257 181.167C233.531 184.034 250.217 185.336 258.316 180.682C258.316 180.682 254.029 206.55 241.153 208.177C228.276 209.804 222.623 202.874 214.684 204.024C206.745 205.175 201.513 208.555 205.887 209.781C210.26 211.007 223.151 206.631 230.656 210.577C238.162 214.522 244.005 216.68 232.837 221.707C221.669 226.734 200.32 229.946 194.098 221.883C187.876 213.82 187.876 213.82 187.876 213.82Z" fill="#FFDF40"/>
<path fill-rule="evenodd" clip-rule="evenodd" d="M187.876 213.82C187.876 213.82 162.535 206.262 169.204 186.796C169.204 186.796 175.253 174.405 183.652 169.684C183.652 169.684 184.572 196.276 189.509 195.799C194.446 195.322 186.348 166.242 186.348 166.242C186.348 166.242 207.503 149.517 217.011 148.33C217.011 148.33 207.89 176.543 212.558 174.866C217.226 173.188 228.081 144.271 228.081 144.271C228.081 144.271 251.385 134.314 258.519 147.848C265.653 161.381 260.965 169.999 257.565 171.708C254.165 173.416 230.984 178.3 232.257 181.167C233.531 184.034 250.217 185.336 258.316 180.682C258.316 180.682 254.029 206.55 241.153 208.177C228.276 209.804 222.623 202.874 214.684 204.024C206.745 205.175 201.513 208.555 205.887 209.781C210.26 211.007 223.151 206.631 230.656 210.577C238.162 214.522 244.005 216.68 232.837 221.707C221.669 226.734 200.32 229.946 194.098 221.883C187.876 213.82 187.876 213.82 187.876 213.82Z" fill="url(#paint7_linear_14378_45422)"/>
<path fill-rule="evenodd" clip-rule="evenodd" d="M248.422 154.844C248.422 154.844 189.963 189.393 187.876 213.822C187.876 213.822 190.465 223.961 186.787 237.081L187.797 241.584C187.797 241.584 190.967 224.794 194.098 221.885C194.098 221.885 175.546 205.238 248.422 154.844Z" fill="#FF7C6E"/>
<path fill-rule="evenodd" clip-rule="evenodd" d="M248.422 154.844C248.422 154.844 189.963 189.393 187.876 213.822C187.876 213.822 190.465 223.961 186.787 237.081L187.797 241.584C187.797 241.584 190.967 224.794 194.098 221.885C194.098 221.885 175.546 205.238 248.422 154.844Z" fill="url(#paint8_linear_14378_45422)"/>
<path d="M122.956 64.2104C123.598 59.5356 117.084 55.6879 112.199 55.2869C109.868 55.0864 107.45 55.4498 105.242 54.6728C100.468 52.9808 98.5557 46.7017 93.8804 44.6463C90.3893 43.1549 86.3802 44.4834 83.0001 46.213C79.6201 47.9425 76.2647 50.1233 72.49 50.3739C69.2086 50.587 65.6312 49.3462 62.757 50.9755C60.6105 52.2288 59.488 54.7354 57.5142 56.1767C55.4603 57.4671 53.0821 58.1244 50.6678 58.0692C48.2605 58.0029 45.8624 58.3984 43.5993 59.2348C41.4159 60.25 39.6149 62.6062 40.0713 65L122.956 64.2104Z" fill="#5496FF"/>
<path d="M122.956 64.2104C123.598 59.5356 117.084 55.6879 112.199 55.2869C109.868 55.0864 107.45 55.4498 105.242 54.6728C100.468 52.9808 98.5557 46.7017 93.8804 44.6463C90.3893 43.1549 86.3802 44.4834 83.0001 46.213C79.6201 47.9425 76.2647 50.1233 72.49 50.3739C69.2086 50.587 65.6312 49.3462 62.757 50.9755C60.6105 52.2288 59.488 54.7354 57.5142 56.1767C55.4603 57.4671 53.0821 58.1244 50.6678 58.0692C48.2605 58.0029 45.8624 58.3984 43.5993 59.2348C41.4159 60.25 39.6149 62.6062 40.0713 65L122.956 64.2104Z" fill="url(#paint9_linear_14378_45422)"/>
<path d="M221.056 14.3731C221.512 11.0375 216.8 8.29174 213.261 8.00382C211.576 7.8704 209.827 8.13022 208.226 7.56844C204.764 6.36762 203.381 1.8874 199.996 0.461872C197.475 -0.605518 194.56 0.349513 192.11 1.57842C189.659 2.80732 187.243 4.38734 184.505 4.54183C182.124 4.6893 179.54 3.8396 177.482 4.97019C175.93 5.84095 175.123 7.62462 173.69 8.67796C172.258 9.73131 170.467 9.93495 168.725 10.0262C166.984 10.1175 165.214 10.1386 163.613 10.8619C162.012 11.5852 160.727 13.2565 161.05 14.9629L221.056 14.3731Z" fill="#5496FF"/>
<path d="M221.056 14.3731C221.512 11.0375 216.8 8.29174 213.261 8.00382C211.576 7.8704 209.827 8.13022 208.226 7.56844C204.764 6.36762 203.381 1.8874 199.996 0.461872C197.475 -0.605518 194.56 0.349513 192.11 1.57842C189.659 2.80732 187.243 4.38734 184.505 4.54183C182.124 4.6893 179.54 3.8396 177.482 4.97019C175.93 5.84095 175.123 7.62462 173.69 8.67796C172.258 9.73131 170.467 9.93495 168.725 10.0262C166.984 10.1175 165.214 10.1386 163.613 10.8619C162.012 11.5852 160.727 13.2565 161.05 14.9629L221.056 14.3731Z" fill="url(#paint10_linear_14378_45422)"/>
<path d="M195.851 244.871L124.926 244.825C116.401 244.825 109.477 238.101 109.477 229.812V57.0068C109.477 48.7173 116.401 41.9935 124.926 42L195.816 42.039C204.348 42.039 211.265 48.7628 211.265 57.0522L211.23 229.857C211.3 238.153 204.383 244.871 195.851 244.871Z" fill="#283138"/>
<path d="M195.957 48.1562H182.207C181.279 48.1983 180.407 48.5788 179.782 49.2144C179.157 49.85 178.829 50.6889 178.871 51.5474V53.9706C178.913 54.8301 178.585 55.6699 177.958 56.3057C177.332 56.9415 176.458 57.3213 175.529 57.3617H148.739C147.81 57.3196 146.937 56.9382 146.311 56.3012C145.686 55.6642 145.359 54.8236 145.403 53.9641V51.5474C145.445 50.6889 145.118 49.85 144.492 49.2144C143.867 48.5788 142.995 48.1983 142.067 48.1562H125.214C119.238 48.1562 114.393 52.8662 114.393 58.674V227.334C114.393 233.136 119.231 237.846 125.2 237.852L195.957 237.891C201.933 237.891 206.778 233.188 206.778 227.38L206.764 58.6935C206.764 52.8467 201.933 48.1562 195.957 48.1562Z" fill="white"/>
<path d="M195.957 48H182.207C181.279 48.0421 180.407 48.4226 179.782 49.0582C179.157 49.6938 178.829 50.5327 178.871 51.3911V53.8143C178.913 54.6739 178.585 55.5137 177.958 56.1495C177.332 56.7852 176.458 57.165 175.529 57.2054H148.739C147.81 57.1634 146.937 56.782 146.311 56.145C145.686 55.5079 145.359 54.6674 145.403 53.8078V51.3911C145.445 50.5327 145.118 49.6938 144.492 49.0582C143.867 48.4226 142.995 48.0421 142.067 48H125.214C119.238 48 114.393 52.7099 114.393 58.5177V227.178C114.393 232.979 119.231 237.689 125.2 237.696L195.957 237.735C201.933 237.735 206.778 233.031 206.778 227.224L206.764 58.5372C206.764 52.6904 201.933 48 195.957 48Z" fill="#FCE6E6"/>
<path d="M276.718 53.5957L234.508 63.9694C231.303 64.7573 228.432 61.8709 229.295 58.727L241.043 15.8842C241.935 12.6341 246.105 11.6092 248.415 14.0724L278.876 46.5411C281.111 48.9235 279.922 52.8079 276.718 53.5957Z" fill="white"/>
<path d="M244.765 14.9928C243.821 15.2266 243.108 15.9281 242.857 16.87L231.502 59.4621C231.26 60.3731 231.508 61.3191 232.166 61.9933C232.825 62.6676 233.762 62.9352 234.675 62.7095L275.886 52.5111C276.799 52.2853 277.504 51.6111 277.773 50.7072C278.042 49.8038 277.822 48.8508 277.183 48.1576L247.326 15.7644C246.665 15.0476 245.708 14.7597 244.765 14.9928ZM276.659 55.6413L235.447 65.8397C233.42 66.3412 231.337 65.7468 229.874 64.249C228.411 62.7517 227.86 60.6489 228.4 58.6248L239.754 16.0332C240.312 13.9404 241.896 12.3808 243.992 11.8626C246.088 11.3439 248.215 11.9846 249.682 13.5762L279.54 45.9698C280.959 47.5093 281.449 49.6265 280.851 51.6343C280.253 53.6417 278.686 55.1397 276.659 55.6413Z" fill="#FF7C6E"/>
<path d="M244.765 14.9928C243.821 15.2266 243.108 15.9281 242.857 16.87L231.502 59.4621C231.26 60.3731 231.508 61.3191 232.166 61.9933C232.825 62.6676 233.762 62.9352 234.675 62.7095L275.886 52.5111C276.799 52.2853 277.504 51.6111 277.773 50.7072C278.042 49.8038 277.822 48.8508 277.183 48.1576L247.326 15.7644C246.665 15.0476 245.708 14.7597 244.765 14.9928ZM276.659 55.6413L235.447 65.8397C233.42 66.3412 231.337 65.7468 229.874 64.249C228.411 62.7517 227.86 60.6489 228.4 58.6248L239.754 16.0332C240.312 13.9404 241.896 12.3808 243.992 11.8626C246.088 11.3439 248.215 11.9846 249.682 13.5762L279.54 45.9698C280.959 47.5093 281.449 49.6265 280.851 51.6343C280.253 53.6417 278.686 55.1397 276.659 55.6413Z" fill="url(#paint11_linear_14378_45422)"/>
<path d="M255.043 43.3899L248.751 44.9136L242.744 24.8553L250.818 22.8996L255.043 43.3899ZM249.409 52.0412C249.275 51.5105 249.252 50.9953 249.339 50.496C249.426 49.9971 249.612 49.5381 249.895 49.1194C250.179 48.7012 250.555 48.3364 251.025 48.0265C251.493 47.7171 252.051 47.4832 252.698 47.3265C253.344 47.17 253.953 47.1212 254.524 47.1792C255.095 47.2372 255.606 47.3867 256.056 47.6273C256.506 47.8683 256.889 48.19 257.204 48.5915C257.518 48.9932 257.742 49.4596 257.876 49.9902C258.01 50.5214 258.033 51.0328 257.943 51.5232C257.854 52.0148 257.667 52.4699 257.384 52.888C257.1 53.3068 256.719 53.6723 256.241 53.9841C255.764 54.2959 255.201 54.5306 254.555 54.6871C253.908 54.8437 253.304 54.8918 252.742 54.8319C252.179 54.772 251.673 54.6213 251.223 54.3801C250.773 54.1396 250.391 53.8225 250.079 53.4281C249.766 53.0344 249.543 52.5718 249.409 52.0412Z" fill="#FF7C6E"/>
<path d="M255.043 43.3899L248.751 44.9136L242.744 24.8553L250.818 22.8996L255.043 43.3899ZM249.409 52.0412C249.275 51.5105 249.252 50.9953 249.339 50.496C249.426 49.9971 249.612 49.5381 249.895 49.1194C250.179 48.7012 250.555 48.3364 251.025 48.0265C251.493 47.7171 252.051 47.4832 252.698 47.3265C253.344 47.17 253.953 47.1212 254.524 47.1792C255.095 47.2372 255.606 47.3867 256.056 47.6273C256.506 47.8683 256.889 48.19 257.204 48.5915C257.518 48.9932 257.742 49.4596 257.876 49.9902C258.01 50.5214 258.033 51.0328 257.943 51.5232C257.854 52.0148 257.667 52.4699 257.384 52.888C257.1 53.3068 256.719 53.6723 256.241 53.9841C255.764 54.2959 255.201 54.5306 254.555 54.6871C253.908 54.8437 253.304 54.8918 252.742 54.8319C252.179 54.772 251.673 54.6213 251.223 54.3801C250.773 54.1396 250.391 53.8225 250.079 53.4281C249.766 53.0344 249.543 52.5718 249.409 52.0412Z" fill="url(#paint12_linear_14378_45422)"/>
<path d="M168.486 119H151.51C144.611 119 138.998 124.613 138.998 131.512V148.488C138.998 155.387 144.611 161 151.51 161H168.486C175.385 161 180.998 155.387 180.998 148.488V131.512C180.998 124.613 175.385 119 168.486 119ZM176.773 148.488C176.773 153.065 173.063 156.775 168.486 156.775H151.51C146.933 156.775 143.223 153.065 143.223 148.488V131.512C143.223 126.935 146.933 123.225 151.51 123.225H168.486C173.063 123.225 176.773 126.935 176.773 131.512V148.488Z" fill="url(#paint13_linear_14378_45422)"/>
<path d="M159.997 129.141C154.008 129.141 149.135 134.014 149.135 140.003C149.135 145.993 154.008 150.866 159.997 150.866C165.987 150.866 170.86 145.993 170.86 140.003C170.86 134.014 165.987 129.141 159.997 129.141ZM159.997 146.641C156.332 146.641 153.36 143.669 153.36 140.003C153.36 136.338 156.332 133.366 159.997 133.366C163.663 133.366 166.635 136.338 166.635 140.003C166.635 143.669 163.663 146.641 159.997 146.641Z" fill="url(#paint14_linear_14378_45422)"/>
<path d="M170.882 131.823C172.32 131.823 173.485 130.658 173.485 129.22C173.485 127.783 172.32 126.617 170.882 126.617C169.445 126.617 168.279 127.783 168.279 129.22C168.279 130.658 169.445 131.823 170.882 131.823Z" fill="url(#paint15_linear_14378_45422)"/>
<defs>
<linearGradient id="paint0_linear_14378_45422" x1="325" y1="245" x2="-32.3052" y2="151.646" gradientUnits="userSpaceOnUse">
<stop stop-color="#8739E5" stop-opacity="0"/>
<stop offset="1" stop-color="#8739E5"/>
</linearGradient>
<linearGradient id="paint1_linear_14378_45422" x1="133.027" y1="126.747" x2="94.3277" y2="118.967" gradientUnits="userSpaceOnUse">
<stop stop-color="#FF8359" stop-opacity="0"/>
<stop offset="1" stop-color="#FF8359"/>
</linearGradient>
<linearGradient id="paint2_linear_14378_45422" x1="113.668" y1="218.391" x2="65.5368" y2="207.903" gradientUnits="userSpaceOnUse">
<stop stop-color="#54D169" stop-opacity="0"/>
<stop offset="1" stop-color="#54D169"/>
</linearGradient>
<linearGradient id="paint3_linear_14378_45422" x1="131.257" y1="178.558" x2="42.5557" y2="158.843" gradientUnits="userSpaceOnUse">
<stop stop-color="#FF8359" stop-opacity="0"/>
<stop offset="1" stop-color="#FF8359"/>
</linearGradient>
<linearGradient id="paint4_linear_14378_45422" x1="124.096" y1="185.305" x2="53.7805" y2="171.875" gradientUnits="userSpaceOnUse">
<stop stop-color="#F5317F" stop-opacity="0"/>
<stop offset="1" stop-color="#F5317F"/>
</linearGradient>
<linearGradient id="paint5_linear_14378_45422" x1="216.204" y1="138.484" x2="260.332" y2="94.8938" gradientUnits="userSpaceOnUse">
<stop stop-color="#54D169" stop-opacity="0"/>
<stop offset="1" stop-color="#54D169"/>
</linearGradient>
<linearGradient id="paint6_linear_14378_45422" x1="200.116" y1="133.097" x2="222.869" y2="81.6846" gradientUnits="userSpaceOnUse">
<stop stop-color="#54D169" stop-opacity="0"/>
<stop offset="1" stop-color="#54D169"/>
</linearGradient>
<linearGradient id="paint7_linear_14378_45422" x1="177.142" y1="235.271" x2="280.692" y2="186.605" gradientUnits="userSpaceOnUse">
<stop stop-color="#FF8359" stop-opacity="0"/>
<stop offset="1" stop-color="#FF8359"/>
</linearGradient>
<linearGradient id="paint8_linear_14378_45422" x1="187.797" y1="241.584" x2="270.489" y2="205.707" gradientUnits="userSpaceOnUse">
<stop stop-color="#F5317F" stop-opacity="0"/>
<stop offset="1" stop-color="#F5317F"/>
</linearGradient>
<linearGradient id="paint9_linear_14378_45422" x1="123" y1="65" x2="56.93" y2="19.4455" gradientUnits="userSpaceOnUse">
<stop stop-color="#8739E5" stop-opacity="0"/>
<stop offset="1" stop-color="#8739E5"/>
</linearGradient>
<linearGradient id="paint10_linear_14378_45422" x1="221.086" y1="14.9629" x2="173.749" y2="-18.1986" gradientUnits="userSpaceOnUse">
<stop stop-color="#8739E5" stop-opacity="0"/>
<stop offset="1" stop-color="#8739E5"/>
</linearGradient>
<linearGradient id="paint11_linear_14378_45422" x1="274.325" y1="7.00148" x2="215.439" y2="27.6605" gradientUnits="userSpaceOnUse">
<stop stop-color="#F5317F" stop-opacity="0"/>
<stop offset="1" stop-color="#F5317F"/>
</linearGradient>
<linearGradient id="paint12_linear_14378_45422" x1="253.503" y1="22.4713" x2="240.913" y2="25.2616" gradientUnits="userSpaceOnUse">
<stop stop-color="#F5317F" stop-opacity="0"/>
<stop offset="1" stop-color="#F5317F"/>
</linearGradient>
<linearGradient id="paint13_linear_14378_45422" x1="159.998" y1="160.878" x2="159.998" y2="119.326" gradientUnits="userSpaceOnUse">
<stop stop-color="#E09B3D"/>
<stop offset="0.3" stop-color="#C74C4D"/>
<stop offset="0.6" stop-color="#C21975"/>
<stop offset="1" stop-color="#7024C4"/>
</linearGradient>
<linearGradient id="paint14_linear_14378_45422" x1="159.997" y1="160.881" x2="159.997" y2="119.33" gradientUnits="userSpaceOnUse">
<stop stop-color="#E09B3D"/>
<stop offset="0.3" stop-color="#C74C4D"/>
<stop offset="0.6" stop-color="#C21975"/>
<stop offset="1" stop-color="#7024C4"/>
</linearGradient>
<linearGradient id="paint15_linear_14378_45422" x1="170.882" y1="160.879" x2="170.882" y2="119.327" gradientUnits="userSpaceOnUse">
<stop stop-color="#E09B3D"/>
<stop offset="0.3" stop-color="#C74C4D"/>
<stop offset="0.6" stop-color="#C21975"/>
<stop offset="1" stop-color="#7024C4"/>
</linearGradient>
</defs>
</svg>
