<svg width="1497" height="990" viewBox="0 0 1497 990" fill="none" xmlns="http://www.w3.org/2000/svg">
<path d="M1046 429C1198.5 507 1465 464.375 1465 464.375V989.375C1465 989.375 1026.73 988.723 823 829.875C704.053 737.132 719.943 633.422 590.5 556C403.319 444.044 25 526.875 25 526.875V2.375C25 2.375 576.257 27.561 784.5 204C891.104 294.323 921.604 365.374 1046 429Z" fill="#EBF5FF"/>
<path d="M1496 498.998C1496 498.998 1237.42 585.347 994 472.998C714.5 343.998 791.404 246.356 582.5 133.998C331.5 -1.00238 0.5 1.99762 0.5 1.99762" stroke="#FFDF40" stroke-width="3"/>
<path d="M1496 498.998C1496 498.998 1237.42 585.347 994 472.998C714.5 343.998 791.404 246.356 582.5 133.998C331.5 -1.00238 0.5 1.99762 0.5 1.99762" stroke="url(#paint0_linear_16264_52557)" stroke-width="3"/>
<defs>
<linearGradient id="paint0_linear_16264_52557" x1="0.499955" y1="530.694" x2="1412.96" y2="-166.287" gradientUnits="userSpaceOnUse">
<stop stop-color="#FF8359" stop-opacity="0"/>
<stop offset="1" stop-color="#FF8359"/>
</linearGradient>
</defs>
</svg>
