<svg width="300" height="600" viewBox="0 0 300 600" fill="none" xmlns="http://www.w3.org/2000/svg">
<path fill-rule="evenodd" clip-rule="evenodd" d="M185.195 22.8362C221.593 7.75977 260.603 6.10352e-05 300 6.10352e-05L300 150C217.157 150 150 217.157 150 300C150 382.843 217.157 450 300 450V600C260.603 600 221.593 592.24 185.195 577.164C148.797 562.087 115.726 539.99 87.868 512.132C60.0104 484.274 37.9126 451.203 22.8361 414.805C7.75973 378.407 0 339.397 0 300C0 260.603 7.75973 221.593 22.8361 185.195C37.9125 148.797 60.0104 115.726 87.868 87.868C115.726 60.0104 148.797 37.9126 185.195 22.8362Z" fill="#FF9A6D"/>
<path fill-rule="evenodd" clip-rule="evenodd" d="M162.114 162.114C198.684 125.545 248.283 105 300 105L300 202.5C246.152 202.5 202.5 246.152 202.5 300C202.5 353.848 246.152 397.5 300 397.5L300 495C248.283 495 198.684 474.455 162.114 437.886C125.545 401.316 105 351.717 105 300C105 248.283 125.545 198.684 162.114 162.114Z" fill="#FFF1E3"/>
</svg>
