<svg width="1440" height="1005" viewBox="0 0 1440 1005" fill="none" xmlns="http://www.w3.org/2000/svg">
<path d="M548.5 413.001C376.443 543.246 0 480.001 0 480.001V1005C0 1005 438.27 1004.35 642 845.501C760.947 752.758 752.057 619.923 881.5 542.501C1068.68 430.544 1440 542.501 1440 542.501V18.0006C1440 18.0006 956.243 -60.4383 748 116.001C641.396 206.323 659.904 328.669 548.5 413.001Z" fill="#EBF5FF"/>
<path d="M0 442.997C0 442.997 293.99 573.459 477 500.997C697.582 413.659 676.065 167.838 891 67.4975C1090.7 -25.7321 1440 57.9377 1440 57.9377" stroke="#FFDF40" stroke-width="3"/>
<path d="M0 442.997C0 442.997 293.99 573.459 477 500.997C697.582 413.659 676.065 167.838 891 67.4975C1090.7 -25.7321 1440 57.9377 1440 57.9377" stroke="url(#paint0_linear_16264_51654)" stroke-width="3"/>
<defs>
<linearGradient id="paint0_linear_16264_51654" x1="1440" y1="522.91" x2="90.2134" y2="-155.944" gradientUnits="userSpaceOnUse">
<stop stop-color="#FF8359" stop-opacity="0"/>
<stop offset="1" stop-color="#FF8359"/>
</linearGradient>
</defs>
</svg>
