<svg width="200" height="400" viewBox="0 0 200 400" fill="none" xmlns="http://www.w3.org/2000/svg">
<path fill-rule="evenodd" clip-rule="evenodd" d="M76.5367 15.2241C52.2716 5.17316 26.2644 0 0 0L0 100C55.2285 100 100 144.772 100 200C100 255.228 55.2285 300 0 300L-1.52588e-05 400C26.2644 400 52.2716 394.827 76.5367 384.776C100.802 374.725 122.85 359.993 141.421 341.421C159.993 322.85 174.725 300.802 184.776 276.537C194.827 252.272 200 226.264 200 200C200 173.736 194.827 147.728 184.776 123.463C174.725 99.1982 159.993 77.1504 141.421 58.5786C122.85 40.0069 100.802 25.275 76.5367 15.2241Z" fill="#FF9A6D"/>
<path fill-rule="evenodd" clip-rule="evenodd" d="M91.9239 108.076C67.5441 83.6964 34.4781 70 0 70L0 135C35.8985 135 65 164.102 65 200C65 235.899 35.8985 265 0 265L1.52588e-05 330C34.4782 330 67.5442 316.304 91.9239 291.924C116.304 267.544 130 234.478 130 200C130 165.522 116.304 132.456 91.9239 108.076Z" fill="#FFF1E3"/>
</svg>
