<svg width="48" height="48" viewBox="0 0 48 48" fill="none" xmlns="http://www.w3.org/2000/svg">
<path d="M44.2603 23.929C44.2603 12.7014 35.1585 3.59961 23.9309 3.59961C12.7033 3.59961 3.60156 12.7014 3.60156 23.929C3.60156 35.1566 12.7033 44.2583 23.9309 44.2583C35.1585 44.2583 44.2603 35.1566 44.2603 23.929Z" fill="#FF9F43"/>
<path d="M31.4126 29.7002C31.9127 29.7002 32.3924 29.8898 32.7461 30.2273C33.0998 30.5651 33.2984 31.0229 33.2984 31.5002V35.1002C33.2984 35.5775 33.0998 36.0353 32.7461 36.3731C32.3924 36.7106 31.9127 36.9002 31.4126 36.9002H8.78415C8.28402 36.9002 7.80438 36.7106 7.45074 36.3731C7.0971 36.0353 6.89844 35.5775 6.89844 35.1002V31.5002C6.89844 31.0229 7.0971 30.5651 7.45074 30.2273C7.80438 29.8898 8.28402 29.7002 8.78415 29.7002H31.4126Z" fill="#F70B57"/>
<path d="M31.4126 29.7002C31.9127 29.7002 32.3924 29.8898 32.7461 30.2273C33.0998 30.5651 33.2984 31.0229 33.2984 31.5002V33.3002H6.89844V31.5002C6.89844 31.0229 7.0971 30.5651 7.45074 30.2273C7.80438 29.8898 8.28402 29.7002 8.78415 29.7002H31.4126Z" fill="#FC5356"/>
<path d="M23.1517 20.9276C22.8016 20.59 22.3268 20.4004 21.8318 20.4004H8.7651C8.27004 20.4004 7.79523 20.59 7.44519 20.9276C7.09512 21.2652 6.89844 21.723 6.89844 22.2004V25.8004C6.89844 26.2778 7.09512 26.7356 7.44519 27.0732C7.79523 27.4108 8.27004 27.6004 8.7651 27.6004H21.8318C22.3268 27.6004 22.8016 27.4108 23.1517 27.0732C23.5018 26.7356 23.6984 26.2778 23.6984 25.8004V22.2004C23.6984 21.723 23.5018 21.2652 23.1517 20.9276Z" fill="#85EEF2"/>
<path d="M23.1517 20.9276C22.8016 20.59 22.3268 20.4004 21.8318 20.4004H8.7651C8.27004 20.4004 7.79523 20.59 7.44519 20.9276C7.09512 21.2652 6.89844 21.723 6.89844 22.2004V24.0004H23.6984V22.2004C23.6984 21.723 23.5018 21.2652 23.1517 20.9276Z" fill="#C8FDFA"/>
<path d="M15.9361 11.3262C15.576 10.9887 15.0877 10.799 14.5784 10.799L6.89844 10.7988V10.8018V17.999H14.5784C15.0877 17.999 15.576 17.8094 15.9361 17.4718C16.2961 17.1343 16.4984 16.6764 16.4984 16.199V12.599C16.4984 12.1216 16.2961 11.6638 15.9361 11.3262Z" fill="#FFD330"/>
<path d="M15.9373 11.326C15.5772 10.9885 15.0888 10.7988 14.5796 10.7988L6.89844 10.8L6.89961 14.3988H16.4996V12.5988C16.4996 12.1214 16.2973 11.6636 15.9373 11.326Z" fill="#FFE795"/>
<mask id="mask0_23397_69283" style="mask-type:alpha" maskUnits="userSpaceOnUse" x="4" y="4" width="40" height="40">
<path d="M7.5 7.5V40.2H40.2" stroke="#2A3B3B" stroke-width="6" stroke-linecap="round"/>
</mask>
<g mask="url(#mask0_23397_69283)">
<path d="M7.5 7.5V38.4" stroke="#45686E" stroke-width="6" stroke-linecap="square"/>
<path d="M7.5 40.2002H40.2" stroke="#2A3B3B" stroke-width="6" stroke-linecap="square"/>
</g>
</svg>
