<svg width="24" height="24" viewBox="0 0 24 24" fill="none" xmlns="http://www.w3.org/2000/svg">
<path fill-rule="evenodd" clip-rule="evenodd" d="M11.4949 3.69138C11.3776 3.7686 10.3483 4.91982 8.928 6.5625C7.62396 8.07072 6.5316 9.32256 6.50052 9.34434C6.4644 9.36966 5.4999 8.92506 3.8313 8.11386C1.27626 6.87174 1.2123 6.84378 0.92988 6.84378C0.37764 6.84378 0 7.21182 0 7.75014C0 8.05464 3.52812 19.7559 3.7074 20.046C3.7611 20.1329 3.89472 20.2565 4.00428 20.3207L4.20354 20.4375H12.0067H19.8098L20.0192 20.3047C20.1532 20.2197 20.2665 20.0972 20.3335 19.9648C20.552 19.5327 24 8.0415 24 7.74504C24 7.20798 23.6159 6.84378 23.0495 6.84378C22.7986 6.84378 22.6484 6.91008 20.1712 8.11434C18.4796 8.9367 17.5373 9.3708 17.5003 9.34482C17.4688 9.32274 16.376 8.07072 15.072 6.5625C12.4729 3.55656 12.479 3.5625 12 3.5625C11.7413 3.5625 11.6587 3.58362 11.4949 3.69138ZM14.3593 8.69766C16.9298 11.6628 16.8207 11.5599 17.3522 11.5208C17.6222 11.5009 17.8159 11.4172 19.541 10.5757C20.5819 10.0678 21.4424 9.6612 21.4533 9.67206C21.4641 9.68286 20.8663 11.6876 20.1248 14.1271L18.7766 18.5625H12.0001H5.22366L3.87546 14.127C3.13392 11.6875 2.53626 9.6825 2.5473 9.67146C2.55828 9.66042 3.4188 10.067 4.45944 10.5751C6.22356 11.4362 6.37248 11.5001 6.6603 11.5198C7.1802 11.5554 7.09044 11.6405 9.65886 8.67612C10.9336 7.20492 11.9911 6.00618 12.0087 6.0123C12.0264 6.01842 13.0841 7.22688 14.3593 8.69766Z" fill="white"/>
</svg>
