<svg width="22" height="22" viewBox="0 0 22 22" fill="none" xmlns="http://www.w3.org/2000/svg">
<g clip-path="url(#clip0_18426_55961)">
<path d="M20.095 22.0029C20.7386 22.0029 21.2606 21.481 21.2606 20.8373V2.04845C21.2606 1.40462 20.7386 0.882812 20.095 0.882812H1.30627C0.662355 0.882812 0.140625 1.40462 0.140625 2.04845V20.8373C0.140625 21.481 0.662355 22.0029 1.30627 22.0029H20.095Z" fill="#395185"/>
<path d="M14.7138 22.0005V13.8217H17.4591L17.8702 10.6343H14.7138V8.59923C14.7138 7.67639 14.9701 7.04749 16.2935 7.04749L17.9814 7.04675V4.19596C17.6893 4.1571 16.6874 4.07031 15.5219 4.07031C13.0883 4.07031 11.4223 5.55572 11.4223 8.28367V10.6343H8.66992V13.8217H11.4223V22.0005H14.7138Z" fill="white"/>
</g>
<rect x="0.640625" y="1.38281" width="20.12" height="20.12" rx="10.06" stroke="white"/>
<defs>
<clipPath id="clip0_18426_55961">
<rect x="0.140625" y="0.882812" width="21.12" height="21.12" rx="10.56" fill="white"/>
</clipPath>
</defs>
</svg>
