<svg width="48" height="48" viewBox="0 0 48 48" fill="none" xmlns="http://www.w3.org/2000/svg">
<path d="M41.2414 6.06436L8.87173 4.36806C6.9276 4.26618 5.26897 5.75963 5.16709 7.70376L3.98109 30.3357C3.87921 32.2798 5.37266 33.9385 7.31679 34.0403L39.6865 35.7366C41.6306 35.8385 43.2892 34.3451 43.3911 32.4009L44.5771 9.769C44.679 7.82486 43.1856 6.16624 41.2414 6.06436Z" stroke="#368AC8" stroke-width="0.5"/>
<path d="M39.6866 4.06174L7.31704 5.75969C5.3729 5.86167 3.87955 7.52037 3.98153 9.4645L5.16868 32.0964C5.27066 34.0405 6.92936 35.5339 8.87349 35.4319L41.2431 33.7339C43.1872 33.632 44.6806 31.9733 44.5786 30.0291L43.3915 7.39725C43.2895 5.45312 41.6308 3.95976 39.6866 4.06174Z" stroke="#368AC8" stroke-width="0.5"/>
<path d="M38.0984 6.59961H9.89844V29.9996H38.0984V6.59961Z" fill="white"/>
<path fill-rule="evenodd" clip-rule="evenodd" d="M8.83332 5.40039H39.1668C41.55 5.40039 43.5 6.86511 43.5 8.65536V31.4401C43.5 33.2302 41.55 34.6951 39.1668 34.6951H19.1519L14.9438 42.9001L10.6025 34.6951H8.83332C6.45 34.6951 4.5 33.2302 4.5 31.4401V8.65536C4.5 6.86511 6.45 5.40039 8.83332 5.40039ZM21.2917 27.762C21.2917 28.9012 22.505 29.8126 24.0217 29.8126C25.56 29.8126 26.7083 28.885 26.73 27.762C26.73 26.6065 25.56 25.7276 24.0217 25.7276C22.505 25.7276 21.2917 26.6065 21.2917 27.762ZM28.1568 19.8231C28.8724 19.3003 29.6964 18.6984 30.5433 17.7693C32.0166 16.1255 31.4532 13.9284 30.5001 12.7566C29.3733 11.3732 27.185 10.2828 23.9783 10.2828C21.1183 10.2828 18.9083 11.3407 17.5867 12.7892C17.4237 12.9654 17.3161 13.1671 17.2719 13.3791C17.2277 13.5911 17.2481 13.8078 17.3316 14.0131C17.415 14.2183 17.5593 14.4066 17.7536 14.5639C17.9479 14.7212 18.1871 14.8433 18.4533 14.9212C19.3417 15.1978 20.295 14.9212 20.8367 14.3353C21.465 13.6355 22.4834 13.0496 24.0217 13.0496C27.5317 13.0496 28.225 15.5233 26.99 16.8416C26.4676 17.4011 25.7768 17.8795 25.0775 18.3638C24.2107 18.964 23.331 19.5732 22.7433 20.3569C22.3317 20.9103 22.1583 21.4799 22.0933 22.0333C21.985 22.8796 22.8733 23.5956 24 23.5956H24.13C25.105 23.5956 25.9717 23.0586 26.08 22.3262C26.145 21.8217 26.275 21.5938 26.4917 21.3009C26.9021 20.7397 27.4811 20.3167 28.1568 19.8231Z" fill="#368AC8"/>
</svg>
