<svg width="32" height="32" viewBox="0 0 32 32" fill="none" xmlns="http://www.w3.org/2000/svg">
<rect x="0.5" y="0.5" width="31" height="31" rx="15.5" fill="url(#paint0_linear_16197_55445)"/>
<path d="M20.0431 6H11.9593C8.67401 6 6.00122 8.67279 6.00122 11.9581V20.0419C6.00122 23.3272 8.67401 26 11.9593 26H20.0431C23.3284 26 26.0012 23.3272 26.0012 20.0419V11.9581C26.0012 8.67279 23.3284 6 20.0431 6ZM23.9892 20.0419C23.9892 22.2213 22.2225 23.988 20.0431 23.988H11.9593C9.77997 23.988 8.01322 22.2213 8.01322 20.0419V11.9581C8.01322 9.77871 9.77997 8.012 11.9593 8.012H20.0431C22.2225 8.012 23.9892 9.77871 23.9892 11.9581V20.0419Z" fill="white"/>
<path d="M16.0013 10.8281C13.1491 10.8281 10.8286 13.1486 10.8286 16.0008C10.8286 18.853 13.1491 21.1735 16.0013 21.1735C18.8536 21.1735 21.174 18.853 21.174 16.0008C21.174 13.1486 18.8536 10.8281 16.0013 10.8281ZM16.0013 19.1616C14.2557 19.1616 12.8406 17.7465 12.8406 16.0008C12.8406 14.2552 14.2557 12.8401 16.0013 12.8401C17.747 12.8401 19.162 14.2552 19.162 16.0008C19.162 17.7464 17.7469 19.1616 16.0013 19.1616Z" fill="white"/>
<path d="M21.1841 12.104C21.8686 12.104 22.4236 11.549 22.4236 10.8645C22.4236 10.1799 21.8686 9.625 21.1841 9.625C20.4995 9.625 19.9446 10.1799 19.9446 10.8645C19.9446 11.549 20.4995 12.104 21.1841 12.104Z" fill="white"/>
<rect x="0.5" y="0.5" width="31" height="31" rx="15.5" stroke="white"/>
<defs>
<linearGradient id="paint0_linear_16197_55445" x1="16" y1="32" x2="16" y2="0" gradientUnits="userSpaceOnUse">
<stop stop-color="#E09B3D"/>
<stop offset="0.3" stop-color="#C74C4D"/>
<stop offset="0.6" stop-color="#C21975"/>
<stop offset="1" stop-color="#7024C4"/>
</linearGradient>
</defs>
</svg>
