<svg width="48" height="48" viewBox="0 0 48 48" fill="none" xmlns="http://www.w3.org/2000/svg">
<path d="M44.4016 24.9C44.4016 13.6334 35.2682 4.5 24.0016 4.5C12.735 4.5 3.60156 13.6334 3.60156 24.9C3.60156 36.1666 12.735 45.3 24.0016 45.3C35.2682 45.3 44.4016 36.1666 44.4016 24.9Z" fill="#44B51F"/>
<path d="M7.88473 27.4067C4.07566 20.8093 6.29956 12.3939 12.8518 8.61092C19.4041 4.82798 27.804 7.10975 31.6131 13.7072C33.1314 16.3372 33.6903 19.256 33.3993 22.0546C33.1893 25.6022 30.4638 31.0436 31.4673 32.7815L32.6139 34.7672C32.8425 35.1635 32.709 35.669 32.3154 35.8964L26.7498 39.1097C26.3563 39.3368 25.8517 39.1997 25.6229 38.8034L24.4764 36.8177C23.473 35.0798 17.398 34.7192 14.2208 33.1274C11.6516 31.9802 9.40315 30.0368 7.88473 27.4067Z" fill="#FAD32A"/>
<path d="M14.6262 24.0285C14.3522 24.1867 14.1367 24.4018 13.9905 24.6664C13.5973 25.3773 13.8536 26.6091 14.5875 27.5322C15.9001 29.1828 18.5138 30.2256 22.1669 28.7688C20.8233 26.8851 19.4404 25.2499 18.264 24.4843C17.2597 23.8308 16.1147 23.5757 15.2007 23.8019C14.9883 23.8543 14.7961 23.9304 14.6262 24.0285ZM25.3189 17.8551C25.149 17.9532 24.987 18.0816 24.8354 18.2393C24.1825 18.9178 23.8308 20.0369 23.8947 21.2334C23.9695 22.635 24.6941 24.6502 25.6533 26.7558C28.7419 24.3204 29.1457 21.5356 28.3726 19.5734C27.94 18.4763 27.0014 17.6384 26.1891 17.6236C25.8869 17.6179 25.5928 17.6969 25.3189 17.8551ZM30.7666 36.5265C30.58 36.2352 27.5989 31.5621 25.5537 27.1395C25.1186 27.465 24.6352 27.7833 24.1006 28.092C23.5658 28.4007 23.0487 28.6599 22.5493 28.8741C25.3567 32.8566 27.9133 37.7748 28.0723 38.0823L27.8572 38.193C27.8179 38.1174 25.1743 33.03 22.312 28.9728C18.5088 30.5121 15.7749 29.4141 14.3985 27.6828C13.5938 26.6712 13.3332 25.3522 13.7787 24.547C14.0487 24.0587 14.52 23.7194 15.1414 23.5657C16.1192 23.324 17.3354 23.5912 18.3949 24.2804C19.6181 25.0767 21.037 26.7525 22.405 28.671C22.9108 28.4565 23.4354 28.1952 23.979 27.8811C24.5226 27.5673 25.0116 27.2436 25.4498 26.913C24.4724 24.769 23.7306 22.7023 23.6529 21.2447C23.5855 19.9827 23.9622 18.7958 24.6604 18.0699C25.1043 17.6086 25.6338 17.3701 26.192 17.3802C27.1117 17.3972 28.1236 18.2823 28.5973 19.485C29.4085 21.5426 28.9924 24.4593 25.7578 26.9835C27.8407 31.4907 30.9244 36.3237 30.97 36.3957L30.7666 36.5265Z" fill="#FEFEFE"/>
<path d="M30.0312 15.5328C29.6553 15.7499 29.1732 15.619 28.9548 15.2404C26.5007 10.9899 21.5127 8.94136 16.8246 10.2589C16.4067 10.3763 15.9706 10.1312 15.8509 9.71083C15.7313 9.29044 15.9729 8.85427 16.3914 8.73703C21.7734 7.22422 27.4995 9.57526 30.3162 14.4543C30.5349 14.8329 30.4074 15.3158 30.0312 15.5328Z" fill="#FCED9B"/>
<path d="M13.763 10.7132C13.9816 11.0917 14.4636 11.2227 14.8392 11.0058C15.2152 10.7887 15.3428 10.3058 15.1242 9.92726C14.9057 9.54872 14.4238 9.4181 14.0479 9.63518C13.6723 9.85205 13.5445 10.3346 13.763 10.7132Z" fill="#FCED9B"/>
<path d="M32.6406 25.8058C33.012 24.4842 33.3291 23.1756 33.3951 22.0555C33.3957 22.0504 33.3963 22.0453 33.3969 22.04C33.3963 22.0453 33.3957 22.0504 33.3951 22.0555C33.3291 23.1756 33.012 24.4842 32.6406 25.8058Z" fill="#E4CD97"/>
<path d="M24.4728 36.818C23.4694 35.0798 17.3944 34.7195 14.2171 33.1274C14.2125 33.1253 14.2078 33.1232 14.2031 33.1211C14.2078 33.1232 14.2125 33.1253 14.2171 33.1274C17.3944 34.7195 23.4694 35.0798 24.4728 36.818Z" fill="#FFDD9B"/>
<path d="M14.1942 33.1182C14.1922 33.117 14.1895 33.1164 14.1875 33.1152C14.1895 33.1164 14.1918 33.1173 14.1942 33.1182Z" fill="#FFDD9B"/>
<path d="M14.1846 33.1115C14.183 33.1109 14.1814 33.11 14.1797 33.1094C14.1814 33.11 14.183 33.1109 14.1846 33.1115Z" fill="#FFDD9B"/>
<path d="M32.3123 35.8961L26.7467 39.1094C26.3531 39.3365 25.8485 39.1997 25.6198 38.8034L24.4733 36.8177C23.4698 35.0795 17.3949 34.7192 14.2176 33.1271C14.213 33.125 14.2083 33.1229 14.2036 33.1208C14.2008 33.1199 14.1989 33.1187 14.196 33.1175C14.1937 33.1166 14.1915 33.1157 14.1896 33.1145C14.1866 33.1133 14.1831 33.1118 14.1802 33.1103C14.1787 33.11 14.1773 33.1091 14.1757 33.1085C14.1721 33.1067 14.1686 33.1052 14.165 33.1034C14.1639 33.1031 14.1632 33.1028 14.162 33.1022C14.158 33.1004 14.1541 33.0989 14.1502 33.0968C14.1497 33.0965 14.1492 33.0965 14.1487 33.0962C11.8395 32.0498 9.7957 30.3566 8.3125 28.0997C11.55 31.9916 17.6684 34.9616 24.327 32.036C26.304 35.2127 27.8237 38.1365 27.8531 38.1935L28.0682 38.0831C27.9488 37.8518 26.4752 35.0171 24.5589 31.9319C25.007 31.7264 25.4575 31.4936 25.9095 31.2329C26.3609 30.9722 26.7882 30.6992 27.1919 30.4157C28.9049 33.6164 30.6224 36.3083 30.7628 36.5273L30.9662 36.3962C30.9314 36.3422 29.1605 33.5666 27.3986 30.2681C33.2975 25.9826 34.0097 19.3186 31.9949 14.4268C33.2024 16.83 33.6485 19.4351 33.4067 21.9489C33.4067 21.9492 33.4067 21.9502 33.4067 21.9511C33.4061 21.9548 33.4058 21.9589 33.4055 21.9626C33.4055 21.964 33.4052 21.9659 33.4052 21.9672C33.4046 21.9706 33.4043 21.9742 33.404 21.9774C33.4037 21.9793 33.4037 21.9812 33.4034 21.983C33.4031 21.9863 33.4028 21.9895 33.4025 21.9927C33.4022 21.9951 33.4022 21.9973 33.4019 21.9997C33.4016 22.0024 33.4013 22.0051 33.4007 22.0077C33.4007 22.0108 33.4007 22.0135 33.3998 22.016C33.4001 22.0186 33.3995 22.0206 33.3995 22.0233C33.3992 22.0266 33.3989 22.0298 33.3983 22.0335C33.398 22.0354 33.398 22.0373 33.398 22.039C33.3971 22.0442 33.3965 22.0493 33.3962 22.0544C33.3299 23.1745 33.0128 24.4832 32.6417 25.8047C31.8371 28.6685 30.7775 31.592 31.4642 32.7815L32.6108 34.7672C32.8394 35.1635 32.7059 35.669 32.3123 35.8961Z" fill="#FCB82E"/>
<path d="M30.7637 36.5258C30.6233 36.3068 28.9058 33.6149 27.1931 30.4142C27.2624 30.3653 27.3317 30.3158 27.3995 30.2666C29.1614 33.5651 30.9323 36.3407 30.9671 36.395L30.7637 36.5258ZM28.0694 38.0816L27.854 38.192C27.8246 38.135 26.3051 35.2112 24.3281 32.0345C24.4053 32.0009 24.4826 31.9658 24.56 31.9304C26.4764 35.0156 27.9497 37.8503 28.0694 38.0816Z" fill="#FFDD9B"/>
<path d="M32.2393 33.4668L24.6875 37.827L26.7798 41.451C27.1213 42.0426 27.6232 42.5253 28.2268 42.8436C29.3671 43.4442 30.7315 43.4193 31.8427 42.7779L32.9497 42.1386C34.0606 41.4972 34.7641 40.3284 34.8142 39.0402C34.8403 38.3586 34.6732 37.6824 34.3315 37.0908L32.2393 33.4668Z" fill="#394355"/>
<path d="M26.0923 40.2714C26.1144 40.2597 26.1358 40.2465 26.1566 40.2312L33.253 35.0832C33.4954 34.9074 33.5404 34.5702 33.3541 34.3299C33.1678 34.0899 32.8201 34.0377 32.5783 34.2132L25.4816 39.3615C25.2394 39.5373 25.1941 39.8745 25.3804 40.1145C25.5506 40.3344 25.8562 40.3968 26.0923 40.2714Z" fill="#535E7C"/>
<path d="M27.0532 41.9304C27.0754 41.9187 27.0967 41.9055 27.1177 41.8902L34.2139 36.7422C34.4566 36.5664 34.5016 36.2295 34.315 35.9889C34.1287 35.7489 33.781 35.697 33.5392 35.8725L26.4426 41.0205C26.2003 41.1963 26.155 41.5335 26.3413 41.7735C26.5117 41.9937 26.8172 42.0558 27.0532 41.9304Z" fill="#535E7C"/>
<path d="M28.3035 43.3984C28.3254 43.3867 28.3467 43.3735 28.3674 43.3585L35.094 38.4784C35.3361 38.3029 35.3814 37.9657 35.1951 37.7254C35.0088 37.4854 34.6602 37.4332 34.419 37.6087L27.6924 42.4888C27.4503 42.6643 27.405 43.0015 27.5913 43.2415C27.7614 43.4614 28.0671 43.5241 28.3035 43.3984Z" fill="#535E7C"/>
<path d="M9.71935 3.65671L11.8866 7.41058C11.9518 7.52344 12.0957 7.56253 12.2078 7.49782C12.3199 7.43308 12.358 7.28893 12.2928 7.17607L10.1255 3.4222C10.0604 3.30931 9.91648 3.27022 9.80437 3.33496C9.69226 3.39967 9.65416 3.54382 9.71935 3.65671Z" fill="#FDC04D"/>
<path d="M17.2749 1.17659L17.7518 5.48018C17.7661 5.60984 17.8822 5.70374 18.0112 5.68994C18.1403 5.67647 18.2332 5.56046 18.2187 5.43098L17.7417 1.12739C17.7275 0.997731 17.6114 0.903831 17.4822 0.917301C17.3533 0.931131 17.2604 1.04714 17.2749 1.17659Z" fill="#FDC04D"/>
<path d="M25.3524 1.96272L24.0577 6.08244C24.0189 6.20652 24.0876 6.33915 24.2115 6.37887C24.3351 6.41877 24.4672 6.35037 24.5062 6.22662L25.8004 2.10675C25.8394 1.983 25.7704 1.85004 25.6469 1.81014C25.523 1.77042 25.3912 1.83864 25.3524 1.96272Z" fill="#FDC04D"/>
<path d="M3.92503 9.10635L7.41358 11.6712C7.51825 11.7482 7.66537 11.726 7.7416 11.621C7.81801 11.5162 7.79479 11.3687 7.68961 11.2915L4.20106 8.72667C4.09618 8.64936 3.94927 8.6718 3.87283 8.77656C3.79693 8.88147 3.81985 9.02922 3.92503 9.10635Z" fill="#FDC04D"/>
<path d="M0.740132 16.5711L4.95516 17.5103C5.08182 17.5384 5.2071 17.4582 5.23434 17.3312C5.26188 17.2041 5.18139 17.0782 5.05452 17.0498L0.839402 16.1112C0.712502 16.0828 0.587222 16.163 0.560012 16.2899C0.532652 16.4174 0.613442 16.5431 0.740132 16.5711Z" fill="#FDC04D"/>
</svg>
