<svg width="533" height="714" viewBox="0 0 533 714" fill="none" xmlns="http://www.w3.org/2000/svg">
<g clip-path="url(#clip0_23387_67459)">
<path d="M19.9432 302.441C19.7472 302.441 19.5514 302.361 19.4101 302.203C19.1454 301.91 19.17 301.455 19.4646 301.191C20.1797 300.548 20.9053 299.916 21.6421 299.294C21.9451 299.039 22.3964 299.077 22.6518 299.381C22.9066 299.682 22.868 300.135 22.5657 300.39C21.8403 301.004 21.1256 301.626 20.4219 302.258C20.2854 302.382 20.1138 302.441 19.9432 302.441Z" fill="#FFC2D5"/>
<path d="M71.3187 279.531C70.9567 279.531 70.6461 279.259 70.607 278.89C70.5651 278.498 70.8491 278.144 71.2431 278.102C73.1441 277.897 75.0761 277.752 76.9864 277.667C77.3921 277.659 77.7168 277.956 77.7337 278.352C77.7511 278.749 77.4445 279.082 77.0493 279.101C75.1691 279.183 73.2667 279.326 71.3955 279.527C71.3696 279.531 71.3438 279.531 71.3187 279.531ZM91.9976 279.683C91.9702 279.683 91.9408 279.68 91.9113 279.676C90.0414 279.449 88.1415 279.278 86.2628 279.168C85.868 279.145 85.5664 278.806 85.5896 278.409C85.6125 278.013 85.9435 277.709 86.3466 277.735C88.2547 277.846 90.1846 278.021 92.0839 278.253C92.4777 278.302 92.7578 278.658 92.7093 279.052C92.6651 279.415 92.3556 279.683 91.9976 279.683ZM56.5991 282.358C56.2855 282.358 55.9979 282.149 55.9097 281.833C55.8036 281.451 56.0259 281.055 56.4073 280.95C58.2531 280.435 60.1356 279.971 62.0023 279.575C62.3927 279.491 62.7706 279.742 62.8526 280.127C62.9345 280.515 62.6873 280.897 62.3004 280.979C60.4624 281.369 58.6088 281.824 56.7922 282.33C56.7277 282.349 56.6627 282.358 56.5991 282.358ZM106.676 282.714C106.609 282.714 106.542 282.703 106.474 282.684C104.665 282.153 102.819 281.673 100.987 281.257C100.599 281.169 100.357 280.785 100.446 280.399C100.532 280.011 100.917 279.767 101.303 279.858C103.164 280.279 105.04 280.768 106.876 281.308C107.258 281.417 107.474 281.818 107.363 282.198C107.272 282.509 106.986 282.714 106.676 282.714ZM42.5358 287.546C42.265 287.546 42.0062 287.39 41.8852 287.128C41.7186 286.77 41.8746 286.342 42.2337 286.175C43.822 285.44 45.4552 284.738 47.0883 284.091L47.5311 283.916C47.895 283.77 48.3149 283.951 48.4598 284.32C48.6046 284.689 48.4233 285.107 48.0546 285.25L47.6152 285.425C46.0079 286.062 44.4 286.753 42.8367 287.478C42.7388 287.522 42.6367 287.546 42.5358 287.546ZM120.662 288.094C120.559 288.094 120.454 288.071 120.353 288.024C118.662 287.208 116.918 286.435 115.171 285.722C114.804 285.572 114.627 285.155 114.777 284.788C114.926 284.419 115.343 284.244 115.71 284.394C117.485 285.117 119.256 285.903 120.974 286.73C121.332 286.903 121.481 287.331 121.309 287.689C121.185 287.944 120.93 288.094 120.662 288.094ZM29.4985 294.943C29.2698 294.943 29.0443 294.833 28.9059 294.629C28.6827 294.302 28.7674 293.855 29.0948 293.632C30.6747 292.554 32.31 291.513 33.9543 290.537C34.2937 290.335 34.7338 290.448 34.936 290.788C35.1375 291.129 35.0257 291.57 34.685 291.772C33.0663 292.731 31.457 293.758 29.9009 294.818C29.7777 294.903 29.637 294.943 29.4985 294.943ZM133.589 295.681C133.448 295.681 133.305 295.638 133.179 295.55C131.639 294.468 130.045 293.421 128.439 292.436C128.102 292.23 127.996 291.787 128.203 291.45C128.409 291.112 128.849 291.005 129.188 291.214C130.82 292.213 132.439 293.277 134.002 294.376C134.326 294.603 134.404 295.05 134.177 295.375C134.038 295.573 133.814 295.681 133.589 295.681ZM145.103 305.272C144.922 305.272 144.739 305.205 144.6 305.066C143.261 303.748 141.86 302.456 140.435 301.221C140.136 300.961 140.104 300.508 140.363 300.209C140.622 299.909 141.077 299.876 141.374 300.135C142.821 301.389 144.244 302.705 145.604 304.043C145.886 304.322 145.891 304.775 145.613 305.057C145.474 305.201 145.288 305.272 145.103 305.272ZM154.884 316.622C154.661 316.622 154.444 316.521 154.303 316.327C153.199 314.809 152.031 313.302 150.828 311.849C150.576 311.544 150.618 311.093 150.923 310.84C151.229 310.585 151.679 310.629 151.932 310.935C153.153 312.41 154.341 313.941 155.461 315.484C155.695 315.804 155.625 316.251 155.303 316.485C155.177 316.578 155.029 316.622 154.884 316.622ZM162.673 329.437C162.412 329.437 162.157 329.292 162.033 329.041C161.188 327.356 160.281 325.676 159.335 324.049C159.135 323.705 159.253 323.267 159.594 323.069C159.936 322.868 160.376 322.984 160.574 323.328C161.534 324.981 162.456 326.686 163.313 328.398C163.49 328.752 163.347 329.182 162.993 329.361C162.892 329.412 162.78 329.437 162.673 329.437ZM168.28 343.35C167.975 343.35 167.693 343.154 167.596 342.846C167.038 341.052 166.413 339.248 165.741 337.481C165.6 337.112 165.785 336.697 166.154 336.556C166.522 336.415 166.939 336.6 167.08 336.971C167.762 338.763 168.396 340.597 168.965 342.421C169.083 342.798 168.872 343.201 168.495 343.319C168.424 343.34 168.352 343.35 168.28 343.35ZM171.559 357.993C171.207 357.993 170.9 357.733 170.849 357.373C170.59 355.507 170.268 353.625 169.893 351.778C169.813 351.39 170.064 351.011 170.451 350.933C170.839 350.855 171.218 351.104 171.296 351.492C171.679 353.368 172.005 355.28 172.269 357.175C172.323 357.569 172.05 357.93 171.658 357.984C171.624 357.991 171.593 357.993 171.559 357.993ZM172.389 372.973C172.382 372.973 172.376 372.973 172.368 372.973C171.972 372.962 171.662 372.631 171.673 372.235C171.696 371.417 171.706 370.595 171.706 369.773C171.706 368.702 171.687 367.62 171.649 366.56C171.635 366.164 171.944 365.833 172.34 365.818C172.704 365.797 173.069 366.113 173.081 366.509C173.119 367.587 173.138 368.685 173.138 369.773C173.138 370.607 173.128 371.442 173.104 372.275C173.094 372.665 172.776 372.973 172.389 372.973Z" fill="#FFD8E4"/>
<path d="M171.241 385.125C171.203 385.125 171.163 385.121 171.125 385.114C170.733 385.051 170.468 384.682 170.533 384.292C170.685 383.356 170.822 382.418 170.946 381.478C170.997 381.084 171.355 380.806 171.748 380.858C172.14 380.909 172.416 381.269 172.365 381.661C172.241 382.618 172.102 383.571 171.946 384.522C171.889 384.874 171.586 385.125 171.241 385.125Z" fill="#FFC2D5"/>
<path d="M133.827 445.207C133.602 445.207 133.381 445.102 133.24 444.903C133.012 444.581 133.09 444.132 133.412 443.904C134.189 443.356 134.954 442.798 135.708 442.226C136.023 441.988 136.474 442.051 136.712 442.368C136.95 442.682 136.887 443.133 136.571 443.371C135.804 443.951 135.027 444.52 134.24 445.076C134.114 445.165 133.97 445.207 133.827 445.207Z" fill="#FFC2D5"/>
<path d="M-10.3695 369.298C-10.3729 369.298 -10.3758 369.298 -10.3792 369.298C-10.7753 369.294 -11.0915 368.967 -11.0859 368.571C-11.0602 366.686 -10.9747 364.779 -10.8328 362.902C-10.8033 362.508 -10.4521 362.207 -10.0644 362.243C-9.66979 362.272 -9.37373 362.616 -9.40384 363.012C-9.54366 364.859 -9.62768 366.735 -9.65295 368.592C-9.65842 368.984 -9.97827 369.298 -10.3695 369.298ZM-9.37288 384.029C-9.72222 384.029 -10.0273 383.774 -10.0812 383.418C-10.3611 381.555 -10.5858 379.657 -10.7479 377.783C-10.7822 377.389 -10.4906 377.041 -10.0964 377.007C-9.7018 376.967 -9.35415 377.265 -9.32046 377.659C-9.16042 379.503 -8.93911 381.371 -8.66348 383.205C-8.60473 383.597 -8.87405 383.964 -9.26592 384.021C-9.30172 384.027 -9.33793 384.029 -9.37288 384.029ZM-6.00737 398.406C-6.31017 398.406 -6.59233 398.212 -6.68961 397.909C-7.26467 396.115 -7.79173 394.279 -8.25624 392.455C-8.35437 392.072 -8.12253 391.68 -7.73908 391.583C-7.35564 391.486 -6.96587 391.715 -6.86796 392.101C-6.41039 393.897 -5.89113 395.704 -5.32512 397.47C-5.20404 397.848 -5.41188 398.25 -5.78816 398.373C-5.86102 398.396 -5.93536 398.406 -6.00737 398.406ZM-0.394867 412.06C-0.655763 412.06 -0.907595 411.917 -1.03436 411.668C-1.8859 409.99 -2.6968 408.264 -3.44495 406.535C-3.60245 406.172 -3.4359 405.749 -3.07267 405.593C-2.70881 405.433 -2.2883 405.601 -2.13016 405.964C-1.39401 407.667 -0.594906 409.366 0.243368 411.017C0.422563 411.371 0.281904 411.803 -0.0707989 411.982C-0.17503 412.035 -0.285583 412.06 -0.394867 412.06ZM7.32459 424.637C7.10349 424.637 6.88576 424.536 6.74594 424.344C5.63477 422.824 4.55582 421.249 3.54046 419.664C3.32715 419.331 3.42359 418.888 3.75671 418.673C4.0892 418.46 4.53266 418.557 4.74681 418.89C5.7468 420.45 6.80827 422 7.90197 423.497C8.1357 423.815 8.06643 424.264 7.74721 424.498C7.62002 424.591 7.47157 424.637 7.32459 424.637ZM16.9724 435.795C16.7911 435.795 16.61 435.728 16.4709 435.59C15.1274 434.271 13.8091 432.892 12.553 431.495C12.2885 431.201 12.3123 430.746 12.6061 430.483C12.9 430.217 13.3536 430.24 13.6181 430.535C14.8545 431.912 16.1525 433.267 17.4742 434.566C17.7568 434.842 17.761 435.297 17.4841 435.58C17.3435 435.723 17.1579 435.795 16.9724 435.795ZM28.2935 445.243C28.1507 445.243 28.0067 445.201 27.8812 445.113C26.3434 444.027 24.8199 442.88 23.3533 441.704C23.0448 441.455 22.9951 441.004 23.2427 440.696C23.4897 440.386 23.9418 440.336 24.2503 440.584C25.694 441.742 27.1934 442.872 28.707 443.941C29.0302 444.168 29.1079 444.617 28.8799 444.94C28.7407 445.138 28.5188 445.243 28.2935 445.243ZM121.13 452.723C120.864 452.723 120.61 452.575 120.485 452.32C120.313 451.964 120.46 451.534 120.816 451.361C122.486 450.547 124.145 449.672 125.754 448.762C126.099 448.568 126.537 448.688 126.731 449.034C126.927 449.377 126.805 449.816 126.459 450.012C124.825 450.935 123.139 451.825 121.443 452.651C121.342 452.699 121.235 452.723 121.13 452.723ZM40.9872 452.752C40.8823 452.752 40.7751 452.729 40.6745 452.681C38.9826 451.854 37.2949 450.967 35.6587 450.041C35.3145 449.845 35.1927 449.409 35.3879 449.063C35.5825 448.717 36.0205 448.597 36.3641 448.791C37.975 449.704 39.6362 450.579 41.3013 451.39C41.6576 451.563 41.8052 451.993 41.6324 452.35C41.5079 452.605 41.2531 452.752 40.9872 452.752ZM107.396 458.113C107.089 458.113 106.805 457.913 106.712 457.603C106.596 457.223 106.811 456.823 107.19 456.709C108.961 456.171 110.74 455.573 112.479 454.928C112.852 454.791 113.263 454.978 113.4 455.351C113.539 455.722 113.349 456.136 112.979 456.273C111.212 456.928 109.403 457.535 107.605 458.081C107.535 458.102 107.466 458.113 107.396 458.113ZM54.7215 458.132C54.6537 458.132 54.5836 458.121 54.5152 458.1C52.7148 457.559 50.9067 456.951 49.1412 456.298C48.7704 456.161 48.5801 455.748 48.7172 455.377C48.8549 455.006 49.2678 454.814 49.638 454.953C51.3762 455.596 53.1555 456.193 54.9279 456.728C55.3073 456.842 55.5221 457.242 55.4074 457.622C55.3143 457.932 55.0294 458.132 54.7215 458.132ZM92.9808 461.235C92.6271 461.235 92.3196 460.974 92.2712 460.613C92.2186 460.219 92.4944 459.858 92.8861 459.806C94.7243 459.563 96.5773 459.258 98.3945 458.899C98.7799 458.823 99.1589 459.079 99.2347 459.466C99.3105 459.854 99.0578 460.232 98.6704 460.308C96.8237 460.67 94.9412 460.98 93.0756 461.229C93.044 461.233 93.0124 461.235 92.9808 461.235ZM69.1409 461.239C69.1101 461.239 69.0779 461.237 69.0465 461.233C67.1824 460.986 65.3001 460.679 63.4521 460.318C63.0636 460.242 62.8103 459.865 62.8859 459.475C62.9615 459.087 63.3365 458.832 63.7263 458.91C65.5465 459.266 67.3992 459.568 69.2339 459.812C69.6264 459.863 69.9023 460.223 69.8505 460.615C69.8029 460.978 69.4948 461.239 69.1409 461.239ZM81.0511 462.023C80.1077 462.023 79.1667 462.011 78.2254 461.981C77.8302 461.969 77.5194 461.638 77.532 461.241C77.544 460.845 77.8896 460.533 78.2703 460.546C80.1266 460.603 81.9885 460.603 83.8533 460.546C84.2445 460.533 84.5791 460.843 84.5924 461.241C84.6042 461.636 84.2936 461.967 83.8982 461.979C82.9481 462.009 81.999 462.023 81.0511 462.023Z" fill="#FFD8E4"/>
<path d="M14.6806 346.823C14.4812 347.246 14.5723 347.75 14.9076 348.077L24.4722 357.399C23.1734 363.504 22.8376 369.857 23.576 376.238L13.1826 384.61C12.8179 384.903 12.68 385.396 12.8383 385.836L18.26 400.92C18.4184 401.36 18.8389 401.651 19.3063 401.645L32.645 401.468C36.1371 406.854 40.4407 411.538 45.3272 415.413L43.89 428.7C43.8397 429.166 44.0899 429.61 44.5129 429.811L58.9998 436.637C59.4235 436.837 59.9265 436.746 60.2527 436.411L69.564 426.834C75.6611 428.135 82.0091 428.47 88.3815 427.732L96.7434 438.137C97.0382 438.502 97.5288 438.641 97.9689 438.481L113.035 433.053C113.475 432.895 113.766 432.475 113.759 432.005L113.583 418.653C118.963 415.158 123.641 410.849 127.512 405.956L140.784 407.396C141.249 407.446 141.696 407.195 141.894 406.772L148.714 392.268C148.912 391.844 148.821 391.341 148.486 391.014L138.92 381.692C140.22 375.589 140.556 369.233 139.817 362.852L150.211 354.481C150.575 354.188 150.714 353.695 150.556 353.254L145.134 338.171C144.974 337.731 144.555 337.44 144.088 337.446L130.748 337.625C127.257 332.237 122.953 327.553 118.066 323.678L119.504 310.393C119.554 309.927 119.304 309.48 118.881 309.28L104.393 302.454C103.97 302.254 103.467 302.345 103.141 302.682L93.8292 312.257C87.7323 310.956 81.3843 310.621 75.0117 311.359L66.6494 300.953C66.3562 300.589 65.8637 300.452 65.4236 300.61L50.3583 306.038C49.918 306.196 49.6268 306.618 49.6329 307.086L49.8116 320.438C44.4299 323.935 39.7519 328.244 35.8808 333.135L22.61 331.697C22.1446 331.647 21.6988 331.895 21.4994 332.321L14.6806 346.823Z" fill="#FFC2D6"/>
<path d="M81.6737 356.384C79.0847 356.384 76.5545 357.151 74.3596 358.631C68.3489 362.685 66.7528 370.877 70.8007 376.895C72.7613 379.808 75.7386 381.786 79.1841 382.458C82.6309 383.131 86.1316 382.42 89.0425 380.458C91.9532 378.495 93.9284 375.512 94.6001 372.063C95.2718 368.615 94.5622 365.109 92.6018 362.194C90.6414 359.28 87.6635 357.303 84.218 356.63C83.37 356.466 82.5191 356.384 81.6737 356.384ZM81.7324 384.859C80.7495 384.859 79.7592 384.762 78.7727 384.571C74.7639 383.788 71.2996 381.489 69.0177 378.097C64.3079 371.096 66.1648 361.563 73.1587 356.847C76.5461 354.562 80.6198 353.736 84.6292 354.518C88.6382 355.302 92.1027 357.6 94.3853 360.992C96.6658 364.384 97.4933 368.463 96.71 372.477C95.9288 376.488 93.6315 379.958 90.2434 382.243C87.6892 383.963 84.7448 384.859 81.7324 384.859Z" fill="#FFD8E4"/>
<path d="M81.9934 409.438C76.2255 409.438 70.4814 408.162 65.1075 405.63C55.5108 401.109 48.2477 393.115 44.6558 383.125C43.7904 380.717 43.1563 378.23 42.7666 375.721C42.7512 375.622 42.7358 375.523 42.7217 375.426C42.6958 375.251 42.6714 375.076 42.6484 374.903L44.7783 374.617C45.1317 377.252 45.7705 379.87 46.6781 382.395C50.0752 391.846 56.9459 399.407 66.0228 403.685C75.1005 407.962 85.2989 408.445 94.7383 405.042C110.038 399.53 119.583 385.041 119.581 369.625C119.581 365.406 118.867 361.121 117.36 356.928C110.348 337.42 88.7872 327.259 69.3004 334.281C62.893 336.589 57.2413 340.584 52.956 345.833L51.2921 344.471C55.8235 338.921 61.7986 334.696 68.5726 332.255C89.1755 324.835 111.969 335.575 119.383 356.201C120.975 360.632 121.731 365.164 121.731 369.623C121.731 385.92 111.643 401.239 95.4669 407.068C91.0744 408.649 86.5264 409.438 81.9934 409.438Z" fill="#FFD8E4"/>
<path d="M124.071 285.895C123.753 285.895 123.462 285.682 123.378 285.357C123.138 284.432 122.917 283.479 122.725 282.524C122.647 282.136 122.9 281.756 123.287 281.678C123.673 281.603 124.052 281.851 124.13 282.241C124.317 283.169 124.53 284.096 124.765 284.996C124.864 285.38 124.635 285.772 124.252 285.871C124.191 285.888 124.13 285.895 124.071 285.895Z" fill="#91B3FA"/>
<path d="M178.397 221.285C178.376 221.285 178.357 221.285 178.336 221.283C176.91 221.165 175.445 221.129 174.048 221.106C173.478 221.106 172.909 221.116 172.343 221.135C171.939 221.146 171.616 220.838 171.604 220.444C171.589 220.047 171.899 219.714 172.294 219.702C172.886 219.681 173.448 219.683 174.078 219.672C175.527 219.672 176.999 219.733 178.456 219.853C178.849 219.885 179.142 220.233 179.111 220.627C179.079 221.002 178.765 221.285 178.397 221.285ZM156.706 224.126C156.411 224.126 156.135 223.945 156.032 223.652C155.897 223.279 156.091 222.868 156.464 222.735C158.393 222.042 160.383 221.458 162.377 220.998C162.766 220.912 163.147 221.15 163.236 221.536C163.324 221.924 163.084 222.307 162.699 222.396C160.757 222.843 158.822 223.412 156.948 224.084C156.868 224.114 156.786 224.126 156.706 224.126ZM193.857 225.006C193.766 225.006 193.673 224.989 193.583 224.953C191.743 224.194 189.837 223.536 187.916 222.999C187.535 222.893 187.312 222.497 187.42 222.115C187.525 221.734 187.923 221.512 188.302 221.618C190.277 222.17 192.237 222.845 194.13 223.625C194.495 223.777 194.669 224.196 194.52 224.563C194.404 224.839 194.139 225.006 193.857 225.006ZM142.747 231.739C142.533 231.739 142.318 231.642 142.177 231.458C141.937 231.144 141.998 230.693 142.311 230.453C143.939 229.209 145.655 228.047 147.416 227.002C147.757 226.797 148.195 226.911 148.399 227.251C148.601 227.592 148.487 228.033 148.148 228.235C146.434 229.251 144.765 230.381 143.181 231.593C143.053 231.692 142.899 231.739 142.747 231.739ZM131.737 243.225C131.594 243.225 131.452 243.185 131.326 243.097C131.002 242.869 130.924 242.422 131.151 242.098C132.324 240.42 133.611 238.79 134.975 237.26C135.239 236.965 135.691 236.939 135.986 237.203C136.283 237.466 136.308 237.919 136.045 238.215C134.718 239.703 133.466 241.286 132.324 242.92C132.185 243.12 131.962 243.225 131.737 243.225ZM124.742 257.524C124.672 257.524 124.601 257.514 124.531 257.491C124.152 257.375 123.941 256.972 124.057 256.595C124.664 254.63 125.394 252.686 126.226 250.814C126.386 250.454 126.812 250.29 127.172 250.452C127.534 250.612 127.696 251.036 127.536 251.398C126.727 253.218 126.018 255.109 125.426 257.018C125.331 257.326 125.047 257.524 124.742 257.524ZM122.421 273.27C122.027 273.27 121.707 272.953 121.705 272.557L121.703 272.237C121.703 270.468 121.794 268.672 121.973 266.899L122.025 266.399C122.067 266.007 122.411 265.723 122.813 265.763C123.207 265.805 123.491 266.157 123.449 266.551L123.398 267.044C123.223 268.769 123.137 270.516 123.137 272.237V272.549C123.141 272.945 122.821 273.267 122.425 273.27C122.425 273.27 122.423 273.27 122.421 273.27Z" fill="#91B3FA"/>
<path d="M204.952 231.293C204.805 231.293 204.653 231.249 204.525 231.152C203.765 230.587 202.988 230.041 202.213 229.529C201.882 229.311 201.792 228.867 202.009 228.536C202.228 228.205 202.672 228.112 203.002 228.331C203.798 228.858 204.598 229.419 205.38 230.001C205.698 230.237 205.763 230.686 205.527 231.004C205.388 231.194 205.171 231.293 204.952 231.293Z" fill="#91B3FA"/>
<path d="M225.524 266.992C225.166 266.992 224.855 266.722 224.815 266.358C224.707 265.42 224.573 264.477 224.417 263.556C224.349 263.166 224.613 262.795 225.002 262.728C225.394 262.662 225.762 262.924 225.83 263.316C225.992 264.262 226.129 265.232 226.238 266.195C226.282 266.587 226 266.944 225.607 266.988C225.579 266.992 225.552 266.992 225.524 266.992Z" fill="#91B3FA"/>
<path d="M224.925 282.641C224.88 282.641 224.834 282.637 224.79 282.629C224.4 282.555 224.146 282.178 224.219 281.79C224.501 280.314 224.722 278.798 224.874 277.285C224.92 276.836 224.96 276.387 224.994 275.938C225.021 275.544 225.358 275.24 225.761 275.276C226.154 275.305 226.451 275.649 226.422 276.043C226.388 276.505 226.348 276.967 226.302 277.428C226.144 278.986 225.916 280.544 225.628 282.06C225.563 282.403 225.262 282.641 224.925 282.641ZM219.696 297.402C219.58 297.402 219.465 297.375 219.357 297.316C219.008 297.128 218.877 296.694 219.064 296.344C219.995 294.613 220.833 292.811 221.553 290.991C221.699 290.623 222.116 290.443 222.482 290.589C222.851 290.734 223.03 291.15 222.884 291.518C222.145 293.39 221.284 295.243 220.328 297.025C220.197 297.265 219.951 297.402 219.696 297.402ZM210.28 309.909C210.094 309.909 209.909 309.837 209.768 309.692C209.492 309.41 209.496 308.954 209.781 308.678C211.183 307.306 212.52 305.839 213.754 304.319C214.002 304.011 214.455 303.962 214.763 304.213C215.07 304.462 215.116 304.915 214.868 305.223C213.598 306.787 212.223 308.294 210.781 309.705C210.642 309.84 210.461 309.909 210.28 309.909ZM197.572 319.037C197.311 319.037 197.06 318.896 196.934 318.645C196.753 318.293 196.894 317.861 197.245 317.682C198.989 316.792 200.703 315.791 202.335 314.703C202.663 314.486 203.11 314.574 203.329 314.903C203.548 315.234 203.459 315.679 203.129 315.898C201.448 317.015 199.688 318.046 197.896 318.959C197.793 319.014 197.681 319.037 197.572 319.037ZM157.625 321.957C157.549 321.957 157.471 321.944 157.397 321.919C155.483 321.276 153.59 320.513 151.771 319.655C151.413 319.486 151.259 319.058 151.428 318.7C151.598 318.341 152.024 318.188 152.382 318.356C154.152 319.193 155.993 319.933 157.852 320.559C158.227 320.686 158.429 321.092 158.305 321.468C158.204 321.767 157.924 321.957 157.625 321.957ZM182.72 323.949C182.377 323.949 182.074 323.7 182.015 323.35C181.95 322.958 182.213 322.589 182.602 322.524C184.535 322.199 186.468 321.756 188.349 321.208C188.732 321.099 189.126 321.318 189.237 321.697C189.347 322.079 189.13 322.477 188.749 322.587C186.814 323.15 184.826 323.605 182.838 323.938C182.8 323.945 182.76 323.949 182.72 323.949ZM173.038 324.645C173.034 324.645 173.028 324.645 173.024 324.645C171.647 324.613 170.253 324.526 168.875 324.389C168.24 324.324 167.608 324.248 166.98 324.164C166.589 324.109 166.313 323.749 166.368 323.354C166.422 322.962 166.782 322.686 167.174 322.741C167.787 322.825 168.402 322.899 169.021 322.96C170.36 323.097 171.716 323.179 173.055 323.209C173.451 323.219 173.765 323.546 173.756 323.943C173.746 324.333 173.428 324.645 173.038 324.645Z" fill="#91B3FA"/>
<path d="M143.701 314.75C143.555 314.75 143.408 314.706 143.279 314.613C142.498 314.044 141.725 313.445 140.982 312.836C140.675 312.585 140.63 312.132 140.881 311.826C141.132 311.518 141.582 311.474 141.89 311.725C142.614 312.317 143.366 312.899 144.124 313.454C144.444 313.688 144.515 314.137 144.28 314.457C144.141 314.649 143.922 314.75 143.701 314.75Z" fill="#91B3FA"/>
<path d="M145.335 299.561C145.495 299.772 145.773 299.856 146.024 299.774L153.192 297.388C155.919 299.629 159.022 301.452 162.417 302.74L163.914 310.148C163.966 310.407 164.177 310.605 164.44 310.641L173.423 311.839C173.684 311.872 173.941 311.737 174.059 311.501L177.441 304.743C181.054 304.389 184.524 303.442 187.742 301.992L194.038 306.172C194.257 306.32 194.547 306.309 194.758 306.149L201.953 300.636C202.164 300.476 202.25 300.198 202.166 299.947L199.782 292.771C202.023 290.041 203.842 286.934 205.131 283.536L212.53 282.037C212.789 281.984 212.987 281.773 213.021 281.51L214.217 272.517C214.252 272.256 214.118 271.998 213.88 271.88L207.131 268.495C206.775 264.877 205.83 261.403 204.383 258.182L208.559 251.879C208.704 251.66 208.696 251.369 208.533 251.158L203.029 243.955C202.867 243.744 202.591 243.658 202.341 243.742L195.171 246.128C192.446 243.885 189.342 242.064 185.948 240.774L184.451 233.366C184.398 233.107 184.185 232.909 183.924 232.875L174.941 231.677C174.678 231.642 174.423 231.777 174.305 232.015L170.924 238.771C167.31 239.125 163.838 240.074 160.623 241.522L154.327 237.342C154.106 237.196 153.817 237.205 153.607 237.367L146.409 242.878C146.199 243.04 146.114 243.316 146.197 243.567L148.58 250.745C146.342 253.473 144.52 256.58 143.234 259.978L135.835 261.477C135.576 261.53 135.378 261.743 135.342 262.004L134.146 270.997C134.112 271.261 134.247 271.516 134.483 271.634L141.233 275.019C141.587 278.637 142.533 282.113 143.981 285.332L139.806 291.635C139.658 291.856 139.669 292.145 139.829 292.356L145.335 299.561Z" fill="#91B3FA"/>
<path d="M174.199 264.779C173.929 264.779 173.658 264.793 173.386 264.825C169.566 265.266 166.818 268.736 167.258 272.557C167.473 274.41 168.393 276.067 169.853 277.227C171.312 278.384 173.133 278.905 174.984 278.69C176.833 278.477 178.49 277.556 179.646 276.095C180.804 274.634 181.322 272.81 181.11 270.957C180.897 269.107 179.975 267.448 178.518 266.29C177.271 265.302 175.763 264.779 174.199 264.779ZM174.167 280.891C172.118 280.891 170.145 280.205 168.518 278.911C166.608 277.398 165.403 275.228 165.123 272.804C164.546 267.804 168.143 263.265 173.14 262.688C175.559 262.407 177.943 263.088 179.853 264.604C181.76 266.119 182.967 268.289 183.245 270.711C183.525 273.133 182.845 275.521 181.331 277.431C179.817 279.343 177.65 280.549 175.231 280.829C174.875 280.87 174.519 280.891 174.167 280.891Z" fill="#BDD0FB"/>
<path d="M174.378 294.598C173.357 294.598 172.332 294.53 171.302 294.393C169.773 294.189 168.266 293.832 166.817 293.333C166.731 293.301 166.644 293.272 166.558 293.24L167.284 291.216C168.668 291.712 170.114 292.064 171.586 292.26C176.726 292.945 181.835 291.718 186.08 288.8C186.379 288.596 186.674 288.381 186.962 288.16C191.374 284.783 194.206 279.886 194.938 274.375C195.063 273.441 195.124 272.509 195.124 271.584C195.124 267.043 193.646 262.65 190.843 258.982C187.467 254.568 182.578 251.73 177.074 250.997C165.707 249.485 155.236 257.506 153.722 268.881C153.599 269.798 153.541 270.72 153.538 271.637C153.538 274.464 154.111 277.265 155.234 279.864L153.26 280.718C152.02 277.847 151.389 274.757 151.391 271.637C151.391 270.625 151.456 269.609 151.591 268.599C153.26 256.045 164.812 247.194 177.358 248.865C183.431 249.675 188.826 252.803 192.551 257.675C195.642 261.722 197.274 266.569 197.274 271.58C197.274 272.6 197.206 273.629 197.069 274.66C196.261 280.739 193.136 286.142 188.27 289.869C184.225 292.964 179.384 294.598 174.378 294.598Z" fill="#BDD0FB"/>
<path d="M369.662 736.18H200.477V452.287C200.477 447.58 204.288 443.764 208.988 443.764H361.151C365.853 443.764 369.662 447.58 369.662 452.287V736.18Z" fill="#19649B"/>
<path d="M326.686 736.18H157.5V452.287C157.5 447.58 161.311 443.764 166.011 443.764H318.175C322.874 443.764 326.686 447.58 326.686 452.287V736.18Z" fill="#368AC8"/>
<path d="M168.842 498.441C168.248 498.441 167.766 497.959 167.766 497.364V476.619C167.766 465.528 177.062 456.506 188.488 456.506H220.979C221.572 456.506 222.055 456.986 222.055 457.581C222.055 458.175 221.572 458.656 220.979 458.656H188.488C178.248 458.656 169.916 466.715 169.916 476.619V497.364C169.916 497.959 169.435 498.441 168.842 498.441Z" fill="#68B4EC"/>
<path d="M168.842 520.438C168.248 520.438 167.766 519.955 167.766 519.36V510.909C167.766 510.315 168.248 509.832 168.842 509.832C169.435 509.832 169.916 510.315 169.916 510.909V519.36C169.916 519.955 169.435 520.438 168.842 520.438Z" fill="#68B4EC"/>
<path d="M179.16 735.762H33.375V559.481C33.375 554.776 37.1859 550.961 41.887 550.961H170.647C175.349 550.961 179.16 554.776 179.16 559.481V735.762Z" fill="#7350C7"/>
<path d="M136.182 735.762H-9.60156V559.481C-9.60156 554.776 -5.79048 550.961 -1.08932 550.961H127.671C132.373 550.961 136.182 554.776 136.182 559.481V735.762Z" fill="#9370E8"/>
<path d="M2.43412 603.766C1.84074 603.766 1.35938 603.283 1.35938 602.688V580.788C1.35938 569.113 12.2403 559.615 25.6142 559.615H63.9474C64.5408 559.615 65.0221 560.095 65.0221 560.69C65.0221 561.284 64.5408 561.767 63.9474 561.767H25.6142C13.4254 561.767 3.50885 570.298 3.50885 580.788V602.688C3.50885 603.283 3.0275 603.766 2.43412 603.766Z" fill="#C7B2F8"/>
<path d="M2.43413 626.984C1.84074 626.984 1.35938 626.502 1.35938 625.907V616.984C1.35938 616.391 1.84074 615.909 2.43413 615.909C3.02751 615.909 3.50887 616.391 3.50887 616.984V625.907C3.50887 626.502 3.02751 626.984 2.43413 626.984Z" fill="#C7B2F8"/>
<path d="M525.84 735.762H380.055V556.541C380.055 551.833 383.866 548.018 388.568 548.018H517.329C522.029 548.018 525.84 551.833 525.84 556.541V735.762Z" fill="#FF5C8F"/>
<path d="M482.863 735.762H337.078V556.541C337.078 551.833 340.889 548.018 345.591 548.018H474.35C479.052 548.018 482.863 551.833 482.863 556.541V735.762Z" fill="#FF93B5"/>
<path d="M349.113 625.238C348.521 625.238 348.039 624.758 348.039 624.163V615.099C348.039 614.504 348.521 614.021 349.113 614.021C349.707 614.021 350.189 614.504 350.189 615.099V624.163C350.189 624.758 349.707 625.238 349.113 625.238Z" fill="#FFCCDC"/>
<path d="M349.113 602.021C348.521 602.021 348.039 601.541 348.039 600.946V578.696C348.039 566.844 358.919 557.202 372.294 557.202H410.626C411.22 557.202 411.7 557.683 411.7 558.277C411.7 558.872 411.22 559.354 410.626 559.354H372.294C360.105 559.354 350.189 568.031 350.189 578.696V600.946C350.189 601.541 349.707 602.021 349.113 602.021Z" fill="#FFCCDC"/>
<path d="M3.70599 591.954C3.76916 591.929 37.7602 532.336 42.3534 526.726C43.1262 525.784 44.322 525.303 45.5321 525.449L55.0195 526.581L66.1653 550.72L47.597 539.893C49.4342 552.615 25.5805 571.52 17.3995 578.42C16.5694 579.12 16.5012 580.374 17.251 581.158L20.517 584.582C15.155 590.023 8.96768 593.516 1.98438 595.133L3.70599 591.954Z" fill="#A22B25"/>
<path d="M18.6236 582.737C18.6236 582.737 20.7081 583.41 21.4139 585.269C21.7517 586.158 21.3876 587.166 20.615 587.721C17.1829 590.181 5.86106 598.13 0.636417 599.686C0.208119 599.815 -0.199329 599.427 -0.102889 598.988C0.165166 597.774 1.03228 595.348 3.82632 591.795L3.57596 592.303C3.25864 592.944 3.9573 593.615 4.58079 593.263C8.07519 591.287 15.1928 586.964 18.6236 582.737Z" fill="url(#paint0_linear_23387_67459)"/>
<path d="M16.9416 606.582C16.9984 606.546 22.0982 594.243 22.1553 594.207C26.8312 565.706 38.2394 541.297 41.6038 534.876C42.17 533.794 43.2439 533.082 44.4583 532.979L53.9781 532.165L69.7731 553.547L49.4003 546.706C53.7713 558.792 34.2331 582.141 27.616 590.554C26.9445 591.408 27.1312 592.649 28.0242 593.267L31.9147 595.957C27.7636 602.372 22.4107 607.047 15.8984 610.043L16.9416 606.582Z" fill="#C0423C"/>
<path d="M29.6942 594.527C29.6942 594.527 31.872 594.765 32.9387 596.443C33.4491 597.244 33.2962 598.305 32.6517 599.004C29.7882 602.11 20.3075 612.188 15.5055 614.771C15.1119 614.981 14.6346 614.684 14.6407 614.237C14.6575 612.994 15.0161 610.441 17.0344 606.397L16.8917 606.946C16.7108 607.639 17.5303 608.151 18.0694 607.681C21.0925 605.038 27.1891 599.363 29.6942 594.527Z" fill="url(#paint1_linear_23387_67459)"/>
<path d="M98.5426 527.662C98.5426 527.662 107.155 540.485 107.86 546.335C108.568 552.185 105.479 554.206 96.4664 554.953C69.6418 557.172 56.4185 549.124 56.4185 549.124C54.5836 537.411 53.2779 534.433 37.9531 528.064C37.9531 528.064 57.3364 529.603 61.2376 528.09C65.1386 526.574 98.5426 527.662 98.5426 527.662Z" fill="url(#paint2_linear_23387_67459)"/>
<path d="M65.8036 451.213C65.8036 451.213 71.4839 451.177 73.59 453.323C75.28 455.046 80.4745 452.805 82.9698 456.602C84.258 458.56 86.6256 459.469 88.8594 458.76C94.4236 456.996 103.72 455.744 109.431 464.102C113.792 470.483 111.581 474.813 108.359 477.526C105.992 479.52 105.495 483.028 107.384 485.48C109.195 487.833 109.905 491.237 106.565 495.858C99.0793 506.215 80.0749 493.195 80.0749 493.195L62.4766 462.755L65.8036 451.213Z" fill="url(#paint3_linear_23387_67459)"/>
<path d="M75.2486 525.961C75.2486 525.961 65.2198 516.401 60.2832 510.068C57.6147 506.647 56.7768 502.14 58.011 497.979C60.2647 490.377 64.2702 482.503 64.6355 481.276C65.1954 479.4 76.4402 479.478 76.4402 479.478C76.4402 479.478 98.5669 493.855 107.261 518.21L97.4972 521.252C97.4972 521.252 91.7214 511.548 86.0118 505.378C86.0118 505.378 95.8906 518.441 96.2381 523.79L75.2486 525.961Z" fill="url(#paint4_linear_23387_67459)"/>
<path d="M63.2734 470.781C63.3907 471.171 66.3256 480.912 66.5551 481.115C66.7849 481.317 72.9918 481.65 75.9132 479.652L69.9504 466.445L63.2734 470.781Z" fill="#A22B25"/>
<path d="M55.2041 459.84C55.2041 459.84 53.1147 464.672 55.5697 472.016C58.0247 479.363 62.0369 480.002 64.5776 478.186C67.1186 476.369 70.4131 473.125 70.8227 466.47C71.2325 459.815 58.0826 453.727 55.2041 459.84Z" fill="#C0423C"/>
<path d="M65.8617 466.039C65.8617 466.039 61.4279 456.095 54.7782 462.289L54.265 464.848C54.265 464.848 47.9324 463.041 50.0136 457.297C52.0949 451.552 59.6627 447.655 66.4359 451.379C73.209 455.102 75.5112 459.489 75.1471 464.719C74.783 469.947 70.8677 468.158 70.8677 468.158C70.8677 468.158 70.1143 464.312 68.275 463.629C66.4357 462.946 66.4751 465.858 66.4751 465.858L65.8617 466.039Z" fill="url(#paint5_linear_23387_67459)"/>
<path d="M67.3924 466.16C67.3924 466.16 65.0833 461.063 68.3177 460.879C71.5522 460.694 70.2362 465.793 69.5916 467.652L67.3924 466.16Z" fill="url(#paint6_linear_23387_67459)"/>
<path d="M56.1406 529.736L63.6762 521.527L72.3788 523.874C72.3788 523.874 82.5253 525.448 88.3322 523.874C94.1386 522.301 94.1386 522.301 94.1386 522.301L107.261 518.211L109.323 524.042C109.847 525.522 109.321 527.167 108.042 528.075C106.905 528.883 105.575 529.77 104.728 530.143C102.999 530.9 64.9182 530.381 64.9182 530.381L56.1406 529.736Z" fill="#A22B25"/>
<path d="M81.0869 532.982C81.0604 532.984 81.0341 532.984 81.0073 532.984L46.3469 532.946C45.4899 532.946 44.7962 532.249 44.7969 531.391C44.7979 530.533 45.4957 529.824 46.35 529.839L81.0107 529.877C81.8675 529.879 82.5613 530.575 82.5605 531.433C82.5594 532.263 81.9067 532.942 81.0869 532.982Z" fill="#91B3FA"/>
<path d="M15.1825 501.479H44.0479C46.1772 501.479 48.1157 502.708 49.0239 504.637L62.3683 532.965H26.4964C25.1239 532.965 23.891 532.126 23.3867 530.848L13.0385 504.635C12.4407 503.121 13.5557 501.479 15.1825 501.479Z" fill="#CDE2F1"/>
<path d="M35.5224 516.003C36.148 517.949 35.6858 519.838 34.4902 520.224C33.2948 520.609 31.8185 519.345 31.1929 517.399C30.5675 515.453 31.0295 513.564 32.2251 513.179C33.4207 512.793 34.897 514.058 35.5224 516.003Z" fill="#B1BDD7"/>
<path d="M340.404 162.457C364.994 155.163 388.443 157.13 400.15 160.231C413.993 163.895 418.584 166.644 430.837 168.027C441.727 169.258 470.67 160.436 466.964 167.072C462.133 175.721 463.456 209.598 470.668 223.72C471.716 225.775 437.442 230.862 416.674 227.063C388.043 221.825 378.826 213.042 360.024 217.037C351.353 218.882 344.762 222.567 340.551 225.391C342.469 204.507 338.488 183.344 340.404 162.457Z" fill="#368AC8"/>
<g clip-path="url(#clip1_23387_67459)">
<path fill-rule="evenodd" clip-rule="evenodd" d="M426.378 196.56C424.316 208.011 413.383 215.387 401.994 213.321C390.538 211.244 383.031 200.421 385.112 188.956C387.2 177.455 398.183 170.152 409.614 172.259C421.02 174.361 428.434 185.144 426.378 196.56ZM408.09 168.556C394.7 167.142 382.823 177.061 381.455 190.351C380.06 203.908 389.996 215.545 403.463 216.933C416.787 218.307 428.75 208.531 430.056 195.181C431.377 181.681 421.51 169.972 408.09 168.556Z" fill="white"/>
<path fill-rule="evenodd" clip-rule="evenodd" d="M419.416 193.747C418.61 197.479 413.366 195.804 414.227 192.562C415.102 189.267 420.17 190.254 419.416 193.747ZM397.859 188.782C396.554 191.937 391.538 190.03 392.988 186.602C394.243 183.633 399.281 185.343 397.859 188.782ZM405.033 180.779C404.969 177.016 410.583 177.295 410.417 180.646C410.226 184.505 405.086 183.862 405.033 180.779ZM396.141 193.269C402.991 191.651 402.105 183.336 396.461 182.271C390.117 181.074 387.231 189.956 392.908 192.604L391.975 198.289C391.793 199.393 391.691 198.961 392.272 199.76C393.338 201.228 394.394 202.703 395.458 204.172C396.533 205.656 397.553 208.219 399.47 206.814C400.558 206.017 402.86 204.21 403.946 203.686C404.819 204.531 406.2 206.686 406.978 207.771C408.569 209.987 409.474 208.56 411.261 207.289C412.646 206.304 414.024 205.307 415.414 204.33C416.388 203.645 416.911 203.575 417.073 202.268C417.219 201.086 417.452 199.873 417.646 198.693C424.49 197.075 423.508 188.719 417.77 187.737C412.02 186.754 408.375 194.549 414.369 198.155C413.829 201.445 414.518 200.986 411.9 202.821C410.337 203.917 409.297 205.395 407.867 203.417C405.942 200.755 406.24 201.793 406.804 198.362L408.702 186.796C408.862 185.824 408.665 186.141 409.528 185.92C411.057 185.53 412.43 184.022 412.979 182.58C414.339 179.01 411.493 175.037 407.695 175.121C404.014 175.203 401.224 178.814 402.469 182.394C402.759 183.225 403.113 183.767 403.682 184.429C404.77 185.693 405.21 184.721 404.924 186.466L402.754 199.68C402.548 200.939 402.268 200.838 401.201 201.569C400.688 201.921 399.71 202.772 399.119 202.765C398.153 202.753 396.553 200.022 395.985 199.219C395.066 197.918 395.324 198.236 395.595 196.59C395.777 195.483 395.96 194.376 396.141 193.269Z" fill="white"/>
</g>
<path d="M340.717 443.418C340.123 443.418 339.641 442.937 339.641 442.343V155.741C339.641 155.147 340.123 154.664 340.717 154.664C341.308 154.664 341.791 155.147 341.791 155.741V442.343C341.791 442.937 341.308 443.418 340.717 443.418Z" fill="#26264F"/>
<path d="M217.617 443.49C217.615 443.343 217.626 443.191 217.664 443.039C219.911 434.122 229.096 429.552 229.096 429.552L233.515 429.899C236.055 437.758 237.693 441.595 237.285 443.741C237.274 443.802 237.255 443.859 237.24 443.918C233.595 444.243 226.093 444.456 217.617 443.49Z" fill="url(#paint7_linear_23387_67459)"/>
<path d="M237.293 443.914C237.097 444.63 236.568 445.189 235.89 445.33C230.706 446.422 222.464 445.543 219.005 445.092C218.24 444.991 217.685 444.285 217.672 443.486C226.145 444.451 233.648 444.238 237.293 443.914Z" fill="url(#paint8_linear_23387_67459)"/>
<path d="M225.453 422.664L227.388 431.988C227.529 432.673 228.056 433.183 228.69 433.244C229.467 433.316 230.574 433.36 231.688 433.196C232.686 433.048 233.381 432.034 233.204 430.944L231.859 422.664H225.453Z" fill="#A22B25"/>
<path d="M274.72 443.837C270.001 443.704 267.559 443.147 266.298 442.631C266.295 443.101 266.298 443.579 266.312 444.075C266.329 444.604 266.721 445.026 267.203 445.023L293.113 444.857C293.941 444.851 294.423 443.891 294.065 443.13C290.669 443.413 282.014 444.041 274.72 443.837Z" fill="url(#paint9_linear_23387_67459)"/>
<path d="M294.127 443.133C294.098 443.067 294.07 443 294.026 442.939C291.737 439.736 285.909 433.362 274.393 430.598L268.867 430.423C268.867 430.423 266.406 434.705 266.359 442.633C267.623 443.149 270.063 443.706 274.782 443.839C282.078 444.043 290.731 443.415 294.127 443.133Z" fill="url(#paint10_linear_23387_67459)"/>
<path d="M267.844 422.041C267.905 422.452 268.663 428.72 268.956 431.148C269.025 431.726 269.444 432.173 269.971 432.236C270.912 432.348 272.434 432.451 273.765 432.177C274.483 432.029 275.003 431.34 275.003 430.535V420.699L267.844 422.041Z" fill="#A22B25"/>
<path d="M229.15 300.229C229.15 300.229 220.308 378.904 225.22 428.074C225.22 428.074 231.114 428.074 234.06 427.092C234.06 427.092 243.247 350.167 246.22 328.156C246.332 327.326 247.515 327.288 247.678 328.11C251.344 346.629 265.746 419.25 267.46 426.107C267.46 426.107 272.371 428.074 276.3 426.107C276.3 426.107 268.442 320.881 262.548 302.196L229.15 300.229Z" fill="#0C0266"/>
<path d="M211.466 208.769C211.466 208.769 241.187 204.751 268.311 208.849C275.022 209.865 279.696 216.05 278.789 222.783L276.3 241.222C276.3 241.222 268.441 283.51 262.548 302.196C262.548 302.196 239.953 306.13 229.149 300.229C229.149 300.229 220.307 247.123 215.395 239.256C215.395 239.256 210.484 218.603 211.466 208.769Z" fill="#C8DAE8"/>
<path d="M237.398 181.897L233.68 207.074C233.68 207.074 244.069 211.85 251.344 206.867L249.778 189.1L237.398 181.897Z" fill="#A22B25"/>
<path d="M253.406 165.504C253.524 165.717 255.764 178.412 257.144 186.27C257.714 189.517 255.331 192.533 252.044 192.73L249.033 192.907C243.503 193.235 238.633 189.293 237.794 183.81L235.617 169.575C235.617 169.575 250.563 160.341 253.406 165.504Z" fill="#C0423C"/>
<path d="M232.374 169.607C231.22 168.169 230.214 165.846 232.671 163.403C235.158 160.93 237.981 161.545 239.771 162.376C240.565 162.743 241.542 162.58 242.106 161.912C242.357 161.615 242.728 161.415 243.279 161.476C244.322 161.594 245.25 160.905 245.375 159.863C245.585 158.078 246.537 155.976 249.689 155.367C255.471 154.247 258.356 160.042 258.253 164.113C258.15 168.186 251.812 169.042 248.215 168.367C245.575 167.87 243.29 170.193 242.264 171.462C241.892 171.923 241.753 172.526 241.885 173.104L242.799 177.038C242.168 178.26 241.546 179.508 240.656 180.552C240.016 181.304 239.314 181.72 238.569 181.895C237.491 179.886 234.475 179.544 233.073 179.5C232.538 179.483 232.037 179.245 231.683 178.84C230.626 177.628 228.971 174.919 232.14 172.259C232.928 171.599 233.016 170.408 232.374 169.607Z" fill="url(#paint11_linear_23387_67459)"/>
<path d="M239.613 186.109C239.613 186.109 239.488 179.005 236.616 178.339C233.744 177.67 230.647 179.749 233.102 184.003C236.157 189.292 239.613 186.109 239.613 186.109Z" fill="#C0423C"/>
<path d="M228.272 242.727C228.272 242.727 143.926 219.74 185.806 160.63L188.641 164.646C188.641 164.646 176.021 204.682 217.821 208.487C217.821 208.487 228.647 236.44 228.272 242.727Z" fill="#C8DAE8"/>
<path d="M185.52 160.933C185.52 160.933 184.571 149.52 190.271 148.569C195.971 147.619 197.87 153.325 198.82 156.177C199.769 159.032 190.271 164.738 188.369 164.738C186.47 164.738 185.52 160.933 185.52 160.933Z" fill="#C0423C"/>
<path d="M273.719 249.039C273.719 249.039 284.622 292.236 339.307 244.648L335.114 242.087C335.114 242.087 286.968 276.282 278.484 217.95C278.484 217.95 273.719 243.795 273.719 249.039Z" fill="#C8DAE8"/>
<path d="M339.023 244.952C339.023 244.952 350.461 245.14 351.03 239.383C351.596 233.626 345.782 232.108 342.877 231.349C339.969 230.59 334.915 240.46 335.041 242.36C335.17 244.257 339.023 244.952 339.023 244.952Z" fill="#C0423C"/>
<path d="M427.719 547.324C432.604 547.746 441.084 548.433 447.769 548.728C451.787 548.906 454.101 548.511 455.432 547.978C455.43 548.128 455.426 548.271 455.422 548.402C455.39 549.106 454.817 549.671 454.108 549.709C441.476 550.415 431.429 549.953 427.854 549.736C427.115 549.69 426.675 548.887 427.052 548.254C427.241 547.94 427.471 547.63 427.719 547.324Z" fill="url(#paint12_linear_23387_67459)"/>
<path d="M447.769 548.731C441.083 548.435 432.604 547.748 427.719 547.327C432.522 541.426 447.769 537.45 447.769 537.45H452.075C455.036 541.723 455.465 545.794 455.432 547.98C454.101 548.513 451.787 548.908 447.769 548.731Z" fill="url(#paint13_linear_23387_67459)"/>
<path d="M452.799 530.412L452.397 538.395C452.353 539.26 451.706 539.987 450.841 540.111C449.981 540.234 448.828 540.25 447.606 539.841C446.855 539.593 446.296 538.958 446.157 538.185L444.766 530.412H452.799Z" fill="url(#paint14_linear_23387_67459)"/>
<path d="M502.776 556.534C504.897 556.153 505.855 554.73 506.257 553.206C506.259 553.22 506.261 553.233 506.265 553.248C506.577 554.854 505.852 556.517 504.408 557.31C502.662 558.267 500.753 558.429 499.272 558.349C497.68 558.265 496.221 557.413 495.419 556.051L495.406 556.03C497.002 557.053 499.245 557.173 502.776 556.534Z" fill="url(#paint15_linear_23387_67459)"/>
<path d="M492.792 532.873H496.342C501.752 532.73 505.149 547.493 506.26 553.208C505.858 554.732 504.9 556.155 502.78 556.537C499.248 557.175 497.006 557.055 495.41 556.033C492.489 551.058 491.038 543.77 490.343 539.518C489.552 534.68 492.792 532.873 492.792 532.873Z" fill="url(#paint16_linear_23387_67459)"/>
<path d="M495.884 525.463L497.857 533.315C498.099 534.276 497.638 535.273 496.749 535.729C495.646 536.296 494.092 536.892 492.664 536.72C491.995 536.64 491.437 536.165 491.214 535.533L488.32 527.271L495.884 525.463Z" fill="url(#paint17_linear_23387_67459)"/>
<path d="M426.516 422.053C426.516 422.053 444.136 532.328 443.848 532.935C443.848 532.935 448.714 535.148 454.02 533.217C454.02 533.217 452.426 474.267 448.693 451.665C448.693 451.665 478.766 504.354 488.318 530.607C488.318 530.607 493.298 530.013 497.42 527.296C497.42 527.296 465.039 432.458 456.4 419.825L426.516 422.053Z" fill="url(#paint18_linear_23387_67459)"/>
<path d="M447.993 451.273C447.757 451.273 447.525 451.155 447.392 450.942L440.966 440.67L436.42 439.753C436.034 439.677 435.788 439.302 435.866 438.918C435.944 438.534 436.314 438.292 436.7 438.364L441.545 439.34C441.737 439.378 441.903 439.494 442.006 439.658L448.593 450.188C448.799 450.521 448.698 450.959 448.367 451.166C448.249 451.24 448.121 451.273 447.993 451.273Z" fill="url(#paint19_linear_23387_67459)"/>
<path d="M345.657 314.068C345.657 314.068 357.548 316.695 364.779 320.036C366.215 320.7 367.36 321.861 368.013 323.293C370.178 328.036 376.649 339.932 389.199 345.609C387.392 348.01 384.482 353.004 383.214 361.402C375.676 355.784 369.167 346.406 366.044 331.021C366.044 331.021 363.665 332.315 360.698 330.873C359.129 330.11 357.318 329.029 355.96 328.179C354.606 327.332 353.598 326.014 353.206 324.475C352.688 322.443 352.993 320.658 352.993 318.742L346.88 316.844C346.88 316.844 345.042 316.151 345.657 314.068Z" fill="url(#paint20_linear_23387_67459)"/>
<path d="M383.211 361.404C384.479 353.005 387.389 348.011 389.195 345.61C396.993 349.135 407.134 350.263 420.048 345.783C421.24 345.37 422.48 345.127 423.739 345.054C430.614 344.651 453.271 343.913 472.018 350.115C475.962 351.42 479.159 354.34 480.805 358.124C485.876 369.775 494.086 396.307 471.294 409.704C469.542 405.35 467.523 401.851 465.794 399.281C469.464 393.084 470.551 384.618 464.038 373.593C459.287 386.433 457.06 405.167 456.594 413.458C456.44 416.186 456.919 418.912 457.988 421.431L458.106 421.707C458.336 422.244 458.02 422.866 457.445 422.995C444.613 425.881 431.267 425.097 427.279 424.766C426.567 424.707 425.978 424.199 425.813 423.509C419.574 397.188 419.559 379.234 421.088 367.884C415.251 369.191 397.403 371.978 383.211 361.404Z" fill="url(#paint21_linear_23387_67459)"/>
<path d="M421.061 368.777C421.029 368.777 420.998 368.775 420.966 368.771C420.579 368.72 420.307 368.364 420.358 367.976C421.863 356.593 424.889 351.715 425.017 351.514C425.228 351.183 425.668 351.089 425.992 351.295C426.323 351.504 426.422 351.942 426.214 352.273C426.184 352.32 423.219 357.135 421.762 368.162C421.714 368.518 421.41 368.777 421.061 368.777Z" fill="url(#paint22_linear_23387_67459)"/>
<path d="M452.727 329.722C452.727 329.722 454.024 343.462 455.167 347.527C455.34 348.142 455.073 348.794 454.512 349.114C452.573 350.223 447.922 352.034 441.558 348.91C440.526 348.404 439.907 347.329 439.956 346.19L440.516 332.912L452.727 329.722Z" fill="url(#paint23_linear_23387_67459)"/>
<path d="M440.24 312.139C440.24 312.139 436.088 321.688 435.81 326.699C435.53 331.71 434.452 334.962 440.24 335.972C446.029 336.98 450.903 334.094 453.546 329.102C453.546 329.102 457.684 321.41 456.755 318.26C455.826 315.109 440.24 312.139 440.24 312.139Z" fill="url(#paint24_linear_23387_67459)"/>
<path d="M451.566 325.514L451.237 325.369C450.818 325.183 450.639 324.684 450.85 324.277C451.665 322.698 453.257 319.08 451.201 318.235C448.552 317.147 438.058 315.006 435.794 311.278C433.619 307.697 435.546 303.072 438.443 301.756C438.637 301.668 438.866 301.737 438.965 301.927L439.207 302.385C439.372 302.697 439.835 302.65 439.932 302.309C440.027 301.982 440.46 301.919 440.641 302.207C441.336 303.323 443.217 305.131 448.241 306.059C455.381 307.379 460.102 310.271 460.22 315.212C460.226 315.524 460.561 315.699 460.829 315.537C461.355 315.214 462.199 315.065 463.326 316.013C465.288 317.664 464.484 321.945 460.186 325.468C459.982 325.636 459.984 325.955 460.205 326.098C460.984 326.606 462.147 327.816 459.136 329.427C456.021 331.092 453.697 330.957 452.802 330.808C452.579 330.772 452.435 330.555 452.484 330.335L453.44 325.993C453.492 325.748 453.307 325.514 453.054 325.514H451.566Z" fill="url(#paint25_linear_23387_67459)"/>
<path d="M451.383 326.432C451.383 326.432 452.966 320.334 455.697 322.044C458.431 323.753 454.28 328.878 452.084 329.105L451.383 326.432Z" fill="url(#paint26_linear_23387_67459)"/>
<path d="M362.869 329.789C362.662 329.789 362.458 329.701 362.319 329.528C360.611 327.424 357.701 324.087 356.691 323.513C355.798 323.01 355.29 322.442 355.135 321.781C355.002 321.22 355.141 320.632 355.547 320.029C355.707 319.791 355.983 319.675 356.274 319.729L361.464 320.771C361.584 320.794 361.694 320.849 361.786 320.927L364.545 323.298C364.842 323.553 364.875 324.002 364.623 324.298C364.366 324.597 363.919 324.629 363.623 324.376L361.003 322.124L356.52 321.224C356.489 321.35 356.505 321.422 356.514 321.456C356.571 321.703 356.88 321.993 357.386 322.28C358.954 323.166 362.966 328.077 363.418 328.634C363.665 328.937 363.618 329.384 363.315 329.631C363.185 329.736 363.025 329.789 362.869 329.789Z" fill="url(#paint27_linear_23387_67459)"/>
<path d="M451.502 419.086L432.766 418.677C432.766 418.677 449.104 414.054 450.116 415.313C450.116 415.313 460.243 408.651 465.793 399.281C467.522 401.85 469.541 405.35 471.293 409.703C466.32 412.627 459.786 417.705 451.502 419.086Z" fill="url(#paint28_linear_23387_67459)"/>
<path d="M452.031 415.835C452.031 415.835 452.418 423.31 442.618 422.224C437.293 421.634 428.695 416.663 428.695 416.663C428.695 416.663 451.106 416.604 452.031 415.835Z" fill="url(#paint29_linear_23387_67459)"/>
<path d="M448.196 417.841C448.16 417.843 448.124 417.845 448.089 417.843L401.504 417.794C400.355 417.792 399.422 416.867 399.422 415.726C399.424 414.586 400.361 413.641 401.511 413.663L448.093 413.713C449.245 413.715 450.177 414.641 450.177 415.781C450.175 416.886 449.297 417.788 448.196 417.841Z" fill="#6641C0"/>
<path d="M359.624 375.944H398.419C401.281 375.944 403.886 377.58 405.107 380.145L423.041 417.816H374.829C372.985 417.816 371.328 416.699 370.65 415L356.744 380.141C355.939 378.128 357.438 375.944 359.624 375.944Z" fill="#9370E8"/>
<path d="M386.96 395.261C387.8 397.848 387.179 400.361 385.573 400.873C383.966 401.385 381.982 399.703 381.14 397.116C380.3 394.53 380.921 392.017 382.528 391.505C384.134 390.992 386.12 392.673 386.96 395.261Z" fill="white"/>
<path d="M405.624 586.513C407.157 603.454 413.328 707.431 336.593 729.241C334.27 729.901 331.472 728.388 331.432 726.45C331.169 714.127 333.409 675.406 367.464 634.244C392.036 604.546 401.256 590.887 404.194 586.186C404.505 585.687 405.571 585.933 405.624 586.513Z" fill="#9370E8"/>
<path d="M392.172 621.251V621.253V621.251ZM392.174 621.255V621.257V621.255ZM331.433 727.883C331.086 727.883 330.736 727.756 330.462 727.503C329.879 726.966 329.843 726.057 330.38 725.475C371.091 681.274 391.504 624.495 392.102 620.869C392.077 620.243 392.462 619.653 393.085 619.446C393.839 619.198 394.648 619.607 394.896 620.359C395.014 620.715 395.328 621.668 391.209 632.069C388.994 637.668 385.172 646.682 379.546 657.845C370.154 676.474 354.366 703.665 332.486 727.421C332.204 727.727 331.818 727.883 331.433 727.883Z" fill="#BDD0FB"/>
<path d="M437.707 680.855C431.161 691.512 389.081 755.498 334.278 734.533C332.619 733.896 331.635 731.774 332.463 730.614C337.727 723.236 356.072 701.409 394.237 692.163C421.771 685.491 433.209 681.509 437.008 680.033C437.41 679.877 437.93 680.491 437.707 680.855Z" fill="#6F48CE"/>
<path d="M414.146 695.278C414.144 695.28 414.144 695.28 414.144 695.282C414.144 695.28 414.144 695.28 414.146 695.278ZM332.462 732.047C331.787 732.047 331.184 731.566 331.056 730.875C330.911 730.097 331.424 729.349 332.203 729.201C375.145 721.188 412.026 697.032 414.346 694.888C414.704 694.399 415.351 694.171 415.957 694.376C416.709 694.627 417.113 695.438 416.862 696.191C416.321 697.812 403.344 705.656 391.146 711.734C377.4 718.581 356.107 727.66 332.728 732.024C332.639 732.041 332.551 732.047 332.462 732.047Z" fill="url(#paint30_linear_23387_67459)"/>
</g>
<defs>
<linearGradient id="paint0_linear_23387_67459" x1="2.55997" y1="572.652" x2="26.7452" y2="631.121" gradientUnits="userSpaceOnUse">
<stop stop-color="#09005D"/>
<stop offset="1" stop-color="#1A0F91"/>
</linearGradient>
<linearGradient id="paint1_linear_23387_67459" x1="11.9248" y1="587.908" x2="47.4404" y2="640.251" gradientUnits="userSpaceOnUse">
<stop stop-color="#09005D"/>
<stop offset="1" stop-color="#1A0F91"/>
</linearGradient>
<linearGradient id="paint2_linear_23387_67459" x1="80.0854" y1="557.619" x2="58.0681" y2="493.998" gradientUnits="userSpaceOnUse">
<stop stop-color="#09005D"/>
<stop offset="1" stop-color="#1A0F91"/>
</linearGradient>
<linearGradient id="paint3_linear_23387_67459" x1="48.6942" y1="436.845" x2="79.143" y2="464.208" gradientUnits="userSpaceOnUse">
<stop stop-color="#09005D"/>
<stop offset="1" stop-color="#1A0F91"/>
</linearGradient>
<linearGradient id="paint4_linear_23387_67459" x1="57.4532" y1="502.72" x2="107.262" y2="502.72" gradientUnits="userSpaceOnUse">
<stop stop-color="#4F52FF"/>
<stop offset="1" stop-color="#4042E2"/>
</linearGradient>
<linearGradient id="paint5_linear_23387_67459" x1="62.5115" y1="419.253" x2="62.346" y2="476.267" gradientUnits="userSpaceOnUse">
<stop stop-color="#09005D"/>
<stop offset="1" stop-color="#1A0F91"/>
</linearGradient>
<linearGradient id="paint6_linear_23387_67459" x1="-1466.14" y1="-1103.6" x2="-1439.85" y2="-1076.82" gradientUnits="userSpaceOnUse">
<stop stop-color="#A22B25"/>
<stop offset="1" stop-color="#C0423C"/>
</linearGradient>
<linearGradient id="paint7_linear_23387_67459" x1="237.348" y1="436.873" x2="217.617" y2="436.873" gradientUnits="userSpaceOnUse">
<stop stop-color="#09005D"/>
<stop offset="1" stop-color="#1A0F91"/>
</linearGradient>
<linearGradient id="paint8_linear_23387_67459" x1="220.483" y1="259.42" x2="224.074" y2="353.75" gradientUnits="userSpaceOnUse">
<stop stop-color="#4F52FF"/>
<stop offset="1" stop-color="#4042E2"/>
</linearGradient>
<linearGradient id="paint9_linear_23387_67459" x1="282.33" y1="388.162" x2="278.74" y2="482.488" gradientUnits="userSpaceOnUse">
<stop stop-color="#4F52FF"/>
<stop offset="1" stop-color="#4042E2"/>
</linearGradient>
<linearGradient id="paint10_linear_23387_67459" x1="266.359" y1="437.152" x2="294.127" y2="437.152" gradientUnits="userSpaceOnUse">
<stop stop-color="#09005D"/>
<stop offset="1" stop-color="#1A0F91"/>
</linearGradient>
<linearGradient id="paint11_linear_23387_67459" x1="229.82" y1="175.777" x2="257.745" y2="160.398" gradientUnits="userSpaceOnUse">
<stop stop-color="#09005D"/>
<stop offset="1" stop-color="#1A0F91"/>
</linearGradient>
<linearGradient id="paint12_linear_23387_67459" x1="455.434" y1="548.705" x2="426.915" y2="548.705" gradientUnits="userSpaceOnUse">
<stop stop-color="#2B3582"/>
<stop offset="0.392065" stop-color="#23286C"/>
<stop offset="1" stop-color="#150E42"/>
</linearGradient>
<linearGradient id="paint13_linear_23387_67459" x1="455.434" y1="543.113" x2="427.718" y2="543.113" gradientUnits="userSpaceOnUse">
<stop stop-color="#09005D"/>
<stop offset="1" stop-color="#1A0F91"/>
</linearGradient>
<linearGradient id="paint14_linear_23387_67459" x1="452.799" y1="535.301" x2="444.765" y2="535.301" gradientUnits="userSpaceOnUse">
<stop stop-color="#FEBBBA"/>
<stop offset="1" stop-color="#FF928E"/>
</linearGradient>
<linearGradient id="paint15_linear_23387_67459" x1="506.337" y1="555.788" x2="495.408" y2="555.788" gradientUnits="userSpaceOnUse">
<stop stop-color="#2B3582"/>
<stop offset="0.392065" stop-color="#23286C"/>
<stop offset="1" stop-color="#150E42"/>
</linearGradient>
<linearGradient id="paint16_linear_23387_67459" x1="506.26" y1="544.902" x2="490.219" y2="544.902" gradientUnits="userSpaceOnUse">
<stop stop-color="#09005D"/>
<stop offset="1" stop-color="#1A0F91"/>
</linearGradient>
<linearGradient id="paint17_linear_23387_67459" x1="497.92" y1="531.106" x2="488.32" y2="531.106" gradientUnits="userSpaceOnUse">
<stop stop-color="#FEBBBA"/>
<stop offset="1" stop-color="#FF928E"/>
</linearGradient>
<linearGradient id="paint18_linear_23387_67459" x1="488.89" y1="396.425" x2="422.123" y2="590.048" gradientUnits="userSpaceOnUse">
<stop stop-color="#2B3582"/>
<stop offset="0.392065" stop-color="#23286C"/>
<stop offset="1" stop-color="#150E42"/>
</linearGradient>
<linearGradient id="paint19_linear_23387_67459" x1="523.913" y1="276.136" x2="422.704" y2="484.778" gradientUnits="userSpaceOnUse">
<stop stop-color="#2B3582"/>
<stop offset="0.392065" stop-color="#23286C"/>
<stop offset="1" stop-color="#150E42"/>
</linearGradient>
<linearGradient id="paint20_linear_23387_67459" x1="365.872" y1="328.651" x2="403.949" y2="378.134" gradientUnits="userSpaceOnUse">
<stop stop-color="#FEBBBA"/>
<stop offset="1" stop-color="#FF928E"/>
</linearGradient>
<linearGradient id="paint21_linear_23387_67459" x1="410.977" y1="340.254" x2="538.091" y2="490.738" gradientUnits="userSpaceOnUse">
<stop stop-color="#4F52FF"/>
<stop offset="1" stop-color="#4042E2"/>
</linearGradient>
<linearGradient id="paint22_linear_23387_67459" x1="623.178" y1="215.934" x2="515.617" y2="293.292" gradientUnits="userSpaceOnUse">
<stop stop-color="#4F52FF"/>
<stop offset="1" stop-color="#4042E2"/>
</linearGradient>
<linearGradient id="paint23_linear_23387_67459" x1="450.621" y1="360.662" x2="446.452" y2="338.8" gradientUnits="userSpaceOnUse">
<stop stop-color="#FEBBBA"/>
<stop offset="1" stop-color="#FF928E"/>
</linearGradient>
<linearGradient id="paint24_linear_23387_67459" x1="439.37" y1="320.543" x2="463.125" y2="338.698" gradientUnits="userSpaceOnUse">
<stop stop-color="#FEBBBA"/>
<stop offset="1" stop-color="#FF928E"/>
</linearGradient>
<linearGradient id="paint25_linear_23387_67459" x1="456.076" y1="306.15" x2="433.94" y2="334.618" gradientUnits="userSpaceOnUse">
<stop stop-color="#09005D"/>
<stop offset="1" stop-color="#1A0F91"/>
</linearGradient>
<linearGradient id="paint26_linear_23387_67459" x1="442.309" y1="316.695" x2="466.064" y2="334.851" gradientUnits="userSpaceOnUse">
<stop stop-color="#FEBBBA"/>
<stop offset="1" stop-color="#FF928E"/>
</linearGradient>
<linearGradient id="paint27_linear_23387_67459" x1="380.832" y1="299.368" x2="355.482" y2="329.467" gradientUnits="userSpaceOnUse">
<stop stop-color="#FEBBBA"/>
<stop offset="1" stop-color="#FF928E"/>
</linearGradient>
<linearGradient id="paint28_linear_23387_67459" x1="432.898" y1="384.381" x2="446.539" y2="404.819" gradientUnits="userSpaceOnUse">
<stop stop-color="#FEBBBA"/>
<stop offset="1" stop-color="#FF928E"/>
</linearGradient>
<linearGradient id="paint29_linear_23387_67459" x1="460.07" y1="387.681" x2="446.704" y2="407.708" gradientUnits="userSpaceOnUse">
<stop stop-color="#FEBBBA"/>
<stop offset="1" stop-color="#FF928E"/>
</linearGradient>
<linearGradient id="paint30_linear_23387_67459" x1="331.033" y1="713.173" x2="416.938" y2="713.173" gradientUnits="userSpaceOnUse">
<stop stop-color="#DAE3FE"/>
<stop offset="1" stop-color="#E9EFFD"/>
</linearGradient>
<clipPath id="clip0_23387_67459">
<path d="M0 8C0 3.58172 3.58172 0 8 0H533V714H8.00001C3.58173 714 0 710.418 0 706V8Z" fill="white"/>
</clipPath>
<clipPath id="clip1_23387_67459">
<rect width="50" height="50" fill="white" transform="translate(385.102 164) rotate(9.3239)"/>
</clipPath>
</defs>
</svg>
