<svg width="40" height="40" viewBox="0 0 40 40" fill="none" xmlns="http://www.w3.org/2000/svg">
<path d="M33.8277 17.2346C33.6505 17.064 33.4602 16.8999 33.2633 16.7424L30.5726 14.4586C29.5357 13.7235 28.3019 13.2576 26.9631 13.1657L27.1074 13.3101L25.4733 11.6694H25.4602C25.0074 11.2559 24.397 11 23.7342 11C22.5923 11 21.6275 11.7416 21.2994 12.7719C20.9713 12.5619 20.5906 12.4372 20.1772 12.411C20.1115 12.4044 20.0394 12.4044 19.9737 12.4044C19.5078 12.4044 19.0746 12.5422 18.7071 12.7719C18.3724 11.7482 17.4077 11.0066 16.2723 11.0066C15.6095 11.0066 15.0057 11.2559 14.5463 11.676H14.5332L12.8991 13.3167L13.0435 13.1723C11.7047 13.2641 10.4643 13.7367 9.43396 14.4651L6.74323 16.749C6.54635 16.8999 6.35603 17.064 6.17883 17.2412C4.83347 18.5406 4 20.3585 4 22.3732C4 26.3109 7.20262 29.5135 11.1403 29.5135C14.776 29.5135 17.7883 26.7768 18.2215 23.2527C18.7465 23.5545 19.3568 23.7252 20 23.7252C20.6497 23.7252 21.2535 23.5545 21.7785 23.2527C22.2182 26.7703 25.2239 29.507 28.8597 29.507C32.7973 29.507 36 26.3043 36 22.3667C36.0065 20.3519 35.1731 18.534 33.8277 17.2346ZM11.1403 27.2428C8.44954 27.2428 6.27071 25.064 6.27071 22.3732C6.27071 19.6825 8.44954 17.5037 11.1403 17.5037C13.831 17.5037 16.0098 19.6825 16.0098 22.3732C16.0164 25.0574 13.831 27.2428 11.1403 27.2428ZM20.0065 21.7038C19.1337 21.7038 18.4249 20.9951 18.4249 20.1222C18.4249 19.2494 19.1337 18.5406 20.0065 18.5406C20.8794 18.5406 21.5882 19.2494 21.5882 20.1222C21.5882 20.9951 20.8794 21.7038 20.0065 21.7038ZM28.8728 27.2428C26.1821 27.2428 24.0033 25.064 24.0033 22.3732C24.0033 19.6825 26.1821 17.5037 28.8728 17.5037C31.5635 17.5037 33.7424 19.6825 33.7424 22.3732C33.7424 25.0574 31.5635 27.2428 28.8728 27.2428Z" fill="#93989B"/>
</svg>
