<svg width="48" height="48" viewBox="0 0 48 48" fill="none" xmlns="http://www.w3.org/2000/svg">
<path d="M7.04836 23.7808C7.13501 22.4811 8.05044 21.3859 9.31411 21.07L13.7577 19.9591C14.1768 19.8543 14.6136 19.8413 15.0382 19.9209L23.4846 21.5046C23.8216 21.5678 24.1668 21.5727 24.5054 21.5193L34.5178 19.9384C35.0895 19.8481 35.6752 19.9251 36.2041 20.1602L39.3184 21.5443C40.2395 21.9537 40.8935 22.7983 41.0592 23.7926L41.7399 27.8772C41.8992 28.8329 41.5872 29.8066 40.9021 30.4917L38.6724 32.7214C38.1098 33.284 37.3468 33.6 36.5511 33.6H32.5255C31.3491 33.6 30.2812 32.9124 29.7944 31.8415L28.3931 28.7586C27.9063 27.6877 26.8384 27 25.662 27H23.9938H22.7747C21.6768 27 20.6667 27.5997 20.141 28.5635L18.2465 32.0366C17.7208 33.0004 16.7107 33.6 15.6129 33.6H12.2541C11.6919 33.6 11.1409 33.442 10.6641 33.144L8.11656 31.5518C7.17893 30.9658 6.63965 29.9115 6.7132 28.8083L7.04836 23.7808Z" fill="#76BDFF"/>
<path d="M34.6463 23.1936C32.6302 23.1936 31 24.8317 31 26.8399C31 27.3203 31.3938 27.714 31.8742 27.714C32.3546 27.714 32.7483 27.3203 32.7483 26.8399C32.7483 25.7925 33.6067 24.934 34.6541 24.934C35.1345 24.934 35.5283 24.5403 35.5283 24.0599C35.5204 23.5795 35.1267 23.1936 34.6463 23.1936Z" fill="white"/>
<path d="M40.5901 20.6815C40.3775 20.4767 40.1491 20.2798 39.9128 20.0908L36.684 17.3502C35.4397 16.4682 33.9591 15.9091 32.3525 15.7988L32.5258 15.9721L30.5649 14.0032H30.5491C30.0057 13.5071 29.2733 13.2 28.4779 13.2C27.1076 13.2 25.9499 14.0899 25.5562 15.3263C25.1624 15.0743 24.7056 14.9246 24.2095 14.8931C24.1307 14.8853 24.0441 14.8853 23.9654 14.8853C23.4062 14.8853 22.8864 15.0506 22.4454 15.3263C22.0438 14.0977 20.8861 13.2078 19.5237 13.2078C18.7283 13.2078 18.0038 13.5071 17.4525 14.0111H17.4367L15.4758 15.9799L15.649 15.8067C14.0425 15.9169 12.554 16.484 11.3176 17.3581L8.08875 20.0987C7.85249 20.2798 7.62411 20.4767 7.41147 20.6894C5.79704 22.2487 4.79688 24.4301 4.79688 26.8478C4.79688 31.573 8.64002 35.4162 13.3652 35.4162C17.7281 35.4162 21.3429 32.1322 21.8626 27.9031C22.4927 28.2654 23.2251 28.4702 23.9969 28.4702C24.7765 28.4702 25.501 28.2654 26.1311 27.9031C26.6587 32.1243 30.2656 35.4083 34.6285 35.4083C39.3537 35.4083 43.1968 31.5651 43.1968 26.84C43.2047 24.4223 42.2045 22.2408 40.5901 20.6815ZM13.3652 32.6913C10.1363 32.6913 7.52173 30.0767 7.52173 26.8478C7.52173 23.619 10.1363 21.0044 13.3652 21.0044C16.5941 21.0044 19.2087 23.619 19.2087 26.8478C19.2165 30.0688 16.5941 32.6913 13.3652 32.6913ZM24.0047 26.0446C22.9573 26.0446 22.1068 25.194 22.1068 24.1466C22.1068 23.0992 22.9573 22.2487 24.0047 22.2487C25.0521 22.2487 25.9027 23.0992 25.9027 24.1466C25.9027 25.194 25.0521 26.0446 24.0047 26.0446ZM34.6443 32.6913C31.4154 32.6913 28.8008 30.0767 28.8008 26.8478C28.8008 23.619 31.4154 21.0044 34.6443 21.0044C37.8731 21.0044 40.4877 23.619 40.4877 26.8478C40.4877 30.0688 37.8731 32.6913 34.6443 32.6913Z" fill="#283138"/>
<path d="M13.365 23.1936C11.3489 23.1936 9.71875 24.8317 9.71875 26.8399C9.71875 27.3203 10.1125 27.714 10.5929 27.714C11.0733 27.714 11.4671 27.3203 11.4671 26.8399C11.4671 25.7925 12.3255 24.934 13.3729 24.934C13.8533 24.934 14.247 24.5403 14.247 24.0599C14.2392 23.5795 13.8454 23.1936 13.365 23.1936Z" fill="white"/>
</svg>
