<svg width="48" height="48" viewBox="0 0 48 48" fill="none" xmlns="http://www.w3.org/2000/svg">
<g clip-path="url(#clip0_21742_66859)">
<path fill-rule="evenodd" clip-rule="evenodd" d="M15.1634 33.5938H9.27344V42.1437H15.1634V33.5938ZM11.7935 34.7344C11.2412 34.7344 10.7935 35.1821 10.7935 35.7344V37.7344C10.7935 38.2867 11.2412 38.7344 11.7935 38.7344C12.3457 38.7344 12.7935 38.2867 12.7935 37.7344V35.7344C12.7935 35.1821 12.3457 34.7344 11.7935 34.7344Z" fill="#93989B"/>
<path fill-rule="evenodd" clip-rule="evenodd" d="M26.9472 27.5156H20.8672V42.1456H26.9472V27.5156ZM23.3872 28.6562C22.8349 28.6562 22.3872 29.104 22.3872 29.6562V31.6562C22.3872 32.2085 22.8349 32.6562 23.3872 32.6562C23.9395 32.6562 24.3872 32.2085 24.3872 31.6562V29.6562C24.3872 29.104 23.9395 28.6562 23.3872 28.6562Z" fill="#93989B"/>
<path fill-rule="evenodd" clip-rule="evenodd" d="M38.7284 16.7812H32.6484V42.1462H38.7284V16.7812ZM35.1685 17.9219C34.6162 17.9219 34.1685 18.3696 34.1685 18.9219V20.9219C34.1685 21.4742 34.6162 21.9219 35.1685 21.9219C35.7207 21.9219 36.1685 21.4742 36.1685 20.9219V18.9219C36.1685 18.3696 35.7207 17.9219 35.1685 17.9219Z" fill="#93989B"/>
<path fill-rule="evenodd" clip-rule="evenodd" d="M33.7707 5.19381C33.6144 5.34999 33.575 5.46019 33.575 5.74035C33.575 6.02041 33.6144 6.13061 33.7707 6.28679L33.9664 6.48249H35.496H37.0256L33.3897 10.119L29.7537 13.7555L28.3431 12.3491C26.9055 10.9159 26.6728 10.7451 26.2702 10.8281C26.0247 10.8787 12.6712 24.125 12.4549 24.5325C12.1688 25.0715 12.5189 25.668 13.1215 25.668H13.4614L19.9546 19.1752L26.4477 12.6824L27.9189 14.1469L29.3902 15.6114H29.7553H30.1206L34.1115 11.623L38.1024 7.63474V8.91781C38.1024 10.2739 38.1576 10.5439 38.4693 10.7107C38.689 10.8284 39.1606 10.7984 39.3369 10.6556C39.6481 10.4035 39.661 10.2934 39.661 7.89267C39.661 4.68775 39.9964 5.00191 36.5725 4.99973L33.9664 4.99811L33.7707 5.19381ZM33.4133 15.9351C32.7487 16.1188 32.1647 16.7337 32.0218 17.4001C31.967 17.6552 31.9422 21.4768 31.9422 29.6423V41.5137H29.9027H27.8632L27.8432 34.6946L27.823 27.8754L27.5466 27.4768C26.9647 26.6377 26.555 26.5253 24.0701 26.5231C21.7382 26.521 21.3074 26.6128 20.721 27.2368C20.1893 27.8025 20.2192 27.3541 20.2173 34.8155L20.2156 41.5137H18.1747H16.1337V38.0016C16.1337 34.0641 16.1342 34.0695 15.6114 33.4755C15.0402 32.8266 14.8758 32.793 12.2743 32.793H10.0105L9.58723 33.0009C8.47658 33.5464 8.45635 33.6323 8.43013 37.9327L8.40818 41.5137H7.44412C6.16951 41.5137 5.79644 41.7779 6.03784 42.5096C6.21397 43.0432 4.55565 42.9981 24.0008 42.9981C43.446 42.9981 41.7877 43.0432 41.9638 42.5096C42.203 41.7848 41.8295 41.5137 40.5913 41.5137H39.661V29.578C39.661 16.1925 39.7011 17.1562 39.1179 16.5206C38.5409 15.8916 38.4547 15.8734 35.95 15.8551C34.3445 15.8434 33.6679 15.8647 33.4133 15.9351ZM37.9068 17.5465L38.1024 17.7003V29.607V41.5137H35.8016H33.5008V29.6353V17.757L33.683 17.5748L33.8651 17.3927H35.7882C37.6213 17.3927 37.7204 17.3998 37.9068 17.5465ZM10.1331 26.9317C9.85104 27.1691 9.78293 27.4646 9.92951 27.8154C10.1443 28.3295 10.8342 28.4248 11.1996 27.9907C11.7922 27.2864 10.8377 26.3388 10.1331 26.9317ZM25.9882 28.1598C26.3809 28.2967 26.3758 28.2041 26.3758 35.1048V41.5137H24.075H21.7743V34.9568C21.7743 27.8358 21.7502 28.2781 22.1454 28.1328C22.3587 28.0543 25.7542 28.0782 25.9882 28.1598ZM14.4333 34.5269C14.5682 34.6936 14.575 34.866 14.575 38.1079V41.5137H12.2743H9.9735L9.97872 38.1553C9.98414 34.6181 9.98718 34.5804 10.2742 34.4185C10.6362 34.2142 14.2566 34.3085 14.4333 34.5269Z" fill="#93989B"/>
</g>
<defs>
<clipPath id="clip0_21742_66859">
<rect width="38" height="38" fill="white" transform="translate(5 5)"/>
</clipPath>
</defs>
</svg>
