<svg width="48" height="48" viewBox="0 0 48 48" fill="none" xmlns="http://www.w3.org/2000/svg">
<path d="M15 44.8001V30.2001L21 32.4001H27.4L33 29.6001V44.8001L24.2 40.4001L15 44.8001Z" fill="#93989B"/>
<path d="M40.125 18.0001C40.126 15.2753 39.4366 12.5948 38.1211 10.2086C36.8056 7.82252 34.9069 5.80866 32.6022 4.35509C30.2976 2.90152 27.6622 2.05565 24.9422 1.89645C22.2221 1.73725 19.506 2.26991 17.0476 3.4447C14.5891 4.61949 12.4684 6.3981 10.8835 8.61447C9.29864 10.8308 8.30121 13.4127 7.98439 16.1189C7.66756 18.8252 8.04166 21.5676 9.07176 24.0901C10.1019 26.6126 11.7544 28.8329 13.875 30.5438V45.0001C13.876 45.1906 13.9245 45.3778 14.0162 45.5448C14.1078 45.7118 14.2398 45.8532 14.4 45.9563C14.5652 46.057 14.7528 46.1148 14.946 46.1247C15.1392 46.1345 15.3317 46.096 15.5063 46.0126L24 41.7563L32.4938 46.0126C32.6527 46.0854 32.8252 46.1237 33 46.1251C33.2116 46.1245 33.4191 46.0661 33.6 45.9563C33.7602 45.8532 33.8922 45.7118 33.9839 45.5448C34.0755 45.3778 34.1241 45.1906 34.125 45.0001V30.5438C35.9986 29.0339 37.5101 27.1235 38.5484 24.9528C39.5867 22.7821 40.1254 20.4063 40.125 18.0001ZM10.125 18.0001C10.125 15.2558 10.9388 12.5732 12.4634 10.2915C13.988 8.00978 16.1549 6.23139 18.6903 5.18122C21.2256 4.13106 24.0154 3.85628 26.7069 4.39165C29.3984 4.92702 31.8707 6.24849 33.8111 8.18894C35.7516 10.1294 37.073 12.6017 37.6084 15.2932C38.1438 17.9847 37.869 20.7745 36.8188 23.3098C35.7687 25.8451 33.9903 28.0121 31.7085 29.5367C29.4268 31.0613 26.7442 31.8751 24 31.8751C20.3216 31.8701 16.7954 30.4067 14.1944 27.8057C11.5934 25.2047 10.13 21.6784 10.125 18.0001ZM31.875 43.1813L24.5063 39.4876C24.3477 39.4138 24.1749 39.3755 24 39.3755C23.8251 39.3755 23.6523 39.4138 23.4938 39.4876L16.125 43.1813V32.0626C18.5295 33.4144 21.2415 34.1246 24 34.1246C26.7585 34.1246 29.4705 33.4144 31.875 32.0626V43.1813ZM24 28.1251C26.0025 28.1251 27.9601 27.5312 29.6252 26.4187C31.2902 25.3061 32.5879 23.7248 33.3543 21.8747C34.1206 20.0246 34.3211 17.9888 33.9305 16.0248C33.5398 14.0607 32.5755 12.2566 31.1595 10.8406C29.7435 9.42459 27.9394 8.46027 25.9753 8.0696C24.0112 7.67892 21.9754 7.87943 20.1253 8.64577C18.2752 9.41211 16.6939 10.7099 15.5814 12.3749C14.4688 14.04 13.875 15.9975 13.875 18.0001C13.875 20.6854 14.9417 23.2607 16.8405 25.1595C18.7394 27.0583 21.3147 28.1251 24 28.1251ZM24 10.1251C25.5575 10.1251 27.0801 10.5869 28.3751 11.4522C29.6702 12.3175 30.6795 13.5475 31.2756 14.9864C31.8716 16.4254 32.0275 18.0088 31.7237 19.5364C31.4198 21.064 30.6698 22.4672 29.5685 23.5685C28.4671 24.6699 27.0639 25.4199 25.5363 25.7237C24.0087 26.0276 22.4253 25.8716 20.9864 25.2756C19.5474 24.6796 18.3175 23.6702 17.4522 22.3752C16.5869 21.0801 16.125 19.5576 16.125 18.0001C16.125 15.9115 16.9547 13.9084 18.4315 12.4316C19.9084 10.9547 21.9114 10.1251 24 10.1251Z" fill="#93989B"/>
<circle cx="24" cy="18" r="16" fill="#93989B"/>
<path d="M40 18C40 26.8366 32.8366 34 24 34C15.1634 34 8 26.8366 8 18C8 9.16344 15.1634 2 24 2C32.8366 2 40 9.16344 40 18Z" fill="#93989B"/>
<path d="M23.9984 24.1549L18.9345 26.7098C18.3463 27.0067 17.6588 26.5272 17.7711 25.8986L18.7383 20.487L14.6415 16.6545C14.1655 16.2094 14.4282 15.4337 15.0859 15.342L20.7475 14.5525L23.2794 9.62891C23.5736 9.05696 24.4233 9.05696 24.7175 9.62891L27.2494 14.5525L32.911 15.342C33.5687 15.4337 33.8313 16.2094 33.3554 16.6545L29.2586 20.487L30.2258 25.8986C30.3381 26.5272 29.6506 27.0066 29.0624 26.7098L23.9984 24.1549Z" fill="white"/>
</svg>
