<svg width="346" height="300" viewBox="0 0 346 300" fill="none" xmlns="http://www.w3.org/2000/svg">
<path fill-rule="evenodd" clip-rule="evenodd" d="M347.883 250.125C343.302 254.707 340.846 259.678 342.398 261.23C343.949 262.782 348.921 260.326 353.502 255.744C358.084 251.163 360.54 246.191 358.988 244.64C357.436 243.088 352.465 245.544 347.883 250.125ZM357.327 246.63C357.419 246.539 357.419 246.391 357.327 246.3C357.236 246.208 357.088 246.208 356.997 246.3L344.055 259.241C343.964 259.333 343.964 259.48 344.055 259.572C344.147 259.663 344.294 259.663 344.386 259.572L357.327 246.63Z" fill="#EA5455"/>
<path fill-rule="evenodd" clip-rule="evenodd" d="M353.554 227.924C348.99 223.361 344.028 220.924 342.47 222.482C340.913 224.039 343.35 229.001 347.913 233.565C352.477 238.129 357.439 240.565 358.997 239.008C360.554 237.45 358.117 232.488 353.554 227.924ZM357.014 237.358C357.106 237.449 357.254 237.449 357.346 237.358C357.438 237.266 357.438 237.117 357.346 237.026L344.457 224.137C344.365 224.045 344.217 224.045 344.125 224.137C344.033 224.228 344.033 224.377 344.125 224.468L357.014 237.358Z" fill="#EA5455"/>
<rect width="23.4169" height="0.234169" transform="matrix(-0.999998 0.00193319 0.00193319 -0.999998 356.293 242.043)" fill="#EA5455"/>
<rect width="23.4169" height="0.234169" transform="matrix(-0.00193319 0.999998 -0.999998 0.00193319 281.02 293.941)" fill="#EA5455"/>
<path fill-rule="evenodd" clip-rule="evenodd" d="M283.151 159.176C282.056 158.081 280.277 158.084 279.177 159.184C278.078 160.283 278.074 162.062 279.17 163.157C280.265 164.253 282.044 164.249 283.144 163.15C284.243 162.05 284.247 160.271 283.151 159.176ZM282.156 160.17C281.608 159.622 280.719 159.624 280.169 160.174C279.619 160.724 279.618 161.613 280.165 162.161C280.713 162.708 281.602 162.707 282.152 162.157C282.702 161.607 282.704 160.718 282.156 160.17Z" fill="#EA5455"/>
<path fill-rule="evenodd" clip-rule="evenodd" d="M295.054 169.42C290.49 164.857 285.528 162.42 283.97 163.978C282.413 165.535 284.85 170.498 289.413 175.061C293.977 179.625 298.939 182.062 300.497 180.504C302.054 178.946 299.617 173.984 295.054 169.42ZM298.514 178.854C298.606 178.945 298.754 178.945 298.846 178.854C298.938 178.762 298.938 178.613 298.846 178.522L285.957 165.633C285.865 165.541 285.717 165.541 285.625 165.633C285.533 165.724 285.533 165.873 285.625 165.964L298.514 178.854Z" fill="#EA5455"/>
<path fill-rule="evenodd" clip-rule="evenodd" d="M267.235 169.473C262.654 174.054 260.198 179.026 261.749 180.578C263.301 182.129 268.273 179.673 272.854 175.092C277.435 170.511 279.891 165.539 278.339 163.987C276.788 162.436 271.816 164.892 267.235 169.473ZM276.679 165.978C276.77 165.886 276.77 165.739 276.679 165.647C276.588 165.556 276.44 165.556 276.348 165.647L263.407 178.589C263.316 178.68 263.316 178.828 263.407 178.919C263.498 179.011 263.646 179.011 263.737 178.919L276.679 165.978Z" fill="#EA5455"/>
<path fill-rule="evenodd" clip-rule="evenodd" d="M272.905 147.276C268.342 142.712 263.38 140.276 261.822 141.833C260.264 143.391 262.701 148.353 267.265 152.917C271.828 157.48 276.791 159.917 278.348 158.359C279.906 156.802 277.469 151.839 272.905 147.276ZM276.366 156.709C276.457 156.801 276.606 156.801 276.698 156.709C276.789 156.617 276.789 156.469 276.698 156.377L263.808 143.488C263.717 143.397 263.568 143.397 263.477 143.488C263.385 143.58 263.385 143.728 263.477 143.82L276.366 156.709Z" fill="#EA5455"/>
<path fill-rule="evenodd" clip-rule="evenodd" d="M289.465 147.243C284.884 151.824 282.428 156.796 283.98 158.347C285.531 159.899 290.503 157.443 295.084 152.862C299.666 148.28 302.122 143.309 300.57 141.757C299.018 140.205 294.047 142.661 289.465 147.243ZM298.909 143.747C299.001 143.656 299.001 143.508 298.909 143.417C298.818 143.325 298.67 143.325 298.579 143.417L285.637 156.358C285.546 156.45 285.546 156.598 285.637 156.689C285.729 156.78 285.877 156.78 285.968 156.689L298.909 143.747Z" fill="#EA5455"/>
<rect width="23.4169" height="0.234169" transform="matrix(-0.999998 0.00193319 0.00193319 -0.999998 275.649 161.391)" fill="#EA5455"/>
<rect width="23.4169" height="0.234169" transform="matrix(-0.999998 0.00193319 0.00193319 -0.999998 310.09 161.324)" fill="#EA5455"/>
<rect width="23.4169" height="0.234169" transform="matrix(-0.00193319 0.999998 -0.999998 0.00193319 281.27 166.773)" fill="#EA5455"/>
<rect width="23.4169" height="0.234169" transform="matrix(-0.00193319 0.999998 -0.999998 0.00193319 281.333 132.332)" fill="#EA5455"/>
<path fill-rule="evenodd" clip-rule="evenodd" d="M202.194 240.137C201.099 239.042 199.32 239.045 198.22 240.144C197.121 241.244 197.117 243.023 198.213 244.118C199.308 245.214 201.087 245.21 202.187 244.111C203.286 243.011 203.29 241.232 202.194 240.137ZM201.199 241.131C200.651 240.583 199.762 240.585 199.212 241.135C198.662 241.684 198.661 242.574 199.208 243.122C199.756 243.669 200.645 243.668 201.195 243.118C201.745 242.568 201.747 241.679 201.199 241.131Z" fill="#EA5455"/>
<path fill-rule="evenodd" clip-rule="evenodd" d="M214.097 250.381C209.533 245.818 204.571 243.381 203.013 244.939C201.456 246.496 203.893 251.458 208.456 256.022C213.02 260.586 217.982 263.022 219.54 261.465C221.097 259.907 218.66 254.945 214.097 250.381ZM217.557 259.815C217.649 259.906 217.797 259.906 217.889 259.815C217.981 259.723 217.981 259.574 217.889 259.483L205 246.594C204.908 246.502 204.76 246.502 204.668 246.594C204.576 246.685 204.576 246.834 204.668 246.925L217.557 259.815Z" fill="#EA5455"/>
<path fill-rule="evenodd" clip-rule="evenodd" d="M186.278 250.434C181.697 255.015 179.241 259.987 180.792 261.539C182.344 263.09 187.316 260.634 191.897 256.053C196.478 251.472 198.934 246.5 197.382 244.948C195.831 243.397 190.859 245.853 186.278 250.434ZM195.722 246.939C195.813 246.847 195.813 246.699 195.722 246.608C195.631 246.517 195.483 246.517 195.391 246.608L182.45 259.55C182.358 259.641 182.358 259.789 182.45 259.88C182.541 259.972 182.689 259.972 182.78 259.88L195.722 246.939Z" fill="#EA5455"/>
<path fill-rule="evenodd" clip-rule="evenodd" d="M191.952 228.237C187.389 223.673 182.426 221.236 180.869 222.794C179.311 224.352 181.748 229.314 186.312 233.878C190.875 238.441 195.837 240.878 197.395 239.32C198.953 237.763 196.516 232.8 191.952 228.237ZM195.413 237.67C195.504 237.762 195.653 237.762 195.745 237.67C195.836 237.578 195.836 237.43 195.745 237.338L182.855 224.449C182.764 224.357 182.615 224.357 182.524 224.449C182.432 224.541 182.432 224.689 182.524 224.781L195.413 237.67Z" fill="#EA5455"/>
<path fill-rule="evenodd" clip-rule="evenodd" d="M208.508 228.204C203.927 232.785 201.471 237.756 203.023 239.308C204.574 240.86 209.546 238.404 214.127 233.822C218.709 229.241 221.165 224.27 219.613 222.718C218.061 221.166 213.09 223.622 208.508 228.204ZM217.952 224.708C218.044 224.617 218.044 224.469 217.952 224.378C217.861 224.286 217.713 224.286 217.622 224.378L204.68 237.319C204.589 237.411 204.589 237.559 204.68 237.65C204.772 237.741 204.919 237.741 205.011 237.65L217.952 224.708Z" fill="#EA5455"/>
<rect width="23.4169" height="0.234169" transform="matrix(-0.999998 0.00193319 0.00193319 -0.999998 194.688 242.355)" fill="#EA5455"/>
<rect width="23.4169" height="0.234169" transform="matrix(-0.999998 0.00193319 0.00193319 -0.999998 229.129 242.289)" fill="#EA5455"/>
<rect width="23.4169" height="0.234169" transform="matrix(-0.00193319 0.999998 -0.999998 0.00193319 200.309 247.734)" fill="#EA5455"/>
<rect width="23.4169" height="0.234169" transform="matrix(-0.00193319 0.999998 -0.999998 0.00193319 200.372 213.293)" fill="#EA5455"/>
<path fill-rule="evenodd" clip-rule="evenodd" d="M202.503 78.5313C201.408 77.436 199.628 77.4395 198.529 78.539C197.429 79.6385 197.426 81.4177 198.521 82.5129C199.617 83.6082 201.396 83.6048 202.495 82.5053C203.595 81.4058 203.598 79.6266 202.503 78.5313ZM201.508 79.5254C200.96 78.9778 200.07 78.9795 199.521 79.5293C198.971 80.079 198.969 80.9686 199.517 81.5162C200.064 82.0639 200.954 82.0622 201.504 81.5124C202.053 80.9626 202.055 80.073 201.508 79.5254Z" fill="#EA5455"/>
<path fill-rule="evenodd" clip-rule="evenodd" d="M214.405 88.772C209.842 84.2084 204.88 81.7716 203.322 83.3292C201.764 84.8869 204.201 89.8491 208.765 94.4127C213.328 98.9763 218.291 101.413 219.848 99.8554C221.406 98.2978 218.969 93.3356 214.405 88.772ZM217.866 98.2052C217.957 98.2968 218.106 98.2968 218.198 98.2052C218.289 98.1136 218.289 97.965 218.198 97.8734L205.308 84.9842C205.217 84.8926 205.068 84.8926 204.977 84.9842C204.885 85.0759 204.885 85.2244 204.977 85.316L217.866 98.2052Z" fill="#EA5455"/>
<path fill-rule="evenodd" clip-rule="evenodd" d="M186.586 88.8246C182.005 93.4059 179.549 98.3776 181.101 99.9292C182.652 101.481 187.624 99.0248 192.205 94.4435C196.787 89.8623 199.243 84.8906 197.691 83.339C196.139 81.7874 191.168 84.2434 186.586 88.8246ZM196.031 85.3293C196.122 85.2381 196.122 85.0901 196.031 84.9988C195.939 84.9075 195.791 84.9075 195.7 84.9988L182.758 97.9405C182.667 98.0317 182.667 98.1797 182.758 98.271C182.85 98.3622 182.998 98.3622 183.089 98.271L196.031 85.3293Z" fill="#EA5455"/>
<path fill-rule="evenodd" clip-rule="evenodd" d="M192.261 66.6275C187.697 62.0639 182.735 59.6271 181.177 61.1847C179.62 62.7423 182.057 67.7046 186.62 72.2682C191.184 76.8317 196.146 79.2685 197.704 77.7109C199.261 76.1533 196.824 71.1911 192.261 66.6275ZM195.721 76.0607C195.813 76.1523 195.961 76.1523 196.053 76.0607C196.145 75.969 196.145 75.8205 196.053 75.7289L183.164 62.8397C183.072 62.7481 182.924 62.7481 182.832 62.8397C182.741 62.9313 182.741 63.0799 182.832 63.1715L195.721 76.0607Z" fill="#EA5455"/>
<path fill-rule="evenodd" clip-rule="evenodd" d="M208.817 66.5942C204.236 71.1754 201.78 76.1471 203.331 77.6987C204.883 79.2504 209.855 76.7943 214.436 72.2131C219.017 67.6318 221.473 62.6601 219.922 61.1085C218.37 59.5569 213.398 62.0129 208.817 66.5942ZM218.261 63.0989C218.352 63.0076 218.352 62.8596 218.261 62.7683C218.17 62.6771 218.022 62.6771 217.93 62.7683L204.989 75.71C204.898 75.8013 204.898 75.9492 204.989 76.0405C205.08 76.1318 205.228 76.1318 205.319 76.0405L218.261 63.0989Z" fill="#EA5455"/>
<rect width="23.4169" height="0.234169" transform="matrix(-0.999998 0.00193319 0.00193319 -0.999998 195 80.7461)" fill="#EA5455"/>
<rect width="23.4169" height="0.234169" transform="matrix(-0.999998 0.00193319 0.00193319 -0.999998 229.442 80.6797)" fill="#EA5455"/>
<rect width="23.4169" height="0.234169" transform="matrix(-0.00193319 0.999998 -0.999998 0.00193319 200.622 86.1289)" fill="#EA5455"/>
<rect width="23.4169" height="0.234169" transform="matrix(-0.00193319 0.999998 -0.999998 0.00193319 200.684 51.6875)" fill="#EA5455"/>
<path fill-rule="evenodd" clip-rule="evenodd" d="M121.542 159.488C120.447 158.393 118.667 158.397 117.568 159.496C116.468 160.596 116.465 162.375 117.56 163.47C118.656 164.565 120.435 164.562 121.534 163.462C122.634 162.363 122.637 160.584 121.542 159.488ZM120.547 160.482C119.999 159.935 119.109 159.937 118.56 160.486C118.01 161.036 118.008 161.926 118.556 162.473C119.103 163.021 119.993 163.019 120.543 162.469C121.093 161.92 121.094 161.03 120.547 160.482Z" fill="#EA5455"/>
<path fill-rule="evenodd" clip-rule="evenodd" d="M133.444 169.733C128.881 165.169 123.919 162.733 122.361 164.29C120.803 165.848 123.24 170.81 127.804 175.374C132.367 179.937 137.33 182.374 138.887 180.816C140.445 179.259 138.008 174.297 133.444 169.733ZM136.905 179.166C136.997 179.258 137.145 179.258 137.237 179.166C137.328 179.075 137.328 178.926 137.237 178.834L124.348 165.945C124.256 165.854 124.107 165.854 124.016 165.945C123.924 166.037 123.924 166.185 124.016 166.277L136.905 179.166Z" fill="#EA5455"/>
<path fill-rule="evenodd" clip-rule="evenodd" d="M105.629 169.789C101.048 174.371 98.5922 179.342 100.144 180.894C101.695 182.446 106.667 179.99 111.248 175.408C115.83 170.827 118.286 165.855 116.734 164.304C115.182 162.752 110.211 165.208 105.629 169.789ZM115.074 166.294C115.165 166.203 115.165 166.055 115.074 165.964C114.982 165.872 114.834 165.872 114.743 165.964L101.801 178.905C101.71 178.997 101.71 179.145 101.801 179.236C101.893 179.327 102.041 179.327 102.132 179.236L115.074 166.294Z" fill="#EA5455"/>
<path fill-rule="evenodd" clip-rule="evenodd" d="M111.3 147.588C106.736 143.025 101.774 140.588 100.217 142.146C98.6589 143.703 101.096 148.666 105.659 153.229C110.223 157.793 115.185 160.229 116.743 158.672C118.3 157.114 115.864 152.152 111.3 147.588ZM114.76 157.022C114.852 157.113 115.001 157.113 115.092 157.022C115.184 156.93 115.184 156.781 115.092 156.69L102.203 143.801C102.111 143.709 101.963 143.709 101.871 143.801C101.78 143.892 101.78 144.041 101.871 144.132L114.76 157.022Z" fill="#EA5455"/>
<path fill-rule="evenodd" clip-rule="evenodd" d="M127.86 147.555C123.279 152.136 120.823 157.108 122.374 158.66C123.926 160.211 128.898 157.755 133.479 153.174C138.06 148.593 140.516 143.621 138.964 142.069C137.413 140.518 132.441 142.974 127.86 147.555ZM137.304 144.06C137.395 143.969 137.395 143.821 137.304 143.729C137.213 143.638 137.065 143.638 136.973 143.729L124.032 156.671C123.941 156.762 123.941 156.91 124.032 157.001C124.123 157.093 124.271 157.093 124.362 157.001L137.304 144.06Z" fill="#EA5455"/>
<rect width="23.4169" height="0.234169" transform="matrix(-0.999998 0.00193319 0.00193319 -0.999998 114.04 161.707)" fill="#EA5455"/>
<rect width="23.4169" height="0.234169" transform="matrix(-0.999998 0.00193319 0.00193319 -0.999998 148.481 161.641)" fill="#EA5455"/>
<rect width="23.4169" height="0.234169" transform="matrix(-0.00193319 0.999998 -0.999998 0.00193319 119.661 167.086)" fill="#EA5455"/>
<rect width="23.4169" height="0.234169" transform="matrix(-0.00193319 0.999998 -0.999998 0.00193319 119.723 132.645)" fill="#EA5455"/>
<path fill-rule="evenodd" clip-rule="evenodd" d="M323.323 280.309C322.228 279.213 320.449 279.217 319.349 280.316C318.25 281.416 318.246 283.195 319.342 284.29C320.437 285.386 322.216 285.382 323.316 284.283C324.415 283.183 324.418 281.404 323.323 280.309ZM322.328 281.303C321.78 280.755 320.891 280.757 320.341 281.307C319.791 281.856 319.789 282.746 320.337 283.294C320.885 283.841 321.774 283.839 322.324 283.29C322.874 282.74 322.875 281.85 322.328 281.303Z" fill="#EA5455"/>
<path fill-rule="evenodd" clip-rule="evenodd" d="M335.222 290.549C330.658 285.986 325.696 283.549 324.138 285.107C322.581 286.664 325.018 291.626 329.581 296.19C334.145 300.754 339.107 303.19 340.665 301.633C342.222 300.075 339.785 295.113 335.222 290.549ZM338.682 299.983C338.774 300.074 338.922 300.074 339.014 299.983C339.106 299.891 339.106 299.742 339.014 299.651L326.125 286.762C326.033 286.67 325.885 286.67 325.793 286.762C325.701 286.853 325.701 287.002 325.793 287.093L338.682 299.983Z" fill="#EA5455"/>
<path fill-rule="evenodd" clip-rule="evenodd" d="M307.407 290.602C302.826 295.183 300.37 300.155 301.921 301.707C303.473 303.258 308.444 300.802 313.026 296.221C317.607 291.64 320.063 286.668 318.511 285.116C316.96 283.565 311.988 286.021 307.407 290.602ZM316.851 287.107C316.942 287.015 316.942 286.867 316.851 286.776C316.76 286.685 316.612 286.685 316.52 286.776L303.579 299.718C303.487 299.809 303.487 299.957 303.579 300.048C303.67 300.14 303.818 300.14 303.909 300.048L316.851 287.107Z" fill="#EA5455"/>
<path fill-rule="evenodd" clip-rule="evenodd" d="M313.077 268.405C308.514 263.841 303.551 261.404 301.994 262.962C300.436 264.52 302.873 269.482 307.437 274.045C312 278.609 316.962 281.046 318.52 279.488C320.078 277.931 317.641 272.968 313.077 268.405ZM316.538 277.838C316.629 277.93 316.778 277.93 316.87 277.838C316.961 277.746 316.961 277.598 316.87 277.506L303.98 264.617C303.889 264.525 303.74 264.525 303.649 264.617C303.557 264.709 303.557 264.857 303.649 264.949L316.538 277.838Z" fill="#EA5455"/>
<path fill-rule="evenodd" clip-rule="evenodd" d="M329.633 268.372C325.052 272.953 322.596 277.924 324.148 279.476C325.699 281.028 330.671 278.572 335.252 273.99C339.834 269.409 342.29 264.437 340.738 262.886C339.186 261.334 334.215 263.79 329.633 268.372ZM339.077 264.876C339.169 264.785 339.169 264.637 339.077 264.546C338.986 264.454 338.838 264.454 338.747 264.546L325.805 277.487C325.714 277.579 325.714 277.727 325.805 277.818C325.897 277.909 326.044 277.909 326.136 277.818L339.077 264.876Z" fill="#EA5455"/>
<rect width="23.4169" height="0.234169" transform="matrix(-0.999998 0.00193319 0.00193319 -0.999998 315.817 282.527)" fill="#EA5455"/>
<rect width="23.4169" height="0.234169" transform="matrix(-0.999998 0.00193319 0.00193319 -0.999998 350.258 282.461)" fill="#EA5455"/>
<rect width="23.4169" height="0.234169" transform="matrix(-0.00193319 0.999998 -0.999998 0.00193319 321.438 287.906)" fill="#EA5455"/>
<rect width="23.4169" height="0.234169" transform="matrix(-0.00193319 0.999998 -0.999998 0.00193319 321.5 253.465)" fill="#EA5455"/>
<path fill-rule="evenodd" clip-rule="evenodd" d="M242.671 199.66C241.576 198.565 239.796 198.568 238.697 199.668C237.597 200.767 237.594 202.547 238.689 203.642C239.784 204.737 241.564 204.734 242.663 203.634C243.763 202.535 243.766 200.755 242.671 199.66ZM241.676 200.654C241.128 200.107 240.238 200.108 239.689 200.658C239.139 201.208 239.137 202.098 239.685 202.645C240.232 203.193 241.122 203.191 241.672 202.641C242.221 202.092 242.223 201.202 241.676 200.654Z" fill="#EA5455"/>
<path fill-rule="evenodd" clip-rule="evenodd" d="M254.573 209.905C250.01 205.341 245.048 202.904 243.49 204.462C241.932 206.02 244.369 210.982 248.933 215.545C253.496 220.109 258.459 222.546 260.016 220.988C261.574 219.431 259.137 214.468 254.573 209.905ZM258.034 219.338C258.125 219.43 258.274 219.43 258.366 219.338C258.457 219.246 258.457 219.098 258.366 219.006L245.476 206.117C245.385 206.025 245.236 206.025 245.145 206.117C245.053 206.209 245.053 206.357 245.145 206.449L258.034 219.338Z" fill="#EA5455"/>
<path fill-rule="evenodd" clip-rule="evenodd" d="M226.754 209.957C222.173 214.539 219.717 219.51 221.269 221.062C222.82 222.614 227.792 220.158 232.373 215.576C236.955 210.995 239.411 206.023 237.859 204.472C236.307 202.92 231.336 205.376 226.754 209.957ZM236.199 206.462C236.29 206.371 236.29 206.223 236.199 206.132C236.107 206.04 235.959 206.04 235.868 206.132L222.926 219.073C222.835 219.165 222.835 219.313 222.926 219.404C223.018 219.495 223.166 219.495 223.257 219.404L236.199 206.462Z" fill="#EA5455"/>
<path fill-rule="evenodd" clip-rule="evenodd" d="M232.429 187.76C227.865 183.197 222.903 180.76 221.345 182.318C219.788 183.875 222.225 188.837 226.788 193.401C231.352 197.965 236.314 200.401 237.872 198.844C239.429 197.286 236.992 192.324 232.429 187.76ZM235.889 197.193C235.981 197.285 236.129 197.285 236.221 197.193C236.313 197.102 236.313 196.953 236.221 196.862L223.332 183.973C223.24 183.881 223.092 183.881 223 183.973C222.908 184.064 222.908 184.213 223 184.304L235.889 197.193Z" fill="#EA5455"/>
<path fill-rule="evenodd" clip-rule="evenodd" d="M248.989 187.727C244.408 192.308 241.952 197.28 243.503 198.832C245.055 200.383 250.026 197.927 254.608 193.346C259.189 188.765 261.645 183.793 260.093 182.241C258.542 180.69 253.57 183.146 248.989 187.727ZM258.433 184.232C258.524 184.14 258.524 183.992 258.433 183.901C258.342 183.81 258.194 183.81 258.102 183.901L245.161 196.843C245.069 196.934 245.069 197.082 245.161 197.173C245.252 197.265 245.4 197.265 245.491 197.173L258.433 184.232Z" fill="#EA5455"/>
<rect width="23.4169" height="0.234169" transform="matrix(-0.999998 0.00193319 0.00193319 -0.999998 235.172 201.879)" fill="#EA5455"/>
<rect width="23.4169" height="0.234169" transform="matrix(-0.999998 0.00193319 0.00193319 -0.999998 269.614 201.812)" fill="#EA5455"/>
<rect width="23.4169" height="0.234169" transform="matrix(-0.00193319 0.999998 -0.999998 0.00193319 240.786 207.258)" fill="#EA5455"/>
<rect width="23.4169" height="0.234169" transform="matrix(-0.00193319 0.999998 -0.999998 0.00193319 240.848 172.816)" fill="#EA5455"/>
<path fill-rule="evenodd" clip-rule="evenodd" d="M161.71 280.617C160.615 279.522 158.835 279.525 157.736 280.625C156.636 281.724 156.633 283.504 157.728 284.599C158.824 285.694 160.603 285.691 161.702 284.591C162.802 283.492 162.805 281.712 161.71 280.617ZM160.715 281.611C160.167 281.064 159.277 281.065 158.728 281.615C158.178 282.165 158.176 283.055 158.724 283.602C159.271 284.15 160.161 284.148 160.711 283.598C161.26 283.049 161.262 282.159 160.715 281.611Z" fill="#EA5455"/>
<path fill-rule="evenodd" clip-rule="evenodd" d="M173.612 290.862C169.049 286.298 164.087 283.861 162.529 285.419C160.971 286.977 163.408 291.939 167.972 296.503C172.535 301.066 177.498 303.503 179.055 301.945C180.613 300.388 178.176 295.425 173.612 290.862ZM177.073 300.295C177.164 300.387 177.313 300.387 177.405 300.295C177.496 300.203 177.496 300.055 177.405 299.963L164.516 287.074C164.424 286.982 164.275 286.982 164.184 287.074C164.092 287.166 164.092 287.314 164.184 287.406L177.073 300.295Z" fill="#EA5455"/>
<path fill-rule="evenodd" clip-rule="evenodd" d="M145.794 290.914C141.212 295.496 138.756 300.467 140.308 302.019C141.859 303.571 146.831 301.115 151.412 296.533C155.994 291.952 158.45 286.98 156.898 285.429C155.346 283.877 150.375 286.333 145.794 290.914ZM155.238 287.419C155.329 287.328 155.329 287.18 155.238 287.089C155.146 286.997 154.998 286.997 154.907 287.089L141.965 300.03C141.874 300.122 141.874 300.27 141.965 300.361C142.057 300.452 142.205 300.452 142.296 300.361L155.238 287.419Z" fill="#EA5455"/>
<path fill-rule="evenodd" clip-rule="evenodd" d="M151.468 268.713C146.904 264.15 141.942 261.713 140.384 263.271C138.827 264.828 141.264 269.791 145.827 274.354C150.391 278.918 155.353 281.354 156.911 279.797C158.468 278.239 156.031 273.277 151.468 268.713ZM154.928 278.147C155.02 278.238 155.169 278.238 155.26 278.147C155.352 278.055 155.352 277.906 155.26 277.815L142.371 264.926C142.279 264.834 142.131 264.834 142.039 264.926C141.948 265.017 141.948 265.166 142.039 265.257L154.928 278.147Z" fill="#EA5455"/>
<path fill-rule="evenodd" clip-rule="evenodd" d="M168.028 268.684C163.447 273.265 160.991 278.237 162.542 279.789C164.094 281.34 169.066 278.884 173.647 274.303C178.228 269.722 180.684 264.75 179.132 263.198C177.581 261.647 172.609 264.103 168.028 268.684ZM177.472 265.189C177.563 265.097 177.563 264.949 177.472 264.858C177.381 264.767 177.233 264.767 177.141 264.858L164.2 277.8C164.108 277.891 164.108 278.039 164.2 278.13C164.291 278.222 164.439 278.222 164.53 278.13L177.472 265.189Z" fill="#EA5455"/>
<rect width="23.4169" height="0.234169" transform="matrix(-0.999998 0.00193319 0.00193319 -0.999998 154.208 282.836)" fill="#EA5455"/>
<rect width="23.4169" height="0.234169" transform="matrix(-0.999998 0.00193319 0.00193319 -0.999998 188.649 282.77)" fill="#EA5455"/>
<rect width="23.4169" height="0.234169" transform="matrix(-0.00193319 0.999998 -0.999998 0.00193319 159.829 288.215)" fill="#EA5455"/>
<rect width="23.4169" height="0.234169" transform="matrix(-0.00193319 0.999998 -0.999998 0.00193319 159.891 253.773)" fill="#EA5455"/>
<path fill-rule="evenodd" clip-rule="evenodd" d="M162.022 119.012C160.927 117.917 159.148 117.92 158.048 119.019C156.949 120.119 156.946 121.898 158.041 122.993C159.136 124.089 160.915 124.085 162.015 122.986C163.114 121.886 163.118 120.107 162.022 119.012ZM161.027 120.006C160.479 119.458 159.59 119.46 159.04 120.01C158.49 120.559 158.489 121.449 159.036 121.997C159.584 122.544 160.473 122.543 161.023 121.993C161.573 121.443 161.575 120.554 161.027 120.006Z" fill="#EA5455"/>
<path fill-rule="evenodd" clip-rule="evenodd" d="M173.925 129.252C169.361 124.689 164.399 122.252 162.842 123.81C161.284 125.367 163.721 130.33 168.284 134.893C172.848 139.457 177.81 141.894 179.368 140.336C180.925 138.778 178.489 133.816 173.925 129.252ZM177.385 138.686C177.477 138.777 177.626 138.777 177.717 138.686C177.809 138.594 177.809 138.445 177.717 138.354L164.828 125.465C164.736 125.373 164.588 125.373 164.496 125.465C164.405 125.556 164.405 125.705 164.496 125.797L177.385 138.686Z" fill="#EA5455"/>
<path fill-rule="evenodd" clip-rule="evenodd" d="M146.106 129.305C141.525 133.886 139.069 138.858 140.62 140.41C142.172 141.961 147.144 139.505 151.725 134.924C156.306 130.343 158.762 125.371 157.211 123.819C155.659 122.268 150.687 124.724 146.106 129.305ZM155.55 125.81C155.641 125.719 155.641 125.571 155.55 125.479C155.459 125.388 155.311 125.388 155.22 125.479L142.278 138.421C142.187 138.512 142.187 138.66 142.278 138.751C142.369 138.843 142.517 138.843 142.608 138.751L155.55 125.81Z" fill="#EA5455"/>
<path fill-rule="evenodd" clip-rule="evenodd" d="M151.78 107.108C147.217 102.544 142.255 100.108 140.697 101.665C139.139 103.223 141.576 108.185 146.14 112.749C150.703 117.312 155.666 119.749 157.223 118.191C158.781 116.634 156.344 111.672 151.78 107.108ZM155.241 116.541C155.332 116.633 155.481 116.633 155.573 116.541C155.664 116.45 155.664 116.301 155.573 116.209L142.683 103.32C142.592 103.229 142.443 103.229 142.352 103.32C142.26 103.412 142.26 103.56 142.352 103.652L155.241 116.541Z" fill="#EA5455"/>
<path fill-rule="evenodd" clip-rule="evenodd" d="M168.336 107.075C163.755 111.656 161.299 116.628 162.851 118.179C164.402 119.731 169.374 117.275 173.955 112.694C178.537 108.112 180.993 103.141 179.441 101.589C177.889 100.037 172.918 102.493 168.336 107.075ZM177.781 103.579C177.872 103.488 177.872 103.34 177.781 103.249C177.689 103.158 177.541 103.158 177.45 103.249L164.508 116.19C164.417 116.282 164.417 116.43 164.508 116.521C164.6 116.612 164.748 116.612 164.839 116.521L177.781 103.579Z" fill="#EA5455"/>
<rect width="23.4169" height="0.234169" transform="matrix(-0.999998 0.00193319 0.00193319 -0.999998 154.52 121.227)" fill="#EA5455"/>
<rect width="23.4169" height="0.234169" transform="matrix(-0.999998 0.00193319 0.00193319 -0.999998 188.961 121.16)" fill="#EA5455"/>
<rect width="23.4169" height="0.234169" transform="matrix(-0.00193319 0.999998 -0.999998 0.00193319 160.141 126.605)" fill="#EA5455"/>
<rect width="23.4169" height="0.234169" transform="matrix(-0.00193319 0.999998 -0.999998 0.00193319 160.204 92.1641)" fill="#EA5455"/>
<path fill-rule="evenodd" clip-rule="evenodd" d="M81.0654 199.969C79.9701 198.874 78.1909 198.877 77.0914 199.976C75.9919 201.076 75.9885 202.855 77.0838 203.95C78.179 205.046 79.9582 205.042 81.0577 203.943C82.1572 202.843 82.1607 201.064 81.0654 199.969ZM80.0701 200.963C79.5224 200.415 78.6328 200.417 78.0831 200.967C77.5333 201.517 77.5316 202.406 78.0792 202.954C78.6269 203.501 79.5165 203.5 80.0662 202.95C80.616 202.4 80.6177 201.511 80.0701 200.963Z" fill="#EA5455"/>
<path fill-rule="evenodd" clip-rule="evenodd" d="M92.9679 210.213C88.4043 205.65 83.4421 203.213 81.8845 204.771C80.3268 206.328 82.7636 211.291 87.3272 215.854C91.8908 220.418 96.853 222.854 98.4107 221.297C99.9683 219.739 97.5315 214.777 92.9679 210.213ZM96.4283 219.647C96.52 219.738 96.6685 219.738 96.7601 219.647C96.8518 219.555 96.8518 219.406 96.7601 219.315L83.871 206.426C83.7794 206.334 83.6308 206.334 83.5392 206.426C83.4476 206.517 83.4476 206.666 83.5392 206.757L96.4283 219.647Z" fill="#EA5455"/>
<path fill-rule="evenodd" clip-rule="evenodd" d="M65.149 210.266C60.5677 214.847 58.1117 219.819 59.6633 221.371C61.2149 222.922 66.1866 220.466 70.7679 215.885C75.3491 211.304 77.8052 206.332 76.2535 204.78C74.7019 203.229 69.7302 205.685 65.149 210.266ZM74.593 206.771C74.6843 206.679 74.6843 206.531 74.593 206.44C74.5018 206.349 74.3538 206.349 74.2625 206.44L61.3209 219.382C61.2296 219.473 61.2296 219.621 61.3209 219.712C61.4121 219.804 61.5601 219.804 61.6514 219.712L74.593 206.771Z" fill="#EA5455"/>
<path fill-rule="evenodd" clip-rule="evenodd" d="M70.8234 188.065C66.2598 183.501 61.2976 181.065 59.7399 182.622C58.1823 184.18 60.6191 189.142 65.1827 193.706C69.7463 198.269 74.7085 200.706 76.2661 199.148C77.8238 197.591 75.387 192.629 70.8234 188.065ZM74.2838 197.498C74.3754 197.59 74.524 197.59 74.6156 197.498C74.7072 197.407 74.7072 197.258 74.6156 197.166L61.7265 184.277C61.6348 184.186 61.4863 184.186 61.3946 184.277C61.303 184.369 61.303 184.517 61.3946 184.609L74.2838 197.498Z" fill="#EA5455"/>
<path fill-rule="evenodd" clip-rule="evenodd" d="M87.3794 188.036C82.7982 192.617 80.3422 197.589 81.8938 199.14C83.4454 200.692 88.4171 198.236 92.9983 193.654C97.5796 189.073 100.036 184.102 98.484 182.55C96.9324 180.998 91.9607 183.454 87.3794 188.036ZM96.8235 184.54C96.9148 184.449 96.9148 184.301 96.8235 184.21C96.7322 184.118 96.5843 184.118 96.493 184.21L83.5513 197.151C83.4601 197.243 83.4601 197.391 83.5513 197.482C83.6426 197.573 83.7906 197.573 83.8819 197.482L96.8235 184.54Z" fill="#EA5455"/>
<rect width="23.4169" height="0.234169" transform="matrix(-0.999998 0.00193319 0.00193319 -0.999998 73.563 202.184)" fill="#EA5455"/>
<rect width="23.4169" height="0.234169" transform="matrix(-0.999998 0.00193319 0.00193319 -0.999998 108.004 202.117)" fill="#EA5455"/>
<rect width="23.4169" height="0.234169" transform="matrix(-0.00193319 0.999998 -0.999998 0.00193319 79.1841 207.566)" fill="#EA5455"/>
<rect width="23.4169" height="0.234169" transform="matrix(-0.00193319 0.999998 -0.999998 0.00193319 79.2466 173.125)" fill="#EA5455"/>
<path fill-rule="evenodd" clip-rule="evenodd" d="M323.479 199.5C322.384 198.405 320.605 198.408 319.505 199.508C318.406 200.607 318.403 202.386 319.498 203.482C320.593 204.577 322.372 204.574 323.472 203.474C324.571 202.375 324.575 200.595 323.479 199.5ZM322.484 200.494C321.936 199.947 321.047 199.948 320.497 200.498C319.947 201.048 319.946 201.937 320.493 202.485C321.041 203.033 321.931 203.031 322.48 202.481C323.03 201.931 323.032 201.042 322.484 200.494Z" fill="#EA5455"/>
<path fill-rule="evenodd" clip-rule="evenodd" d="M335.378 209.745C330.814 205.181 325.852 202.744 324.295 204.302C322.737 205.86 325.174 210.822 329.737 215.385C334.301 219.949 339.263 222.386 340.821 220.828C342.378 219.27 339.942 214.308 335.378 209.745ZM338.838 219.178C338.93 219.269 339.079 219.269 339.17 219.178C339.262 219.086 339.262 218.938 339.17 218.846L326.281 205.957C326.19 205.865 326.041 205.865 325.949 205.957C325.858 206.049 325.858 206.197 325.949 206.289L338.838 219.178Z" fill="#EA5455"/>
<path fill-rule="evenodd" clip-rule="evenodd" d="M307.559 209.797C302.978 214.379 300.522 219.35 302.073 220.902C303.625 222.453 308.597 219.997 313.178 215.416C317.759 210.835 320.215 205.863 318.664 204.312C317.112 202.76 312.14 205.216 307.559 209.797ZM317.003 206.302C317.094 206.211 317.094 206.063 317.003 205.971C316.912 205.88 316.764 205.88 316.673 205.971L303.731 218.913C303.64 219.004 303.64 219.152 303.731 219.244C303.822 219.335 303.97 219.335 304.062 219.244L317.003 206.302Z" fill="#EA5455"/>
<path fill-rule="evenodd" clip-rule="evenodd" d="M313.234 187.6C308.67 183.037 303.708 180.6 302.15 182.157C300.592 183.715 303.029 188.677 307.593 193.241C312.156 197.804 317.119 200.241 318.676 198.684C320.234 197.126 317.797 192.164 313.234 187.6ZM316.694 197.033C316.786 197.125 316.934 197.125 317.026 197.033C317.117 196.942 317.117 196.793 317.026 196.702L304.137 183.812C304.045 183.721 303.896 183.721 303.805 183.812C303.713 183.904 303.713 184.053 303.805 184.144L316.694 197.033Z" fill="#EA5455"/>
<path fill-rule="evenodd" clip-rule="evenodd" d="M329.794 187.567C325.212 192.148 322.756 197.12 324.308 198.671C325.859 200.223 330.831 197.767 335.412 193.186C339.994 188.604 342.45 183.633 340.898 182.081C339.346 180.53 334.375 182.986 329.794 187.567ZM339.238 184.072C339.329 183.98 339.329 183.832 339.238 183.741C339.146 183.65 338.998 183.65 338.907 183.741L325.965 196.683C325.874 196.774 325.874 196.922 325.965 197.013C326.057 197.104 326.205 197.104 326.296 197.013L339.238 184.072Z" fill="#EA5455"/>
<rect width="23.4169" height="0.234169" transform="matrix(-0.999998 0.00193319 0.00193319 -0.999998 315.973 201.719)" fill="#EA5455"/>
<rect width="23.4169" height="0.234169" transform="matrix(-0.999998 0.00193319 0.00193319 -0.999998 350.415 201.652)" fill="#EA5455"/>
<rect width="23.4169" height="0.234169" transform="matrix(-0.00193319 0.999998 -0.999998 0.00193319 321.594 207.098)" fill="#EA5455"/>
<rect width="23.4169" height="0.234169" transform="matrix(-0.00193319 0.999998 -0.999998 0.00193319 321.657 172.656)" fill="#EA5455"/>
<path fill-rule="evenodd" clip-rule="evenodd" d="M242.522 280.461C241.427 279.366 239.648 279.369 238.548 280.469C237.449 281.568 237.446 283.347 238.541 284.443C239.636 285.538 241.415 285.534 242.515 284.435C243.614 283.335 243.618 281.556 242.522 280.461ZM241.527 281.455C240.979 280.907 240.09 280.909 239.54 281.459C238.99 282.009 238.989 282.898 239.536 283.446C240.084 283.994 240.973 283.992 241.523 283.442C242.073 282.892 242.075 282.003 241.527 281.455Z" fill="#EA5455"/>
<path fill-rule="evenodd" clip-rule="evenodd" d="M254.421 290.702C249.857 286.138 244.895 283.701 243.338 285.259C241.78 286.817 244.217 291.779 248.78 296.342C253.344 300.906 258.306 303.343 259.864 301.785C261.421 300.228 258.985 295.265 254.421 290.702ZM257.881 300.135C257.973 300.227 258.122 300.227 258.213 300.135C258.305 300.043 258.305 299.895 258.213 299.803L245.324 286.914C245.232 286.822 245.084 286.822 244.992 286.914C244.901 287.006 244.901 287.154 244.992 287.246L257.881 300.135Z" fill="#EA5455"/>
<path fill-rule="evenodd" clip-rule="evenodd" d="M226.602 290.754C222.021 295.336 219.565 300.307 221.116 301.859C222.668 303.411 227.64 300.954 232.221 296.373C236.802 291.792 239.258 286.82 237.707 285.269C236.155 283.717 231.183 286.173 226.602 290.754ZM236.046 287.259C236.137 287.168 236.137 287.02 236.046 286.928C235.955 286.837 235.807 286.837 235.716 286.928L222.774 299.87C222.683 299.961 222.683 300.109 222.774 300.201C222.865 300.292 223.013 300.292 223.105 300.201L236.046 287.259Z" fill="#EA5455"/>
<path fill-rule="evenodd" clip-rule="evenodd" d="M232.277 268.557C227.713 263.994 222.751 261.557 221.193 263.114C219.635 264.672 222.072 269.634 226.636 274.198C231.199 278.761 236.162 281.198 237.719 279.641C239.277 278.083 236.84 273.121 232.277 268.557ZM235.737 277.99C235.829 278.082 235.977 278.082 236.069 277.99C236.16 277.899 236.16 277.75 236.069 277.659L223.18 264.769C223.088 264.678 222.939 264.678 222.848 264.769C222.756 264.861 222.756 265.01 222.848 265.101L235.737 277.99Z" fill="#EA5455"/>
<path fill-rule="evenodd" clip-rule="evenodd" d="M248.836 268.524C244.255 273.105 241.799 278.077 243.351 279.628C244.902 281.18 249.874 278.724 254.455 274.143C259.037 269.562 261.493 264.59 259.941 263.038C258.389 261.487 253.418 263.943 248.836 268.524ZM258.281 265.029C258.372 264.937 258.372 264.789 258.281 264.698C258.189 264.607 258.041 264.607 257.95 264.698L245.008 277.64C244.917 277.731 244.917 277.879 245.008 277.97C245.1 278.061 245.248 278.061 245.339 277.97L258.281 265.029Z" fill="#EA5455"/>
<rect width="23.4169" height="0.234169" transform="matrix(-0.999998 0.00193319 0.00193319 -0.999998 235.016 282.676)" fill="#EA5455"/>
<rect width="23.4169" height="0.234169" transform="matrix(-0.999998 0.00193319 0.00193319 -0.999998 269.458 282.609)" fill="#EA5455"/>
<rect width="23.4169" height="0.234169" transform="matrix(-0.00193319 0.999998 -0.999998 0.00193319 240.637 288.055)" fill="#EA5455"/>
<rect width="23.4169" height="0.234169" transform="matrix(-0.00193319 0.999998 -0.999998 0.00193319 240.7 253.613)" fill="#EA5455"/>
<path fill-rule="evenodd" clip-rule="evenodd" d="M242.831 118.852C241.736 117.756 239.957 117.76 238.857 118.859C237.758 119.959 237.754 121.738 238.849 122.833C239.945 123.929 241.724 123.925 242.823 122.826C243.923 121.726 243.926 119.947 242.831 118.852ZM241.836 119.846C241.288 119.298 240.398 119.3 239.849 119.85C239.299 120.399 239.297 121.289 239.845 121.837C240.392 122.384 241.282 122.382 241.832 121.833C242.382 121.283 242.383 120.393 241.836 119.846Z" fill="#EA5455"/>
<path fill-rule="evenodd" clip-rule="evenodd" d="M254.734 129.096C250.17 124.533 245.208 122.096 243.65 123.653C242.092 125.211 244.529 130.173 249.093 134.737C253.656 139.3 258.619 141.737 260.176 140.18C261.734 138.622 259.297 133.66 254.734 129.096ZM258.194 138.529C258.286 138.621 258.434 138.621 258.526 138.529C258.617 138.438 258.617 138.289 258.526 138.198L245.637 125.308C245.545 125.217 245.396 125.217 245.305 125.308C245.213 125.4 245.213 125.549 245.305 125.64L258.194 138.529Z" fill="#EA5455"/>
<path fill-rule="evenodd" clip-rule="evenodd" d="M226.915 129.149C222.333 133.73 219.877 138.702 221.429 140.253C222.981 141.805 227.952 139.349 232.534 134.768C237.115 130.187 239.571 125.215 238.019 123.663C236.468 122.112 231.496 124.568 226.915 129.149ZM236.359 125.654C236.45 125.562 236.45 125.414 236.359 125.323C236.267 125.232 236.119 125.232 236.028 125.323L223.086 138.265C222.995 138.356 222.995 138.504 223.086 138.595C223.178 138.686 223.326 138.686 223.417 138.595L236.359 125.654Z" fill="#EA5455"/>
<path fill-rule="evenodd" clip-rule="evenodd" d="M232.589 106.952C228.025 102.388 223.063 99.9513 221.506 101.509C219.948 103.067 222.385 108.029 226.948 112.592C231.512 117.156 236.474 119.593 238.032 118.035C239.589 116.478 237.153 111.515 232.589 106.952ZM236.049 116.385C236.141 116.477 236.29 116.477 236.381 116.385C236.473 116.293 236.473 116.145 236.381 116.053L223.492 103.164C223.4 103.072 223.252 103.072 223.16 103.164C223.069 103.256 223.069 103.404 223.16 103.496L236.049 116.385Z" fill="#EA5455"/>
<path fill-rule="evenodd" clip-rule="evenodd" d="M249.145 106.918C244.564 111.5 242.108 116.471 243.659 118.023C245.211 119.575 250.183 117.119 254.764 112.537C259.345 107.956 261.801 102.984 260.25 101.433C258.698 99.8811 253.726 102.337 249.145 106.918ZM258.589 103.423C258.68 103.332 258.68 103.184 258.589 103.093C258.498 103.001 258.35 103.001 258.259 103.093L245.317 116.034C245.226 116.125 245.226 116.273 245.317 116.365C245.408 116.456 245.556 116.456 245.647 116.365L258.589 103.423Z" fill="#EA5455"/>
<rect width="23.4169" height="0.234169" transform="matrix(-0.999998 0.00193319 0.00193319 -0.999998 235.325 121.07)" fill="#EA5455"/>
<rect width="23.4169" height="0.234169" transform="matrix(-0.999998 0.00193319 0.00193319 -0.999998 269.766 121.004)" fill="#EA5455"/>
<rect width="23.4169" height="0.234169" transform="matrix(-0.00193319 0.999998 -0.999998 0.00193319 240.946 126.449)" fill="#EA5455"/>
<rect width="23.4169" height="0.234169" transform="matrix(-0.00193319 0.999998 -0.999998 0.00193319 241.008 92.0078)" fill="#EA5455"/>
<path fill-rule="evenodd" clip-rule="evenodd" d="M161.866 199.816C160.771 198.721 158.992 198.725 157.892 199.824C156.793 200.924 156.789 202.703 157.885 203.798C158.98 204.893 160.759 204.89 161.859 203.79C162.958 202.691 162.961 200.912 161.866 199.816ZM160.871 200.811C160.323 200.263 159.434 200.265 158.884 200.814C158.334 201.364 158.332 202.254 158.88 202.801C159.428 203.349 160.317 203.347 160.867 202.798C161.417 202.248 161.418 201.358 160.871 200.811Z" fill="#EA5455"/>
<path fill-rule="evenodd" clip-rule="evenodd" d="M173.769 210.057C169.205 205.494 164.243 203.057 162.685 204.614C161.128 206.172 163.564 211.134 168.128 215.698C172.692 220.261 177.654 222.698 179.211 221.141C180.769 219.583 178.332 214.621 173.769 210.057ZM177.229 219.49C177.321 219.582 177.469 219.582 177.561 219.49C177.653 219.399 177.653 219.25 177.561 219.159L164.672 206.269C164.58 206.178 164.432 206.178 164.34 206.269C164.248 206.361 164.248 206.51 164.34 206.601L177.229 219.49Z" fill="#EA5455"/>
<path fill-rule="evenodd" clip-rule="evenodd" d="M145.954 210.114C141.372 214.695 138.916 219.667 140.468 221.218C142.02 222.77 146.991 220.314 151.573 215.733C156.154 211.151 158.61 206.18 157.058 204.628C155.507 203.076 150.535 205.532 145.954 210.114ZM155.398 206.618C155.489 206.527 155.489 206.379 155.398 206.288C155.306 206.197 155.158 206.197 155.067 206.288L142.126 219.23C142.034 219.321 142.034 219.469 142.126 219.56C142.217 219.651 142.365 219.651 142.456 219.56L155.398 206.618Z" fill="#EA5455"/>
<path fill-rule="evenodd" clip-rule="evenodd" d="M151.624 187.917C147.061 183.353 142.098 180.916 140.541 182.474C138.983 184.031 141.42 188.994 145.983 193.557C150.547 198.121 155.509 200.558 157.067 199C158.625 197.442 156.188 192.48 151.624 187.917ZM155.085 197.35C155.176 197.441 155.325 197.441 155.416 197.35C155.508 197.258 155.508 197.11 155.416 197.018L142.527 184.129C142.436 184.037 142.287 184.037 142.195 184.129C142.104 184.22 142.104 184.369 142.195 184.461L155.085 197.35Z" fill="#EA5455"/>
<path fill-rule="evenodd" clip-rule="evenodd" d="M168.184 187.883C163.603 192.464 161.147 197.436 162.698 198.988C164.25 200.539 169.222 198.083 173.803 193.502C178.384 188.921 180.84 183.949 179.289 182.398C177.737 180.846 172.765 183.302 168.184 187.883ZM177.628 184.388C177.719 184.297 177.719 184.149 177.628 184.057C177.537 183.966 177.389 183.966 177.298 184.057L164.356 196.999C164.265 197.09 164.265 197.238 164.356 197.33C164.447 197.421 164.595 197.421 164.687 197.33L177.628 184.388Z" fill="#EA5455"/>
<rect width="23.4169" height="0.234169" transform="matrix(-0.999998 0.00193319 0.00193319 -0.999998 154.364 202.031)" fill="#EA5455"/>
<rect width="23.4169" height="0.234169" transform="matrix(-0.999998 0.00193319 0.00193319 -0.999998 188.805 201.965)" fill="#EA5455"/>
<rect width="23.4169" height="0.234169" transform="matrix(-0.00193319 0.999998 -0.999998 0.00193319 159.981 207.41)" fill="#EA5455"/>
<rect width="23.4169" height="0.234169" transform="matrix(-0.00193319 0.999998 -0.999998 0.00193319 160.043 172.969)" fill="#EA5455"/>
<path fill-rule="evenodd" clip-rule="evenodd" d="M162.183 38.2071C161.087 37.1118 159.308 37.1153 158.209 38.2148C157.109 39.3143 157.106 41.0935 158.201 42.1887C159.296 43.284 161.075 43.2806 162.175 42.181C163.274 41.0815 163.278 39.3023 162.183 38.2071ZM161.187 39.2012C160.64 38.6536 159.75 38.6553 159.2 39.205C158.651 39.7548 158.649 40.6444 159.196 41.192C159.744 41.7397 160.634 41.7379 161.183 41.1882C161.733 40.6384 161.735 39.7488 161.187 39.2012Z" fill="#EA5455"/>
<path fill-rule="evenodd" clip-rule="evenodd" d="M174.081 48.4478C169.518 43.8842 164.555 41.4474 162.998 43.005C161.44 44.5627 163.877 49.5249 168.441 54.0885C173.004 58.652 177.966 61.0889 179.524 59.5312C181.082 57.9736 178.645 53.0114 174.081 48.4478ZM177.542 57.881C177.633 57.9726 177.782 57.9726 177.873 57.881C177.965 57.7893 177.965 57.6408 177.873 57.5492L164.984 44.66C164.893 44.5684 164.744 44.5684 164.652 44.66C164.561 44.7516 164.561 44.9002 164.652 44.9918L177.542 57.881Z" fill="#EA5455"/>
<path fill-rule="evenodd" clip-rule="evenodd" d="M146.266 48.5004C141.685 53.0817 139.229 58.0534 140.78 59.605C142.332 61.1566 147.304 58.7006 151.885 54.1193C156.466 49.5381 158.922 44.5664 157.371 43.0148C155.819 41.4631 150.847 43.9192 146.266 48.5004ZM155.71 45.0051C155.801 44.9138 155.801 44.7659 155.71 44.6746C155.619 44.5833 155.471 44.5833 155.38 44.6746L142.438 57.6162C142.347 57.7075 142.347 57.8555 142.438 57.9468C142.529 58.038 142.677 58.038 142.769 57.9468L155.71 45.0051Z" fill="#EA5455"/>
<path fill-rule="evenodd" clip-rule="evenodd" d="M151.937 26.3033C147.373 21.7397 142.411 19.3029 140.853 20.8605C139.296 22.4181 141.732 27.3803 146.296 31.9439C150.86 36.5075 155.822 38.9443 157.379 37.3867C158.937 35.8291 156.5 30.8668 151.937 26.3033ZM155.397 35.7364C155.489 35.8281 155.637 35.8281 155.729 35.7364C155.821 35.6448 155.821 35.4963 155.729 35.4046L142.84 22.5155C142.748 22.4239 142.6 22.4239 142.508 22.5155C142.416 22.6071 142.416 22.7557 142.508 22.8473L155.397 35.7364Z" fill="#EA5455"/>
<path fill-rule="evenodd" clip-rule="evenodd" d="M168.497 26.27C163.915 30.8512 161.459 35.8229 163.011 37.3745C164.563 38.9261 169.534 36.4701 174.116 31.8889C178.697 27.3076 181.153 22.3359 179.601 20.7843C178.05 19.2327 173.078 21.6887 168.497 26.27ZM177.941 22.7746C178.032 22.6834 178.032 22.5354 177.941 22.4441C177.849 22.3528 177.701 22.3528 177.61 22.4441L164.669 35.3858C164.577 35.477 164.577 35.625 164.669 35.7163C164.76 35.8076 164.908 35.8076 164.999 35.7163L177.941 22.7746Z" fill="#EA5455"/>
<rect width="23.4169" height="0.234169" transform="matrix(-0.999998 0.00193319 0.00193319 -0.999998 154.676 40.4258)" fill="#EA5455"/>
<rect width="23.4169" height="0.234169" transform="matrix(-0.999998 0.00193319 0.00193319 -0.999998 189.118 40.3594)" fill="#EA5455"/>
<rect width="23.4169" height="0.234169" transform="matrix(-0.00193319 0.999998 -0.999998 0.00193319 160.297 45.8008)" fill="#EA5455"/>
<rect width="23.4169" height="0.234169" transform="matrix(-0.00193319 0.999998 -0.999998 0.00193319 160.36 11.3594)" fill="#EA5455"/>
<path fill-rule="evenodd" clip-rule="evenodd" d="M81.2177 119.168C80.1225 118.073 78.3433 118.076 77.2438 119.176C76.1443 120.275 76.1408 122.054 77.2361 123.15C78.3314 124.245 80.1106 124.241 81.2101 123.142C82.3096 122.042 82.313 120.263 81.2177 119.168ZM80.2224 120.162C79.6748 119.615 78.7852 119.616 78.2354 120.166C77.6857 120.716 77.6839 121.605 78.2316 122.153C78.7792 122.701 79.6688 122.699 80.2186 122.149C80.7683 121.599 80.77 120.71 80.2224 120.162Z" fill="#EA5455"/>
<path fill-rule="evenodd" clip-rule="evenodd" d="M93.1203 129.409C88.5567 124.845 83.5944 122.408 82.0368 123.966C80.4792 125.524 82.916 130.486 87.4796 135.049C92.0432 139.613 97.0054 142.05 98.563 140.492C100.121 138.935 97.6838 133.972 93.1203 129.409ZM96.5807 138.842C96.6723 138.934 96.8209 138.934 96.9125 138.842C97.0041 138.75 97.0041 138.602 96.9125 138.51L84.0233 125.621C83.9317 125.529 83.7831 125.529 83.6915 125.621C83.5999 125.713 83.5999 125.861 83.6915 125.953L96.5807 138.842Z" fill="#EA5455"/>
<path fill-rule="evenodd" clip-rule="evenodd" d="M65.3052 129.465C60.724 134.047 58.2679 139.018 59.8196 140.57C61.3712 142.121 66.3429 139.665 70.9241 135.084C75.5054 130.503 77.9614 125.531 76.4098 123.98C74.8582 122.428 69.8865 124.884 65.3052 129.465ZM74.7493 125.97C74.8406 125.879 74.8406 125.731 74.7493 125.639C74.658 125.548 74.51 125.548 74.4188 125.639L61.4771 138.581C61.3858 138.672 61.3858 138.82 61.4771 138.912C61.5684 139.003 61.7164 139.003 61.8076 138.912L74.7493 125.97Z" fill="#EA5455"/>
<path fill-rule="evenodd" clip-rule="evenodd" d="M70.9757 107.264C66.4121 102.701 61.4499 100.264 59.8923 101.821C58.3347 103.379 60.7715 108.341 65.335 112.905C69.8986 117.468 74.8609 119.905 76.4185 118.348C77.9761 116.79 75.5393 111.828 70.9757 107.264ZM74.4361 116.697C74.5278 116.789 74.6763 116.789 74.768 116.697C74.8596 116.606 74.8596 116.457 74.768 116.366L61.8788 103.476C61.7872 103.385 61.6386 103.385 61.547 103.476C61.4554 103.568 61.4554 103.717 61.547 103.808L74.4361 116.697Z" fill="#EA5455"/>
<path fill-rule="evenodd" clip-rule="evenodd" d="M87.5357 107.235C82.9544 111.816 80.4984 116.788 82.05 118.339C83.6016 119.891 88.5733 117.435 93.1546 112.854C97.7359 108.272 100.192 103.301 98.6403 101.749C97.0886 100.198 92.117 102.654 87.5357 107.235ZM96.9798 103.739C97.071 103.648 97.071 103.5 96.9798 103.409C96.8885 103.318 96.7405 103.318 96.6492 103.409L83.7076 116.351C83.6163 116.442 83.6163 116.59 83.7076 116.681C83.7989 116.772 83.9468 116.772 84.0381 116.681L96.9798 103.739Z" fill="#EA5455"/>
<rect width="23.4169" height="0.234169" transform="matrix(-0.999998 0.00193319 0.00193319 -0.999998 73.7153 121.379)" fill="#EA5455"/>
<rect width="23.4169" height="0.234169" transform="matrix(-0.999998 0.00193319 0.00193319 -0.999998 108.157 121.312)" fill="#EA5455"/>
<rect width="23.4169" height="0.234169" transform="matrix(-0.00193319 0.999998 -0.999998 0.00193319 79.3364 126.762)" fill="#EA5455"/>
<rect width="23.4169" height="0.234169" transform="matrix(-0.00193319 0.999998 -0.999998 0.00193319 79.3989 92.3203)" fill="#EA5455"/>
<path fill-rule="evenodd" clip-rule="evenodd" d="M282.995 239.984C281.9 238.889 280.121 238.893 279.021 239.992C277.922 241.092 277.918 242.871 279.013 243.966C280.109 245.061 281.888 245.058 282.987 243.958C284.087 242.859 284.09 241.08 282.995 239.984ZM282 240.979C281.452 240.431 280.563 240.433 280.013 240.982C279.463 241.532 279.461 242.422 280.009 242.969C280.557 243.517 281.446 243.515 281.996 242.966C282.546 242.416 282.547 241.526 282 240.979Z" fill="#EA5455"/>
<path fill-rule="evenodd" clip-rule="evenodd" d="M294.898 250.225C290.334 245.662 285.372 243.225 283.814 244.782C282.257 246.34 284.693 251.302 289.257 255.866C293.821 260.429 298.783 262.866 300.34 261.309C301.898 259.751 299.461 254.789 294.898 250.225ZM298.358 259.658C298.45 259.75 298.598 259.75 298.69 259.658C298.781 259.567 298.781 259.418 298.69 259.327L285.801 246.437C285.709 246.346 285.56 246.346 285.469 246.437C285.377 246.529 285.377 246.678 285.469 246.769L298.358 259.658Z" fill="#EA5455"/>
<path fill-rule="evenodd" clip-rule="evenodd" d="M267.083 250.278C262.501 254.859 260.045 259.831 261.597 261.382C263.149 262.934 268.12 260.478 272.701 255.897C277.283 251.315 279.739 246.344 278.187 244.792C276.636 243.24 271.664 245.697 267.083 250.278ZM276.527 246.782C276.618 246.691 276.618 246.543 276.527 246.452C276.435 246.361 276.287 246.361 276.196 246.452L263.254 259.394C263.163 259.485 263.163 259.633 263.254 259.724C263.346 259.815 263.494 259.815 263.585 259.724L276.527 246.782Z" fill="#EA5455"/>
<path fill-rule="evenodd" clip-rule="evenodd" d="M272.753 228.081C268.189 223.517 263.227 221.08 261.67 222.638C260.112 224.195 262.549 229.158 267.112 233.721C271.676 238.285 276.638 240.722 278.196 239.164C279.753 237.606 277.317 232.644 272.753 228.081ZM276.213 237.514C276.305 237.605 276.454 237.605 276.545 237.514C276.637 237.422 276.637 237.274 276.545 237.182L263.656 224.293C263.565 224.201 263.416 224.201 263.324 224.293C263.233 224.384 263.233 224.533 263.324 224.625L276.213 237.514Z" fill="#EA5455"/>
<path fill-rule="evenodd" clip-rule="evenodd" d="M289.309 228.047C284.728 232.629 282.272 237.6 283.823 239.152C285.375 240.703 290.347 238.247 294.928 233.666C299.509 229.085 301.965 224.113 300.414 222.562C298.862 221.01 293.89 223.466 289.309 228.047ZM298.753 224.552C298.844 224.461 298.844 224.313 298.753 224.221C298.662 224.13 298.514 224.13 298.423 224.221L285.481 237.163C285.39 237.254 285.39 237.402 285.481 237.494C285.572 237.585 285.72 237.585 285.812 237.494L298.753 224.552Z" fill="#EA5455"/>
<rect width="23.4169" height="0.234169" transform="matrix(-0.999998 0.00193319 0.00193319 -0.999998 275.493 242.199)" fill="#EA5455"/>
<rect width="23.4169" height="0.234169" transform="matrix(-0.999998 0.00193319 0.00193319 -0.999998 309.934 242.133)" fill="#EA5455"/>
<rect width="23.4169" height="0.234169" transform="matrix(-0.00193319 0.999998 -0.999998 0.00193319 281.114 247.578)" fill="#EA5455"/>
<rect width="23.4169" height="0.234169" transform="matrix(-0.00193319 0.999998 -0.999998 0.00193319 281.176 213.137)" fill="#EA5455"/>
<rect width="23.4169" height="0.234169" transform="matrix(-0.00193319 0.999998 -0.999998 0.00193319 200.215 294.098)" fill="#EA5455"/>
<path fill-rule="evenodd" clip-rule="evenodd" d="M202.351 159.332C201.255 158.237 199.476 158.24 198.377 159.34C197.277 160.439 197.274 162.218 198.369 163.314C199.464 164.409 201.243 164.406 202.343 163.306C203.442 162.207 203.446 160.427 202.351 159.332ZM201.355 160.326C200.808 159.779 199.918 159.78 199.368 160.33C198.818 160.88 198.817 161.769 199.364 162.317C199.912 162.865 200.802 162.863 201.351 162.313C201.901 161.763 201.903 160.874 201.355 160.326Z" fill="#EA5455"/>
<path fill-rule="evenodd" clip-rule="evenodd" d="M214.249 169.573C209.686 165.009 204.723 162.572 203.166 164.13C201.608 165.688 204.045 170.65 208.608 175.213C213.172 179.777 218.134 182.214 219.692 180.656C221.25 179.099 218.813 174.136 214.249 169.573ZM217.71 179.006C217.801 179.098 217.95 179.098 218.041 179.006C218.133 178.914 218.133 178.766 218.041 178.674L205.152 165.785C205.061 165.693 204.912 165.693 204.82 165.785C204.729 165.877 204.729 166.025 204.82 166.117L217.71 179.006Z" fill="#EA5455"/>
<path fill-rule="evenodd" clip-rule="evenodd" d="M186.434 169.625C181.853 174.207 179.397 179.178 180.948 180.73C182.5 182.282 187.472 179.826 192.053 175.244C196.634 170.663 199.09 165.691 197.539 164.14C195.987 162.588 191.015 165.044 186.434 169.625ZM195.878 166.13C195.969 166.039 195.969 165.891 195.878 165.8C195.787 165.708 195.639 165.708 195.548 165.8L182.606 178.741C182.515 178.833 182.515 178.98 182.606 179.072C182.697 179.163 182.845 179.163 182.937 179.072L195.878 166.13Z" fill="#EA5455"/>
<path fill-rule="evenodd" clip-rule="evenodd" d="M192.105 147.428C187.541 142.865 182.579 140.428 181.021 141.985C179.464 143.543 181.9 148.505 186.464 153.069C191.028 157.633 195.99 160.069 197.547 158.512C199.105 156.954 196.668 151.992 192.105 147.428ZM195.565 156.861C195.657 156.953 195.805 156.953 195.897 156.861C195.988 156.77 195.988 156.621 195.897 156.53L183.008 143.64C182.916 143.549 182.768 143.549 182.676 143.64C182.584 143.732 182.584 143.881 182.676 143.972L195.565 156.861Z" fill="#EA5455"/>
<path fill-rule="evenodd" clip-rule="evenodd" d="M208.665 147.395C204.083 151.976 201.627 156.948 203.179 158.5C204.731 160.051 209.702 157.595 214.284 153.014C218.865 148.433 221.321 143.461 219.769 141.909C218.218 140.358 213.246 142.814 208.665 147.395ZM218.109 143.9C218.2 143.808 218.2 143.66 218.109 143.569C218.017 143.478 217.869 143.478 217.778 143.569L204.836 156.511C204.745 156.602 204.745 156.75 204.836 156.841C204.928 156.933 205.076 156.933 205.167 156.841L218.109 143.9Z" fill="#EA5455"/>
<rect width="23.4169" height="0.234169" transform="matrix(-0.999998 0.00193319 0.00193319 -0.999998 194.848 161.547)" fill="#EA5455"/>
<rect width="23.4169" height="0.234169" transform="matrix(-0.999998 0.00193319 0.00193319 -0.999998 229.29 161.48)" fill="#EA5455"/>
<rect width="23.4169" height="0.234169" transform="matrix(-0.00193319 0.999998 -0.999998 0.00193319 200.465 166.93)" fill="#EA5455"/>
<rect width="23.4169" height="0.234169" transform="matrix(-0.00193319 0.999998 -0.999998 0.00193319 200.528 132.488)" fill="#EA5455"/>
<path fill-rule="evenodd" clip-rule="evenodd" d="M121.39 240.293C120.294 239.198 118.515 239.201 117.416 240.301C116.316 241.4 116.313 243.179 117.408 244.275C118.503 245.37 120.282 245.366 121.382 244.267C122.481 243.167 122.485 241.388 121.39 240.293ZM120.394 241.287C119.847 240.74 118.957 240.741 118.407 241.291C117.858 241.841 117.856 242.73 118.403 243.278C118.951 243.826 119.841 243.824 120.39 243.274C120.94 242.724 120.942 241.835 120.394 241.287Z" fill="#EA5455"/>
<path fill-rule="evenodd" clip-rule="evenodd" d="M133.292 250.534C128.729 245.97 123.766 243.533 122.209 245.091C120.651 246.649 123.088 251.611 127.651 256.174C132.215 260.738 137.177 263.175 138.735 261.617C140.293 260.06 137.856 255.097 133.292 250.534ZM136.753 259.967C136.844 260.059 136.993 260.059 137.084 259.967C137.176 259.875 137.176 259.727 137.084 259.635L124.195 246.746C124.104 246.654 123.955 246.654 123.863 246.746C123.772 246.838 123.772 246.986 123.863 247.078L136.753 259.967Z" fill="#EA5455"/>
<path fill-rule="evenodd" clip-rule="evenodd" d="M105.477 250.586C100.896 255.168 98.4398 260.139 99.9914 261.691C101.543 263.243 106.515 260.787 111.096 256.205C115.677 251.624 118.133 246.652 116.582 245.101C115.03 243.549 110.058 246.005 105.477 250.586ZM114.921 247.091C115.012 247 115.012 246.852 114.921 246.761C114.83 246.669 114.682 246.669 114.591 246.761L101.649 259.702C101.558 259.793 101.558 259.941 101.649 260.033C101.74 260.124 101.888 260.124 101.98 260.033L114.921 247.091Z" fill="#EA5455"/>
<path fill-rule="evenodd" clip-rule="evenodd" d="M111.148 228.393C106.584 223.83 101.622 221.393 100.064 222.95C98.5065 224.508 100.943 229.47 105.507 234.034C110.071 238.597 115.033 241.034 116.59 239.477C118.148 237.919 115.711 232.957 111.148 228.393ZM114.608 237.826C114.7 237.918 114.848 237.918 114.94 237.826C115.031 237.735 115.031 237.586 114.94 237.494L102.051 224.605C101.959 224.514 101.81 224.514 101.719 224.605C101.627 224.697 101.627 224.846 101.719 224.937L114.608 237.826Z" fill="#EA5455"/>
<path fill-rule="evenodd" clip-rule="evenodd" d="M127.708 228.36C123.126 232.941 120.67 237.913 122.222 239.464C123.774 241.016 128.745 238.56 133.326 233.979C137.908 229.397 140.364 224.426 138.812 222.874C137.261 221.323 132.289 223.779 127.708 228.36ZM137.152 224.864C137.243 224.773 137.243 224.625 137.152 224.534C137.06 224.443 136.912 224.443 136.821 224.534L123.879 237.476C123.788 237.567 123.788 237.715 123.879 237.806C123.971 237.897 124.119 237.897 124.21 237.806L137.152 224.864Z" fill="#EA5455"/>
<rect width="23.4169" height="0.234169" transform="matrix(-0.999998 0.00193319 0.00193319 -0.999998 113.887 242.512)" fill="#EA5455"/>
<rect width="23.4169" height="0.234169" transform="matrix(-0.999998 0.00193319 0.00193319 -0.999998 148.329 242.445)" fill="#EA5455"/>
<rect width="23.4169" height="0.234169" transform="matrix(-0.00193319 0.999998 -0.999998 0.00193319 119.508 247.891)" fill="#EA5455"/>
<rect width="23.4169" height="0.234169" transform="matrix(-0.00193319 0.999998 -0.999998 0.00193319 119.571 213.449)" fill="#EA5455"/>
<path fill-rule="evenodd" clip-rule="evenodd" d="M121.706 78.6875C120.611 77.5923 118.832 77.5957 117.732 78.6952C116.633 79.7947 116.629 81.5739 117.724 82.6692C118.82 83.7645 120.599 83.761 121.698 82.6615C122.798 81.562 122.801 79.7828 121.706 78.6875ZM120.711 79.6817C120.163 79.134 119.273 79.1358 118.724 79.6855C118.174 80.2353 118.172 81.1249 118.72 81.6725C119.267 82.2201 120.157 82.2184 120.707 81.6686C121.257 81.1189 121.258 80.2293 120.711 79.6817Z" fill="#EA5455"/>
<path fill-rule="evenodd" clip-rule="evenodd" d="M133.605 88.9283C129.041 84.3647 124.079 81.9279 122.521 83.4855C120.964 85.0431 123.4 90.0053 127.964 94.5689C132.528 99.1325 137.49 101.569 139.047 100.012C140.605 98.4541 138.168 93.4918 133.605 88.9283ZM137.065 98.3614C137.157 98.4531 137.305 98.4531 137.397 98.3614C137.488 98.2698 137.488 98.1213 137.397 98.0296L124.508 85.1405C124.416 85.0489 124.268 85.0489 124.176 85.1405C124.084 85.2321 124.084 85.3807 124.176 85.4723L137.065 98.3614Z" fill="#EA5455"/>
<path fill-rule="evenodd" clip-rule="evenodd" d="M105.786 88.9809C101.204 93.5622 98.7484 98.5338 100.3 100.085C101.852 101.637 106.823 99.1811 111.405 94.5998C115.986 90.0185 118.442 85.0469 116.89 83.4952C115.339 81.9436 110.367 84.3996 105.786 88.9809ZM115.23 85.4856C115.321 85.3943 115.321 85.2463 115.23 85.1551C115.138 85.0638 114.991 85.0638 114.899 85.155L101.958 98.0967C101.866 98.188 101.866 98.336 101.958 98.4272C102.049 98.5185 102.197 98.5185 102.288 98.4272L115.23 85.4856Z" fill="#EA5455"/>
<path fill-rule="evenodd" clip-rule="evenodd" d="M111.46 66.7837C106.897 62.2201 101.934 59.7833 100.377 61.341C98.819 62.8986 101.256 67.8608 105.819 72.4244C110.383 76.988 115.345 79.4248 116.903 77.8672C118.46 76.3095 116.024 71.3473 111.46 66.7837ZM114.921 76.2169C115.012 76.3085 115.161 76.3085 115.252 76.2169C115.344 76.1253 115.344 75.9767 115.252 75.8851L102.363 62.996C102.272 62.9043 102.123 62.9043 102.031 62.996C101.94 63.0876 101.94 63.2361 102.031 63.3278L114.921 76.2169Z" fill="#EA5455"/>
<path fill-rule="evenodd" clip-rule="evenodd" d="M128.02 66.7504C123.439 71.3317 120.983 76.3034 122.534 77.855C124.086 79.4066 129.058 76.9506 133.639 72.3693C138.22 67.7881 140.676 62.8164 139.125 61.2648C137.573 59.7131 132.601 62.1692 128.02 66.7504ZM137.464 63.2551C137.555 63.1638 137.555 63.0159 137.464 62.9246C137.373 62.8333 137.225 62.8333 137.134 62.9246L124.192 75.8662C124.101 75.9575 124.101 76.1055 124.192 76.1968C124.283 76.288 124.431 76.288 124.522 76.1968L137.464 63.2551Z" fill="#EA5455"/>
<rect width="23.4169" height="0.234169" transform="matrix(-0.999998 0.00193319 0.00193319 -0.999998 114.2 80.9023)" fill="#EA5455"/>
<rect width="23.4169" height="0.234169" transform="matrix(-0.999998 0.00193319 0.00193319 -0.999998 148.641 80.8359)" fill="#EA5455"/>
<rect width="23.4169" height="0.234169" transform="matrix(-0.00193319 0.999998 -0.999998 0.00193319 119.821 86.2812)" fill="#EA5455"/>
<rect width="23.4169" height="0.234169" transform="matrix(-0.00193319 0.999998 -0.999998 0.00193319 119.883 51.8398)" fill="#EA5455"/>
<path fill-rule="evenodd" clip-rule="evenodd" d="M40.7412 159.645C39.6459 158.549 37.8667 158.553 36.7672 159.652C35.6677 160.752 35.6643 162.531 36.7595 163.626C37.8548 164.721 39.634 164.718 40.7335 163.619C41.833 162.519 41.8364 160.74 40.7412 159.645ZM39.7458 160.639C39.1982 160.091 38.3086 160.093 37.7589 160.643C37.2091 161.192 37.2074 162.082 37.755 162.63C38.3026 163.177 39.1922 163.175 39.742 162.626C40.2917 162.076 40.2935 161.186 39.7458 160.639Z" fill="#EA5455"/>
<path fill-rule="evenodd" clip-rule="evenodd" d="M52.6437 169.889C48.0801 165.326 43.1179 162.889 41.5603 164.446C40.0026 166.004 42.4394 170.966 47.003 175.53C51.5666 180.093 56.5288 182.53 58.0865 180.973C59.6441 179.415 57.2073 174.453 52.6437 169.889ZM56.1041 179.322C56.1957 179.414 56.3443 179.414 56.4359 179.322C56.5275 179.231 56.5275 179.082 56.4359 178.991L43.5468 166.101C43.4551 166.01 43.3066 166.01 43.215 166.101C43.1233 166.193 43.1233 166.342 43.215 166.433L56.1041 179.322Z" fill="#EA5455"/>
<path fill-rule="evenodd" clip-rule="evenodd" d="M24.8248 169.942C20.2435 174.523 17.7875 179.495 19.3391 181.046C20.8907 182.598 25.8624 180.142 30.4437 175.561C35.0249 170.979 37.4809 166.008 35.9293 164.456C34.3777 162.905 29.406 165.361 24.8248 169.942ZM34.2688 166.447C34.3601 166.355 34.3601 166.207 34.2688 166.116C34.1775 166.025 34.0296 166.025 33.9383 166.116L20.9966 179.058C20.9054 179.149 20.9054 179.297 20.9966 179.388C21.0879 179.479 21.2359 179.479 21.3272 179.388L34.2688 166.447Z" fill="#EA5455"/>
<path fill-rule="evenodd" clip-rule="evenodd" d="M30.4992 147.745C25.9356 143.181 20.9733 140.744 19.4157 142.302C17.8581 143.86 20.2949 148.822 24.8585 153.385C29.4221 157.949 34.3843 160.386 35.9419 158.828C37.4995 157.27 35.0627 152.308 30.4992 147.745ZM33.9596 157.178C34.0512 157.269 34.1998 157.269 34.2914 157.178C34.383 157.086 34.383 156.938 34.2914 156.846L21.4022 143.957C21.3106 143.865 21.1621 143.865 21.0704 143.957C20.9788 144.049 20.9788 144.197 21.0704 144.289L33.9596 157.178Z" fill="#EA5455"/>
<path fill-rule="evenodd" clip-rule="evenodd" d="M47.0591 147.711C42.4779 152.293 40.0218 157.264 41.5735 158.816C43.1251 160.368 48.0968 157.912 52.678 153.33C57.2593 148.749 59.7153 143.777 58.1637 142.226C56.6121 140.674 51.6404 143.13 47.0591 147.711ZM56.5032 144.216C56.5945 144.125 56.5945 143.977 56.5032 143.886C56.4119 143.794 56.2639 143.794 56.1727 143.886L43.231 156.827C43.1397 156.918 43.1397 157.066 43.231 157.158C43.3223 157.249 43.4703 157.249 43.5615 157.158L56.5032 144.216Z" fill="#EA5455"/>
<rect width="23.4169" height="0.234169" transform="matrix(-0.999998 0.00193319 0.00193319 -0.999998 33.2388 161.863)" fill="#EA5455"/>
<rect width="23.4169" height="0.234169" transform="matrix(-0.999998 0.00193319 0.00193319 -0.999998 67.6802 161.797)" fill="#EA5455"/>
<rect width="23.4169" height="0.234169" transform="matrix(-0.00193319 0.999998 -0.999998 0.00193319 38.8599 167.242)" fill="#EA5455"/>
<rect width="23.4169" height="0.234169" transform="matrix(-0.00193319 0.999998 -0.999998 0.00193319 38.9224 132.801)" fill="#EA5455"/>
<path fill-rule="evenodd" clip-rule="evenodd" d="M348.719 87.9848C344.138 92.5661 341.682 97.5377 343.234 99.0894C344.785 100.641 349.757 98.185 354.338 93.6037C358.919 89.0224 361.375 84.0508 359.824 82.4991C358.272 80.9475 353.301 83.4035 348.719 87.9848ZM358.163 84.4895C358.255 84.3982 358.255 84.2502 358.163 84.159C358.072 84.0677 357.924 84.0677 357.833 84.159L344.891 97.1006C344.8 97.1919 344.8 97.3399 344.891 97.4311C344.982 97.5224 345.13 97.5224 345.222 97.4311L358.163 84.4895Z" fill="#EA5455"/>
<path fill-rule="evenodd" clip-rule="evenodd" d="M354.394 65.7876C349.83 61.224 344.868 58.7872 343.31 60.3449C341.753 61.9025 344.189 66.8647 348.753 71.4283C353.317 75.9919 358.279 78.4287 359.836 76.8711C361.394 75.3134 358.957 70.3512 354.394 65.7876ZM357.854 75.2208C357.946 75.3124 358.094 75.3124 358.186 75.2208C358.278 75.1292 358.278 74.9806 358.186 74.889L345.297 61.9999C345.205 61.9082 345.057 61.9082 344.965 61.9999C344.873 62.0915 344.873 62.24 344.965 62.3317L357.854 75.2208Z" fill="#EA5455"/>
<rect width="23.4169" height="0.234169" transform="matrix(-0.999998 0.00193319 0.00193319 -0.999998 357.129 79.9062)" fill="#EA5455"/>
<path fill-rule="evenodd" clip-rule="evenodd" d="M283.987 -2.95698C282.892 -4.05224 281.113 -4.0488 280.013 -2.9493C278.914 -1.8498 278.91 -0.0705916 280.006 1.02467C281.101 2.11993 282.88 2.11649 283.98 1.01699C285.079 -0.0825171 285.083 -1.86172 283.987 -2.95698ZM282.992 -1.96287C282.444 -2.5105 281.555 -2.50878 281.005 -1.95903C280.455 -1.40927 280.453 -0.519671 281.001 0.0279594C281.549 0.575589 282.438 0.573869 282.988 0.024118C283.538 -0.525634 283.54 -1.41524 282.992 -1.96287Z" fill="#EA5455"/>
<path fill-rule="evenodd" clip-rule="evenodd" d="M295.886 7.28372C291.322 2.72014 286.36 0.283333 284.802 1.84096C283.245 3.39859 285.682 8.36082 290.245 12.9244C294.809 17.488 299.771 19.9248 301.329 18.3672C302.886 16.8095 300.449 11.8473 295.886 7.28372ZM299.346 16.7169C299.438 16.8085 299.586 16.8085 299.678 16.7169C299.77 16.6253 299.77 16.4767 299.678 16.3851L286.789 3.49595C286.697 3.40433 286.549 3.40433 286.457 3.49595C286.366 3.58758 286.366 3.73613 286.457 3.82776L299.346 16.7169Z" fill="#EA5455"/>
<path fill-rule="evenodd" clip-rule="evenodd" d="M268.071 7.33636C263.49 11.9176 261.034 16.8893 262.585 18.4409C264.137 19.9925 269.108 17.5365 273.69 12.9553C278.271 8.374 280.727 3.40232 279.175 1.8507C277.624 0.299084 272.652 2.7551 268.071 7.33636ZM277.515 3.84104C277.606 3.74977 277.606 3.60179 277.515 3.51052C277.424 3.41925 277.276 3.41925 277.184 3.51052L264.243 16.4522C264.151 16.5434 264.151 16.6914 264.243 16.7827C264.334 16.874 264.482 16.874 264.573 16.7827L277.515 3.84104Z" fill="#EA5455"/>
<rect width="23.4169" height="0.234169" transform="matrix(-0.00193319 0.999998 -0.999998 0.00193319 282.102 4.63672)" fill="#EA5455"/>
<path fill-rule="evenodd" clip-rule="evenodd" d="M324.151 118.172C323.056 117.077 321.277 117.08 320.177 118.18C319.078 119.279 319.074 121.058 320.17 122.154C321.265 123.249 323.044 123.245 324.144 122.146C325.243 121.046 325.247 119.267 324.151 118.172ZM323.156 119.166C322.608 118.618 321.719 118.62 321.169 119.17C320.619 119.72 320.618 120.609 321.165 121.157C321.713 121.704 322.602 121.703 323.152 121.153C323.702 120.603 323.704 119.714 323.156 119.166Z" fill="#EA5455"/>
<path fill-rule="evenodd" clip-rule="evenodd" d="M336.054 128.417C331.49 123.853 326.528 121.416 324.97 122.974C323.413 124.531 325.85 129.494 330.413 134.057C334.977 138.621 339.939 141.058 341.497 139.5C343.054 137.942 340.617 132.98 336.054 128.417ZM339.514 137.85C339.606 137.941 339.754 137.941 339.846 137.85C339.938 137.758 339.938 137.61 339.846 137.518L326.957 124.629C326.865 124.537 326.717 124.537 326.625 124.629C326.533 124.72 326.533 124.869 326.625 124.961L339.514 137.85Z" fill="#EA5455"/>
<path fill-rule="evenodd" clip-rule="evenodd" d="M308.235 128.469C303.654 133.05 301.198 138.022 302.749 139.574C304.301 141.125 309.273 138.669 313.854 134.088C318.435 129.507 320.891 124.535 319.339 122.984C317.788 121.432 312.816 123.888 308.235 128.469ZM317.679 124.974C317.77 124.883 317.77 124.735 317.679 124.643C317.588 124.552 317.44 124.552 317.348 124.643L304.407 137.585C304.316 137.676 304.316 137.824 304.407 137.916C304.498 138.007 304.646 138.007 304.737 137.916L317.679 124.974Z" fill="#EA5455"/>
<path fill-rule="evenodd" clip-rule="evenodd" d="M313.909 106.268C309.346 101.705 304.384 99.2677 302.826 100.825C301.268 102.383 303.705 107.345 308.269 111.909C312.832 116.472 317.794 118.909 319.352 117.352C320.91 115.794 318.473 110.832 313.909 106.268ZM317.37 115.701C317.461 115.793 317.61 115.793 317.702 115.701C317.793 115.61 317.793 115.461 317.702 115.369L304.812 102.48C304.721 102.389 304.572 102.389 304.481 102.48C304.389 102.572 304.389 102.721 304.481 102.812L317.37 115.701Z" fill="#EA5455"/>
<path fill-rule="evenodd" clip-rule="evenodd" d="M330.469 106.239C325.888 110.82 323.432 115.792 324.984 117.343C326.535 118.895 331.507 116.439 336.088 111.858C340.669 107.276 343.125 102.305 341.574 100.753C340.022 99.2014 335.051 101.657 330.469 106.239ZM339.913 102.743C340.005 102.652 340.005 102.504 339.913 102.413C339.822 102.322 339.674 102.322 339.583 102.413L326.641 115.355C326.55 115.446 326.55 115.594 326.641 115.685C326.732 115.776 326.88 115.776 326.972 115.685L339.913 102.743Z" fill="#EA5455"/>
<rect width="23.4169" height="0.234169" transform="matrix(-0.999998 0.00193319 0.00193319 -0.999998 316.649 120.391)" fill="#EA5455"/>
<rect width="23.4169" height="0.234169" transform="matrix(-0.999998 0.00193319 0.00193319 -0.999998 351.09 120.324)" fill="#EA5455"/>
<rect width="23.4169" height="0.234169" transform="matrix(-0.00193319 0.999998 -0.999998 0.00193319 322.27 125.77)" fill="#EA5455"/>
<rect width="23.4169" height="0.234169" transform="matrix(-0.00193319 0.999998 -0.999998 0.00193319 322.333 91.3281)" fill="#EA5455"/>
<path fill-rule="evenodd" clip-rule="evenodd" d="M243.507 37.5274C242.412 36.4321 240.632 36.4356 239.533 37.5351C238.433 38.6346 238.43 40.4138 239.525 41.509C240.62 42.6043 242.4 42.6009 243.499 41.5014C244.599 40.4019 244.602 38.6227 243.507 37.5274ZM242.511 38.5215C241.964 37.9739 241.074 37.9756 240.524 38.5253C239.975 39.0751 239.973 39.9647 240.521 40.5123C241.068 41.06 241.958 41.0582 242.508 40.5085C243.057 39.9587 243.059 39.0691 242.511 38.5215Z" fill="#EA5455"/>
<path fill-rule="evenodd" clip-rule="evenodd" d="M255.409 47.772C250.846 43.2084 245.884 40.7716 244.326 42.3292C242.768 43.8869 245.205 48.8491 249.769 53.4127C254.332 57.9763 259.294 60.4131 260.852 58.8554C262.41 57.2978 259.973 52.3356 255.409 47.772ZM258.87 57.2052C258.961 57.2968 259.11 57.2968 259.202 57.2052C259.293 57.1136 259.293 56.965 259.202 56.8734L246.312 43.9842C246.221 43.8926 246.072 43.8926 245.981 43.9842C245.889 44.0759 245.889 44.2244 245.981 44.316L258.87 57.2052Z" fill="#EA5455"/>
<path fill-rule="evenodd" clip-rule="evenodd" d="M227.59 47.8246C223.009 52.4059 220.553 57.3776 222.105 58.9292C223.656 60.4808 228.628 58.0248 233.209 53.4435C237.791 48.8623 240.247 43.8906 238.695 42.339C237.143 40.7874 232.172 43.2434 227.59 47.8246ZM237.034 44.3293C237.126 44.2381 237.126 44.0901 237.034 43.9988C236.943 43.9075 236.795 43.9075 236.704 43.9988L223.762 56.9405C223.671 57.0317 223.671 57.1797 223.762 57.271C223.854 57.3622 224.002 57.3622 224.093 57.271L237.034 44.3293Z" fill="#EA5455"/>
<path fill-rule="evenodd" clip-rule="evenodd" d="M233.265 25.6236C228.701 21.06 223.739 18.6232 222.181 20.1808C220.624 21.7384 223.061 26.7007 227.624 31.2642C232.188 35.8278 237.15 38.2646 238.708 36.707C240.265 35.1494 237.828 30.1872 233.265 25.6236ZM236.725 35.0568C236.817 35.1484 236.965 35.1484 237.057 35.0568C237.149 34.9651 237.149 34.8166 237.057 34.7249L224.168 21.8358C224.076 21.7442 223.928 21.7442 223.836 21.8358C223.744 21.9274 223.744 22.076 223.836 22.1676L236.725 35.0568Z" fill="#EA5455"/>
<path fill-rule="evenodd" clip-rule="evenodd" d="M249.821 25.5942C245.24 30.1754 242.784 35.1471 244.335 36.6987C245.887 38.2504 250.858 35.7943 255.44 31.2131C260.021 26.6318 262.477 21.6601 260.925 20.1085C259.374 18.5569 254.402 21.0129 249.821 25.5942ZM259.265 22.0989C259.356 22.0076 259.356 21.8596 259.265 21.7683C259.174 21.6771 259.026 21.6771 258.934 21.7683L245.993 34.71C245.901 34.8013 245.901 34.9492 245.993 35.0405C246.084 35.1318 246.232 35.1318 246.323 35.0405L259.265 22.0989Z" fill="#EA5455"/>
<rect width="23.4169" height="0.234169" transform="matrix(-0.999998 0.00193319 0.00193319 -0.999998 236.004 39.7422)" fill="#EA5455"/>
<rect width="23.4169" height="0.234169" transform="matrix(-0.999998 0.00193319 0.00193319 -0.999998 270.446 39.6758)" fill="#EA5455"/>
<rect width="23.4169" height="0.234169" transform="matrix(-0.00193319 0.999998 -0.999998 0.00193319 241.625 45.125)" fill="#EA5455"/>
<rect width="23.4169" height="0.234169" transform="matrix(-0.00193319 0.999998 -0.999998 0.00193319 241.688 10.6836)" fill="#EA5455"/>
<path fill-rule="evenodd" clip-rule="evenodd" d="M324.308 37.3711C323.212 36.2759 321.433 36.2793 320.334 37.3788C319.234 38.4783 319.231 40.2575 320.326 41.3528C321.421 42.4481 323.2 42.4446 324.3 41.3451C325.399 40.2456 325.403 38.4664 324.308 37.3711ZM323.312 38.3653C322.765 37.8176 321.875 37.8193 321.325 38.3691C320.776 38.9189 320.774 39.8085 321.321 40.3561C321.869 40.9037 322.759 40.902 323.308 40.3522C323.858 39.8025 323.86 38.9129 323.312 38.3653Z" fill="#EA5455"/>
<path fill-rule="evenodd" clip-rule="evenodd" d="M336.21 47.6118C331.647 43.0483 326.684 40.6115 325.127 42.1691C323.569 43.7267 326.006 48.6889 330.569 53.2525C335.133 57.8161 340.095 60.2529 341.653 58.6953C343.21 57.1377 340.774 52.1754 336.21 47.6118ZM339.671 57.045C339.762 57.1367 339.911 57.1367 340.002 57.045C340.094 56.9534 340.094 56.8049 340.002 56.7132L327.113 43.8241C327.022 43.7325 326.873 43.7325 326.781 43.8241C326.69 43.9157 326.69 44.0643 326.781 44.1559L339.671 57.045Z" fill="#EA5455"/>
<path fill-rule="evenodd" clip-rule="evenodd" d="M308.395 47.6645C303.814 52.2457 301.358 57.2174 302.909 58.769C304.461 60.3207 309.433 57.8647 314.014 53.2834C318.595 48.7021 321.051 43.7304 319.5 42.1788C317.948 40.6272 312.976 43.0832 308.395 47.6645ZM317.839 44.1692C317.93 44.0779 317.93 43.9299 317.839 43.8386C317.748 43.7474 317.6 43.7474 317.509 43.8386L304.567 56.7803C304.476 56.8716 304.476 57.0195 304.567 57.1108C304.658 57.2021 304.806 57.2021 304.897 57.1108L317.839 44.1692Z" fill="#EA5455"/>
<path fill-rule="evenodd" clip-rule="evenodd" d="M314.066 25.4673C309.502 20.9037 304.54 18.4669 302.982 20.0246C301.424 21.5822 303.861 26.5444 308.425 31.108C312.988 35.6716 317.951 38.1084 319.508 36.5508C321.066 34.9931 318.629 30.0309 314.066 25.4673ZM317.526 34.9005C317.618 34.9921 317.766 34.9921 317.858 34.9005C317.949 34.8089 317.949 34.6603 317.858 34.5687L304.969 21.6795C304.877 21.5879 304.728 21.5879 304.637 21.6795C304.545 21.7712 304.545 21.9197 304.637 22.0113L317.526 34.9005Z" fill="#EA5455"/>
<path fill-rule="evenodd" clip-rule="evenodd" d="M330.626 25.434C326.044 30.0153 323.588 34.987 325.14 36.5386C326.691 38.0902 331.663 35.6342 336.244 31.0529C340.826 26.4717 343.282 21.5 341.73 19.9484C340.178 18.3967 335.207 20.8528 330.626 25.434ZM340.07 21.9387C340.161 21.8474 340.161 21.6994 340.07 21.6082C339.978 21.5169 339.83 21.5169 339.739 21.6082L326.797 34.5498C326.706 34.6411 326.706 34.7891 326.797 34.8804C326.889 34.9716 327.037 34.9716 327.128 34.8804L340.07 21.9387Z" fill="#EA5455"/>
<rect width="23.4169" height="0.234169" transform="matrix(-0.999998 0.00193319 0.00193319 -0.999998 316.805 39.5898)" fill="#EA5455"/>
<rect width="23.4169" height="0.234169" transform="matrix(-0.999998 0.00193319 0.00193319 -0.999998 351.247 39.5234)" fill="#EA5455"/>
<rect width="23.4169" height="0.234169" transform="matrix(-0.00193319 0.999998 -0.999998 0.00193319 322.422 44.9648)" fill="#EA5455"/>
<rect width="23.4169" height="0.234169" transform="matrix(-0.00193319 0.999998 -0.999998 0.00193319 322.485 10.5234)" fill="#EA5455"/>
<path fill-rule="evenodd" clip-rule="evenodd" d="M348.559 168.793C343.978 173.375 341.522 178.346 343.073 179.898C344.625 181.45 349.597 178.994 354.178 174.412C358.759 169.831 361.215 164.859 359.664 163.308C358.112 161.756 353.14 164.212 348.559 168.793ZM358.003 165.298C358.094 165.207 358.094 165.059 358.003 164.968C357.912 164.876 357.764 164.876 357.673 164.968L344.731 177.909C344.64 178 344.64 178.148 344.731 178.24C344.822 178.331 344.97 178.331 345.062 178.24L358.003 165.298Z" fill="#EA5455"/>
<path fill-rule="evenodd" clip-rule="evenodd" d="M354.234 146.592C349.67 142.029 344.708 139.592 343.15 141.15C341.592 142.707 344.029 147.669 348.593 152.233C353.156 156.797 358.119 159.233 359.676 157.676C361.234 156.118 358.797 151.156 354.234 146.592ZM357.694 156.026C357.786 156.117 357.934 156.117 358.026 156.026C358.117 155.934 358.117 155.785 358.026 155.694L345.137 142.805C345.045 142.713 344.896 142.713 344.805 142.805C344.713 142.896 344.713 143.045 344.805 143.136L357.694 156.026Z" fill="#EA5455"/>
<rect width="23.4169" height="0.234169" transform="matrix(-0.999998 0.00193319 0.00193319 -0.999998 356.973 160.715)" fill="#EA5455"/>
<path fill-rule="evenodd" clip-rule="evenodd" d="M348.876 7.18402C344.294 11.7653 341.838 16.737 343.39 18.2886C344.941 19.8402 349.913 17.3842 354.494 12.8029C359.076 8.22166 361.532 3.24998 359.98 1.69836C358.428 0.14674 353.457 2.60275 348.876 7.18402ZM358.32 3.6887C358.411 3.59743 358.411 3.44945 358.32 3.35818C358.228 3.2669 358.08 3.2669 357.989 3.35817L345.047 16.2998C344.956 16.3911 344.956 16.5391 345.047 16.6304C345.139 16.7216 345.287 16.7216 345.378 16.6304L358.32 3.6887Z" fill="#EA5455"/>
<path fill-rule="evenodd" clip-rule="evenodd" d="M283.831 77.8516C282.736 76.7563 280.957 76.7598 279.857 77.8593C278.758 78.9588 278.754 80.738 279.849 81.8333C280.945 82.9285 282.724 82.9251 283.823 81.8256C284.923 80.7261 284.926 78.9469 283.831 77.8516ZM282.836 78.8457C282.288 78.2981 281.398 78.2998 280.849 78.8496C280.299 79.3993 280.297 80.2889 280.845 80.8366C281.392 81.3842 282.282 81.3825 282.832 80.8327C283.382 80.283 283.383 79.3934 282.836 78.8457Z" fill="#EA5455"/>
<path fill-rule="evenodd" clip-rule="evenodd" d="M295.734 88.0923C291.17 83.5287 286.208 81.0919 284.65 82.6496C283.092 84.2072 285.529 89.1694 290.093 93.733C294.656 98.2966 299.619 100.733 301.176 99.1758C302.734 97.6181 300.297 92.6559 295.734 88.0923ZM299.194 97.5255C299.286 97.6171 299.434 97.6171 299.526 97.5255C299.617 97.4339 299.617 97.2853 299.526 97.1937L286.637 84.3045C286.545 84.2129 286.396 84.2129 286.305 84.3045C286.213 84.3962 286.213 84.5447 286.305 84.6363L299.194 97.5255Z" fill="#EA5455"/>
<path fill-rule="evenodd" clip-rule="evenodd" d="M267.919 88.1489C263.337 92.7301 260.881 97.7018 262.433 99.2534C263.984 100.805 268.956 98.349 273.537 93.7678C278.119 89.1865 280.575 84.2148 279.023 82.6632C277.471 81.1116 272.5 83.5676 267.919 88.1489ZM277.363 84.6535C277.454 84.5623 277.454 84.4143 277.363 84.323C277.271 84.2317 277.123 84.2317 277.032 84.323L264.09 97.2647C263.999 97.3559 263.999 97.5039 264.09 97.5952C264.182 97.6865 264.33 97.6865 264.421 97.5952L277.363 84.6535Z" fill="#EA5455"/>
<path fill-rule="evenodd" clip-rule="evenodd" d="M273.589 65.9517C269.025 61.3881 264.063 58.9513 262.506 60.5089C260.948 62.0666 263.385 67.0288 267.948 71.5924C272.512 76.156 277.474 78.5928 279.032 77.0351C280.589 75.4775 278.153 70.5153 273.589 65.9517ZM277.049 75.3849C277.141 75.4765 277.29 75.4765 277.381 75.3849C277.473 75.2933 277.473 75.1447 277.381 75.0531L264.492 62.1639C264.4 62.0723 264.252 62.0723 264.16 62.1639C264.069 62.2555 264.069 62.4041 264.16 62.4957L277.049 75.3849Z" fill="#EA5455"/>
<path fill-rule="evenodd" clip-rule="evenodd" d="M290.149 65.9184C285.568 70.4997 283.112 75.4713 284.663 77.023C286.215 78.5746 291.187 76.1186 295.768 71.5373C300.349 66.956 302.805 61.9844 301.254 60.4327C299.702 58.8811 294.73 61.3371 290.149 65.9184ZM299.593 62.4231C299.684 62.3318 299.684 62.1838 299.593 62.0926C299.502 62.0013 299.354 62.0013 299.263 62.0925L286.321 75.0342C286.23 75.1255 286.23 75.2735 286.321 75.3647C286.412 75.456 286.56 75.456 286.651 75.3647L299.593 62.4231Z" fill="#EA5455"/>
<rect width="23.4169" height="0.234169" transform="matrix(-0.999998 0.00193319 0.00193319 -0.999998 276.329 80.0664)" fill="#EA5455"/>
<rect width="23.4169" height="0.234169" transform="matrix(-0.999998 0.00193319 0.00193319 -0.999998 310.77 80)" fill="#EA5455"/>
<rect width="23.4169" height="0.234169" transform="matrix(-0.00193319 0.999998 -0.999998 0.00193319 281.95 85.4492)" fill="#EA5455"/>
<rect width="23.4169" height="0.234169" transform="matrix(-0.00193319 0.999998 -0.999998 0.00193319 282.012 51.0078)" fill="#EA5455"/>
<path fill-rule="evenodd" clip-rule="evenodd" d="M203.183 -2.80073C202.087 -3.89599 200.308 -3.89255 199.209 -2.79305C198.109 -1.69355 198.106 0.0856584 199.201 1.18092C200.296 2.27618 202.075 2.27274 203.175 1.17324C204.274 0.0737329 204.278 -1.70547 203.183 -2.80073ZM202.187 -1.80662C201.64 -2.35425 200.75 -2.35253 200.2 -1.80278C199.651 -1.25302 199.649 -0.363421 200.196 0.184209C200.744 0.731839 201.634 0.730119 202.183 0.180368C202.733 -0.369384 202.735 -1.25899 202.187 -1.80662Z" fill="#EA5455"/>
<path fill-rule="evenodd" clip-rule="evenodd" d="M215.085 7.44388C210.522 2.8803 205.559 0.443489 204.002 2.00112C202.444 3.55875 204.881 8.52097 209.444 13.0846C214.008 17.6481 218.97 20.0849 220.528 18.5273C222.085 16.9697 219.649 12.0075 215.085 7.44388ZM218.546 16.8771C218.637 16.9687 218.786 16.9687 218.877 16.8771C218.969 16.7854 218.969 16.6369 218.877 16.5453L205.988 3.65611C205.897 3.56448 205.748 3.56448 205.656 3.65611C205.565 3.74773 205.565 3.89629 205.656 3.98791L218.546 16.8771Z" fill="#EA5455"/>
<path fill-rule="evenodd" clip-rule="evenodd" d="M187.266 7.49652C182.685 12.0778 180.229 17.0495 181.78 18.6011C183.332 20.1527 188.304 17.6967 192.885 13.1154C197.466 8.53416 199.922 3.56248 198.371 2.01086C196.819 0.45924 191.847 2.91525 187.266 7.49652ZM196.71 4.0012C196.801 3.90993 196.801 3.76195 196.71 3.67068C196.619 3.5794 196.471 3.5794 196.38 3.67067L183.438 16.6123C183.347 16.7036 183.347 16.8516 183.438 16.9429C183.529 17.0341 183.677 17.0341 183.769 16.9429L196.71 4.0012Z" fill="#EA5455"/>
<rect width="23.4169" height="0.234169" transform="matrix(-0.00193319 0.999998 -0.999998 0.00193319 201.301 4.79688)" fill="#EA5455"/>
</svg>
