<svg width="187" height="190" viewBox="0 0 187 190" fill="none" xmlns="http://www.w3.org/2000/svg">
<path d="M186.501 71.078H135.528C135.528 71.078 140.582 57.2734 148.36 57.2734C156.137 57.2734 158.573 66.8189 158.573 66.8189C158.573 66.8189 163.823 61.6462 168.119 61.6462C172.414 61.6462 176.178 68.4643 176.178 68.4643C176.178 68.4643 182.296 64.7871 186.501 71.078Z" fill="#EBEBEB"/>
<path d="M157.969 23.3835H134.15C134.15 23.3835 139.473 15.6562 143.664 15.6562C147.855 15.6562 149.114 20.8153 149.114 20.8153C149.114 20.8153 152.073 18.4153 154.819 18.8426C157.564 19.2699 157.969 23.3835 157.969 23.3835Z" fill="#EBEBEB"/>
<path d="M48.1089 121.923H24.2861C24.2861 121.923 29.6089 114.195 33.8043 114.195C37.9998 114.195 39.2589 119.336 39.2589 119.336C39.2589 119.336 42.2179 116.936 44.9589 117.364C47.6998 117.791 48.1089 121.923 48.1089 121.923Z" fill="#EBEBEB"/>
<path d="M47.2184 66.9655H0.818359C0.818359 66.9655 7.182 52.7791 13.9729 51.8928C20.7638 51.0064 24.0184 62.4337 24.0184 62.4337C24.0184 62.4337 28.4047 58.3928 31.8502 58.3928C35.2956 58.3928 37.9593 63.711 37.9593 63.711C37.9593 63.711 44.8547 60.07 47.2184 66.9655Z" fill="#EBEBEB"/>
<path d="M79.8324 31.8747H48.4688C48.4688 31.8747 53.8551 21.5974 59.696 21.4474C65.5369 21.2974 68.6051 29.2292 68.6051 29.2292C68.6051 29.2292 77.7097 21.9383 79.8324 31.8747Z" fill="#EBEBEB"/>
<path d="M154.445 130.14H123.082C123.082 130.14 128.486 119.849 134.327 119.713C140.168 119.576 143.236 127.49 143.236 127.49C143.236 127.49 152.322 120.199 154.445 130.14Z" fill="#EBEBEB"/>
<path d="M94.3761 189.239C126.8 189.239 153.085 186.421 153.085 182.944C153.085 179.467 126.8 176.648 94.3761 176.648C61.952 176.648 35.667 179.467 35.667 182.944C35.667 186.421 61.952 189.239 94.3761 189.239Z" fill="#EBEBEB"/>
<path d="M60.5212 157.772C58.2485 157.854 55.7076 157.982 53.8212 156.504C52.0803 155.141 50.5303 153.113 50.7576 150.781C50.8258 150.118 50.9758 149.704 51.6667 149.991C52.753 150.422 53.5894 151.618 54.3394 152.459C55.2961 153.554 56.3538 154.557 57.4985 155.454C58.3076 156.077 59.1803 156.613 60.0076 157.213C60.1121 157.286 60.2167 157.363 60.3167 157.445L60.4349 157.532H60.4985C60.5172 157.532 60.5355 157.537 60.552 157.545C60.5686 157.554 60.5829 157.566 60.594 157.582C60.5959 157.595 60.5959 157.609 60.594 157.622C60.6041 157.652 60.6022 157.684 60.5885 157.712C60.5749 157.741 60.5507 157.762 60.5212 157.772Z" fill="#37474F"/>
<path d="M60.6309 157.627C58.6309 157.59 56.4718 157.681 54.8718 156.322C54.1351 155.668 53.5075 154.901 53.0127 154.049C52.7855 153.672 52.1036 152.549 52.3764 152.104C52.8991 151.295 55.2809 154.59 55.6127 154.904C56.8574 156.044 58.3767 156.841 60.0218 157.218C60.1264 157.29 60.2309 157.368 60.3309 157.449C59.1623 157.209 58.0413 156.777 57.0127 156.172C55.5946 155.327 54.8037 154.072 53.69 152.904C53.4537 152.649 52.7264 151.799 52.4537 152.331C52.2764 152.681 52.9446 153.777 53.09 154.013C53.5641 154.812 54.1556 155.535 54.8446 156.159C56.44 157.554 58.59 157.522 60.6082 157.586C60.6179 157.598 60.6256 157.612 60.6309 157.627Z" fill="white"/>
<path d="M61.7762 159.164L61.7217 159.428C61.7196 159.438 61.7148 159.448 61.7075 159.456C61.7003 159.464 61.6911 159.47 61.6807 159.473C61.6589 159.481 61.6348 159.481 61.613 159.473C61.5913 159.465 61.5733 159.449 61.5626 159.428C61.5582 159.419 61.5559 159.41 61.5559 159.401C61.5559 159.391 61.5582 159.382 61.5626 159.373C61.561 159.361 61.561 159.349 61.5626 159.337L61.5898 159.26C61.5898 159.26 61.5898 159.26 61.5898 159.232C61.1853 157.728 61.0307 156.16 60.6035 154.655C60.1762 153.151 59.6944 151.805 59.4035 150.337C59.2171 149.428 58.5762 144.769 60.6217 145.337C61.5308 145.596 62.1489 146.91 62.4944 147.691C62.9413 148.75 63.1968 149.88 63.2489 151.028C63.3853 153.873 62.3489 156.451 61.7762 159.164Z" fill="#37474F"/>
<path d="M62.4306 153.377C62.4698 152.316 62.3597 151.256 62.1033 150.227C62.0124 149.872 61.5669 148.163 60.9897 148.204C60.6124 148.231 60.5351 148.967 60.5351 149.213C60.4078 150.245 60.7397 151.299 60.9442 152.304C61.3436 154.351 61.5943 156.425 61.6942 158.508C61.6942 158.636 61.6533 158.772 61.6397 158.904C61.626 159.036 61.6124 159.122 61.5987 159.231V159.345C61.5963 159.374 61.5963 159.402 61.5987 159.431C61.6095 159.452 61.6274 159.468 61.6492 159.476C61.671 159.485 61.6951 159.485 61.7169 159.477C61.7169 159.395 61.7397 159.308 61.7533 159.222C61.7533 159.295 61.7533 159.363 61.7533 159.431L61.7942 159.213V159.163C61.7942 159.049 61.7942 158.931 61.7942 158.817C62.1148 157.018 62.3273 155.201 62.4306 153.377ZM61.7397 158.067C61.6821 156.855 61.5654 155.643 61.3897 154.431C61.2533 153.458 61.0669 152.495 60.8624 151.536C60.7308 150.997 60.6441 150.448 60.6033 149.895C60.6033 149.467 60.6442 147.904 61.4533 148.872C62.0351 149.581 62.176 151.077 62.2487 151.945C62.3177 152.905 62.2979 153.87 62.1897 154.827C62.0806 155.908 61.9033 156.986 61.7397 158.067Z" fill="white"/>
<path d="M62.9987 165.408C62.9717 165.414 62.9439 165.414 62.9169 165.408C60.8351 165.304 58.0624 165.499 56.3306 164.122C55.0533 163.108 53.7988 161.099 54.1987 159.39C54.6533 157.472 57.2578 159.776 57.9442 160.331C59.7353 161.894 61.438 163.556 63.0442 165.308C63.0442 165.308 63.0442 165.331 63.0715 165.345C63.0897 165.381 63.0487 165.399 62.9987 165.408Z" fill="#37474F"/>
<path d="M63.0715 165.35L62.7124 165.123C61.3488 164.263 60.0124 163.341 58.7306 162.359C58.4033 162.109 56.0624 160.027 55.7079 160.768C55.4988 161.223 56.2715 162.132 56.5169 162.45C56.9623 163.004 57.4969 163.48 58.0988 163.859C59.4624 164.727 61.1669 164.913 62.7397 165.327C62.8135 165.343 62.8863 165.362 62.9579 165.386L62.9988 165.409C63.0488 165.4 63.0897 165.382 63.0715 165.35ZM58.9579 164.163C58.287 163.866 57.6721 163.455 57.1397 162.95C56.7942 162.618 55.5624 161.373 55.8897 160.863C56.0624 160.591 56.2079 160.736 56.5397 160.895C56.6897 160.973 56.8397 161.059 56.9942 161.15C57.3442 161.382 57.6624 161.65 57.9897 161.904C58.5579 162.359 59.1397 162.813 59.7306 163.236C60.6988 163.941 61.6942 164.6 62.7079 165.236C61.4624 164.854 60.1442 164.7 58.9579 164.163Z" fill="white"/>
<path d="M66.8034 161.117C66.2597 163.501 65.0174 165.67 63.2352 167.344C63.2258 167.355 63.2131 167.363 63.1988 167.367C63.1792 167.374 63.1577 167.375 63.1378 167.368C63.1179 167.362 63.1009 167.348 63.0897 167.331C63.0753 167.313 63.0674 167.292 63.0674 167.269C63.0674 167.247 63.0753 167.225 63.0897 167.208L63.2034 167.121C63.5443 164.294 63.9261 161.481 64.217 158.644C64.2852 157.976 64.8079 153.717 66.117 154.412C66.9215 154.84 66.9761 156.585 67.0488 157.367C67.1566 158.622 67.0738 159.886 66.8034 161.117Z" fill="#37474F"/>
<path d="M66.0488 157.33C65.976 157.094 65.8533 156.848 65.5942 157.016C65.0851 157.33 64.8851 159.335 64.7988 159.885C64.4488 162.157 63.8897 164.362 63.3579 166.598L63.2215 167.166L63.0942 167.335C63.1046 167.352 63.1208 167.365 63.1399 167.372C63.159 167.378 63.1799 167.378 63.1988 167.371C63.2014 167.353 63.2014 167.335 63.1988 167.316C63.2579 167.244 63.317 167.166 63.3715 167.089C64.2624 165.867 64.9571 164.512 65.4306 163.076C65.7291 162.166 65.9318 161.227 66.0351 160.276C66.1488 159.398 66.3124 158.185 66.0488 157.33ZM63.3761 166.93C63.3761 166.971 63.3215 167.007 63.2988 167.044C63.2988 166.966 63.3488 166.894 63.367 166.816C63.9063 165.115 64.333 163.379 64.6442 161.621C64.7942 160.712 64.8897 159.83 65.0715 158.944C65.1488 158.571 65.3351 157.503 65.6442 157.33C65.9533 157.157 65.9488 157.571 65.9806 157.812C66.0124 158.053 65.9806 158.298 65.9806 158.462C66.0298 161.489 65.118 164.454 63.3761 166.93Z" fill="white"/>
<path d="M63.5802 173.451H63.162C63.162 173.083 63.162 172.715 63.162 172.351C63.112 170.874 63.0529 169.397 62.9666 167.919C62.9166 167.074 62.8575 166.237 62.7666 165.41C62.7643 165.381 62.7643 165.353 62.7666 165.324C62.7666 165.26 62.7666 165.192 62.7393 165.119C62.712 165.047 62.7393 164.974 62.712 164.901C62.5232 163.027 62.0416 161.194 61.2847 159.469C61.0166 158.892 60.7302 158.333 60.4256 157.774L60.3393 157.615L60.312 157.574C60.2847 157.519 60.2529 157.465 60.2211 157.41C60.1893 157.356 60.1756 157.328 60.1484 157.283C59.1893 155.592 58.0847 153.974 57.0438 152.342C56.7438 151.887 56.4438 151.406 56.1347 150.937C56.1154 150.91 56.0987 150.881 56.0847 150.851C56.0594 150.82 56.0366 150.786 56.0166 150.751C54.7029 148.678 53.412 146.592 52.0484 144.56C51.9984 144.487 52.1211 144.419 52.1711 144.492C53.0802 145.856 54.0438 147.165 54.9893 148.501L55.3665 149.033C55.6165 149.387 55.8665 149.733 56.112 150.087C56.6029 150.792 57.0938 151.497 57.5666 152.215C58.964 154.202 60.2391 156.272 61.3847 158.415C61.4666 158.574 61.5438 158.737 61.6211 158.906C61.6711 159.006 61.7211 159.11 61.762 159.21C61.8029 159.31 61.8711 159.447 61.9257 159.569C62.7743 161.655 63.2482 163.874 63.3257 166.124C63.3257 166.278 63.3257 166.437 63.3529 166.578C63.3529 166.647 63.3529 166.719 63.3529 166.797C63.3507 166.834 63.3507 166.872 63.3529 166.91C63.3529 166.96 63.3529 167.01 63.3529 167.065V167.174C63.3529 167.31 63.3529 167.442 63.3529 167.583C63.412 169.06 63.4529 170.537 63.4847 172.01C63.5438 172.506 63.562 172.978 63.5802 173.451Z" fill="#37474F"/>
<path d="M51.1577 146.671C50.0213 145.139 48.5577 141.98 50.2486 140.335C50.5541 140.018 50.9655 139.826 51.4042 139.794C51.8428 139.762 52.2778 139.893 52.6258 140.162C53.5349 140.803 53.9122 142.016 54.1986 143.016C54.9713 145.698 55.4804 148.43 56.4395 151.057C56.4798 151.149 56.5147 151.243 56.544 151.339C56.544 151.394 56.4758 151.416 56.4577 151.362L56.3622 151.107C54.5395 149.789 52.5077 148.489 51.1577 146.671Z" fill="#37474F"/>
<path d="M56.4487 151.059C56.4487 151.059 56.4487 151.027 56.4168 151.013C56.0241 150.374 55.6689 149.712 55.3532 149.031C54.719 147.602 54.1726 146.136 53.7168 144.64C53.535 144.068 52.7169 141.254 51.7078 142.368C51.285 142.822 51.3441 143.677 51.4123 144.259C51.5273 145.187 51.8255 146.083 52.2896 146.895C53.1987 148.522 54.5941 149.754 56.0714 150.845C56.135 150.899 56.2032 150.949 56.2714 150.999L56.3123 151.068L56.3396 151.113C56.3449 151.124 56.353 151.132 56.363 151.139C56.3731 151.145 56.3846 151.148 56.3964 151.148C56.4082 151.148 56.4197 151.145 56.4297 151.139C56.4398 151.132 56.4479 151.124 56.4532 151.113C56.4578 151.105 56.4599 151.095 56.4591 151.085C56.4582 151.075 56.4546 151.066 56.4487 151.059ZM55.9941 150.749C54.7678 149.845 53.6858 148.76 52.785 147.531C52.334 146.876 51.9832 146.158 51.7441 145.399C51.6384 145.063 51.5624 144.718 51.5168 144.368C51.4791 144.106 51.4639 143.841 51.4714 143.577C51.4714 142.999 51.7305 142.368 52.0714 142.309C52.4941 142.231 52.635 142.477 52.9123 142.963C53.0065 143.127 53.09 143.297 53.1623 143.472C53.338 143.908 53.4897 144.352 53.6168 144.804C53.8532 145.549 54.0941 146.29 54.3623 147.022C54.5441 147.522 54.735 148.013 54.9487 148.499C55.3088 149.336 55.7265 150.147 56.1987 150.927L55.9941 150.749Z" fill="white"/>
<path d="M126.99 150.96C126.803 152.478 126.512 153.978 126.203 155.478C126.03 156.328 125.849 157.174 125.676 158.028C125.485 158.964 125.221 159.919 125.462 160.864C125.467 160.908 125.467 160.952 125.462 160.996C125.45 161.012 125.433 161.024 125.414 161.031C125.395 161.039 125.375 161.041 125.355 161.037C125.335 161.034 125.317 161.026 125.301 161.013C125.286 161 125.274 160.983 125.267 160.964C125.265 160.943 125.265 160.922 125.267 160.901C125.125 160.654 125.015 160.389 124.94 160.114C124.045 157.926 123.539 155.599 123.444 153.237C123.408 151.816 123.561 150.396 123.899 149.014C124.171 147.914 124.553 146.287 125.376 145.424C126.121 144.66 126.74 145.878 126.958 146.501C127.399 147.901 127.167 149.519 126.99 150.96Z" fill="#37474F"/>
<path d="M135.712 155.15C134.694 157.136 132.985 158.655 131.212 159.955C130.262 160.65 129.285 161.318 128.321 161.977C127.427 162.532 126.591 163.176 125.826 163.9C125.792 163.933 125.76 163.968 125.73 164.005C125.531 164.222 125.358 164.462 125.212 164.718C125.207 164.726 125.199 164.733 125.191 164.738C125.182 164.743 125.172 164.745 125.162 164.746C125.154 164.777 125.143 164.807 125.13 164.836H125.09V164.736C125.081 164.726 125.076 164.714 125.076 164.7C125.076 164.687 125.081 164.674 125.09 164.664C125.087 164.653 125.087 164.642 125.09 164.632C125.087 164.599 125.087 164.565 125.09 164.532C125.376 162.214 126.999 159.873 128.371 158.086C129.744 156.3 131.43 154.723 133.549 153.909C134.08 153.705 135.29 153.141 135.821 153.573C136.353 154.005 135.93 154.732 135.712 155.15Z" fill="#37474F"/>
<path d="M134.139 155.16C133.657 154.679 132.235 155.869 131.866 156.151C130.805 157.017 129.821 157.974 128.926 159.01C127.395 160.62 126.128 162.461 125.171 164.465L125.121 164.529C125.117 164.562 125.117 164.595 125.121 164.629C125.117 164.639 125.117 164.65 125.121 164.66C125.112 164.671 125.108 164.685 125.108 164.699C125.108 164.713 125.112 164.727 125.121 164.738C125.148 164.71 125.166 164.679 125.194 164.656C125.371 164.438 125.557 164.224 125.748 164.015L125.844 163.915C127.225 162.527 128.693 161.229 130.239 160.029C131.303 159.173 132.284 158.221 133.171 157.183C133.376 156.901 134.566 155.569 134.139 155.16ZM133.685 156.224C132.485 158.215 130.407 159.669 128.644 161.119C127.428 162.07 126.306 163.136 125.294 164.301C126.231 162.519 127.404 160.871 128.78 159.401C129.529 158.537 130.325 157.716 131.166 156.942C131.621 156.521 132.105 156.133 132.616 155.783C132.923 155.57 133.253 155.392 133.598 155.251C134.271 155.06 133.898 155.883 133.694 156.219L133.685 156.224Z" fill="white"/>
<path d="M124.889 169.438C124.878 169.455 124.862 169.468 124.844 169.478C124.826 169.487 124.805 169.492 124.785 169.492L124.812 169.529C124.818 169.535 124.822 169.544 124.822 169.554C124.822 169.563 124.818 169.572 124.812 169.579C124.81 169.582 124.806 169.585 124.802 169.588C124.798 169.59 124.794 169.591 124.789 169.591C124.785 169.591 124.78 169.59 124.776 169.588C124.772 169.585 124.769 169.582 124.767 169.579C122.885 167.67 121.076 165.342 120.139 162.81C119.735 161.742 119.508 160.615 119.467 159.474C119.444 158.697 119.403 157.124 120.071 156.556C121.435 155.415 122.639 160.26 122.821 160.992C123.153 162.324 123.376 163.683 123.68 165.02C124.017 166.483 124.462 167.924 124.898 169.36C124.903 169.373 124.904 169.387 124.903 169.4C124.901 169.413 124.896 169.426 124.889 169.438Z" fill="#37474F"/>
<path d="M124.889 169.434C124.816 169.311 124.744 169.189 124.675 169.061C123.54 167.027 122.724 164.83 122.257 162.548C122.051 161.395 121.747 160.262 121.348 159.161C121.239 158.893 120.894 157.857 120.462 158.38C120.23 158.652 120.421 160.611 120.516 161.107C120.74 162.256 121.105 163.374 121.603 164.434C122.418 166.222 123.453 167.902 124.685 169.434C124.721 169.48 124.753 169.525 124.789 169.566C124.795 169.559 124.799 169.55 124.799 169.541C124.799 169.532 124.795 169.523 124.789 169.516L124.762 169.484C124.786 169.489 124.81 169.487 124.833 169.478C124.855 169.469 124.875 169.454 124.889 169.434ZM122.162 165.27C121.619 164.242 121.186 163.158 120.871 162.039C120.747 161.591 120.653 161.135 120.589 160.675C120.532 160.317 120.501 159.956 120.498 159.593C120.498 158.707 120.575 158.48 120.721 158.448C120.866 158.416 120.939 158.525 121.203 159.052C121.362 159.399 121.488 159.759 121.58 160.13C121.716 160.652 121.835 161.175 121.948 161.707C122.18 162.761 122.403 163.82 122.703 164.857C123.134 166.345 123.761 167.77 124.566 169.093C123.659 167.889 122.854 166.61 122.162 165.27Z" fill="white"/>
<path d="M130.93 164.791C130.707 165.724 130.287 166.598 129.699 167.355C128.58 168.896 127.158 170.173 125.939 171.632C125.758 171.85 125.576 172.087 125.408 172.296C125.408 172.323 125.249 172.646 125.249 172.619C125.249 172.591 125.249 172.491 125.312 172.282C125.508 171.26 126.149 168.191 126.949 166.605C127.427 165.607 128.025 164.671 128.73 163.819C129.076 163.428 129.885 162.582 130.494 162.769C131.103 162.955 131.012 164.3 130.93 164.791Z" fill="#37474F"/>
<path d="M129.922 164.17C129.272 163.766 127.59 166.77 127.363 167.157C126.526 168.595 125.881 170.137 125.444 171.743C125.39 171.92 125.344 172.102 125.299 172.284C125.254 172.466 125.235 172.611 125.235 172.62C125.235 172.629 125.376 172.325 125.394 172.297L125.481 172.184C125.626 171.993 125.776 171.811 125.935 171.634C126.667 170.543 127.417 169.457 128.126 168.347C128.649 167.553 129.105 166.717 129.49 165.847C129.567 165.652 130.208 164.347 129.922 164.17ZM129.735 165.016C128.826 167.629 126.913 169.693 125.467 172.011L125.399 172.125C125.399 172.057 125.435 171.988 125.458 171.92C125.849 170.603 126.362 169.325 126.99 168.102C127.379 167.36 127.811 166.642 128.285 165.952C128.527 165.562 128.794 165.188 129.085 164.834C129.222 164.684 129.608 164.293 129.735 164.379C129.863 164.466 129.794 164.857 129.735 165.016Z" fill="white"/>
<path d="M137.467 143.215C135.531 147.669 130.44 149.747 128.235 154.042V154.065C128.167 154.192 128.103 154.328 128.04 154.46C128.034 154.474 128.025 154.486 128.013 154.495C128.002 154.504 127.988 154.51 127.973 154.512C127.959 154.515 127.944 154.513 127.93 154.508C127.916 154.503 127.904 154.494 127.894 154.483C127.886 154.473 127.882 154.46 127.882 154.447C127.882 154.433 127.886 154.421 127.894 154.41C127.908 154.378 127.923 154.346 127.94 154.315C128.377 151.573 129.301 148.932 130.667 146.515C131.781 144.46 133.308 142.542 135.422 141.46C135.944 141.192 136.958 140.628 137.54 141.069C138.122 141.51 137.708 142.665 137.467 143.215Z" fill="#37474F"/>
<path d="M135.721 143.405C135.476 143.223 135.103 143.446 134.889 143.555C134.361 143.829 133.868 144.167 133.421 144.559C132.504 145.368 131.712 146.309 131.071 147.35C129.923 149.098 128.995 150.98 128.308 152.955C128.158 153.409 128.03 153.864 127.921 154.319C127.921 154.378 127.898 154.432 127.885 154.487C127.893 154.499 127.903 154.509 127.916 154.516C127.929 154.523 127.943 154.527 127.957 154.527C127.972 154.527 127.986 154.523 127.999 154.516C128.012 154.509 128.022 154.499 128.03 154.487C128.089 154.35 128.153 154.228 128.217 154.096V154.064C128.586 153.174 129.043 152.323 129.58 151.523C130.482 150.297 131.465 149.133 132.521 148.037C132.917 147.619 136.576 144.032 135.721 143.405ZM135.412 144.437C134.826 145.482 133.907 146.337 133.112 147.228C132.317 148.119 131.494 149.014 130.703 149.928C130.074 150.65 129.506 151.424 129.007 152.241C128.589 152.923 128.233 153.641 127.944 154.387C128.15 153.629 128.403 152.885 128.703 152.159C128.703 152.159 128.703 152.159 128.703 152.132C129.251 150.845 129.879 149.594 130.585 148.387L130.607 148.341C131.2 147.26 131.92 146.254 132.753 145.346C133.212 144.857 133.725 144.421 134.28 144.046C134.921 143.637 135.476 143.369 135.644 143.591C135.812 143.814 135.589 144.128 135.412 144.437Z" fill="white"/>
<path d="M130.694 148.433C130.112 149.688 129.558 150.965 129.008 152.238C128.744 152.838 128.49 153.438 128.235 154.056V154.088C128.144 154.306 128.049 154.542 127.953 154.738C127.117 156.692 126.19 158.692 125.68 160.765C125.425 161.864 125.273 162.984 125.226 164.111C125.226 164.229 125.226 164.347 125.226 164.461C125.226 164.524 125.226 164.588 125.226 164.651C125.224 164.686 125.224 164.721 125.226 164.756C125.19 165.733 125.203 166.715 125.226 167.67C125.253 168.997 125.362 170.315 125.49 171.633C125.485 171.673 125.485 171.712 125.49 171.751C125.49 171.811 125.49 171.87 125.49 171.929C125.49 171.988 125.49 171.988 125.49 172.02V172.192C125.535 172.615 125.571 173.038 125.608 173.465H125.203C124.941 172.172 124.777 170.86 124.712 169.542C124.71 169.515 124.71 169.488 124.712 169.461C124.712 169.333 124.712 169.201 124.69 169.074C124.667 168.947 124.69 168.761 124.69 168.62C124.69 168.238 124.662 167.861 124.658 167.488C124.549 165.288 124.702 163.083 125.112 160.92L125.153 160.742C125.153 160.72 125.153 160.692 125.153 160.67C125.161 160.627 125.172 160.584 125.185 160.542L125.235 160.342C125.267 160.22 125.303 160.101 125.34 159.983C125.348 159.948 125.359 159.913 125.371 159.879C125.991 158.026 126.738 156.219 127.608 154.47C127.758 154.147 127.908 153.833 128.062 153.515L128.317 152.983L128.712 152.188C128.712 152.188 128.712 152.188 128.712 152.161C129.335 150.911 129.98 149.67 130.594 148.415C130.626 148.329 130.726 148.374 130.694 148.433Z" fill="#37474F"/>
<path d="M53.4806 173.329H25.0215C25.0215 173.329 25.0851 169.092 27.8851 167.965C28.6442 167.634 29.4903 167.56 30.2956 167.752C31.1009 167.945 31.8216 168.395 32.3488 169.033C32.3488 169.033 33.4897 161.242 38.7124 161.242C43.9351 161.242 46.4397 167.965 46.4397 167.965C46.4397 167.965 47.6078 165.933 50.5033 166.31C53.3988 166.688 53.4806 173.329 53.4806 173.329Z" fill="#37474F"/>
<path d="M183.467 173.332C183.467 173.332 182.594 169.241 180.853 168.632C179.112 168.023 178.049 169.832 178.049 169.832C178.049 169.832 177.635 165.941 175.162 164.773C172.69 163.605 170.835 165.996 170.835 165.996C170.835 165.996 168.94 161.055 165.553 161.055C162.167 161.055 160.476 168.282 160.476 168.282C160.476 168.282 158.476 166.127 156.426 167.346C154.376 168.564 154.376 173.332 154.376 173.332H183.467Z" fill="#37474F"/>
<path d="M30.1077 173.332H3.84863C3.84863 173.332 4.71227 169.632 6.45318 169.368C8.19409 169.104 9.00318 170.823 9.00318 170.823C9.00318 170.823 8.92591 165.659 12.185 164.777C15.4441 163.895 18.1668 168.463 18.1668 168.463C18.1668 168.463 20.2032 165.859 22.985 166.027C25.7668 166.195 26.4668 170.491 26.4668 170.491C26.4668 170.491 28.9896 169 30.1077 173.332Z" fill="#455A64"/>
<path d="M156.235 173.33H140.104C140.104 173.33 140.14 170.93 141.726 170.293C142.156 170.105 142.635 170.062 143.092 170.171C143.548 170.28 143.956 170.535 144.254 170.898C144.254 170.898 144.899 166.484 147.858 166.484C150.817 166.484 152.226 170.293 152.226 170.293C152.477 169.929 152.829 169.647 153.238 169.479C153.648 169.312 154.097 169.268 154.531 169.353C156.172 169.571 156.235 173.33 156.235 173.33Z" fill="#455A64"/>
<path d="M0.818359 173.446L24.032 173.332L47.2411 173.296L93.6593 173.219L140.077 173.291L163.291 173.332L186.5 173.446L163.291 173.555L140.077 173.596L93.6593 173.673L47.2411 173.596L24.032 173.555L0.818359 173.446Z" fill="#263238"/>
<path d="M63.7827 57.28C63.7827 61.6346 63.7827 82.4209 83.3282 85.8073C83.3282 85.8073 83.6463 88.0028 84.2691 91.4346C85.0145 95.5982 86.2054 101.58 87.7827 107.666C87.7801 107.68 87.7801 107.694 87.7827 107.707C88.3282 109.803 88.9191 111.907 89.5554 113.953C89.5529 113.968 89.5529 113.983 89.5554 113.998C89.6191 114.194 89.6782 114.385 89.7373 114.575C90.982 118.477 91.9988 122.447 92.7827 126.466C98.7918 157.557 85.9873 173.453 85.9873 173.453H112.901C112.901 173.453 119.569 144.362 105.415 115.166C102.81 109.762 113.233 105.366 117.81 95.3073C121.669 86.7891 121.555 44.8937 119.683 42.1937C117.81 39.4937 114.819 40.1664 114.819 43.8846C114.819 47.6028 114.819 82.3891 112.196 89.1437C109.574 95.8982 98.3872 104.007 98.3872 104.007C98.3872 104.007 92.6373 94.5982 89.4145 74.0073C87.9054 64.3164 86.9509 52.1573 87.4145 37.3346C87.5115 34.1982 87.6766 30.9437 87.91 27.5709C88.1782 23.7028 84.16 25.3982 82.8236 28.7846C81.4873 32.1709 79.6054 51.7482 82.2827 78.0982C82.2827 78.0982 68.8873 76.2118 68.8873 55.13C68.8691 51.2164 63.7827 52.9255 63.7827 57.28Z" fill="url(#paint0_radial_16745_51588)"/>
<path opacity="0.5" d="M63.7827 57.28C63.7827 61.6346 63.7827 82.4209 83.3282 85.8073C83.3282 85.8073 83.6463 88.0028 84.2691 91.4346C85.0145 95.5982 86.2054 101.58 87.7827 107.666C87.7801 107.68 87.7801 107.694 87.7827 107.707C88.3282 109.803 88.9191 111.907 89.5554 113.953C89.5529 113.968 89.5529 113.983 89.5554 113.998C89.6191 114.194 89.6782 114.385 89.7373 114.575C90.982 118.477 91.9988 122.447 92.7827 126.466C98.7918 157.557 85.9873 173.453 85.9873 173.453H112.901C112.901 173.453 119.569 144.362 105.415 115.166C102.81 109.762 113.233 105.366 117.81 95.3073C121.669 86.7891 121.555 44.8937 119.683 42.1937C117.81 39.4937 114.819 40.1664 114.819 43.8846C114.819 47.6028 114.819 82.3891 112.196 89.1437C109.574 95.8982 98.3872 104.007 98.3872 104.007C98.3872 104.007 92.6373 94.5982 89.4145 74.0073C87.9054 64.3164 86.9509 52.1573 87.4145 37.3346C87.5115 34.1982 87.6766 30.9437 87.91 27.5709C88.1782 23.7028 84.16 25.3982 82.8236 28.7846C81.4873 32.1709 79.6054 51.7482 82.2827 78.0982C82.2827 78.0982 68.8873 76.2118 68.8873 55.13C68.8691 51.2164 63.7827 52.9255 63.7827 57.28Z" fill="#283138"/>
<g opacity="0.1">
<path opacity="0.1" d="M99.5828 114.879C101.128 120.142 103.242 125.27 104.774 130.552C106.346 135.858 107.504 141.279 108.237 146.765C108.922 152.039 109.098 157.367 108.765 162.674C108.528 166.311 107.696 169.87 107.065 173.452H109.515C112.424 165.115 112.033 155.724 110.533 147.311C109.482 141.79 108.042 136.351 106.224 131.033C104.405 125.579 102.696 119.988 100.396 114.67C100.201 114.229 99.4418 114.397 99.5828 114.879Z" fill="#283138"/>
<path opacity="0.1" d="M88.7558 83.4931C89.833 94.6021 94.7512 105.388 98.274 115.993C101.798 126.658 103.235 137.903 102.506 149.111C102.506 149.375 102.051 149.379 102.051 149.111C101.942 143.043 101.838 136.934 100.588 130.952C99.4558 125.548 97.6694 120.243 95.8785 114.993C94.1149 109.843 92.1603 104.734 90.7103 99.5021C89.2865 94.2758 88.457 88.9054 88.2376 83.4931C88.2239 83.1749 88.7194 83.184 88.7558 83.4931Z" fill="#283138"/>
<path opacity="0.1" d="M88.8057 173.454H91.5329C92.2875 171.936 92.9647 170.395 93.6057 168.908C95.5126 164.494 96.9227 159.88 97.8102 155.154C99.5602 145.886 99.1738 136.695 97.0557 127.508C96.992 127.245 96.5784 127.363 96.6011 127.613C98.1966 136.736 97.7238 146.349 95.6193 155.368C94.5862 159.815 93.1609 164.163 91.3602 168.358C90.5951 170.099 89.7425 171.8 88.8057 173.454Z" fill="#283138"/>
<path opacity="0.1" d="M98.8874 161.471C99.5102 159.425 99.8874 156.925 100.942 155.011C101.126 154.65 101.399 154.341 101.736 154.114C102.072 153.886 102.46 153.748 102.865 153.711C102.925 153.692 102.988 153.684 103.051 153.689C103.146 153.693 103.24 153.706 103.333 153.725C103.504 153.747 103.673 153.785 103.837 153.839C104.169 153.952 104.542 154.18 104.601 154.53C104.601 154.53 104.601 154.566 104.601 154.584C105.797 156.289 105.356 159.934 105.187 161.275C104.933 163.366 104.306 168.848 100.669 168.357C97.1465 167.88 98.2874 163.452 98.8874 161.471Z" fill="#283138"/>
<path opacity="0.1" d="M84.2788 91.4375C85.0243 95.6011 86.2152 101.583 87.7924 107.669C87.7899 107.683 87.7899 107.697 87.7924 107.71C87.9924 108.406 88.2015 109.074 88.4061 109.788C88.8243 111.178 89.2152 112.565 89.5652 113.956C89.5626 113.971 89.5626 113.986 89.5652 114.001C89.6288 114.197 89.6879 114.388 89.747 114.578C90.9917 118.48 92.0086 122.45 92.7924 126.469C93.4106 121.251 92.4152 116.069 90.8788 110.869C88.9561 104.292 86.7697 97.842 84.2788 91.4375Z" fill="#283138"/>
<path opacity="0.1" d="M117.151 78.0093C117.142 77.6265 117.231 77.2477 117.41 76.9093C117.506 76.7728 117.638 76.6653 117.791 76.5988C117.944 76.5322 118.113 76.5091 118.278 76.532C118.439 76.5497 118.592 76.6118 118.72 76.7113C118.847 76.8109 118.945 76.9439 119.001 77.0957C119.017 77.1321 119.03 77.1702 119.037 77.2093C119.1 77.2821 119.142 77.3698 119.16 77.4639C119.187 77.6309 119.187 77.8013 119.16 77.9684C119.257 78.1869 119.28 78.4315 119.224 78.6641C119.168 78.8966 119.037 79.1043 118.851 79.2548C118.746 79.3437 118.624 79.4101 118.493 79.4497C118.361 79.4894 118.223 79.5015 118.086 79.4853C117.95 79.4691 117.818 79.4249 117.699 79.3555C117.581 79.2861 117.478 79.193 117.397 79.082C117.283 78.9301 117.203 78.7562 117.161 78.5715C117.119 78.3868 117.115 78.1954 117.151 78.0093Z" fill="#283138"/>
<path opacity="0.1" d="M101.901 105.207C108.265 98.434 115.701 90.4931 115.679 81.1158C115.679 80.8795 116.042 80.8977 116.074 81.1158C117.51 91.4249 110.201 99.0749 102.438 105.702C102.092 106.007 101.601 105.543 101.901 105.207Z" fill="#283138"/>
<path opacity="0.1" d="M102.883 109.746C103.197 108.06 104.656 106.614 105.888 105.382C107.551 103.723 109.351 102.201 110.765 100.355C110.951 100.114 111.374 100.328 111.22 100.591C110.148 102.245 108.913 103.786 107.533 105.191C106.092 106.741 104.92 108.546 103.406 110.019C103.359 110.065 103.299 110.096 103.234 110.106C103.169 110.115 103.103 110.104 103.045 110.074C102.986 110.044 102.939 109.995 102.91 109.936C102.881 109.877 102.872 109.811 102.883 109.746Z" fill="#283138"/>
<path opacity="0.1" d="M118.565 48.1972C118.565 48.0108 118.856 48.0245 118.879 48.1972C120.097 56.4336 120.297 65.229 118.615 73.4336C118.565 73.6972 118.111 73.629 118.111 73.3699C118.111 64.9927 118.556 56.5881 118.565 48.1972Z" fill="#283138"/>
<path opacity="0.1" d="M116.579 60.9384C116.579 60.8747 116.693 60.8747 116.693 60.9384C116.738 66.3929 116.743 72.2656 115.411 77.5884C115.333 77.902 114.788 77.8338 114.793 77.5156C114.838 72.0338 115.915 66.3884 116.579 60.9384Z" fill="#283138"/>
<path opacity="0.1" d="M68.4283 69.5597C69.792 73.1688 71.3238 76.4097 74.5465 79.0233C76.0377 80.2415 77.6708 81.2748 79.4102 82.1006C81.1011 82.8915 82.9965 83.2551 84.6511 84.0824C84.8965 84.2051 84.7556 84.4915 84.5193 84.537C80.5602 84.9597 76.0283 82.0597 73.4556 79.5915C70.6693 76.9188 68.1693 73.3915 67.8965 69.6415C67.8783 69.337 68.3329 69.3097 68.4283 69.5597Z" fill="#283138"/>
<path opacity="0.1" d="M67.8377 61.3966C68.6423 68.1284 72.5923 73.8148 77.7559 78.5284C77.9014 78.6602 77.7105 78.8966 77.5286 78.7921C71.0968 74.9375 67.9468 68.1557 67.715 61.3966C67.7104 61.3239 67.8105 61.3284 67.8377 61.3966Z" fill="#283138"/>
<path opacity="0.1" d="M83.0241 46.6753C83.0468 46.4253 83.4786 46.4162 83.4786 46.6753C83.1832 61.6344 86.4059 76.3344 87.665 91.2207C87.665 91.4707 87.2104 91.5298 87.1786 91.2798C85.7241 84.0071 84.6059 76.5889 83.6968 69.2208C82.7604 61.7071 82.2604 54.1844 83.0241 46.6753Z" fill="#283138"/>
<path opacity="0.1" d="M85.0512 55.3567C85.4872 61.7622 86.9546 68.0553 89.3967 73.993C87.8876 64.3021 86.9331 52.143 87.3967 37.3203C86.6994 39.3852 86.1346 41.4925 85.7058 43.6294C84.9913 47.4949 84.7714 51.4356 85.0512 55.3567Z" fill="#283138"/>
<path opacity="0.1" d="M83.197 38.4044C83.4197 37.0726 84.0515 35.8499 84.3333 34.5317C84.3924 34.2544 84.9106 34.2453 84.9606 34.5317C85.1652 35.6817 84.7652 36.6453 84.4379 37.7544C83.9833 39.3135 83.8788 40.9044 83.6561 42.4953C83.6476 42.5599 83.616 42.6191 83.567 42.6621C83.5181 42.705 83.4552 42.7287 83.3902 42.7287C83.3251 42.7287 83.2622 42.705 83.2133 42.6621C83.1643 42.6191 83.1327 42.5599 83.1243 42.4953C82.9734 41.1342 82.9979 39.7593 83.197 38.4044Z" fill="#283138"/>
<path opacity="0.1" d="M101.015 111.261C104.742 117.043 107.042 123.279 108.447 129.816C108.506 130.079 108.101 130.184 107.992 129.929C105.679 123.711 103.042 117.589 100.601 111.411C100.538 111.216 100.892 111.07 101.015 111.261Z" fill="#283138"/>
<path opacity="0.1" d="M94.3333 116.478C95.5333 118.709 96.8833 121.991 96.3378 124.505C96.3378 124.555 96.2423 124.564 96.2151 124.505C95.5651 123.387 95.3969 122.082 95.0742 120.868C94.6969 119.455 94.2105 118.064 93.8423 116.65C93.7742 116.409 94.1969 116.214 94.3333 116.478Z" fill="#283138"/>
<path opacity="0.1" d="M102.565 172.554C104.265 170.418 105.4 167.889 105.865 165.199C106.488 162.017 107.161 158.572 106.515 155.344C105.983 152.699 104.965 150.194 104.574 147.513C104.116 144.327 104.073 141.096 104.447 137.899C104.447 137.694 104.815 137.685 104.806 137.899C104.64 141.621 105.04 145.347 105.993 148.949C106.802 151.944 108.106 154.835 108.088 157.954C108.065 162.717 107.261 169.535 103.043 172.881C102.811 173.076 102.356 172.822 102.565 172.554Z" fill="#283138"/>
<path opacity="0.1" d="M96.8512 173.454H98.4467C98.5487 172.651 98.4758 171.836 98.2331 171.064C97.7012 169.209 96.6421 167.164 96.9603 165.2C96.9603 165.091 96.8012 165 96.7421 165.118C95.4239 167.873 96.483 170.654 96.8512 173.454Z" fill="#283138"/>
<path opacity="0.1" d="M97.2655 163.43C97.1165 163.66 97.0478 163.933 97.07 164.207C97.0491 163.934 97.1177 163.661 97.2655 163.43Z" fill="#283138"/>
</g>
<path d="M111.108 31.0594C113.793 19.4412 106.55 7.84661 94.9322 5.16219C83.3139 2.47777 71.7193 9.72007 69.0349 21.3383C66.3505 32.9566 73.5928 44.5512 85.211 47.2356C96.8293 49.92 108.424 42.6777 111.108 31.0594Z" fill="#59C2FF"/>
<path d="M111.108 31.0594C113.793 19.4412 106.55 7.84661 94.9322 5.16219C83.3139 2.47777 71.7193 9.72007 69.0349 21.3383C66.3505 32.9566 73.5928 44.5512 85.211 47.2356C96.8293 49.92 108.424 42.6777 111.108 31.0594Z" fill="url(#paint1_linear_16745_51588)"/>
<path d="M89.5518 20.2269C89.5018 21.5905 89.5518 22.9905 89.5518 24.4769H94.9154C94.6881 26.2451 94.4927 27.8769 94.2291 29.4769C94.2291 29.6405 93.8063 29.836 93.5745 29.8496C92.2836 29.8814 90.9927 29.8496 89.5836 29.8496V47.7405C87.6539 47.6997 85.739 47.3938 83.8927 46.8314V29.9223H79.1836V24.5269H83.7791C83.7791 24.1178 83.8291 23.7905 83.8291 23.4814C83.8609 22.0587 83.8291 20.636 83.9427 19.2269C84.2336 16.136 86.1336 13.9632 89.1927 13.536C91.0882 13.2769 93.0654 13.486 95.0609 13.486V18.3951C94.3563 18.3951 93.6382 18.3951 92.9336 18.3951C92.3051 18.3713 91.6759 18.414 91.0563 18.5223C90.6452 18.5842 90.2689 18.789 89.9938 19.1007C89.7186 19.4125 89.5621 19.8112 89.5518 20.2269Z" fill="white"/>
<path d="M144.732 60.6758C147.442 49.0739 140.235 37.4714 128.633 34.7609C117.031 32.0504 105.428 39.2583 102.718 50.8601C100.007 62.462 107.215 74.0645 118.817 76.775C130.419 79.4855 142.021 72.2777 144.732 60.6758Z" fill="url(#paint2_radial_16745_51588)"/>
<path d="M136.582 48.6466C136.582 45.1466 134.382 42.883 130.914 42.8466C126.111 42.8011 121.308 42.8011 116.505 42.8466C113.11 42.883 110.91 45.1193 110.855 48.5239C110.823 50.9193 110.855 53.3193 110.855 55.7148C110.855 58.1102 110.855 60.4057 110.855 62.7511C110.882 66.333 113.069 68.6193 116.61 68.6602C121.358 68.7118 126.109 68.7118 130.864 68.6602C134.337 68.6193 136.564 66.3375 136.582 62.8784C136.609 58.136 136.609 53.3921 136.582 48.6466ZM134.287 62.9148C134.264 65.1284 133.069 66.3511 130.855 66.3693C126.103 66.3966 121.353 66.3966 116.605 66.3693C114.378 66.3693 113.173 65.133 113.164 62.9284C113.14 58.1375 113.14 53.3451 113.164 48.5511C113.164 46.3557 114.4 45.0966 116.591 45.083C121.343 45.0466 126.093 45.0466 130.841 45.083C133.041 45.083 134.264 46.3511 134.287 48.542C134.314 50.9375 134.287 53.333 134.287 55.7284C134.287 58.1239 134.314 60.5193 134.287 62.9148Z" fill="white"/>
<path d="M123.737 49.0001C122.409 48.9913 121.109 49.3757 120 50.1047C118.89 50.8338 118.022 51.875 117.503 53.097C116.985 54.3191 116.84 55.6672 117.086 56.9716C117.333 58.276 117.96 59.4781 118.889 60.4265C119.818 61.3749 121.007 62.0271 122.305 62.3009C123.604 62.5747 124.955 62.4578 126.188 61.965C127.42 61.4721 128.48 60.6254 129.232 59.5315C129.984 58.4377 130.395 57.1457 130.414 55.8183C130.428 54.9308 130.267 54.0493 129.938 53.2247C129.609 52.4002 129.12 51.6491 128.499 51.0149C127.878 50.3807 127.137 49.8761 126.32 49.5303C125.502 49.1844 124.624 49.0042 123.737 49.0001ZM123.65 60.2001C122.489 60.1657 121.385 59.6876 120.565 58.8642C119.745 58.0408 119.271 56.9346 119.241 55.7729C119.241 54.5842 119.713 53.4442 120.554 52.6037C121.394 51.7632 122.534 51.2911 123.723 51.2911C124.912 51.2911 126.052 51.7632 126.892 52.6037C127.733 53.4442 128.205 54.5842 128.205 55.7729C128.174 56.9594 127.68 58.0867 126.829 58.914C125.978 59.7413 124.837 60.2029 123.65 60.2001Z" fill="white"/>
<path d="M132.459 48.8699C132.461 49.0718 132.419 49.2716 132.335 49.4556C132.252 49.6395 132.13 49.8033 131.978 49.9355C131.825 50.0678 131.646 50.1653 131.452 50.2215C131.258 50.2776 131.054 50.2911 130.855 50.2608C130.64 50.2731 130.426 50.2362 130.228 50.153C130.03 50.0697 129.853 49.9423 129.712 49.7805C129.571 49.6187 129.469 49.4267 129.413 49.2192C129.357 49.0118 129.35 48.7943 129.391 48.5835C129.459 47.6426 130.073 47.2199 131.014 47.1562C131.964 47.2926 132.532 47.8381 132.459 48.8699Z" fill="white"/>
<path d="M92.4715 72.0073C97.7627 69.8512 100.304 63.814 98.1481 58.5228C95.9921 53.2315 89.9548 50.69 84.6636 52.8461C79.3724 55.0022 76.8309 61.0394 78.9869 66.3306C81.143 71.6218 87.1802 74.1633 92.4715 72.0073Z" fill="#37474F"/>
<path d="M94.3397 63.7367C92.6306 67.1776 88.5715 69.2231 88.5715 69.2231C88.5715 69.2231 84.5124 67.1776 82.8078 63.7367C81.3851 60.864 82.2851 57.7594 84.5306 57.0822C87.7442 56.1094 88.5715 61.714 88.5715 61.714C88.5715 61.714 89.3942 56.1094 92.6169 57.0822C94.8579 57.7594 95.7624 60.864 94.3397 63.7367Z" fill="white"/>
<path d="M56.3744 86.7586C61.6071 84.6253 64.1197 78.6539 61.9864 73.4212C59.8531 68.1885 53.8817 65.6759 48.649 67.8092C43.4163 69.9425 40.9037 75.9138 43.037 81.1466C45.1703 86.3793 51.1417 88.8919 56.3744 86.7586Z" fill="#59C2FF"/>
<path d="M56.3744 86.7586C61.6071 84.6253 64.1197 78.6539 61.9864 73.4212C59.8531 68.1885 53.8817 65.6759 48.649 67.8092C43.4163 69.9425 40.9037 75.9138 43.037 81.1466C45.1703 86.3793 51.1417 88.8919 56.3744 86.7586Z" fill="url(#paint3_linear_16745_51588)"/>
<path fill-rule="evenodd" clip-rule="evenodd" d="M50.9521 81.8148C50.6476 81.6239 50.3794 81.3602 49.9749 81.3875C49.8158 81.3875 49.8521 81.2739 49.8476 81.192C49.8476 79.6557 49.8476 78.1193 49.8476 76.5829C49.8384 76.5312 49.8458 76.4779 49.8686 76.4306C49.8915 76.3832 49.9286 76.3443 49.9749 76.3193C51.1476 75.7239 51.6521 74.5602 52.3658 73.5648C52.7325 73.0697 52.9959 72.5059 53.1404 71.907C53.2848 71.3081 53.3074 70.6862 53.2067 70.0784C53.1889 70.0127 53.1861 69.9438 53.1985 69.8769C53.211 69.81 53.2382 69.7467 53.2784 69.6917C53.3185 69.6367 53.3705 69.5915 53.4305 69.5593C53.4904 69.5271 53.5569 69.5088 53.6249 69.5057C53.7809 69.4498 53.9509 69.4462 54.1091 69.4954C54.2674 69.5446 54.4053 69.6439 54.5022 69.7784C54.8433 70.4035 55.0725 71.0834 55.1794 71.7875C55.1822 72.3682 55.112 72.947 54.9703 73.5102C54.9203 73.9329 54.8249 74.3511 54.7431 74.7784C54.8476 74.8511 54.9658 74.8148 55.0794 74.8148H58.9703C59.5158 74.8148 59.784 74.9693 59.8794 75.3329C59.9163 75.5577 59.8785 75.7883 59.7717 75.9894C59.665 76.1905 59.4953 76.3511 59.2885 76.4466C59.1931 76.4966 59.0203 76.4466 59.0067 76.6057C58.9931 76.7648 59.1749 76.742 59.2658 76.8057C59.7203 77.1239 59.6522 77.7875 59.1112 78.1693C58.9794 78.2602 58.7249 78.2193 58.7203 78.4102C58.7158 78.6011 58.9567 78.5648 59.0612 78.6693C59.1468 78.7769 59.2059 78.903 59.2338 79.0376C59.2616 79.1722 59.2575 79.3115 59.2217 79.4441C59.1858 79.5768 59.1193 79.6993 59.0275 79.8015C58.9357 79.9038 58.8211 79.9831 58.6931 80.0329C58.6141 80.057 58.5367 80.0858 58.4612 80.1193C58.3976 80.1648 58.334 80.2148 58.4612 80.3011C58.5875 80.3648 58.6935 80.4622 58.7676 80.5826C58.8417 80.703 58.881 80.8416 58.881 80.9829C58.881 81.1243 58.8417 81.2629 58.7676 81.3833C58.6935 81.5037 58.5875 81.6011 58.4612 81.6648L58.2885 81.7875C58.0839 81.9111 57.8443 81.9639 57.6067 81.9375H51.5067C51.4108 81.9558 51.3121 81.9544 51.2168 81.9333C51.1214 81.9122 51.0314 81.8719 50.9521 81.8148Z" fill="white"/>
<path fill-rule="evenodd" clip-rule="evenodd" d="M45.161 79.1246C45.161 78.1473 45.161 77.1746 45.161 76.1973C45.161 76.0019 45.161 75.9019 45.4246 75.9064C46.6094 75.9064 47.7988 75.9064 48.9928 75.9064C49.2246 75.9064 49.261 75.9837 49.261 76.1928C49.261 78.1564 49.261 80.1261 49.261 82.1018C49.261 82.3518 49.1973 82.4246 48.9473 82.42C47.7928 82.42 46.6382 82.42 45.4837 82.42C45.1973 82.42 45.1564 82.3246 45.161 82.0746C45.1973 81.0746 45.1655 80.1018 45.161 79.1246Z" fill="white"/>
<path d="M123.387 84.1908C126.217 84.1908 128.51 81.8973 128.51 79.068C128.51 76.2388 126.217 73.9453 123.387 73.9453C120.558 73.9453 118.265 76.2388 118.265 79.068C118.265 81.8973 120.558 84.1908 123.387 84.1908Z" fill="#59C2FF"/>
<path d="M123.387 84.1908C126.217 84.1908 128.51 81.8973 128.51 79.068C128.51 76.2388 126.217 73.9453 123.387 73.9453C120.558 73.9453 118.265 76.2388 118.265 79.068C118.265 81.8973 120.558 84.1908 123.387 84.1908Z" fill="url(#paint4_linear_16745_51588)"/>
<path d="M123.393 78.8388C124.334 78.8388 125.097 78.0756 125.097 77.1342C125.097 76.1928 124.334 75.4297 123.393 75.4297C122.451 75.4297 121.688 76.1928 121.688 77.1342C121.688 78.0756 122.451 78.8388 123.393 78.8388Z" fill="white"/>
<path d="M126.341 81.8406V82.4679H120.432V81.8452C120.432 81.0616 120.743 80.3101 121.297 79.756C121.852 79.2019 122.603 78.8906 123.387 78.8906C124.17 78.8906 124.922 79.2019 125.476 79.756C126.03 80.3101 126.341 81.0616 126.341 81.8452V81.8406Z" fill="white"/>
<path d="M40.7374 48.627C41.0426 51.5453 42.153 54.3213 43.9447 56.645C45.7363 58.9687 48.1386 60.7486 50.8834 61.7859C53.6281 62.8233 56.6071 63.0772 59.4878 62.5194C62.3685 61.9615 65.0374 60.6139 67.1965 58.627L75.1193 59.7906L71.1556 52.9406C72.0633 50.7112 72.4507 48.3042 72.2886 45.9026C72.1265 43.501 71.4191 41.168 70.2201 39.0808C69.0211 36.9936 67.3621 35.2072 65.3691 33.8573C63.3762 32.5075 61.1017 31.6297 58.7186 31.2907C56.3356 30.9517 53.9066 31.1603 51.6162 31.9009C49.3259 32.6414 47.2345 33.8943 45.501 35.5643C43.7675 37.2343 42.4375 39.2775 41.6121 41.5386C40.7867 43.7997 40.4875 46.2193 40.7374 48.6133V48.627Z" fill="#59C2FF"/>
<path d="M40.7374 48.627C41.0426 51.5453 42.153 54.3213 43.9447 56.645C45.7363 58.9687 48.1386 60.7486 50.8834 61.7859C53.6281 62.8233 56.6071 63.0772 59.4878 62.5194C62.3685 61.9615 65.0374 60.6139 67.1965 58.627L75.1193 59.7906L71.1556 52.9406C72.0633 50.7112 72.4507 48.3042 72.2886 45.9026C72.1265 43.501 71.4191 41.168 70.2201 39.0808C69.0211 36.9936 67.3621 35.2072 65.3691 33.8573C63.3762 32.5075 61.1017 31.6297 58.7186 31.2907C56.3356 30.9517 53.9066 31.1603 51.6162 31.9009C49.3259 32.6414 47.2345 33.8943 45.501 35.5643C43.7675 37.2343 42.4375 39.2775 41.6121 41.5386C40.7867 43.7997 40.4875 46.2193 40.7374 48.6133V48.627Z" fill="url(#paint5_linear_16745_51588)"/>
<path d="M45.4785 35.547C47.2035 33.8435 49.2977 32.5602 51.5986 31.7964C53.8995 31.0326 56.3453 30.8088 58.7466 31.1424C61.1636 31.4613 63.4756 32.3289 65.5057 33.6788C67.534 35.0376 69.2292 36.8369 70.4648 38.9424C71.7027 41.0644 72.4352 43.443 72.6054 45.8937C72.7757 48.3445 72.3792 50.8015 71.4466 53.0742V52.8015L75.3876 59.6651L75.6785 60.1697L75.1057 60.0833L67.1921 58.8697L67.3785 58.8106C65.1771 60.804 62.4633 62.1436 59.5421 62.6788C58.8191 62.8135 58.0864 62.8895 57.3512 62.9061C53.658 63.0753 50.0215 61.9499 47.0694 59.7242C46.4821 59.2893 45.9234 58.8171 45.3967 58.3106C44.8854 57.7897 44.4057 57.2388 43.9603 56.6606C41.584 53.565 40.4284 49.7039 40.7134 45.8118C40.9983 41.9197 42.7039 38.2681 45.5057 35.5515L45.4785 35.547Z" fill="url(#paint6_radial_16745_51588)"/>
<path d="M47.6602 47.4572C47.6602 47.8366 47.7727 48.2075 47.9834 48.5229C48.1942 48.8384 48.4938 49.0842 48.8443 49.2294C49.1948 49.3746 49.5805 49.4126 49.9526 49.3386C50.3246 49.2646 50.6664 49.0819 50.9347 48.8136C51.203 48.5453 51.3856 48.2036 51.4597 47.8315C51.5337 47.4594 51.4957 47.0737 51.3505 46.7232C51.2053 46.3727 50.9595 46.0731 50.644 45.8623C50.3286 45.6516 49.9577 45.5391 49.5783 45.5391C49.0696 45.5391 48.5817 45.7412 48.222 46.1009C47.8622 46.4606 47.6602 46.9485 47.6602 47.4572Z" fill="#263238"/>
<path d="M54.5283 47.4572C54.5283 47.8366 54.6408 48.2075 54.8516 48.5229C55.0624 48.8384 55.3619 49.0842 55.7124 49.2294C56.0629 49.3746 56.4486 49.4126 56.8207 49.3386C57.1928 49.2646 57.5346 49.0819 57.8029 48.8136C58.0711 48.5453 58.2538 48.2036 58.3278 47.8315C58.4018 47.4594 58.3639 47.0737 58.2187 46.7232C58.0735 46.3727 57.8276 46.0731 57.5122 45.8623C57.1967 45.6516 56.8259 45.5391 56.4465 45.5391C55.9378 45.5391 55.4499 45.7412 55.0901 46.1009C54.7304 46.4606 54.5283 46.9485 54.5283 47.4572Z" fill="#263238"/>
<path d="M61.4014 47.4572C61.4014 47.8366 61.5139 48.2075 61.7246 48.5229C61.9354 48.8384 62.235 49.0842 62.5855 49.2294C62.936 49.3746 63.3217 49.4126 63.6938 49.3386C64.0659 49.2646 64.4076 49.0819 64.6759 48.8136C64.9442 48.5453 65.1269 48.2036 65.2009 47.8315C65.2749 47.4594 65.2369 47.0737 65.0917 46.7232C64.9465 46.3727 64.7007 46.0731 64.3852 45.8623C64.0698 45.6516 63.6989 45.5391 63.3195 45.5391C62.8108 45.5391 62.3229 45.7412 61.9632 46.1009C61.6035 46.4606 61.4014 46.9485 61.4014 47.4572Z" fill="#263238"/>
<path d="M59.6239 29.7293C65.2748 29.7293 69.8557 25.1483 69.8557 19.4974C69.8557 13.8466 65.2748 9.26562 59.6239 9.26562C53.973 9.26562 49.3921 13.8466 49.3921 19.4974C49.3921 25.1483 53.973 29.7293 59.6239 29.7293Z" fill="url(#paint7_radial_16745_51588)"/>
<g opacity="0.5">
<path opacity="0.5" d="M64.3606 16.6665C64.3615 17.0775 64.2404 17.4796 64.0127 17.8218C63.785 18.164 63.4609 18.4309 63.0814 18.5889C62.7019 18.7468 62.2841 18.7886 61.8809 18.7089C61.4776 18.6293 61.1071 18.4318 60.8161 18.1415C60.5251 17.8512 60.3268 17.481 60.2463 17.078C60.1658 16.6749 60.2067 16.257 60.3637 15.8771C60.5208 15.4973 60.7871 15.1726 61.1288 14.9442C61.4705 14.7157 61.8723 14.5938 62.2833 14.5938C62.8335 14.5937 63.3611 14.812 63.7506 15.2006C64.14 15.5891 64.3594 16.1163 64.3606 16.6665Z" fill="#283138"/>
<path opacity="0.5" d="M65.8697 22.3832V23.1423H58.7197V22.3832C58.7197 21.4321 59.0976 20.5199 59.7701 19.8473C60.4427 19.1747 61.3549 18.7969 62.3061 18.7969C63.2572 18.7969 64.1695 19.1747 64.842 19.8473C65.5146 20.5199 65.8924 21.4321 65.8924 22.3832H65.8697Z" fill="#283138"/>
</g>
<path d="M59.0471 17.9243C59.048 18.3353 58.927 18.7374 58.6993 19.0796C58.4715 19.4218 58.1474 19.6888 57.7679 19.8467C57.3885 20.0046 56.9706 20.0464 56.5674 19.9667C56.1641 19.8871 55.7936 19.6896 55.5026 19.3993C55.2116 19.109 55.0133 18.7388 54.9328 18.3358C54.8523 17.9327 54.8932 17.5148 55.0503 17.135C55.2074 16.7551 55.4736 16.4304 55.8153 16.202C56.157 15.9735 56.5588 15.8516 56.9698 15.8516C57.52 15.8516 58.0477 16.0698 58.4371 16.4584C58.8265 16.847 59.0459 17.3742 59.0471 17.9243Z" fill="white"/>
<path d="M60.538 23.6351V24.3941H53.3789V23.6351C53.412 22.7054 53.8046 21.8248 54.474 21.1789C55.1433 20.5329 56.0373 20.1719 56.9675 20.1719C57.8978 20.1719 58.7917 20.5329 59.4611 21.1789C60.1305 21.8248 60.5231 22.7054 60.5562 23.6351H60.538Z" fill="white"/>
<path d="M116.689 83.5689C117.342 80.8161 115.64 78.055 112.888 77.4017C110.135 76.7485 107.374 78.4504 106.72 81.2032C106.067 83.956 107.769 86.7171 110.522 87.3703C113.275 88.0236 116.036 86.3216 116.689 83.5689Z" fill="#59C2FF"/>
<path d="M116.689 83.5689C117.342 80.8161 115.64 78.055 112.888 77.4017C110.135 76.7485 107.374 78.4504 106.72 81.2032C106.067 83.956 107.769 86.7171 110.522 87.3703C113.275 88.0236 116.036 86.3216 116.689 83.5689Z" fill="url(#paint8_linear_16745_51588)"/>
<path d="M109.721 84.095H109.307C109.183 84.095 109.063 84.0454 108.975 83.9572C108.886 83.869 108.837 83.7493 108.837 83.6245C108.837 83.4998 108.886 83.3801 108.975 83.2919C109.063 83.2036 109.183 83.1541 109.307 83.1541H109.889L110.157 81.5723H109.63C109.505 81.5723 109.386 81.5227 109.297 81.4345C109.209 81.3462 109.16 81.2266 109.16 81.1018C109.16 80.977 109.209 80.8574 109.297 80.7692C109.386 80.6809 109.505 80.6314 109.63 80.6314H110.326L110.503 79.5495C110.518 79.4403 110.573 79.3404 110.657 79.2685C110.74 79.1966 110.847 79.1575 110.957 79.1586C111.025 79.1624 111.09 79.1801 111.151 79.2106C111.211 79.2411 111.264 79.2838 111.307 79.3359C111.349 79.3881 111.381 79.4485 111.399 79.5135C111.417 79.5784 111.421 79.6464 111.412 79.7132L111.248 80.6223H112.671L112.853 79.5404C112.869 79.4264 112.927 79.3226 113.017 79.25C113.106 79.1774 113.22 79.1415 113.335 79.1495C113.402 79.1519 113.469 79.1686 113.53 79.1987C113.591 79.2288 113.644 79.2715 113.687 79.324C113.73 79.3765 113.762 79.4375 113.779 79.503C113.797 79.5686 113.8 79.6371 113.789 79.7041L113.635 80.6132H114.053C114.178 80.6132 114.297 80.6627 114.385 80.751C114.474 80.8392 114.523 80.9589 114.523 81.0836C114.523 81.2084 114.474 81.3281 114.385 81.4163C114.297 81.5045 114.178 81.5541 114.053 81.5541H113.471L113.198 83.1359H113.716C113.837 83.1359 113.953 83.1838 114.038 83.269C114.123 83.3543 114.171 83.4699 114.171 83.5904C114.171 83.711 114.123 83.8266 114.038 83.9119C113.953 83.9971 113.837 84.045 113.716 84.045H113.035L112.844 85.1586C112.828 85.2678 112.774 85.3677 112.69 85.4396C112.606 85.5116 112.499 85.5506 112.389 85.5495C112.322 85.5471 112.256 85.5305 112.195 85.5007C112.135 85.4708 112.081 85.4286 112.038 85.3766C111.995 85.3247 111.964 85.2642 111.946 85.1992C111.928 85.1342 111.924 85.0662 111.935 84.9995L112.107 84.045H110.712L110.521 85.1586C110.505 85.2719 110.447 85.375 110.359 85.4474C110.27 85.5199 110.158 85.5563 110.044 85.5495C109.975 85.5511 109.907 85.537 109.845 85.5085C109.782 85.4799 109.727 85.4376 109.683 85.3847C109.639 85.3317 109.608 85.2696 109.592 85.2029C109.576 85.1362 109.575 85.0667 109.589 84.9995L109.721 84.095ZM112.276 83.1541L112.548 81.5723H111.13L110.857 83.1541H112.276Z" fill="white"/>
<path d="M45.1287 31.699C47.8929 31.0958 49.6447 28.366 49.0415 25.6019C48.4383 22.8377 45.7086 21.0859 42.9444 21.6891C40.1802 22.2923 38.4284 25.022 39.0316 27.7862C39.6348 30.5504 42.3646 32.3022 45.1287 31.699Z" fill="#37474F"/>
<path d="M43.6417 23.3219C42.7496 23.4274 41.936 23.8829 41.3797 24.5883C40.8235 25.2937 40.5703 26.1912 40.6758 27.0833C40.7813 27.9754 41.2368 28.789 41.9422 29.3452C42.6476 29.9014 43.5451 30.1547 44.4372 30.0492C44.7147 30.0168 44.9867 29.948 45.2462 29.8446C45.2842 29.8338 45.3193 29.815 45.3493 29.7893C45.3792 29.7636 45.4032 29.7317 45.4196 29.6958C45.436 29.66 45.4445 29.621 45.4444 29.5815C45.4443 29.5421 45.4356 29.5031 45.419 29.4674C45.4127 29.4348 45.3993 29.404 45.3796 29.3772C45.36 29.3505 45.3346 29.3285 45.3053 29.3128C45.2646 29.2946 45.2204 29.2852 45.1758 29.2852C45.1312 29.2852 45.087 29.2946 45.0462 29.3128C44.8289 29.396 44.6009 29.448 44.369 29.4674C43.8219 29.5326 43.2678 29.4342 42.7766 29.1846C42.2854 28.935 41.8793 28.5454 41.6095 28.065C41.3397 27.5846 41.2184 27.035 41.2609 26.4857C41.3034 25.9364 41.5078 25.412 41.8482 24.9788C42.1887 24.5457 42.6499 24.2231 43.1736 24.052C43.6973 23.8809 44.26 23.8689 44.7905 24.0175C45.321 24.1661 45.7956 24.4687 46.1542 24.8869C46.5129 25.3052 46.7394 25.8204 46.8053 26.3674C46.8629 26.8072 46.8082 27.2544 46.6462 27.6674C46.5656 27.8879 46.4027 28.0688 46.1917 28.1719H46.1235C46.0371 28.1719 46.0144 28.1719 46.0099 28.1719C45.977 28.1155 45.9496 28.0562 45.9281 27.9946C45.8508 27.6674 45.769 26.631 45.769 26.631V26.5083C45.7087 26.1707 45.5508 25.8582 45.3148 25.6094C45.0788 25.3605 44.7751 25.1863 44.4411 25.1083C44.1072 25.0302 43.7577 25.0517 43.4359 25.1702C43.1141 25.2886 42.834 25.4987 42.6303 25.7746C42.4266 26.0505 42.3082 26.38 42.2898 26.7224C42.2713 27.0649 42.3536 27.4052 42.5265 27.7013C42.6994 27.9975 42.9553 28.2365 43.2626 28.3888C43.5698 28.5411 43.915 28.6 44.2553 28.5583C44.6839 28.5068 45.0754 28.2898 45.3462 27.9537V28.1083C45.3729 28.2788 45.4505 28.4373 45.569 28.5628C45.6478 28.6461 45.7456 28.7091 45.854 28.7463C45.9625 28.7835 46.0784 28.7938 46.1917 28.7764C46.2597 28.7681 46.3267 28.7528 46.3917 28.731C46.7452 28.566 47.0252 28.2763 47.1781 27.9174C47.3623 27.4133 47.4216 26.8721 47.3508 26.3401C47.2579 25.4485 46.8153 24.6302 46.12 24.0644C45.4247 23.4987 44.5335 23.2317 43.6417 23.3219ZM44.1735 27.9037C44.0183 27.9167 43.8621 27.8987 43.714 27.8507C43.5659 27.8027 43.4288 27.7257 43.3107 27.6241C43.1927 27.5226 43.096 27.3986 43.0264 27.2593C42.9568 27.12 42.9157 26.9682 42.9053 26.8128C42.8555 26.5019 42.9307 26.1839 43.1147 25.9283C43.2987 25.6728 43.5765 25.5005 43.8872 25.4492C44.2011 25.4301 44.5102 25.5336 44.7494 25.738C44.9885 25.9423 45.1389 26.2315 45.169 26.5446C45.216 26.8567 45.1378 27.1747 44.9513 27.4293C44.7648 27.6839 44.4852 27.8545 44.1735 27.9037Z" fill="white"/>
<path d="M94.9052 148.549C91.3805 152.657 91.0079 157.095 89.6014 161.25C87.3067 168.036 86.0655 174.951 87.3599 181.997C90.2486 183.418 93.6388 181.997 96.8357 181.611C102.509 180.935 108.113 183.69 113.817 183.401C114.997 183.339 116.244 183.121 117.118 182.32C118.519 181.05 118.449 178.899 118.538 177.016C118.931 168.361 124.568 160.883 126.846 152.531C126.978 152.049 127.087 151.497 126.812 151.079C126.538 150.662 126.061 150.564 125.61 150.474C120.833 149.524 115.908 149.964 111.041 150.132C106.418 150.292 101.641 150.169 97.368 148.451C96.7871 148.208 96.1461 148.148 95.53 148.278C95.2999 148.306 95.0829 148.4 94.9052 148.549Z" fill="#455A64"/>
<path d="M100.175 160.766C100.206 160.715 100.241 160.666 100.279 160.621L100.593 160.217C100.73 160.041 100.901 159.83 101.117 159.598C101.332 159.365 101.565 159.091 101.854 158.819L102.299 158.382C102.456 158.231 102.632 158.088 102.806 157.931C103.151 157.614 103.549 157.312 103.963 156.987C105.797 155.611 107.85 154.555 110.035 153.863C110.542 153.714 111.018 153.563 111.478 153.465C111.705 153.414 111.923 153.355 112.136 153.316L112.753 153.207C113.142 153.129 113.501 153.098 113.814 153.058C114.128 153.019 114.4 153 114.621 152.988L115.131 152.966C115.191 152.959 115.251 152.959 115.311 152.966C115.253 152.98 115.194 152.989 115.134 152.994L114.627 153.044C114.406 153.061 114.137 153.086 113.826 153.137C113.515 153.187 113.156 153.221 112.769 153.305L112.159 153.423C111.948 153.465 111.733 153.526 111.506 153.58C111.052 153.68 110.578 153.835 110.077 153.986C109.001 154.345 107.953 154.784 106.942 155.297C105.936 155.823 104.972 156.424 104.056 157.093C103.641 157.412 103.243 157.709 102.896 158.02C102.722 158.172 102.546 158.301 102.389 158.46L101.938 158.889C101.643 159.155 101.408 159.424 101.19 159.651C100.971 159.878 100.792 160.08 100.649 160.251L100.313 160.635C100.272 160.684 100.226 160.728 100.175 160.766Z" fill="#263238"/>
<path d="M102.683 138.808C102.683 138.808 95.0002 129.641 92.0779 129.641C92.0779 129.641 90.2315 132.894 90.1699 134.664C90.1083 136.435 96.0817 144.751 96.0817 144.751L102.683 138.808Z" fill="#59C2FF"/>
<path d="M102.683 138.808C102.683 138.808 95.0002 129.641 92.0779 129.641C92.0779 129.641 90.2315 132.894 90.1699 134.664C90.1083 136.435 96.0817 144.751 96.0817 144.751L102.683 138.808Z" fill="url(#paint9_linear_16745_51588)"/>
<path d="M84.177 129.547L92.0781 129.628L94.5185 141.799C94.5185 141.799 93.2072 154.486 92.2294 157.725C91.2516 160.964 89.0213 166.267 89.0213 166.267L69.5516 161.961L68.9688 147.904L66.5845 134.708L74.903 131.418L84.177 129.547Z" fill="#59C2FF"/>
<path d="M84.177 129.547L92.0781 129.628L94.5185 141.799C94.5185 141.799 93.2072 154.486 92.2294 157.725C91.2516 160.964 89.0213 166.267 89.0213 166.267L69.5516 161.961L68.9688 147.904L66.5845 134.708L74.903 131.418L84.177 129.547Z" fill="url(#paint10_linear_16745_51588)"/>
<path d="M61.0566 146.37C61.0566 145.88 63.7772 135.866 66.5874 134.703L68.7588 138.065L69.7506 147.18L61.0566 146.37Z" fill="#59C2FF"/>
<path d="M61.0566 146.37C61.0566 145.88 63.7772 135.866 66.5874 134.703L68.7588 138.065L69.7506 147.18L61.0566 146.37Z" fill="url(#paint11_linear_16745_51588)"/>
<path d="M94.4262 135.547C94.4384 135.652 94.4384 135.758 94.4262 135.863C94.4262 136.099 94.4066 136.385 94.3954 136.724C94.3674 137.452 94.345 138.458 94.3562 139.567C94.3674 140.677 94.4206 141.68 94.4654 142.406C94.4878 142.745 94.5046 143.033 94.5187 143.269C94.5309 143.374 94.5309 143.48 94.5187 143.585C94.4855 143.485 94.4648 143.38 94.457 143.274C94.429 143.073 94.3926 142.778 94.359 142.414C94.2861 141.688 94.2189 140.683 94.2049 139.567C94.1909 138.452 94.2329 137.447 94.2861 136.718C94.3141 136.357 94.3394 136.062 94.3646 135.858C94.3716 135.752 94.3924 135.647 94.4262 135.547Z" fill="#263238"/>
<path d="M68.8788 138.445C68.8819 138.566 68.8716 138.686 68.848 138.804C68.82 139.025 68.7808 139.347 68.7388 139.748C68.5172 141.829 68.5634 143.93 68.876 145.999C68.9349 146.397 68.9881 146.716 69.0273 146.938C69.0564 147.051 69.0714 147.168 69.0722 147.285C69.0274 147.177 68.9936 147.064 68.9713 146.949C68.9153 146.73 68.848 146.414 68.7752 146.016C68.4028 143.942 68.3565 141.822 68.6379 139.734C68.6911 139.336 68.7472 139.014 68.792 138.793C68.8073 138.674 68.8365 138.557 68.8788 138.445Z" fill="#263238"/>
<path d="M85.7549 161.145C85.6519 161.054 85.5581 160.952 85.4747 160.843L84.7602 160.002C84.155 159.279 83.3173 158.287 82.3731 157.2C81.4289 156.113 80.5547 155.158 79.9187 154.466L79.1678 153.642C79.0708 153.546 78.9835 153.441 78.9072 153.328C79.0172 153.411 79.1186 153.505 79.2098 153.608C79.3975 153.79 79.6665 154.062 79.9943 154.398C80.65 155.076 81.5353 156.029 82.4823 157.111C83.4294 158.192 84.2559 159.198 84.8387 159.935C85.1189 160.305 85.3626 160.607 85.5195 160.82C85.6078 160.921 85.6865 161.03 85.7549 161.145Z" fill="#263238"/>
<path d="M87.4052 117.336C87.444 119.061 87.1168 120.776 86.445 122.365C85.7732 123.955 84.7722 125.385 83.5079 126.559C82.9251 124.878 82.3442 123.197 81.7651 121.516" fill="#263238"/>
<path d="M74.2669 107.292C75.7631 106.474 77.5702 106.356 79.2429 106.689C80.9156 107.023 82.4706 107.782 83.9471 108.637C84.7979 109.075 85.5583 109.67 86.1886 110.391C87.2729 111.755 88.3488 113.999 88.4524 115.742C88.5365 117.143 87.9986 120.679 87.4018 121.959C86.8554 123.133 84.2974 124.027 83.0337 124.318L71.4595 110.845C71.668 110.096 72.0237 109.396 72.5057 108.786C72.9877 108.176 73.5864 107.668 74.2669 107.292Z" fill="#263238"/>
<path d="M72.2694 109.105L75.0488 108.609C73.5302 112.224 73.1183 120.492 72.2469 124.316C71.2243 122.831 68.8455 118.306 68.9716 116.508C69.0977 114.709 68.9716 108.8 72.2694 109.105Z" fill="#263238"/>
<path d="M70.6833 114.994C70.8626 112.22 72.709 108.83 75.4716 109.11L81.8681 110.741C82.8507 110.994 83.727 111.554 84.369 112.339C85.0111 113.125 85.3855 114.095 85.4376 115.109C85.4376 115.215 85.4544 115.086 85.4544 115.165L84.0255 131.726L79.2148 141.275L74.9756 131.281C74.9756 129.93 74.9756 128.854 74.9756 128.863C74.9756 128.871 71.4342 128.266 70.7085 123.64C70.3583 121.34 70.4816 118.076 70.6833 114.994Z" fill="#FFBE9D"/>
<path d="M72.0728 118.761C72.0704 118.915 72.1275 119.063 72.232 119.174C72.3365 119.286 72.4803 119.353 72.6332 119.361C72.7088 119.368 72.7852 119.36 72.8575 119.337C72.9299 119.314 72.9968 119.276 73.0542 119.227C73.1116 119.177 73.1583 119.116 73.1914 119.047C73.2245 118.979 73.2434 118.905 73.2468 118.829C73.2492 118.676 73.1921 118.528 73.0876 118.416C72.9831 118.304 72.8393 118.237 72.6864 118.229C72.6108 118.222 72.5345 118.23 72.4621 118.253C72.3897 118.276 72.3228 118.314 72.2654 118.364C72.208 118.413 72.1613 118.474 72.1282 118.543C72.0951 118.611 72.0763 118.686 72.0728 118.761Z" fill="#263238"/>
<path d="M71.3695 116.814C71.4452 116.89 71.8935 116.559 72.5323 116.562C73.1711 116.565 73.653 116.884 73.7062 116.809C73.7595 116.733 73.667 116.632 73.4625 116.484C73.186 116.296 72.8581 116.198 72.5239 116.203C72.1917 116.2 71.8672 116.304 71.5993 116.5C71.406 116.638 71.3415 116.778 71.3695 116.814Z" fill="#263238"/>
<path d="M77.9293 118.761C77.9269 118.914 77.984 119.062 78.0885 119.174C78.193 119.286 78.3368 119.353 78.4896 119.361C78.5651 119.368 78.6411 119.359 78.7131 119.336C78.7852 119.313 78.8518 119.275 78.9089 119.225C78.9659 119.175 79.0124 119.115 79.0453 119.046C79.0782 118.978 79.097 118.904 79.1005 118.828C79.1028 118.675 79.0458 118.527 78.9413 118.416C78.8367 118.304 78.6929 118.237 78.5401 118.229C78.4647 118.222 78.3886 118.23 78.3166 118.254C78.2445 118.277 78.178 118.315 78.1209 118.364C78.0638 118.414 78.0174 118.475 77.9844 118.543C77.9515 118.611 77.9327 118.686 77.9293 118.761Z" fill="#263238"/>
<path d="M77.4387 116.814C77.5115 116.89 77.9626 116.559 78.6014 116.562C79.2402 116.565 79.7053 116.884 79.7754 116.809C79.8454 116.733 79.7361 116.632 79.5316 116.483C79.2538 116.296 78.9253 116.198 78.5902 116.203C78.2581 116.2 77.9337 116.304 77.6656 116.5C77.4695 116.638 77.4022 116.778 77.4387 116.814Z" fill="#263238"/>
<path d="M75.4441 121.826C75.1079 121.719 74.7596 121.655 74.4075 121.635C74.245 121.619 74.0909 121.585 74.0629 121.476C74.0496 121.307 74.0877 121.138 74.1721 120.991L74.6568 119.753C75.3293 117.988 75.8196 116.533 75.7467 116.508C75.6739 116.483 75.0715 117.892 74.3991 119.657L73.934 120.904C73.8317 121.101 73.8009 121.326 73.8471 121.543C73.872 121.602 73.9103 121.654 73.9589 121.695C74.0076 121.737 74.0652 121.766 74.1273 121.781C74.2182 121.808 74.3127 121.821 74.4075 121.82C74.7515 121.865 75.0997 121.867 75.4441 121.826Z" fill="#263238"/>
<path d="M81.12 127.219C81.12 127.219 79.6154 130.393 74.9868 129.951V128.863C77.1439 128.892 79.2667 128.323 81.12 127.219Z" fill="#EB996E"/>
<path d="M77.6377 114.508C77.7022 114.682 78.3382 114.603 79.0862 114.693C79.8343 114.782 80.4423 114.99 80.5404 114.836C80.5852 114.76 80.4815 114.598 80.2378 114.429C79.9126 114.221 79.5439 114.09 79.1601 114.047C78.7763 114.004 78.3878 114.049 78.0244 114.18C77.7498 114.289 77.6125 114.432 77.6377 114.508Z" fill="#263238"/>
<path d="M71.5857 114.86C71.6978 115.005 72.1461 114.86 72.6644 114.86C73.1827 114.86 73.6422 114.961 73.7459 114.809C73.7907 114.734 73.7207 114.588 73.5246 114.451C73.2645 114.281 72.9577 114.198 72.6476 114.213C72.3379 114.214 72.0364 114.312 71.7846 114.493C71.5969 114.638 71.5353 114.787 71.5857 114.86Z" fill="#263238"/>
<path d="M71.9308 110.787C72.0947 110.448 72.3492 110.161 72.6662 109.958C72.9832 109.755 73.3503 109.643 73.7268 109.636C74.4831 109.636 75.2239 109.851 75.8617 110.258C78.6159 111.849 80.0308 115.696 82.7514 117.344C83.421 117.747 84.2924 117.377 84.8611 117.904C85.4299 118.431 85.7998 119.305 85.486 120.017C85.8761 119.532 86.1941 118.995 86.4302 118.419C86.5467 118.131 86.6002 117.82 86.5872 117.509C86.5741 117.198 86.4948 116.893 86.3545 116.615C86.1192 116.209 85.7017 115.895 85.5896 115.438C85.4888 115.038 85.6457 114.617 85.6288 114.203C85.5831 113.782 85.4381 113.377 85.2058 113.023C84.1411 111.138 82.6841 109.431 80.7845 108.372C79.5517 107.66 78.1482 107.297 76.7247 107.321C75.2961 107.355 73.9268 107.899 72.8638 108.854C72.2558 109.414 71.6142 110.008 71.9308 110.779" fill="#263238"/>
<path d="M84.8184 118.475C84.866 118.343 87.2783 117.472 87.312 120.035C87.3428 122.526 84.8268 122.036 84.824 121.966C84.8212 121.896 84.8184 118.475 84.8184 118.475Z" fill="#FFBE9D"/>
<path d="M85.57 121.016C85.57 121.016 85.6121 121.047 85.6877 121.081C85.792 121.123 85.9084 121.123 86.0127 121.081C86.2733 120.983 86.4918 120.563 86.5002 120.114C86.5029 119.9 86.4589 119.688 86.3713 119.492C86.3475 119.415 86.3052 119.344 86.2481 119.287C86.191 119.229 86.1208 119.186 86.0435 119.162C85.9933 119.149 85.9403 119.155 85.8938 119.177C85.8472 119.2 85.81 119.238 85.7886 119.285C85.7549 119.355 85.7718 119.403 85.7578 119.408C85.7437 119.414 85.7045 119.366 85.7241 119.262C85.7374 119.201 85.7709 119.146 85.8194 119.106C85.8877 119.055 85.9729 119.032 86.0575 119.041C86.1601 119.061 86.2561 119.106 86.3365 119.172C86.4169 119.239 86.479 119.325 86.517 119.422C86.6243 119.638 86.6781 119.876 86.6739 120.117C86.6739 120.619 86.3938 121.089 86.0491 121.199C85.9824 121.218 85.9121 121.223 85.8433 121.212C85.7746 121.201 85.709 121.176 85.6513 121.137C85.5756 121.078 85.5616 121.022 85.57 121.016Z" fill="#EB996E"/>
<path d="M85.794 117.192C85.7424 117.167 85.6927 117.139 85.6455 117.107C85.5502 117.049 85.4017 116.967 85.228 116.841C84.7361 116.484 84.2851 116.073 83.8832 115.617C83.294 114.938 82.7448 114.225 82.2385 113.482C81.6258 112.572 80.9379 111.716 80.182 110.921C79.7776 110.526 79.3324 110.175 78.8539 109.873C78.405 109.599 77.9242 109.381 77.4222 109.223C76.5705 108.951 75.6752 108.84 74.7829 108.898C74.1807 108.935 73.5862 109.052 73.0149 109.246C72.8104 109.307 72.6591 109.377 72.5526 109.417C72.5003 109.441 72.4459 109.461 72.3901 109.475C72.439 109.444 72.4906 109.418 72.5442 109.397C72.6926 109.324 72.8451 109.259 73.0009 109.204C73.5719 108.992 74.17 108.863 74.7773 108.82C75.6804 108.747 76.5891 108.849 77.453 109.122C77.9646 109.28 78.4548 109.5 78.9127 109.778C79.3994 110.082 79.8514 110.438 80.2604 110.84C81.0215 111.638 81.7115 112.502 82.3225 113.42C82.8248 114.162 83.3653 114.878 83.942 115.564C84.3374 116.02 84.7766 116.437 85.2532 116.808C85.4241 116.937 85.567 117.021 85.6567 117.088C85.7056 117.118 85.7516 117.153 85.794 117.192Z" fill="#455A64"/>
<path d="M85.1682 117.902C85.2074 118.581 85.2382 119.303 84.9244 119.906C84.6106 120.508 83.8177 120.92 83.2237 120.584C82.7418 120.304 82.5989 119.69 82.5149 119.138C82.2795 117.552 82.1731 115.95 81.9209 114.375L85.1682 117.902Z" fill="#263238"/>
<path d="M77.0124 123.038C77.13 123.197 77.2087 123.381 77.2423 123.576C77.2758 123.77 77.2633 123.97 77.2057 124.159C77.1439 124.347 77.0383 124.518 76.8975 124.657C76.7567 124.797 76.5848 124.901 76.396 124.96C76.2453 125.012 76.0816 125.012 75.9309 124.96C75.8091 124.892 75.7025 124.8 75.6177 124.689C75.5329 124.578 75.4717 124.451 75.4378 124.316C75.3509 124.103 75.2641 123.887 75.18 123.672C75.1605 123.638 75.1482 123.601 75.1438 123.562C75.1395 123.524 75.1432 123.484 75.1548 123.447C75.1783 123.412 75.2094 123.383 75.2458 123.362C75.2821 123.34 75.3229 123.328 75.3649 123.324L76.962 122.938" fill="#EB996E"/>
<path d="M75.9645 124.896C76.2118 124.928 76.4629 124.894 76.693 124.798C76.9625 124.713 77.1896 124.529 77.329 124.283C77.4095 124.131 77.4436 123.958 77.4271 123.787C77.4167 123.61 77.373 123.437 77.2982 123.277C77.2272 123.119 77.1253 122.977 76.9984 122.86L76.9564 122.82L76.9032 122.84C75.8441 123.213 75.0175 123.4 75.0259 123.448C75.0343 123.496 75.8861 123.381 76.9648 123.016L76.8695 122.997C76.9754 123.1 77.0618 123.222 77.1245 123.355C77.1913 123.484 77.2301 123.626 77.2383 123.771C77.2465 123.915 77.224 124.06 77.1721 124.196C77.0554 124.409 76.8683 124.576 76.6426 124.667C76.2447 124.84 75.9589 124.86 75.9645 124.896Z" fill="#263238"/>
<path d="M72.5522 109.594C72.5522 109.608 72.7736 109.552 73.1714 109.541C73.735 109.531 74.2949 109.633 74.8189 109.84C75.1811 109.981 75.5276 110.16 75.8528 110.373C76.2241 110.622 76.5796 110.895 76.9175 111.188C77.7008 111.849 78.4016 112.601 79.0048 113.429C79.3214 113.875 79.6016 114.332 79.9042 114.755C80.193 115.166 80.5287 115.542 80.9044 115.875C81.5496 116.422 82.2557 116.892 83.0086 117.276C83.6446 117.615 84.1798 117.851 84.5468 118.013L84.9727 118.195C85.0208 118.219 85.0716 118.237 85.124 118.249C85.0803 118.217 85.0333 118.191 84.9839 118.17L84.5692 117.963C84.2078 117.786 83.6838 117.537 83.0562 117.189C82.3175 116.793 81.6242 116.318 80.9885 115.772C80.6217 115.437 80.2954 115.061 80.0163 114.651C79.7193 114.234 79.4391 113.777 79.1197 113.326C78.5095 112.487 77.798 111.727 77.0015 111.062C76.6571 110.768 76.295 110.496 75.9172 110.247C75.583 110.034 75.227 109.857 74.8553 109.72C74.3193 109.517 73.7466 109.428 73.1742 109.459C73.0197 109.468 72.866 109.488 72.7148 109.521C72.6585 109.54 72.6041 109.565 72.5522 109.594Z" fill="#455A64"/>
<path d="M85.2363 116.366C85.3038 116.425 85.3781 116.476 85.4577 116.517L86.0881 116.887L86.301 117.008C86.3861 117.059 86.4821 117.09 86.5812 117.097C86.6401 117.105 86.6997 117.091 86.7493 117.058C86.7764 117.04 86.7991 117.016 86.8156 116.988C86.8321 116.96 86.842 116.928 86.8446 116.895C86.8388 116.78 86.7977 116.67 86.7269 116.579L85.9928 115.408L85.8948 115.497C86.1362 115.677 86.4075 115.813 86.6961 115.898C86.9844 115.986 87.2862 116.021 87.587 116.002C87.6642 116.002 87.7408 115.989 87.814 115.965C87.8562 115.952 87.8953 115.931 87.9286 115.902C87.9619 115.873 87.9887 115.837 88.0073 115.797C88.0208 115.755 88.024 115.71 88.0167 115.666C88.0094 115.622 87.9918 115.581 87.9653 115.545C87.9227 115.488 87.8748 115.436 87.8224 115.388C87.4972 115.069 87.2147 114.709 86.9819 114.318C86.7759 113.949 86.5961 113.566 86.4439 113.172C86.4555 113.286 86.4818 113.398 86.5224 113.505C86.617 113.805 86.7428 114.095 86.8978 114.368C87.124 114.779 87.407 115.157 87.7383 115.489C87.8308 115.576 87.9233 115.677 87.8868 115.769C87.8504 115.862 87.7159 115.887 87.5842 115.89C87.0111 115.917 86.4457 115.748 85.9816 115.411L85.6846 115.192L85.8835 115.503L86.6316 116.666C86.6892 116.735 86.7253 116.82 86.7353 116.91C86.7353 116.98 86.6737 117.022 86.5924 117.016C86.4325 116.984 86.2804 116.921 86.1441 116.831L85.4941 116.495C85.4136 116.442 85.327 116.399 85.2363 116.366Z" fill="#455A64"/>
<g opacity="0.3">
<path opacity="0.3" d="M69.5433 152.899C70.241 150.579 71.5326 148.337 73.5863 147.051C75.2674 146.001 77.2987 145.676 79.2768 145.603C82.8575 145.474 86.427 146.096 89.8873 147.026C95.3256 148.486 100.657 150.772 104.852 154.529L105.866 155.263C102.546 156.224 98.9791 155.504 95.6646 154.515C92.35 153.526 89.0607 152.26 85.6033 152.125C83.5384 152.044 81.4006 152.366 79.4393 151.714C78.6436 151.447 77.8535 151.019 77.0186 151.114C76.0239 151.223 75.273 152.036 74.6202 152.795L68.3638 160.06C68.672 157.656 68.8485 155.219 69.5433 152.899Z" fill="black"/>
</g>
<path d="M102.136 139.289C102.136 139.289 109.163 147.232 109.701 150.045C110.239 152.858 109.701 154.077 107.255 154.996C104.809 155.915 88.6118 149.86 88.6118 149.86L91.3632 145.153L100.08 146.865L96.866 144.03L99.7854 141.407L102.136 139.289Z" fill="#FFBE9D"/>
<path d="M83.2411 135.976L84.0648 146.029C84.0781 146.193 84.0269 146.355 83.9222 146.481C83.8175 146.607 83.6675 146.687 83.5044 146.705L77.304 147.366C77.138 147.383 76.9719 147.334 76.8421 147.229C76.7124 147.124 76.6296 146.971 76.612 146.805L75.3988 136.304C75.3887 136.218 75.3966 136.13 75.4222 136.046C75.4477 135.963 75.4902 135.886 75.5471 135.82C75.604 135.754 75.674 135.7 75.7526 135.662C75.8312 135.625 75.9168 135.604 76.004 135.601L82.5966 135.391C82.7588 135.387 82.9162 135.445 83.0362 135.554C83.1562 135.664 83.2296 135.815 83.2411 135.976Z" fill="#263238"/>
<path d="M80.128 140.445C80.3214 140.462 84.5297 141.21 84.5297 141.21L89.5421 144.726L91.3745 145.152L90.2734 150.296L88.6231 149.868C87.7627 149.905 86.9007 149.886 86.0427 149.812C84.7594 149.691 80.6968 149.38 80.6968 149.38L78.6011 148.218C78.6011 148.218 77.9286 147.116 77.9286 146.817C77.9206 146.728 77.9373 146.64 77.9771 146.561C78.0169 146.482 78.078 146.415 78.1536 146.369C78.2291 146.323 78.3161 146.299 78.4046 146.3C78.4931 146.301 78.5796 146.326 78.6543 146.374C79.083 146.618 82.0165 146.679 82.7505 146.374C82.7505 146.374 78.4722 146.063 77.923 145.362C77.3739 144.662 77.556 144.11 78.2284 144.11C78.9008 144.11 81.344 144.477 82.0781 144.415C82.8122 144.354 83.7284 144.357 83.9133 143.99C84.0982 143.623 83.5463 143.317 83.5463 143.317L82.7505 142.706C82.7505 142.706 79.6321 142.146 79.45 141.482C79.4112 141.369 79.3987 141.249 79.4135 141.13C79.4283 141.011 79.47 140.898 79.5354 140.798C79.6008 140.698 79.6882 140.614 79.7909 140.553C79.8936 140.492 80.0089 140.455 80.128 140.445Z" fill="#FFBE9D"/>
<path d="M100.175 146.935C100.238 146.9 100.306 146.876 100.377 146.864C100.561 146.817 100.748 146.783 100.937 146.764C101.569 146.691 102.209 146.726 102.829 146.867C103.45 147.006 104.041 147.252 104.577 147.596C104.739 147.698 104.893 147.813 105.036 147.94C105.14 148.03 105.191 148.083 105.185 148.089C105.179 148.094 104.936 147.924 104.524 147.683C103.985 147.373 103.404 147.147 102.798 147.01C102.191 146.875 101.569 146.827 100.949 146.867C100.475 146.892 100.181 146.951 100.175 146.935Z" fill="#EB996E"/>
<path d="M78.6991 140.224C78.6991 140.224 75.124 140.804 74.8971 141.031C74.6701 141.258 70.1704 146.772 70.1704 146.772L72.4679 151.285L76.4941 149.106C76.9041 148.923 77.3324 148.784 77.7717 148.691C77.7717 148.691 81.8371 148.052 82.1005 147.57C82.3639 147.088 82.2126 146.968 81.91 146.892C81.6074 146.817 79.1782 147.094 78.6375 147.195C78.0999 147.247 77.5584 147.247 77.0208 147.195C77.0208 147.195 78.7019 146.8 79.0886 146.668C79.4752 146.536 83.2521 145.687 83.1904 145.012C83.1288 144.337 82.6581 144.088 80.2934 144.732C78.9937 145.104 77.6542 145.318 76.3036 145.371L81.5346 143.547C81.5346 143.547 83.6415 142.869 82.9635 142.266C82.2854 141.664 77.7717 142.908 77.7717 142.908L75.7768 143.659L76.3372 142.457C76.3372 142.457 79.1726 141.616 79.5369 141.336C79.988 140.986 80.0496 140.661 79.7106 140.37C79.3716 140.078 78.6991 140.224 78.6991 140.224Z" fill="#FFBE9D"/>
<path d="M62.2531 146.516L68.8233 147.076L68.7589 148.878L70.1598 146.759L72.4572 151.273C72.4572 151.273 71.6167 153.957 71.1768 155.439C69.9776 159.41 68.0276 163.845 65.6292 163.629C62.7518 163.349 60.6504 159.95 60.6981 157.745C60.7513 155.748 62.2531 146.516 62.2531 146.516Z" fill="#FFBE9D"/>
<path d="M70.1704 146.773C70.1704 146.773 70.2096 146.717 70.2937 146.611L70.6579 146.151L72.0784 144.391L74.3367 141.626L74.6757 141.22C74.7318 141.15 74.7906 141.08 74.855 141.01C74.9348 140.951 75.0252 140.908 75.1212 140.884C75.4798 140.777 75.8553 140.699 76.2419 140.617C77.0124 140.461 77.8306 140.315 78.6907 140.172C78.9085 140.122 79.1333 140.112 79.3548 140.141C79.4716 140.156 79.5842 140.196 79.6854 140.256C79.7881 140.322 79.8736 140.411 79.9347 140.517C79.9668 140.573 79.9866 140.635 79.9929 140.699C79.9992 140.763 79.9918 140.828 79.9711 140.889C79.9292 141.005 79.8622 141.11 79.775 141.197C79.6931 141.287 79.5987 141.364 79.4948 141.427C79.3856 141.483 79.2791 141.531 79.167 141.576C78.2845 141.92 77.3431 142.209 76.3652 142.509L76.4072 142.472L75.8469 143.677L75.7628 143.587L77.7577 142.834C78.6123 142.604 79.492 142.397 80.4026 142.228C80.8659 142.141 81.3336 142.079 81.8035 142.041C82.0431 142.02 82.284 142.02 82.5236 142.041C82.6508 142.05 82.7757 142.079 82.8934 142.128C82.9596 142.153 83.0192 142.194 83.0677 142.246C83.1162 142.297 83.1524 142.36 83.1736 142.427C83.1877 142.498 83.184 142.57 83.163 142.639C83.142 142.707 83.1042 142.769 83.0531 142.82C82.9702 142.912 82.8761 142.994 82.773 143.063C82.565 143.197 82.3456 143.311 82.1173 143.405C81.6634 143.599 81.1927 143.739 80.7164 143.907C79.7862 144.235 78.8392 144.562 77.8838 144.896L76.3456 145.434L76.3204 145.291C77.5687 145.237 78.8077 145.049 80.016 144.731C80.6046 144.563 81.2024 144.429 81.8063 144.33C82.1104 144.277 82.4213 144.277 82.7253 144.33C82.888 144.361 83.034 144.45 83.1372 144.579C83.2271 144.717 83.2749 144.877 83.2745 145.042C83.2667 145.131 83.2258 145.215 83.1596 145.277C83.1058 145.334 83.0457 145.385 82.9803 145.428C82.8561 145.51 82.7259 145.582 82.5908 145.644C82.3268 145.765 82.0565 145.873 81.7811 145.966C81.2404 146.154 80.6968 146.311 80.1617 146.454L79.366 146.667C79.1054 146.734 78.8448 146.826 78.5843 146.888C78.0659 147.02 77.5532 147.143 77.0517 147.261V147.134C77.6385 147.204 78.2319 147.197 78.8168 147.112C79.394 147.028 79.9599 146.966 80.4979 146.91C80.7781 146.885 81.0583 146.86 81.3188 146.843C81.4533 146.843 81.599 146.843 81.7251 146.843C81.795 146.836 81.8653 146.836 81.9352 146.843C82.0041 146.858 82.0709 146.882 82.1341 146.913C82.1711 146.93 82.2039 146.954 82.2305 146.984C82.2571 147.015 82.2768 147.051 82.2882 147.09C82.308 147.162 82.308 147.239 82.2882 147.311C82.27 147.375 82.2466 147.438 82.2182 147.499L82.1734 147.588C82.1553 147.622 82.1305 147.652 82.1005 147.675C81.8848 147.82 81.646 147.927 81.3945 147.992C80.5032 148.243 79.5987 148.445 78.6851 148.597L78.0659 148.701C77.8675 148.729 77.671 148.769 77.4775 148.821C77.1152 148.903 76.7649 149.031 76.4353 149.202L73.5242 150.76L72.7537 151.166L72.5548 151.267L72.4875 151.298L72.5492 151.259L72.7453 151.147L73.5046 150.724L76.3988 149.135C77.0348 148.782 77.8306 148.65 78.6683 148.507C79.5773 148.351 80.4771 148.145 81.3637 147.891C81.5994 147.829 81.8236 147.73 82.0277 147.597C82.0474 147.58 82.0644 147.56 82.0781 147.538L82.1201 147.454C82.1465 147.399 82.1681 147.342 82.1846 147.283C82.2182 147.162 82.1986 147.059 82.0921 147.003C82.0363 146.977 81.9781 146.956 81.9184 146.941C81.8568 146.937 81.7951 146.937 81.7335 146.941C81.6018 146.941 81.4673 146.941 81.3356 146.958C81.0555 146.975 80.7949 147 80.5175 147.028C79.9571 147.084 79.3968 147.148 78.8364 147.233C78.2426 147.322 77.6395 147.331 77.0433 147.261C77.0269 147.261 77.0112 147.254 76.9997 147.242C76.9881 147.231 76.9816 147.215 76.9816 147.199C76.9816 147.183 76.9881 147.167 76.9997 147.155C77.0112 147.144 77.0269 147.137 77.0433 147.137C77.5448 147.017 78.0575 146.896 78.573 146.762C78.8364 146.7 79.0858 146.611 79.352 146.538L80.1477 146.325C80.6828 146.179 81.2236 146.025 81.7587 145.837C82.0294 145.745 82.295 145.638 82.5544 145.518C82.6833 145.46 82.807 145.392 82.9243 145.313C83.0307 145.238 83.1568 145.134 83.1568 145.033C83.1568 144.901 83.1179 144.771 83.0447 144.66C82.9623 144.557 82.8446 144.487 82.7141 144.464C82.4277 144.414 82.1348 144.414 81.8484 144.464C81.2502 144.565 80.6582 144.699 80.0748 144.865C78.8546 145.186 77.6034 145.373 76.3428 145.425C76.3333 145.426 76.3237 145.425 76.3147 145.422C76.3056 145.419 76.2974 145.413 76.2905 145.407C76.2836 145.4 76.2782 145.392 76.2747 145.383C76.2711 145.374 76.2695 145.365 76.27 145.355C76.2696 145.34 76.274 145.325 76.2825 145.313C76.2911 145.3 76.3033 145.291 76.3176 145.285L77.8558 144.747L80.6912 143.758C81.1535 143.59 81.627 143.447 82.0697 143.262C82.2891 143.171 82.5 143.06 82.7001 142.932C82.7975 142.871 82.8861 142.798 82.9635 142.713C82.9989 142.681 83.0258 142.64 83.0419 142.594C83.058 142.549 83.0628 142.5 83.0559 142.453C82.9971 142.262 82.7618 142.189 82.5348 142.172C82.3036 142.153 82.0712 142.153 81.84 142.172C81.3774 142.209 80.9172 142.27 80.4615 142.357C79.5565 142.523 78.6767 142.727 77.8278 142.954L75.8329 143.705C75.8165 143.712 75.7982 143.711 75.782 143.705C75.7658 143.698 75.7528 143.685 75.746 143.669C75.7404 143.651 75.7404 143.633 75.746 143.615C75.9421 143.198 76.1383 142.775 76.3064 142.413C76.3141 142.397 76.3282 142.383 76.3456 142.377C77.3178 142.097 78.2648 141.797 79.1474 141.458C79.2545 141.416 79.3592 141.368 79.4612 141.315C79.5554 141.259 79.6412 141.19 79.7162 141.111C79.7981 141.05 79.857 140.963 79.8834 140.864C79.9099 140.765 79.9023 140.661 79.8619 140.567C79.8099 140.479 79.738 140.404 79.6519 140.348C79.5657 140.293 79.4678 140.258 79.366 140.248C79.1595 140.22 78.9499 140.23 78.7468 140.276C77.8894 140.416 77.0657 140.556 76.3008 140.71C75.9169 140.788 75.5415 140.867 75.1801 140.968C75.0984 140.99 75.0208 141.025 74.9503 141.071L74.7766 141.273L74.4348 141.677L72.1569 144.425L70.714 146.165L70.3357 146.616C70.218 146.723 70.1704 146.773 70.1704 146.773Z" fill="#EB996E"/>
<path d="M58.7564 176.562L47.4819 181.258L51.9144 186.397L61.5498 184.514L58.7564 176.562Z" fill="#FFBE9D"/>
<path d="M88.8812 166.703C88.8812 166.703 89.4415 179.662 88.3208 181.942C87.2001 184.223 75.6903 184.551 75.6903 184.551L57.5765 185.854L55.2847 177.418C55.2847 177.418 68.3439 171.018 69.5739 170.284C70.8039 169.55 73.729 168.253 73.729 168.253L78.0438 162.453L88.8812 166.703Z" fill="#263238"/>
<path d="M67.8735 184.866C67.9183 184.843 67.9652 184.826 68.0136 184.813L68.4283 184.681L69.9693 184.221L75.1554 182.728H75.1751C75.4676 182.721 75.7595 182.697 76.0492 182.655C76.3323 182.617 76.6129 182.563 76.8898 182.493C77.17 182.409 77.4305 182.341 77.6827 182.235C78.172 182.049 78.6414 181.815 79.0836 181.535C79.8395 181.059 80.5132 180.464 81.0785 179.772C81.457 179.303 81.7813 178.793 82.0451 178.251C82.1404 178.06 82.1964 177.903 82.2468 177.803C82.2665 177.749 82.2919 177.697 82.3225 177.648C82.3132 177.705 82.2972 177.761 82.2749 177.814C82.2328 177.917 82.1852 178.094 82.0983 178.276C81.8508 178.833 81.5355 179.357 81.1597 179.837C80.5974 180.548 79.9203 181.161 79.1564 181.649C78.7047 181.937 78.225 182.178 77.7247 182.37C77.4697 182.479 77.1924 182.549 76.9178 182.636C76.6351 182.706 76.3489 182.761 76.0604 182.801C75.7651 182.843 75.4676 182.867 75.1695 182.874H75.1863L69.9889 184.322L68.4367 184.737L68.0136 184.844C67.968 184.857 67.921 184.864 67.8735 184.866Z" fill="#455A64"/>
<path d="M69.179 170.665L67.8733 152.403C67.8733 152.403 68.7139 138.834 61.0565 139.559C53.3992 140.285 53.9287 152.271 53.9287 152.271C53.9287 152.271 54.391 168.687 54.8561 171.071C55.3212 173.456 55.5061 176.095 57.0359 177.09L63.99 176.232L69.179 170.665Z" fill="#263238"/>
<path d="M65.3063 143.138L66.9874 147.657L65.3063 164.653C65.3063 164.653 55.4467 165.183 55.5476 164.916C55.6485 164.65 54.057 156.379 54.057 156.379C54.057 156.379 53.7965 145.452 56.7748 143.469C59.7531 141.485 65.3063 143.138 65.3063 143.138Z" fill="#263238"/>
<path d="M64.9252 164.672L64.5357 172.797L57.4107 176.353L56.0435 164.986L64.9252 164.672Z" fill="#FFBE9D"/>
<path d="M78.0377 162.452L69.8228 159.734L65.6396 163.643L68.2986 171.608L74.8324 169.014L78.0377 162.452Z" fill="#263238"/>
<path d="M55.2734 177.42C55.3016 177.399 55.3316 177.381 55.3631 177.366L55.6433 177.224L56.694 176.683L60.5661 174.722L66.3154 171.833L69.714 170.132L71.5127 169.236L72.4317 168.776L72.8968 168.544C73.0509 168.46 73.2111 168.388 73.3759 168.328C74.0275 168.075 74.7131 167.921 75.41 167.871C76.0843 167.816 76.7628 167.844 77.4301 167.955C78.6915 168.167 79.9016 168.614 80.9968 169.275C81.9862 169.87 82.879 170.613 83.6446 171.477C84.3088 172.229 84.8981 173.043 85.4041 173.909C86.1302 175.165 86.7335 176.488 87.2057 177.86C87.3766 178.341 87.4858 178.72 87.5755 178.98C87.6119 179.104 87.6399 179.202 87.6623 179.274L87.6876 179.375C87.6704 179.344 87.6572 179.312 87.6483 179.277L87.5475 178.997C87.4606 178.742 87.3317 178.367 87.1524 177.876C86.6629 176.515 86.0486 175.202 85.3172 173.954C84.8074 173.098 84.2173 172.293 83.5549 171.55C82.7944 170.699 81.9092 169.967 80.9296 169.381C79.8466 168.734 78.6521 168.295 77.4077 168.087C76.7513 167.979 76.0841 167.953 75.4212 168.008C74.7393 168.056 74.0686 168.208 73.432 168.457C73.2688 168.514 73.1104 168.584 72.9585 168.667L72.4934 168.899L71.5744 169.359L69.7756 170.253L66.3742 171.948L60.6109 174.806L56.7164 176.722L55.6573 177.235L55.3771 177.366L55.2734 177.42Z" fill="#455A64"/>
<path d="M71.2071 168.672C71.2025 168.259 71.165 167.848 71.095 167.442C70.8658 166.472 70.4877 165.544 69.9743 164.69C69.4474 163.833 68.9974 162.931 68.6294 161.995C68.5261 161.706 68.4474 161.409 68.394 161.107C68.3694 160.998 68.359 160.885 68.3632 160.773C68.3912 160.773 68.4473 161.244 68.7246 161.959C69.1199 162.877 69.5796 163.767 70.1003 164.62C70.6321 165.483 71.0112 166.431 71.2211 167.422C71.2737 167.725 71.2916 168.034 71.2743 168.341C71.2677 168.454 71.245 168.565 71.2071 168.672Z" fill="#455A64"/>
<path d="M54.0571 156.374C54.0697 156.401 54.0782 156.431 54.0823 156.461L54.1384 156.724C54.1888 156.965 54.2589 157.307 54.3457 157.738C54.5222 158.621 54.7716 159.899 55.063 161.479C55.2087 162.269 55.3684 163.135 55.5169 164.07C55.5533 164.306 55.5897 164.541 55.6121 164.79C55.615 164.825 55.615 164.86 55.6121 164.894V164.928C55.6121 164.945 55.6121 164.928 55.6121 164.9V164.88C55.6121 164.88 55.6121 164.88 55.6289 164.88C55.6863 164.891 55.7444 164.899 55.8027 164.903C55.9231 164.903 56.0464 164.903 56.1725 164.903C56.674 164.903 57.1924 164.903 57.7219 164.886C59.8457 164.827 62.1796 164.718 64.6284 164.606L65.3148 164.569L65.2476 164.634C65.7239 159.91 66.1553 155.668 66.4663 152.586C66.626 151.062 66.7465 149.826 66.8474 148.963C66.895 148.543 66.9342 148.215 66.9595 147.982L66.9931 147.727C66.9888 147.699 66.9888 147.669 66.9931 147.641C66.9967 147.669 66.9967 147.699 66.9931 147.727C66.9931 147.795 66.9931 147.879 66.9735 147.985C66.9539 148.218 66.9258 148.546 66.8894 148.969C66.8082 149.834 66.6933 151.07 66.5532 152.597C66.2534 155.679 65.8387 159.918 65.3764 164.645V164.709H65.3148L64.6284 164.746C62.1768 164.869 59.8429 164.975 57.7163 165.026C57.1867 165.026 56.6684 165.045 56.1613 165.026L55.783 165.009C55.7182 165.004 55.6536 164.996 55.5897 164.984C55.5673 164.984 55.5589 164.984 55.5225 164.953C55.4861 164.922 55.5225 164.953 55.4973 164.919C55.4947 164.906 55.4947 164.893 55.4973 164.88C55.4973 164.863 55.5421 164.88 55.4973 164.88V164.866C55.4973 164.866 55.4973 164.813 55.4973 164.79C55.4804 164.552 55.4412 164.311 55.4076 164.079C55.2647 163.146 55.1106 162.28 54.9733 161.487C54.6931 159.913 54.4634 158.635 54.3009 157.741C54.2252 157.307 54.1636 156.965 54.1216 156.721C54.1048 156.612 54.0908 156.522 54.0795 156.441C54.0695 156.42 54.062 156.397 54.0571 156.374Z" fill="#455A64"/>
<path d="M63.5864 141.797C63.6664 141.852 63.7381 141.918 63.7994 141.993C63.985 142.179 64.1599 142.376 64.3233 142.581C64.8733 143.257 65.3434 143.994 65.7242 144.778C66.0967 145.563 66.3787 146.387 66.5647 147.235C66.6225 147.492 66.6674 147.752 66.6992 148.014C66.7171 148.106 66.7227 148.201 66.716 148.294C66.6908 148.294 66.6264 147.891 66.4639 147.252C66.038 145.582 65.2836 144.013 64.2449 142.637C63.8442 142.116 63.5668 141.814 63.5864 141.797Z" fill="#455A64"/>
<path d="M71.5889 168.285C71.5906 168.19 71.6047 168.096 71.6309 168.005C71.6673 167.831 71.729 167.582 71.8186 167.279C72.2857 165.691 73.0118 164.19 73.9676 162.838C74.1525 162.58 74.3094 162.376 74.4215 162.241C74.5336 162.107 74.6036 162.031 74.612 162.04C74.6204 162.048 74.3991 162.368 74.0517 162.894C73.6016 163.58 73.1963 164.294 72.8385 165.032C72.4831 165.771 72.1743 166.532 71.9139 167.31C71.7149 167.912 71.6113 168.291 71.5889 168.285Z" fill="#455A64"/>
<path d="M83.9053 167.039C83.9277 167.039 84.0314 167.319 84.2471 167.768C84.8117 168.929 85.6339 169.947 86.6511 170.743C87.0405 171.048 87.3039 171.211 87.2899 171.233C87.2193 171.213 87.1523 171.181 87.0909 171.141C86.9174 171.046 86.7499 170.94 86.5894 170.824C85.5158 170.059 84.6734 169.013 84.1546 167.801C84.0757 167.618 84.0074 167.431 83.9501 167.241C83.9257 167.176 83.9106 167.108 83.9053 167.039Z" fill="#455A64"/>
<path d="M47.7618 186.605C43.5227 186.479 42.4552 186.636 38.2188 186.51C37.1822 186.476 33.4221 186.686 32.5452 186.137C31.7466 185.633 30.7268 185.171 30.5026 184.254C30.1216 182.711 30.5026 180.946 31.9204 179.945C32.4099 179.605 32.9795 179.397 33.5734 179.343C36.0698 179.091 38.3953 180.867 40.8833 180.273C41.5558 180.113 42.1554 179.713 42.825 179.547C43.8217 179.334 44.8619 179.479 45.7613 179.959C46.6691 180.405 46.882 180.478 46.882 180.478L51.2977 178.875L52.8499 186.628L47.7618 186.605Z" fill="#455A64"/>
<path d="M51.3368 177.034L49.0113 177.85C48.84 177.91 48.6971 178.031 48.6101 178.191C48.5232 178.35 48.4984 178.536 48.5406 178.713L50.527 187.023C50.5686 187.2 50.6744 187.355 50.824 187.459C50.9736 187.562 51.1563 187.607 51.3368 187.583L53.7183 187.278C53.8198 187.264 53.9174 187.23 54.0048 187.177C54.0922 187.123 54.1675 187.052 54.2258 186.968C54.2842 186.884 54.3242 186.788 54.3434 186.688C54.3627 186.587 54.3606 186.484 54.3375 186.384L52.3034 177.578C52.2818 177.475 52.2386 177.378 52.1765 177.293C52.1144 177.209 52.0349 177.138 51.9434 177.087C51.8518 177.035 51.7504 177.004 51.6457 176.995C51.5411 176.986 51.4358 176.999 51.3368 177.034Z" fill="#455A64"/>
<path d="M50.5861 187.346C50.3981 186.945 50.2444 186.529 50.1266 186.102C49.8717 185.326 49.5467 184.242 49.2553 183.02C48.9639 181.799 48.7594 180.692 48.6473 179.879C48.5884 179.476 48.552 179.145 48.5324 178.918C48.5152 178.8 48.5152 178.68 48.5324 178.562C48.6535 178.988 48.7471 179.42 48.8126 179.857C48.9611 180.658 49.1824 181.762 49.4738 182.973C49.7652 184.183 50.0678 185.267 50.2863 186.055C50.4149 186.478 50.515 186.909 50.5861 187.346Z" fill="#263238"/>
<path d="M48.9557 179.772C48.9164 179.741 49.6169 179.13 50.7096 178.931C51.8023 178.732 52.6709 179.057 52.6428 179.099C52.6148 179.141 51.7799 178.937 50.746 179.13C49.7122 179.323 48.9921 179.825 48.9557 179.772Z" fill="#263238"/>
<path d="M49.3025 182.912C49.2857 182.858 50.143 182.531 51.2638 182.25C52.3845 181.97 53.2867 181.841 53.2979 181.895C53.3091 181.948 52.4125 182.175 51.3114 182.455C50.2103 182.735 49.3193 182.965 49.3025 182.912Z" fill="#263238"/>
<path d="M50.4375 186.155C50.4375 186.093 51.3509 186.18 52.3427 185.732C53.3346 185.284 53.8921 184.569 53.9398 184.611C53.9874 184.653 53.8501 184.827 53.5979 185.096C52.9232 185.798 51.9991 186.205 51.0259 186.231C50.8265 186.253 50.6247 186.227 50.4375 186.155Z" fill="#263238"/>
<path d="M64.9229 170.211L64.5334 172.8L57.4113 176.353L56.5259 170.956L64.9229 170.211Z" fill="#455A64"/>
<path d="M55.4304 168.854L55.8759 171.32C55.9093 171.502 56.009 171.666 56.156 171.779C56.3029 171.893 56.4866 171.948 56.6716 171.933L65.3572 171.261C65.5419 171.246 65.7146 171.164 65.842 171.029C65.9693 170.895 66.0421 170.718 66.0464 170.533L66.1081 168.095C66.1111 167.991 66.0922 167.887 66.0527 167.791C66.0132 167.694 65.9539 167.607 65.8786 167.535C65.8034 167.463 65.7139 167.408 65.6159 167.372C65.5178 167.337 65.4135 167.323 65.3096 167.33L56.1252 167.974C56.0192 167.98 55.9156 168.008 55.8213 168.057C55.727 168.105 55.6442 168.174 55.5784 168.257C55.5126 168.34 55.4654 168.437 55.4398 168.54C55.4143 168.643 55.4111 168.75 55.4304 168.854Z" fill="#455A64"/>
<path d="M65.6822 171.25C65.2491 171.373 64.8069 171.461 64.3597 171.513C63.536 171.645 62.3985 171.794 61.1265 171.9C59.8544 172.006 58.7057 172.026 57.8736 172.012C57.4561 172.012 57.1199 171.99 56.8873 171.973C56.7652 171.975 56.6434 171.959 56.5259 171.925C56.9726 171.879 57.4217 171.859 57.8707 171.866C58.7113 171.844 59.8488 171.796 61.1124 171.695C62.3761 171.595 63.5136 171.466 64.3401 171.37C64.7839 171.297 65.2325 171.257 65.6822 171.25Z" fill="#263238"/>
<path d="M57.798 171.677C57.7615 171.711 57.26 170.909 57.2376 169.78C57.2152 168.651 57.6747 167.819 57.7139 167.861C57.7531 167.903 57.4113 168.701 57.4337 169.775C57.4562 170.848 57.8596 171.652 57.798 171.677Z" fill="#263238"/>
<path d="M61.0167 171.839C60.9607 171.839 60.7674 170.925 60.6609 169.765C60.5544 168.605 60.574 167.664 60.6301 167.664C60.6861 167.664 60.759 168.597 60.8654 169.749C60.9719 170.9 61.0728 171.83 61.0167 171.839Z" fill="#263238"/>
<path d="M64.4602 171.212C64.3958 171.212 64.6311 170.298 64.3369 169.228C64.0427 168.158 63.4123 167.483 63.4656 167.443C63.5188 167.404 63.6673 167.567 63.8971 167.864C64.4958 168.654 64.7585 169.649 64.6283 170.632C64.6191 170.836 64.5615 171.034 64.4602 171.212Z" fill="#263238"/>
<ellipse cx="106.273" cy="41.3686" rx="5.45454" ry="5.45455" fill="#AFF57A"/>
<ellipse cx="106.273" cy="41.3686" rx="5.45454" ry="5.45455" fill="url(#paint12_linear_16745_51588)"/>
<g clip-path="url(#clip0_16745_51588)">
<path d="M106.273 38.7148V44.0179" stroke="#FBFBFC" stroke-width="2.5" stroke-linecap="round" stroke-linejoin="round"/>
<path d="M103.622 41.3672H108.925" stroke="#FBFBFC" stroke-width="2.5" stroke-linecap="round" stroke-linejoin="round"/>
</g>
<defs>
<radialGradient id="paint0_radial_16745_51588" cx="0" cy="0" r="1" gradientUnits="userSpaceOnUse" gradientTransform="translate(65.4435 170.273) scale(112.437 291.3)">
<stop stop-color="#F9ED41"/>
<stop offset="0.24" stop-color="#FF833D"/>
<stop offset="0.4" stop-color="#EE5568"/>
<stop offset="0.49" stop-color="#E7407B"/>
<stop offset="1" stop-color="#0028FF"/>
</radialGradient>
<linearGradient id="paint1_linear_16745_51588" x1="115.969" y1="10.0228" x2="96.5236" y2="56.0436" gradientUnits="userSpaceOnUse">
<stop stop-color="#1270E3" stop-opacity="0"/>
<stop offset="1" stop-color="#1270E3"/>
</linearGradient>
<radialGradient id="paint2_radial_16745_51588" cx="0" cy="0" r="1" gradientUnits="userSpaceOnUse" gradientTransform="translate(139.207 80.2515) rotate(-76.85) scale(84.8627)">
<stop stop-color="#F9ED41"/>
<stop offset="0.24" stop-color="#FF833D"/>
<stop offset="0.4" stop-color="#EE5568"/>
<stop offset="0.49" stop-color="#E7407B"/>
<stop offset="1" stop-color="#0028FF"/>
</radialGradient>
<linearGradient id="paint3_linear_16745_51588" x1="65.8491" y1="82.8959" x2="42.7152" y2="87.9333" gradientUnits="userSpaceOnUse">
<stop stop-color="#1270E3" stop-opacity="0"/>
<stop offset="1" stop-color="#1270E3"/>
</linearGradient>
<linearGradient id="paint4_linear_16745_51588" x1="128.51" y1="84.1908" x2="116.833" y2="82.1537" gradientUnits="userSpaceOnUse">
<stop stop-color="#1270E3" stop-opacity="0"/>
<stop offset="1" stop-color="#1270E3"/>
</linearGradient>
<linearGradient id="paint5_linear_16745_51588" x1="75.1193" y1="62.808" x2="36.047" y2="55.3911" gradientUnits="userSpaceOnUse">
<stop stop-color="#1270E3" stop-opacity="0"/>
<stop offset="1" stop-color="#1270E3"/>
</linearGradient>
<radialGradient id="paint6_radial_16745_51588" cx="0" cy="0" r="1" gradientUnits="userSpaceOnUse" gradientTransform="translate(41.6879 62.2371) scale(68.8563 62.804)">
<stop stop-color="#F9ED41"/>
<stop offset="0.24" stop-color="#FF833D"/>
<stop offset="0.4" stop-color="#EE5568"/>
<stop offset="0.49" stop-color="#E7407B"/>
<stop offset="1" stop-color="#0028FF"/>
</radialGradient>
<radialGradient id="paint7_radial_16745_51588" cx="0" cy="0" r="1" gradientUnits="userSpaceOnUse" gradientTransform="translate(49.9866 29.2898) scale(40.2499)">
<stop stop-color="#F9ED41"/>
<stop offset="0.24" stop-color="#FF833D"/>
<stop offset="0.4" stop-color="#EE5568"/>
<stop offset="0.49" stop-color="#E7407B"/>
<stop offset="1" stop-color="#0028FF"/>
</radialGradient>
<linearGradient id="paint8_linear_16745_51588" x1="117.872" y1="78.5846" x2="113.194" y2="89.476" gradientUnits="userSpaceOnUse">
<stop stop-color="#1270E3" stop-opacity="0"/>
<stop offset="1" stop-color="#1270E3"/>
</linearGradient>
<linearGradient id="paint9_linear_16745_51588" x1="102.683" y1="144.751" x2="88.2869" y2="142.671" gradientUnits="userSpaceOnUse">
<stop stop-color="#1270E3" stop-opacity="0"/>
<stop offset="1" stop-color="#1270E3"/>
</linearGradient>
<linearGradient id="paint10_linear_16745_51588" x1="94.5185" y1="166.267" x2="62.2792" y2="161.989" gradientUnits="userSpaceOnUse">
<stop stop-color="#1270E3" stop-opacity="0"/>
<stop offset="1" stop-color="#1270E3"/>
</linearGradient>
<linearGradient id="paint11_linear_16745_51588" x1="69.7506" y1="147.18" x2="59.6887" y2="145.956" gradientUnits="userSpaceOnUse">
<stop stop-color="#1270E3" stop-opacity="0"/>
<stop offset="1" stop-color="#1270E3"/>
</linearGradient>
<linearGradient id="paint12_linear_16745_51588" x1="111.727" y1="46.8232" x2="99.2937" y2="44.6541" gradientUnits="userSpaceOnUse">
<stop stop-color="#54D169" stop-opacity="0"/>
<stop offset="1" stop-color="#54D169"/>
</linearGradient>
<clipPath id="clip0_16745_51588">
<rect width="9.09093" height="9.09092" fill="white" transform="translate(101.728 36.8203)"/>
</clipPath>
</defs>
</svg>
